<svg width="500" height="500" viewBox="0 0 500 500" fill="none" xmlns="http://www.w3.org/2000/svg">
<path d="M374.804 205.275C378.588 212.706 381.569 220.392 389.922 220.392C393.931 220.392 397.776 218.799 400.611 215.964C403.446 213.129 405.039 209.284 405.039 205.275C405.039 201.265 403.446 197.42 400.611 194.585C397.776 191.75 393.931 190.157 389.922 190.157C381.431 190.039 367.745 191.412 374.804 205.275Z" fill="#2F2E41"/>
<path d="M386.686 387.118L380.216 388.569L371.588 364.314L381.137 362.196L386.686 387.118Z" fill="#A0616A"/>
<path d="M389.725 393.02L368.882 397.667V397.392C368.645 396.326 368.62 395.224 368.809 394.148C368.998 393.073 369.397 392.045 369.984 391.123C370.57 390.202 371.332 389.405 372.226 388.778C373.121 388.152 374.13 387.707 375.196 387.471V387.471L387.922 384.647L389.725 393.02Z" fill="#2F2E41"/>
<path d="M405.882 395.784H399.255L396.118 370.255H405.882V395.784Z" fill="#A0616A"/>
<path d="M407.569 402.196H386.275V401.961C386.275 400.869 386.49 399.788 386.907 398.779C387.325 397.771 387.938 396.854 388.71 396.082C389.482 395.31 390.398 394.698 391.407 394.28C392.415 393.862 393.496 393.647 394.588 393.647H407.627L407.569 402.196Z" fill="#2F2E41"/>
<path d="M405.882 382.353H397.431C396.843 382.345 396.277 382.127 395.835 381.739C395.393 381.351 395.104 380.818 395.02 380.235L387.373 321C387.343 320.785 387.23 320.589 387.057 320.457C386.885 320.325 386.667 320.266 386.451 320.294C386.294 320.316 386.148 320.383 386.029 320.488C385.91 320.592 385.825 320.73 385.784 320.882L381.235 337.804L385.373 376.471C385.437 377.063 385.283 377.658 384.94 378.145C384.598 378.633 384.089 378.978 383.51 379.118L376.804 380.647C376.21 380.784 375.585 380.693 375.055 380.392C374.525 380.09 374.127 379.601 373.941 379.02L363.137 341.549C362.274 338.807 361.981 335.918 362.275 333.059L365.647 299.275H365.902L411 301.451L408.373 380.098C408.327 380.722 408.043 381.305 407.58 381.725C407.116 382.145 406.508 382.37 405.882 382.353Z" fill="#2F2E41"/>
<path d="M389.176 220.667C396.497 220.667 402.431 214.732 402.431 207.412C402.431 200.091 396.497 194.157 389.176 194.157C381.856 194.157 375.922 200.091 375.922 207.412C375.922 214.732 381.856 220.667 389.176 220.667Z" fill="#A0616A"/>
<path d="M409.98 305.039H409.804L364.843 302.627C364.203 302.587 363.605 302.297 363.176 301.821C362.747 301.344 362.522 300.719 362.549 300.078C362.567 299.866 362.607 299.656 362.667 299.451L366.235 288.412C370.065 276.568 370.741 263.93 368.196 251.745C367.52 248.561 367.533 245.269 368.233 242.091C368.933 238.912 370.304 235.919 372.255 233.314C374.175 230.741 376.621 228.608 379.431 227.056C382.241 225.504 385.349 224.569 388.549 224.314V224.314H389.216C395.245 223.96 401.168 226.015 405.683 230.026C410.198 234.037 412.935 239.677 413.294 245.706C413.379 247.284 413.307 248.867 413.078 250.431L409.941 271.471L412.431 302.451C412.486 303.093 412.283 303.731 411.867 304.223C411.452 304.716 410.858 305.024 410.216 305.078L409.98 305.039Z" fill="#CCCCCC"/>
<path d="M354.667 307.843C355.331 307.404 355.889 306.823 356.301 306.142C356.713 305.461 356.969 304.698 357.049 303.906C357.13 303.114 357.034 302.314 356.767 301.564C356.501 300.814 356.072 300.132 355.51 299.569L364.157 282.314L354.196 283.49L347.51 299.686C346.63 300.684 346.145 301.968 346.143 303.297C346.142 304.627 346.624 305.912 347.502 306.912C348.379 307.911 349.59 308.557 350.908 308.729C352.227 308.9 353.563 308.585 354.667 307.843V307.843Z" fill="#A0616A"/>
<path d="M414.078 310.647C413.563 310.155 413.151 309.565 412.864 308.913C412.577 308.261 412.422 307.559 412.408 306.846C412.393 306.134 412.519 305.426 412.779 304.762C413.039 304.099 413.427 303.493 413.922 302.98C414.133 302.746 414.37 302.535 414.627 302.353L408.98 283.902L418.608 286.725L422.529 303.804C423.268 304.932 423.562 306.294 423.355 307.626C423.148 308.958 422.454 310.167 421.408 311.017C420.362 311.868 419.038 312.301 417.692 312.233C416.345 312.165 415.072 311.6 414.118 310.647H414.078Z" fill="#A0616A"/>
<path d="M413.157 300.98C412.567 300.99 411.994 300.781 411.549 300.393C411.104 300.006 410.818 299.468 410.745 298.882L406.235 264.941L399.078 238.431C398.812 237.461 398.74 236.447 398.867 235.448C398.994 234.449 399.317 233.485 399.818 232.612C400.32 231.739 400.989 230.974 401.787 230.361C402.586 229.747 403.498 229.298 404.471 229.039C405.058 228.876 405.665 228.791 406.274 228.784C408.131 228.719 409.949 229.329 411.391 230.5C412.832 231.672 413.801 233.326 414.118 235.157L424.804 297.765C424.912 298.396 424.767 299.045 424.4 299.57C424.033 300.095 423.473 300.454 422.843 300.569H422.529L413.373 300.941L413.157 300.98Z" fill="#CCCCCC"/>
<path d="M359.471 297.176H358.961L350 295.216C349.681 295.157 349.377 295.035 349.106 294.858C348.834 294.681 348.6 294.452 348.418 294.184C348.235 293.916 348.108 293.614 348.043 293.297C347.978 292.979 347.977 292.651 348.039 292.333C348.063 292.233 348.096 292.134 348.137 292.039L369.137 232.078C369.755 230.35 370.969 228.898 372.561 227.985C374.154 227.072 376.02 226.758 377.824 227.098C378.812 227.288 379.753 227.672 380.593 228.226C381.432 228.781 382.154 229.496 382.717 230.33C383.28 231.165 383.673 232.102 383.873 233.088C384.073 234.075 384.076 235.091 383.882 236.078C383.764 236.681 383.573 237.267 383.314 237.824L371.882 262.745L361.784 295.412C361.646 295.919 361.345 296.367 360.927 296.686C360.508 297.005 359.997 297.178 359.471 297.176Z" fill="#CCCCCC"/>
<path d="M375.098 200C378.131 202.089 381.729 203.204 385.412 203.196C384.091 204.099 382.594 204.714 381.02 205C385.921 206.02 390.981 206.02 395.882 205C396.975 204.819 398.029 204.455 399 203.922C399.491 203.657 399.919 203.292 400.257 202.849C400.595 202.406 400.835 201.896 400.961 201.353C400.975 200.407 400.737 199.475 400.272 198.651C399.807 197.828 399.131 197.143 398.314 196.667C396.009 194.943 393.348 193.756 390.525 193.193C387.703 192.63 384.79 192.704 382 193.412C380.137 193.783 378.441 194.737 377.157 196.137C376.539 196.853 376.168 197.748 376.097 198.69C376.027 199.633 376.261 200.573 376.765 201.373L375.098 200Z" fill="#2F2E41"/>
<path d="M305.882 102.294H77.9804C76.7321 102.304 75.5382 102.806 74.6573 103.691C73.7765 104.575 73.2797 105.771 73.2745 107.02V329.137C73.2745 330.385 73.7703 331.582 74.6529 332.465C75.5354 333.347 76.7323 333.843 77.9804 333.843H98.0392V332.51H77.9804C77.0894 332.505 76.2366 332.147 75.6083 331.515C74.9801 330.883 74.6275 330.028 74.6275 329.137V107.02C74.6275 106.129 74.9801 105.274 75.6083 104.642C76.2366 104.01 77.0894 103.652 77.9804 103.647H305.882C306.777 103.647 307.635 104.002 308.267 104.635C308.9 105.267 309.255 106.125 309.255 107.02V329.137C309.257 329.792 309.066 330.433 308.706 330.98C308.381 331.463 307.943 331.86 307.431 332.137C306.95 332.378 306.42 332.505 305.882 332.51H285.902V333.843H305.882C306.564 333.845 307.238 333.699 307.858 333.414C308.477 333.13 309.028 332.714 309.471 332.196V332.078C309.749 331.728 309.973 331.338 310.137 330.922C310.39 330.361 310.517 329.752 310.51 329.137V107.02C310.505 105.785 310.019 104.6 309.155 103.718C308.291 102.835 307.117 102.325 305.882 102.294Z" fill="#3F3D56"/>
<path d="M309.922 121.176H73.9412V122.529H309.922V121.176Z" fill="#3F3D56"/>
<path d="M85.3922 116.431C87.623 116.431 89.4314 114.623 89.4314 112.392C89.4314 110.161 87.623 108.353 85.3922 108.353C83.1614 108.353 81.353 110.161 81.353 112.392C81.353 114.623 83.1614 116.431 85.3922 116.431Z" fill="#3F3D56"/>
<path d="M97 116.431C99.2308 116.431 101.039 114.623 101.039 112.392C101.039 110.161 99.2308 108.353 97 108.353C94.7692 108.353 92.9608 110.161 92.9608 112.392C92.9608 114.623 94.7692 116.431 97 116.431Z" fill="#3F3D56"/>
<path d="M108.608 116.431C110.839 116.431 112.647 114.623 112.647 112.392C112.647 110.161 110.839 108.353 108.608 108.353C106.377 108.353 104.569 110.161 104.569 112.392C104.569 114.623 106.377 116.431 108.608 116.431Z" fill="#3F3D56"/>
<path d="M249.02 152.333H134.961C133.099 152.333 131.314 151.594 129.997 150.277C128.681 148.961 127.941 147.175 127.941 145.314C127.941 143.452 128.681 141.667 129.997 140.35C131.314 139.034 133.099 138.294 134.961 138.294H249.02C250.881 138.294 252.667 139.034 253.983 140.35C255.3 141.667 256.039 143.452 256.039 145.314C256.039 147.175 255.3 148.961 253.983 150.277C252.667 151.594 250.881 152.333 249.02 152.333ZM134.961 139.373C133.385 139.373 131.874 139.999 130.76 141.113C129.646 142.227 129.02 143.738 129.02 145.314C129.02 146.889 129.646 148.401 130.76 149.515C131.874 150.629 133.385 151.255 134.961 151.255H249.02C250.595 151.255 252.106 150.629 253.221 149.515C254.335 148.401 254.961 146.889 254.961 145.314C254.961 143.738 254.335 142.227 253.221 141.113C252.106 139.999 250.595 139.373 249.02 139.373H134.961Z" fill="#3F3D56"/>
<path d="M277.804 250.412H106.078C104.867 250.412 103.668 250.173 102.55 249.708C101.432 249.243 100.416 248.563 99.5619 247.704C98.7075 246.846 98.0309 245.828 97.5711 244.708C97.1112 243.587 96.8772 242.387 96.8823 241.176V186.137C96.8875 183.702 97.8587 181.368 99.5827 179.647C101.307 177.927 103.643 176.961 106.078 176.961H277.804C279.009 176.961 280.202 177.198 281.316 177.659C282.429 178.12 283.441 178.796 284.293 179.649C285.145 180.501 285.821 181.512 286.282 182.626C286.743 183.739 286.98 184.932 286.98 186.137V241.176C286.988 242.386 286.757 243.586 286.299 244.706C285.841 245.826 285.166 246.845 284.314 247.703C283.461 248.562 282.446 249.243 281.329 249.708C280.212 250.172 279.014 250.412 277.804 250.412ZM106.078 178.039C103.942 178.06 101.901 178.922 100.396 180.437C98.891 181.953 98.0443 184.001 98.0392 186.137V241.176C98.0392 243.324 98.8924 245.384 100.411 246.903C101.93 248.421 103.99 249.275 106.137 249.275H277.863C280.01 249.275 282.07 248.421 283.589 246.903C285.108 245.384 285.961 243.324 285.961 241.176V186.137C285.956 183.991 285.101 181.934 283.583 180.417C282.066 178.899 280.009 178.044 277.863 178.039H106.078Z" fill="#3F3D56"/>
<path d="M214.451 210.725H154.51C153.413 210.652 152.386 210.164 151.636 209.361C150.885 208.559 150.468 207.501 150.468 206.402C150.468 205.303 150.885 204.245 151.636 203.443C152.386 202.64 153.413 202.152 154.51 202.078H214.451C215.043 202.039 215.637 202.121 216.197 202.32C216.756 202.519 217.268 202.831 217.702 203.236C218.135 203.642 218.481 204.132 218.717 204.677C218.954 205.221 219.076 205.808 219.076 206.402C219.076 206.996 218.954 207.583 218.717 208.127C218.481 208.672 218.135 209.162 217.702 209.567C217.268 209.973 216.756 210.285 216.197 210.484C215.637 210.683 215.043 210.765 214.451 210.725V210.725Z" fill="#001CA8"/>
<path d="M270.078 225.294H154.51C153.366 225.294 152.268 224.84 151.46 224.031C150.651 223.222 150.196 222.124 150.196 220.98C150.196 219.836 150.651 218.739 151.46 217.93C152.268 217.121 153.366 216.667 154.51 216.667H270.078C271.222 216.667 272.32 217.121 273.129 217.93C273.938 218.739 274.392 219.836 274.392 220.98C274.392 222.124 273.938 223.222 273.129 224.031C272.32 224.84 271.222 225.294 270.078 225.294Z" fill="#001CA8"/>
<path d="M125.667 229.882C134.611 229.882 141.863 222.631 141.863 213.686C141.863 204.741 134.611 197.49 125.667 197.49C116.722 197.49 109.471 204.741 109.471 213.686C109.471 222.631 116.722 229.882 125.667 229.882Z" fill="#001CA8"/>
<path d="M270.078 242.843H254.902C253.758 242.843 252.661 242.389 251.852 241.58C251.043 240.771 250.588 239.674 250.588 238.529C250.588 237.385 251.043 236.288 251.852 235.479C252.661 234.67 253.758 234.216 254.902 234.216H270.02C271.164 234.216 272.261 234.67 273.07 235.479C273.879 236.288 274.333 237.385 274.333 238.529C274.333 239.674 273.879 240.771 273.07 241.58C272.261 242.389 271.164 242.843 270.02 242.843H270.078Z" fill="white"/>
<path d="M270.078 242.843H254.902C253.758 242.843 252.661 242.389 251.852 241.58C251.043 240.771 250.588 239.674 250.588 238.529C250.588 237.385 251.043 236.288 251.852 235.479C252.661 234.67 253.758 234.216 254.902 234.216H270.02C271.164 234.216 272.261 234.67 273.07 235.479C273.879 236.288 274.333 237.385 274.333 238.529C274.333 239.674 273.879 240.771 273.07 241.58C272.261 242.389 271.164 242.843 270.02 242.843H270.078Z" fill="#CCCCCC"/>
<path d="M277.804 276.333H106.078C103.643 276.333 101.307 277.299 99.5827 279.02C97.8587 280.74 96.8875 283.074 96.8823 285.51V340.588C96.8875 343.026 97.858 345.362 99.5815 347.085C101.305 348.809 103.641 349.779 106.078 349.784H277.804C280.239 349.779 282.573 348.808 284.294 347.084C286.014 345.36 286.98 343.024 286.98 340.588V285.51C286.975 283.078 286.007 280.747 284.287 279.027C282.567 277.307 280.236 276.338 277.804 276.333ZM285.902 340.588C285.902 342.738 285.049 344.8 283.531 346.321C282.013 347.843 279.953 348.701 277.804 348.706H106.078C103.941 348.68 101.899 347.814 100.395 346.295C98.8903 344.776 98.0442 342.726 98.0392 340.588V285.51C98.0495 283.362 98.9087 281.305 100.429 279.788C101.95 278.271 104.009 277.417 106.157 277.412H277.882C280.03 277.412 282.09 278.265 283.608 279.784C285.127 281.302 285.98 283.362 285.98 285.51L285.902 340.588Z" fill="#3F3D56"/>
<path d="M214.451 310.078H154.51C153.366 310.078 152.268 309.624 151.46 308.815C150.651 308.006 150.196 306.909 150.196 305.765C150.196 304.621 150.651 303.523 151.46 302.714C152.268 301.905 153.366 301.451 154.51 301.451H214.451C215.595 301.451 216.692 301.905 217.501 302.714C218.31 303.523 218.765 304.621 218.765 305.765C218.765 306.909 218.31 308.006 217.501 308.815C216.692 309.624 215.595 310.078 214.451 310.078Z" fill="#001CA8"/>
<path d="M270.078 324.667H154.51C153.413 324.593 152.386 324.105 151.636 323.302C150.885 322.5 150.468 321.442 150.468 320.343C150.468 319.244 150.885 318.186 151.636 317.384C152.386 316.581 153.413 316.093 154.51 316.02H270.078C270.671 315.98 271.265 316.062 271.824 316.261C272.383 316.46 272.895 316.772 273.329 317.178C273.763 317.583 274.108 318.073 274.345 318.618C274.581 319.162 274.703 319.75 274.703 320.343C274.703 320.937 274.581 321.524 274.345 322.069C274.108 322.613 273.763 323.103 273.329 323.509C272.895 323.914 272.383 324.226 271.824 324.425C271.265 324.624 270.671 324.707 270.078 324.667V324.667Z" fill="#001CA8"/>
<path d="M125.667 329.255C134.611 329.255 141.863 322.004 141.863 313.059C141.863 304.114 134.611 296.863 125.667 296.863C116.722 296.863 109.471 304.114 109.471 313.059C109.471 322.004 116.722 329.255 125.667 329.255Z" fill="#001CA8"/>
<path d="M270.078 342.216H254.902C254.31 342.256 253.716 342.173 253.156 341.974C252.597 341.775 252.085 341.463 251.651 341.058C251.218 340.652 250.872 340.162 250.636 339.618C250.399 339.073 250.277 338.486 250.277 337.892C250.277 337.299 250.399 336.711 250.636 336.167C250.872 335.622 251.218 335.132 251.651 334.727C252.085 334.321 252.597 334.009 253.156 333.81C253.716 333.611 254.31 333.529 254.902 333.569H270.02C271.116 333.642 272.143 334.13 272.894 334.933C273.644 335.735 274.062 336.793 274.062 337.892C274.062 338.991 273.644 340.049 272.894 340.851C272.143 341.654 271.116 342.142 270.02 342.216H270.078Z" fill="#CCCCCC"/>
<path d="M426.608 402.706H350.98C350.838 402.701 350.704 402.641 350.605 402.538C350.506 402.436 350.451 402.299 350.451 402.157C350.451 402.087 350.465 402.019 350.491 401.954C350.518 401.89 350.557 401.832 350.606 401.783C350.655 401.733 350.714 401.694 350.778 401.668C350.842 401.641 350.911 401.627 350.98 401.627H426.588C426.659 401.625 426.73 401.637 426.797 401.662C426.863 401.687 426.924 401.726 426.975 401.775C427.027 401.825 427.067 401.884 427.095 401.95C427.123 402.015 427.137 402.086 427.137 402.157C427.137 402.299 427.082 402.436 426.983 402.538C426.885 402.641 426.75 402.701 426.608 402.706V402.706Z" fill="#3F3D56"/>
</svg>
