<svg width="500" height="500" viewBox="0 0 500 500" fill="none" xmlns="http://www.w3.org/2000/svg">
<path d="M231.333 157.118H49.6471V273.49H231.333V157.118Z" fill="#F2F2F2"/>
<path d="M226.137 171.725H54.8431V266.608H226.137V171.725Z" fill="white"/>
<path d="M231.255 157.02H49.5686V164.745H231.255V157.02Z" fill="#001CA8"/>
<path d="M55.3137 162.392C56.1043 162.392 56.7451 161.751 56.7451 160.961C56.7451 160.17 56.1043 159.529 55.3137 159.529C54.5232 159.529 53.8824 160.17 53.8824 160.961C53.8824 161.751 54.5232 162.392 55.3137 162.392Z" fill="white"/>
<path d="M60.7451 162.392C61.5356 162.392 62.1765 161.751 62.1765 160.961C62.1765 160.17 61.5356 159.529 60.7451 159.529C59.9546 159.529 59.3137 160.17 59.3137 160.961C59.3137 161.751 59.9546 162.392 60.7451 162.392Z" fill="white"/>
<path d="M66.1765 162.392C66.967 162.392 67.6078 161.751 67.6078 160.961C67.6078 160.17 66.967 159.529 66.1765 159.529C65.3859 159.529 64.7451 160.17 64.7451 160.961C64.7451 161.751 65.3859 162.392 66.1765 162.392Z" fill="white"/>
<path d="M114.431 181.569H70.4118V256.765H114.431V181.569Z" fill="#F2F2F2"/>
<path d="M158.725 181.569H122.039V202.274H158.725V181.569Z" fill="#001CA8"/>
<path d="M158.725 208.02H122.039V230.294H158.725V208.02Z" fill="#F2F2F2"/>
<path d="M158.725 236.059H122.039V256.765H158.725V236.059Z" fill="#F2F2F2"/>
<path d="M210.588 181.569H166.569V214.333H210.588V181.569Z" fill="#F2F2F2"/>
<path d="M210.588 224H166.569V256.765H210.588V224Z" fill="#F2F2F2"/>
<path d="M458.843 157.118H277.157V273.49H458.843V157.118Z" fill="#F2F2F2"/>
<path d="M453.647 171.725H282.353V266.608H453.647V171.725Z" fill="white"/>
<path d="M458.765 157.02H277.078V164.745H458.765V157.02Z" fill="#001CA8"/>
<path d="M282.804 162.392C283.594 162.392 284.235 161.751 284.235 160.961C284.235 160.17 283.594 159.529 282.804 159.529C282.013 159.529 281.373 160.17 281.373 160.961C281.373 161.751 282.013 162.392 282.804 162.392Z" fill="white"/>
<path d="M288.235 162.392C289.026 162.392 289.667 161.751 289.667 160.961C289.667 160.17 289.026 159.529 288.235 159.529C287.445 159.529 286.804 160.17 286.804 160.961C286.804 161.751 287.445 162.392 288.235 162.392Z" fill="white"/>
<path d="M293.667 162.392C294.457 162.392 295.098 161.751 295.098 160.961C295.098 160.17 294.457 159.529 293.667 159.529C292.876 159.529 292.235 160.17 292.235 160.961C292.235 161.751 292.876 162.392 293.667 162.392Z" fill="white"/>
<path d="M438.059 181.569H394.039V256.765H438.059V181.569Z" fill="#F2F2F2"/>
<path d="M386.745 181.569H297.961V202.274H386.745V181.569Z" fill="#001CA8"/>
<path d="M386.745 208.02H297.961V230.294H386.745V208.02Z" fill="#F2F2F2"/>
<path d="M386.745 236.059H297.961V256.765H386.745V236.059Z" fill="#F2F2F2"/>
<path d="M253.196 66.9804H252.177V122.471H253.196V66.9804Z" fill="#CCCCCC"/>
<path d="M354.745 156.98H353.725V122.961H151.627V156.98H150.608V121.961H354.745V156.98Z" fill="#CCCCCC"/>
<path d="M260.157 222.098L259.392 218.176C259.392 218.176 248.137 214.353 246.882 222.098H260.157Z" fill="#E6E6E6"/>
<path d="M238.569 432.608H231.196L227.686 404.176H238.569V432.608Z" fill="#FFB8B8"/>
<path d="M240.451 439.765H216.667V439.471C216.667 437.016 217.642 434.662 219.377 432.926C221.113 431.191 223.467 430.216 225.922 430.216H240.451V439.765Z" fill="#2F2E41"/>
<path d="M263.902 432.608H271.294L274.804 404.176H263.902V432.608Z" fill="#FFB8B8"/>
<path d="M262.039 430.216H276.471C278.925 430.216 281.279 431.191 283.015 432.926C284.75 434.662 285.725 437.016 285.725 439.471V439.765H262.039V430.216Z" fill="#2F2E41"/>
<path d="M270.843 238.157L279.275 237.392L284.627 262.627L283.843 285.569L275.431 316.157L263.98 309.274L270.098 277.922L270.843 238.157Z" fill="#2F2E41"/>
<path d="M276.176 313.471L274.294 329.529L276.588 367V422.843L262.059 422.059L259 363.941L250.588 337.176L244.471 367.765L240.647 425.118L225.745 423.922V367.569L225.353 326.471L230.706 310.412L276.176 313.471Z" fill="#2F2E41"/>
<path d="M244.863 222.863C244.863 222.863 250.216 215.216 260.157 220.569L264.745 226.686L279.274 237.392L276.216 273.333L280.039 318.431L225.745 317.647L234.922 272.549V224.392L244.863 222.863Z" fill="#2F2E41"/>
<path opacity="0.25" d="M274.294 250.078L278.686 302.51L273.157 274.098L274.294 250.078Z" fill="black"/>
<path d="M234.412 328.196C235.343 327.056 235.791 325.597 235.659 324.13C235.527 322.664 234.826 321.308 233.706 320.353C233.452 320.135 233.176 319.944 232.882 319.784L234.529 307L227 303.922L225.039 322.02C224.418 323.268 224.28 324.702 224.65 326.047C225.02 327.391 225.873 328.552 227.045 329.307C228.218 330.062 229.628 330.358 231.005 330.139C232.382 329.919 233.63 329.2 234.51 328.118L234.412 328.196Z" fill="#FFB8B8"/>
<path d="M237.216 310.039H224.98V315.392H237.216V310.039Z" fill="#E6E6E6"/>
<path d="M242.941 230.882L234.922 224.392C234.922 224.392 229.176 224 228.412 232.412C227.647 240.824 226.725 276.765 226.725 276.765L223.824 312.706L239.882 313.471L242.941 274.51V230.882Z" fill="#2F2E41"/>
<path d="M266.828 206.003C270.895 198.562 268.16 189.234 260.72 185.167C253.279 181.101 243.951 183.836 239.884 191.276C235.818 198.716 238.553 208.045 245.993 212.111C253.433 216.178 262.762 213.443 266.828 206.003Z" fill="#FFB8B8"/>
<path d="M252.216 212.216C255.979 213.141 259.953 212.629 263.359 210.78C266.765 208.931 269.359 205.878 270.634 202.218C271.908 198.558 271.772 194.554 270.252 190.989C268.731 187.424 265.936 184.554 262.412 182.941C259.713 181.727 256.757 181.195 253.804 181.392C249.216 181.627 244.745 183.353 240.078 183.216L239.412 184.275L236.902 183.667L236.353 185.627H235.706C235.458 186.185 235.349 186.794 235.387 187.403C235.426 188.012 235.61 188.602 235.926 189.124C236.242 189.646 236.679 190.084 237.201 190.4C237.723 190.716 238.313 190.902 238.922 190.941C239.908 190.836 240.881 190.625 241.824 190.314C242.296 190.168 242.798 190.146 243.282 190.248C243.766 190.351 244.216 190.576 244.588 190.902C245.451 191.843 245.078 193.333 244.902 194.608C244.726 195.882 245.176 197.588 246.451 197.627C247.118 197.627 247.745 197.176 248.412 197.314C248.772 197.439 249.074 197.691 249.262 198.023C249.45 198.355 249.51 198.744 249.431 199.118C249.241 199.86 248.937 200.567 248.529 201.216C247.66 203.11 247.521 205.26 248.14 207.25C248.759 209.241 250.092 210.933 251.882 212" fill="#2F2E41"/>
<path d="M349.412 440.353H155.941C155.806 440.353 155.676 440.299 155.581 440.204C155.485 440.108 155.431 439.978 155.431 439.843C155.431 439.708 155.485 439.578 155.581 439.483C155.676 439.387 155.806 439.333 155.941 439.333H349.412C349.547 439.333 349.677 439.387 349.772 439.483C349.868 439.578 349.922 439.708 349.922 439.843C349.922 439.978 349.868 440.108 349.772 440.204C349.677 440.299 349.547 440.353 349.412 440.353Z" fill="#CCCCCC"/>
</svg>
