<svg width="500" height="321" viewBox="0 0 500 321" fill="none" xmlns="http://www.w3.org/2000/svg">
<g clip-path="url(#clip0_505_635)">
<path d="M467.05 319.311C460.572 314.977 457.31 306.733 457.181 298.94C457.138 296.327 457.798 293.297 460.139 292.135C460.809 291.802 461.558 291.661 462.303 291.727C463.048 291.793 463.761 292.063 464.362 292.508C464.964 292.953 465.431 293.555 465.712 294.248C465.993 294.942 466.077 295.699 465.955 296.437C466.823 293.895 467.949 291.448 469.316 289.135C470.473 287.177 472.098 285.14 474.365 284.953C476.995 284.738 479.191 287.292 479.564 289.904C479.937 292.516 478.987 295.116 478.052 297.583C478.316 296.466 478.856 295.432 479.623 294.577C480.389 293.722 481.358 293.073 482.44 292.689C483.523 292.306 484.684 292.199 485.818 292.38C486.952 292.561 488.023 293.024 488.932 293.726C491.503 295.711 492.351 299.365 491.704 302.549C491.057 305.733 489.157 308.518 487.056 310.996C484.592 313.902 481.739 316.557 478.323 318.244C474.907 319.931 470.868 320.576 467.234 319.432L467.05 319.311Z" fill="#F2F2F2"/>
<path d="M378.449 214.951C379.341 214.507 380.124 213.873 380.744 213.094C381.364 212.315 381.806 211.41 382.038 210.441C382.27 209.473 382.287 208.466 382.088 207.49C381.889 206.514 381.478 205.594 380.885 204.795L396.757 127.735L381.946 127.539L370.924 203.622C369.646 204.708 368.812 206.224 368.578 207.884C368.344 209.544 368.727 211.233 369.654 212.629C370.582 214.025 371.99 215.033 373.611 215.461C375.232 215.889 376.953 215.707 378.449 214.951V214.951Z" fill="#FFB8B8"/>
<path d="M450.592 210.949C451.319 210.269 451.889 209.438 452.26 208.514C452.632 207.59 452.796 206.596 452.742 205.602C452.688 204.608 452.416 203.637 451.946 202.76C451.477 201.882 450.82 201.117 450.023 200.521L443.206 122.139L428.957 126.185L440.142 202.244C439.228 203.65 438.862 205.342 439.112 206.999C439.363 208.657 440.212 210.165 441.5 211.238C442.788 212.311 444.425 212.874 446.101 212.821C447.777 212.768 449.374 212.102 450.592 210.949V210.949Z" fill="#FFB8B8"/>
<path d="M404.886 312.042L397.113 312.042L393.415 282.06L404.887 282.06L404.886 312.042Z" fill="#FFB8B8"/>
<path d="M391.561 309.821H406.551V319.26H382.122C382.122 316.756 383.116 314.355 384.886 312.585C386.656 310.815 389.057 309.821 391.561 309.821V309.821Z" fill="#2F2E41"/>
<path d="M439.757 312.042L431.984 312.042L428.287 282.06L439.759 282.06L439.757 312.042Z" fill="#FFB8B8"/>
<path d="M426.432 309.821H441.423V319.26H416.993C416.993 316.756 417.988 314.355 419.758 312.585C421.528 310.815 423.929 309.821 426.432 309.821V309.821Z" fill="#2F2E41"/>
<path d="M406.9 97.8266C415.5 97.8266 422.472 90.8545 422.472 82.2541C422.472 73.6537 415.5 66.6817 406.9 66.6817C398.3 66.6817 391.327 73.6537 391.327 82.2541C391.327 90.8545 398.3 97.8266 406.9 97.8266Z" fill="#FFB8B8"/>
<path d="M428.792 293.124C428.158 293.121 427.545 292.899 427.056 292.496C426.567 292.093 426.233 291.533 426.109 290.912L415.582 236.444C415.485 235.945 415.213 235.498 414.815 235.182C414.417 234.867 413.919 234.705 413.411 234.725C412.904 234.746 412.42 234.947 412.049 235.294C411.677 235.64 411.442 236.108 411.386 236.613L405.491 289.667C405.422 290.315 405.122 290.916 404.647 291.361C404.171 291.806 403.552 292.066 402.901 292.092L394.06 292.494C393.7 292.513 393.341 292.46 393.002 292.337C392.664 292.214 392.354 292.025 392.09 291.78C391.825 291.537 391.61 291.245 391.458 290.918C391.307 290.592 391.222 290.239 391.208 289.88L387.817 207.926C387.799 207.512 387.876 207.1 388.042 206.72C388.207 206.34 388.458 206.004 388.774 205.736L390.734 204.063C391.228 203.642 391.857 203.41 392.506 203.41H438.333C439.057 203.411 439.751 203.699 440.263 204.211C440.775 204.723 441.063 205.417 441.063 206.141V289.978C441.065 290.682 440.794 291.359 440.307 291.868C439.82 292.377 439.155 292.677 438.452 292.706L428.909 293.122C428.87 293.123 428.831 293.124 428.792 293.124Z" fill="#2F2E41"/>
<path d="M405.322 215.334C397.913 215.335 391.382 213.36 388.085 207.602C387.809 207.128 387.68 206.583 387.713 206.035L391.856 142.71C391.89 142.198 391.737 141.691 391.426 141.283L379.801 126.042C379.583 125.757 379.424 125.431 379.332 125.084C379.241 124.736 379.218 124.374 379.267 124.018C379.315 123.662 379.434 123.319 379.615 123.009C379.796 122.699 380.037 122.428 380.324 122.211L397.761 109.001C398.127 108.722 398.393 108.333 398.52 107.891L399.028 106.114C399.185 105.56 399.514 105.07 399.967 104.715C400.42 104.359 400.973 104.157 401.549 104.135L414.344 103.643C414.77 103.629 415.195 103.714 415.583 103.891C415.971 104.069 416.313 104.334 416.581 104.666L417.943 106.368C418.116 106.585 418.331 106.766 418.574 106.901L439.972 118.726C440.395 118.96 440.748 119.301 440.995 119.716C441.243 120.131 441.376 120.603 441.382 121.086L441.382 121.124L441.374 121.16C436.386 141.958 436.666 168.246 442.256 203.892C442.271 204.435 442.124 204.971 441.832 205.43C441.54 205.889 441.118 206.251 440.62 206.468C435.989 208.474 419.132 215.334 405.322 215.334Z" fill="#001CA8"/>
<path d="M392.292 150.014H377.799C377.427 150.015 377.059 149.939 376.718 149.792C376.376 149.645 376.068 149.43 375.813 149.16C375.558 148.89 375.36 148.57 375.233 148.221C375.106 147.872 375.051 147.5 375.073 147.129C375.288 143.437 375.714 136.415 376.14 130.878C376.753 122.909 384.561 118.987 384.639 118.948L384.792 118.873L390.063 122.219L394.969 146.749C395.048 147.145 395.038 147.553 394.941 147.945C394.843 148.337 394.659 148.702 394.403 149.015C394.147 149.327 393.825 149.579 393.46 149.752C393.094 149.924 392.696 150.014 392.292 150.014H392.292Z" fill="#001CA8"/>
<path d="M432.005 148.661C431.622 148.659 431.245 148.576 430.896 148.419C430.548 148.261 430.236 148.033 429.982 147.747C429.727 147.462 429.535 147.126 429.418 146.762C429.302 146.398 429.262 146.014 429.304 145.633L431.978 121.027L437.146 117.242L437.263 117.255C437.318 117.261 442.823 117.949 445.289 124.114C447.045 128.504 449.727 136.618 451.17 141.064C451.286 141.421 451.326 141.798 451.29 142.172C451.253 142.546 451.139 142.908 450.956 143.236C450.772 143.564 450.523 143.85 450.224 144.077C449.925 144.304 449.582 144.467 449.217 144.555L432.663 148.581C432.448 148.634 432.227 148.661 432.005 148.661V148.661Z" fill="#001CA8"/>
<path d="M407.254 97.9352C410.585 92.6658 406.427 78.1604 397.366 77.7819C395.274 77.6946 394.471 74.6506 393.76 72.6815C393.398 71.5399 393.302 70.3305 393.479 69.146C393.656 67.9615 394.101 66.8331 394.781 65.8471C396.165 63.8823 398.07 62.3433 400.282 61.4036C402.77 60.2607 405.474 59.6662 408.212 59.6607C410.95 59.6552 413.657 60.2388 416.15 61.3718C418.642 62.5048 420.862 64.1607 422.658 66.2271C424.454 68.2936 425.785 70.7223 426.559 73.3483C427.334 75.9743 427.535 78.7363 427.148 81.4467C426.761 84.1572 425.795 86.7527 424.317 89.0571C422.838 91.3615 420.882 93.3209 418.579 94.8023C416.276 96.2837 413.682 97.2525 410.972 97.6428L407.254 97.9352Z" fill="#2F2E41"/>
<path d="M313.211 0H4.43821C3.26152 0.00130563 2.1334 0.469326 1.30136 1.30137C0.469317 2.13341 0.00130563 3.26152 0 4.43821V213.668C0.0013073 214.845 0.469317 215.973 1.30136 216.805C2.1334 217.637 3.26152 218.105 4.43821 218.106H313.211C314.387 218.105 315.516 217.637 316.348 216.805C317.18 215.973 317.648 214.845 317.649 213.668V4.43821C317.648 3.26152 317.18 2.13341 316.348 1.30137C315.516 0.469326 314.387 0.00130563 313.211 0V0ZM316.381 213.668C316.381 214.509 316.047 215.315 315.452 215.909C314.858 216.504 314.051 216.838 313.211 216.838H4.43821C3.59754 216.838 2.79139 216.504 2.19694 215.909C1.60249 215.315 1.2684 214.509 1.26806 213.668V4.43821C1.2684 3.59754 1.60249 2.7914 2.19694 2.19695C2.79139 1.6025 3.59754 1.2684 4.43821 1.26806H313.211C314.051 1.2684 314.858 1.6025 315.452 2.19695C316.047 2.7914 316.381 3.59754 316.381 4.43821V213.668Z" fill="#3F3D56"/>
<path d="M317.015 17.7782H0.634033V19.0463H317.015V17.7782Z" fill="#3F3D56"/>
<path d="M11.4125 13.3146C13.5135 13.3146 15.2167 11.6114 15.2167 9.51045C15.2167 7.40946 13.5135 5.70627 11.4125 5.70627C9.31156 5.70627 7.60837 7.40946 7.60837 9.51045C7.60837 11.6114 9.31156 13.3146 11.4125 13.3146Z" fill="#3F3D56"/>
<path d="M22.3496 13.3146C24.4505 13.3146 26.1537 11.6114 26.1537 9.51045C26.1537 7.40946 24.4505 5.70627 22.3496 5.70627C20.2486 5.70627 18.5454 7.40946 18.5454 9.51045C18.5454 11.6114 20.2486 13.3146 22.3496 13.3146Z" fill="#3F3D56"/>
<path d="M33.2866 13.3146C35.3876 13.3146 37.0908 11.6114 37.0908 9.51045C37.0908 7.40946 35.3876 5.70627 33.2866 5.70627C31.1856 5.70627 29.4824 7.40946 29.4824 9.51045C29.4824 11.6114 31.1856 13.3146 33.2866 13.3146Z" fill="#3F3D56"/>
<path d="M256.038 61.1614H59.489C56.8826 61.1614 54.3829 60.126 52.5399 58.283C50.6969 56.44 49.6615 53.9403 49.6615 51.3339C49.6615 48.7275 50.6969 46.2279 52.5399 44.3849C54.3829 42.5419 56.8826 41.5065 59.489 41.5065H256.038C258.645 41.5065 261.144 42.5419 262.987 44.3849C264.83 46.2279 265.866 48.7275 265.866 51.3339C265.866 53.9403 264.83 56.44 262.987 58.283C261.144 60.126 258.645 61.1614 256.038 61.1614V61.1614ZM59.489 42.7745C57.2189 42.7745 55.0418 43.6763 53.4366 45.2815C51.8314 46.8867 50.9296 49.0638 50.9296 51.3339C50.9296 53.604 51.8314 55.7812 53.4366 57.3864C55.0418 58.9916 57.2189 59.8933 59.489 59.8933H256.038C258.308 59.8933 260.485 58.9916 262.091 57.3864C263.696 55.7812 264.598 53.604 264.598 51.3339C264.598 49.0638 263.696 46.8867 262.091 45.2815C260.485 43.6763 258.308 42.7745 256.038 42.7745H59.489Z" fill="#3F3D56"/>
<path d="M110.211 111.25H72.1696C69.5632 111.25 67.0635 110.214 65.2205 108.371C63.3775 106.528 62.3421 104.029 62.3421 101.422C62.3421 98.8159 63.3775 96.3163 65.2205 94.4733C67.0635 92.6302 69.5632 91.5948 72.1696 91.5948H110.211C112.818 91.5948 115.317 92.6302 117.16 94.4733C119.003 96.3163 120.039 98.8159 120.039 101.422C120.039 104.029 119.003 106.528 117.16 108.371C115.317 110.214 112.818 111.25 110.211 111.25V111.25ZM72.1696 92.8629C69.8995 92.8629 67.7224 93.7647 66.1172 95.3699C64.512 96.9751 63.6102 99.1522 63.6102 101.422C63.6102 103.692 64.512 105.87 66.1172 107.475C67.7224 109.08 69.8995 109.982 72.1696 109.982H110.211C112.481 109.982 114.659 109.08 116.264 107.475C117.869 105.87 118.771 103.692 118.771 101.422C118.771 99.1522 117.869 96.9751 116.264 95.3699C114.659 93.7647 112.481 92.8629 110.211 92.8629H72.1696Z" fill="#3F3D56"/>
<path d="M110.211 144.219H72.1696C69.5632 144.219 67.0635 143.184 65.2205 141.341C63.3775 139.498 62.3421 136.998 62.3421 134.392C62.3421 131.785 63.3775 129.286 65.2205 127.443C67.0635 125.6 69.5632 124.564 72.1696 124.564H110.211C112.818 124.564 115.317 125.6 117.16 127.443C119.003 129.286 120.039 131.785 120.039 134.392C120.039 136.998 119.003 139.498 117.16 141.341C115.317 143.184 112.818 144.219 110.211 144.219V144.219ZM72.1696 125.832C69.8995 125.832 67.7224 126.734 66.1172 128.339C64.512 129.945 63.6102 132.122 63.6102 134.392C63.6102 136.662 64.512 138.839 66.1172 140.444C67.7224 142.049 69.8995 142.951 72.1696 142.951H110.211C112.481 142.951 114.659 142.049 116.264 140.444C117.869 138.839 118.771 136.662 118.771 134.392C118.771 132.122 117.869 129.945 116.264 128.339C114.659 126.734 112.481 125.832 110.211 125.832H72.1696Z" fill="#3F3D56"/>
<path d="M110.211 177.189H72.1696C69.5632 177.189 67.0635 176.153 65.2205 174.31C63.3775 172.467 62.3421 169.968 62.3421 167.361C62.3421 164.755 63.3775 162.255 65.2205 160.412C67.0635 158.569 69.5632 157.534 72.1696 157.534H110.211C112.818 157.534 115.317 158.569 117.16 160.412C119.003 162.255 120.039 164.755 120.039 167.361C120.039 169.968 119.003 172.467 117.16 174.31C115.317 176.153 112.818 177.189 110.211 177.189V177.189ZM72.1696 158.802C69.8995 158.802 67.7224 159.704 66.1172 161.309C64.512 162.914 63.6102 165.091 63.6102 167.361C63.6102 169.632 64.512 171.809 66.1172 173.414C67.7224 175.019 69.8995 175.921 72.1696 175.921H110.211C112.481 175.921 114.659 175.019 116.264 173.414C117.869 171.809 118.771 169.632 118.771 167.361C118.771 165.091 117.869 162.914 116.264 161.309C114.659 159.704 112.481 158.802 110.211 158.802H72.1696Z" fill="#3F3D56"/>
<path d="M115.918 55.7721H62.6591C61.482 55.7721 60.3532 55.3046 59.5208 54.4722C58.6885 53.6399 58.2209 52.511 58.2209 51.3339C58.2209 50.1568 58.6885 49.028 59.5208 48.1956C60.3532 47.3633 61.482 46.8957 62.6591 46.8957H115.918C117.095 46.8957 118.224 47.3633 119.056 48.1956C119.888 49.028 120.356 50.1568 120.356 51.3339C120.356 52.511 119.888 53.6399 119.056 54.4722C118.224 55.3046 117.095 55.7721 115.918 55.7721Z" fill="#001CA8"/>
<path d="M249.381 53.553C248.503 53.553 247.645 53.2928 246.915 52.8051C246.185 52.3174 245.616 51.6243 245.281 50.8133C244.945 50.0023 244.857 49.1099 245.028 48.249C245.199 47.3881 245.622 46.5972 246.243 45.9766C246.863 45.3559 247.654 44.9332 248.515 44.7619C249.376 44.5907 250.268 44.6786 251.079 45.0145C251.89 45.3504 252.584 45.9192 253.071 46.6491C253.559 47.379 253.819 48.237 253.819 49.1148C253.818 50.2915 253.35 51.4196 252.518 52.2517C251.686 53.0837 250.558 53.5517 249.381 53.553ZM249.381 45.9447C248.754 45.9447 248.141 46.1306 247.62 46.479C247.098 46.8273 246.692 47.3224 246.452 47.9017C246.212 48.4809 246.149 49.1184 246.272 49.7333C246.394 50.3483 246.696 50.9131 247.139 51.3565C247.583 51.7998 248.148 52.1018 248.762 52.2241C249.377 52.3464 250.015 52.2836 250.594 52.0437C251.173 51.8037 251.668 51.3974 252.017 50.8761C252.365 50.3548 252.551 49.7418 252.551 49.1148C252.55 48.2744 252.216 47.4686 251.622 46.8743C251.027 46.28 250.221 45.9456 249.381 45.9447V45.9447Z" fill="#3F3D56"/>
<path d="M256.247 57.5681C256.163 57.5681 256.081 57.5518 256.004 57.5199C255.927 57.488 255.857 57.4413 255.798 57.3823L251.344 52.9274C251.285 52.8685 251.238 52.7986 251.206 52.7217C251.174 52.6448 251.158 52.5623 251.158 52.4791C251.158 52.3958 251.174 52.3134 251.206 52.2365C251.238 52.1596 251.285 52.0897 251.344 52.0308C251.402 51.9719 251.472 51.9252 251.549 51.8934C251.626 51.8615 251.709 51.8451 251.792 51.8451C251.875 51.8451 251.958 51.8615 252.034 51.8934C252.111 51.9252 252.181 51.9719 252.24 52.0308L256.695 56.4857C256.784 56.5744 256.844 56.6874 256.868 56.8103C256.893 56.9333 256.88 57.0608 256.832 57.1766C256.784 57.2924 256.703 57.3915 256.599 57.4611C256.495 57.5308 256.372 57.568 256.247 57.568L256.247 57.5681Z" fill="#3F3D56"/>
<path d="M246.845 107.446H225.288C223.69 107.446 222.158 106.811 221.029 105.681C219.899 104.552 219.265 103.02 219.265 101.422C219.265 99.8248 219.899 98.2928 221.029 97.1632C222.158 96.0336 223.69 95.399 225.288 95.399H246.845C248.442 95.399 249.974 96.0336 251.104 97.1632C252.234 98.2928 252.868 99.8248 252.868 101.422C252.868 103.02 252.234 104.552 251.104 105.681C249.974 106.811 248.442 107.446 246.845 107.446V107.446Z" fill="#001CA8"/>
<path d="M246.845 140.415H225.288C223.69 140.415 222.158 139.781 221.029 138.651C219.899 137.521 219.265 135.989 219.265 134.392C219.265 132.794 219.899 131.262 221.029 130.133C222.158 129.003 223.69 128.369 225.288 128.369H246.845C248.442 128.369 249.974 129.003 251.104 130.133C252.234 131.262 252.868 132.794 252.868 134.392C252.868 135.989 252.234 137.521 251.104 138.651C249.974 139.781 248.442 140.415 246.845 140.415V140.415Z" fill="#001CA8"/>
<path d="M246.845 173.385H225.288C223.69 173.385 222.158 172.75 221.029 171.621C219.899 170.491 219.265 168.959 219.265 167.361C219.265 165.764 219.899 164.232 221.029 163.102C222.158 161.973 223.69 161.338 225.288 161.338H246.845C248.442 161.338 249.974 161.973 251.104 163.102C252.234 164.232 252.868 165.764 252.868 167.361C252.868 168.959 252.234 170.491 251.104 171.621C249.974 172.75 248.442 173.385 246.845 173.385V173.385Z" fill="#001CA8"/>
<path d="M499.366 320.48H342.127C341.958 320.48 341.797 320.413 341.678 320.294C341.559 320.175 341.493 320.014 341.493 319.846C341.493 319.677 341.559 319.516 341.678 319.397C341.797 319.278 341.958 319.212 342.127 319.212H499.366C499.534 319.212 499.695 319.278 499.814 319.397C499.933 319.516 500 319.677 500 319.846C500 320.014 499.933 320.175 499.814 320.294C499.695 320.413 499.534 320.48 499.366 320.48Z" fill="#3F3D56"/>
</g>
<defs>
<clipPath id="clip0_505_635">
<rect width="500" height="320.48" fill="white"/>
</clipPath>
</defs>
</svg>
