<svg width="500" height="500" viewBox="0 0 500 500" fill="none" xmlns="http://www.w3.org/2000/svg">
<path d="M91.5882 398.118C126.783 398.118 155.314 395.941 155.314 393.255C155.314 390.569 126.783 388.392 91.5882 388.392C56.3936 388.392 27.8627 390.569 27.8627 393.255C27.8627 395.941 56.3936 398.118 91.5882 398.118Z" fill="#E6E6E6"/>
<path d="M112.216 180.059L86.7255 173.118C93.5098 166.699 96.4575 160.667 95.5686 155.02H112.137L112.216 180.059Z" fill="#9F616A"/>
<path d="M114.922 374.961L106.706 376.118L96.8039 285.216L81.0196 375.725L72.549 376.118V261.333H124.922L114.922 374.961Z" fill="#2F2E41"/>
<path d="M76.8039 393.294C78.0947 393.331 79.3607 392.934 80.3989 392.166C81.4371 391.398 82.1873 390.304 82.5294 389.059L83.1372 380.118L81.9216 373.765C80.624 372.513 78.8913 371.813 77.0882 371.813C75.2851 371.813 73.5524 372.513 72.2549 373.765L71.2157 387.059C71.1214 388.572 71.6154 390.064 72.5945 391.222C73.5737 392.38 74.9623 393.116 76.4706 393.275L76.8039 393.294Z" fill="#2F2E41"/>
<path d="M110.706 393.294C111.997 393.331 113.263 392.934 114.301 392.166C115.339 391.398 116.089 390.304 116.431 389.059L117.039 380.118L115.824 373.765C114.526 372.513 112.793 371.813 110.99 371.813C109.187 371.813 107.454 372.513 106.157 373.765L105.118 387.059C105.024 388.579 105.523 390.076 106.511 391.235C107.498 392.394 108.896 393.125 110.412 393.275L110.706 393.294Z" fill="#2F2E41"/>
<path d="M108.745 166.961C116.834 166.961 123.392 160.403 123.392 152.314C123.392 144.224 116.834 137.667 108.745 137.667C100.656 137.667 94.098 144.224 94.098 152.314C94.098 160.403 100.656 166.961 108.745 166.961Z" fill="#9F616A"/>
<path d="M127.235 263.255H71.3922C78.6274 229.706 78.6078 202.686 72.8431 180.902C72.4685 179.49 72.6323 177.99 73.3028 176.692C73.9733 175.395 75.1024 174.393 76.4706 173.882L91.4902 168.118C96 174 102.373 176.49 112.294 172.725L120.137 174.353C122.053 174.743 123.763 175.814 124.949 177.368C126.135 178.922 126.718 180.853 126.588 182.804C126 191.353 126.235 199.961 125.745 207.392C124.157 230.431 123.529 248.373 127.235 263.255Z" fill="#E6E6E6"/>
<path d="M101.039 133.059C101.039 133.059 109.529 123.529 119.608 132.667L122.314 133.451L120.353 134.98C120.353 134.98 130.353 139.608 129.588 149.235C128.831 149.026 128.032 149.026 127.275 149.235C126.51 149.627 126.118 153.863 126.118 153.863C125.693 152.67 125.182 151.51 124.588 150.392C124.196 150 118.706 154.627 109.941 147.706C109.941 147.706 107.255 154.627 104.176 153.863C103.265 153.553 102.302 153.427 101.341 153.493C100.381 153.558 99.4436 153.814 98.5828 154.244C97.722 154.674 96.9551 155.271 96.3267 156C95.6982 156.729 95.2206 157.575 94.9216 158.49C94.9216 158.49 84.4902 136.137 101.039 133.059Z" fill="#2F2E41"/>
<path d="M129.941 254.784L125 261.412C124.488 262.093 124.116 262.869 123.905 263.695C123.694 264.521 123.648 265.38 123.77 266.224C123.892 267.068 124.18 267.879 124.616 268.611C125.053 269.343 125.63 269.982 126.314 270.49V270.49C127.21 271.146 128.261 271.56 129.364 271.693C130.467 271.825 131.586 271.671 132.613 271.245C133.639 270.82 134.539 270.137 135.225 269.263C135.911 268.389 136.36 267.353 136.529 266.255L137.941 257.412L140.647 219.275L138.686 200.02L126.471 204.706L129.941 221.275V254.784Z" fill="#9F616A"/>
<path d="M124.922 209.333L139.961 202.392L139.176 196.941C139.176 192.423 137.811 188.01 135.261 184.28C132.71 180.551 129.093 177.678 124.882 176.039L120.314 174.275L124.922 209.333Z" fill="#E6E6E6"/>
<path d="M70.2353 253.235L75.1765 259.863C76.2011 261.246 76.6379 262.978 76.3919 264.682C76.1459 266.386 75.2369 267.924 73.8627 268.961C73.1707 269.462 72.3865 269.822 71.5551 270.019C70.7238 270.216 69.8616 270.248 69.0181 270.111C68.1746 269.974 67.3664 269.672 66.6399 269.223C65.9133 268.773 65.2828 268.184 64.7843 267.49C64.1968 266.667 63.8015 265.722 63.6275 264.725L62.2157 255.882L59.5294 217.745L61.4902 198.49L73.8235 203.098L70.3529 219.667L70.2353 253.235Z" fill="#9F616A"/>
<path d="M75.2353 207.843L60.2157 200.922L60.9804 195.451C60.9689 190.922 62.3307 186.497 64.8861 182.758C67.4416 179.02 71.0706 176.144 75.2941 174.51L79.8628 172.725L75.2353 207.843Z" fill="#E6E6E6"/>
<path d="M468.627 355.176H211.471C210.394 355.176 209.362 354.749 208.601 353.988C207.839 353.226 207.412 352.194 207.412 351.118V239.353C207.417 238.278 207.846 237.249 208.606 236.489C209.366 235.729 210.396 235.299 211.471 235.294H468.627C469.701 235.304 470.727 235.735 471.486 236.494C472.245 237.253 472.676 238.28 472.686 239.353V351.118C472.681 352.193 472.252 353.222 471.492 353.982C470.732 354.742 469.702 355.171 468.627 355.176V355.176ZM211.569 236.902C210.924 236.902 210.305 237.158 209.849 237.614C209.393 238.07 209.137 238.688 209.137 239.333V351.098C209.135 351.418 209.196 351.735 209.317 352.032C209.438 352.328 209.617 352.597 209.844 352.823C210.07 353.049 210.339 353.228 210.635 353.35C210.931 353.471 211.249 353.532 211.569 353.529H468.627C468.947 353.529 469.263 353.467 469.558 353.344C469.853 353.222 470.121 353.043 470.347 352.817C470.572 352.592 470.752 352.323 470.874 352.028C470.996 351.734 471.059 351.417 471.059 351.098V239.333C471.054 238.69 470.796 238.075 470.341 237.62C469.886 237.165 469.271 236.907 468.627 236.902H211.569Z" fill="#E6E6E6"/>
<path d="M222 249.02C221.355 249.02 220.737 249.276 220.281 249.732C219.825 250.188 219.569 250.806 219.569 251.451C219.569 252.096 219.825 252.714 220.281 253.17C220.737 253.626 221.355 253.882 222 253.882H256.02C256.664 253.882 257.283 253.626 257.739 253.17C258.195 252.714 258.451 252.096 258.451 251.451C258.451 250.806 258.195 250.188 257.739 249.732C257.283 249.276 256.664 249.02 256.02 249.02H222Z" fill="#E6E6E6"/>
<path d="M454.902 265.961V311.059H225.49V287.333C227.078 286.314 228.667 285.373 230.294 284.314C237.176 280.098 244.549 276.157 252.588 274.706C256.387 273.987 260.281 273.933 264.098 274.549C268.118 275.333 272.056 276.488 275.863 278C279.598 279.485 283.439 280.691 287.353 281.608C291.193 282.352 295.133 282.432 299 281.843C306.373 280.726 313.314 277.765 320.216 275.078C327.118 272.392 334.314 269.843 341.784 269.51C349.199 269.436 356.57 270.65 363.569 273.098C377.941 277.529 392.588 284.098 407.784 279.588C422.98 275.078 437.431 261.824 454.529 265.745C454.675 265.771 454.807 265.847 454.902 265.961V265.961Z" fill="#E6E6E6"/>
<path d="M454.902 266.667C454.828 266.803 454.71 266.909 454.568 266.97C454.425 267.03 454.267 267.041 454.118 267C452.078 266.547 449.991 266.336 447.902 266.373C431.059 266.667 418.137 280.216 401.667 282.235C386.843 284.059 372.882 276.843 358.941 273.078C351.764 270.885 344.189 270.316 336.765 271.412C329.353 272.726 322.412 275.745 315.431 278.431C308.451 281.118 301.706 283.431 294.471 283.549C286.471 283.686 279.274 280.392 271.863 277.882C268.044 276.462 264.03 275.635 259.961 275.431C255.965 275.384 251.99 276 248.196 277.255C240.435 280.086 233.078 283.923 226.314 288.667C226.193 288.749 226.047 288.784 225.902 288.765C225.711 288.736 225.539 288.633 225.422 288.48C225.305 288.326 225.252 288.133 225.275 287.941C225.285 287.835 225.318 287.733 225.372 287.642C225.427 287.55 225.5 287.472 225.588 287.412L225.902 287.216C227.49 286.196 229.078 285.255 230.706 284.196C237.569 279.98 244.922 276.039 252.941 274.588C256.733 273.871 260.621 273.818 264.431 274.431C268.452 275.212 272.391 276.367 276.196 277.882C279.925 279.367 283.759 280.573 287.667 281.49C291.494 282.235 295.42 282.314 299.275 281.725C306.647 280.608 313.569 277.647 320.451 274.961C327.333 272.275 334.529 269.726 342.02 269.392C349.421 269.317 356.78 270.531 363.765 272.98C378.098 277.412 392.726 283.98 407.882 279.471C423.039 274.961 437.471 261.706 454.529 265.627C454.612 265.641 454.69 265.67 454.761 265.714C454.832 265.757 454.893 265.815 454.941 265.882C455.002 266.006 455.031 266.142 455.024 266.28C455.017 266.417 454.975 266.55 454.902 266.667Z" fill="#001CA8"/>
<path d="M257.098 278.451C258.95 278.451 260.451 276.95 260.451 275.098C260.451 273.246 258.95 271.745 257.098 271.745C255.246 271.745 253.745 273.246 253.745 275.098C253.745 276.95 255.246 278.451 257.098 278.451Z" fill="#001CA8"/>
<path d="M341.882 274.137C343.734 274.137 345.235 272.636 345.235 270.784C345.235 268.933 343.734 267.431 341.882 267.431C340.031 267.431 338.529 268.933 338.529 270.784C338.529 272.636 340.031 274.137 341.882 274.137Z" fill="#001CA8"/>
<path d="M445.333 269.824C447.185 269.824 448.686 268.322 448.686 266.471C448.686 264.619 447.185 263.118 445.333 263.118C443.482 263.118 441.98 264.619 441.98 266.471C441.98 268.322 443.482 269.824 445.333 269.824Z" fill="#001CA8"/>
<path d="M255.216 330.059C254.571 330.059 253.952 330.315 253.496 330.771C253.04 331.227 252.784 331.845 252.784 332.49C252.784 333.135 253.04 333.753 253.496 334.209C253.952 334.665 254.571 334.922 255.216 334.922H289.235C289.555 334.922 289.871 334.859 290.166 334.736C290.461 334.614 290.729 334.435 290.955 334.209C291.18 333.984 291.359 333.716 291.482 333.421C291.604 333.126 291.667 332.809 291.667 332.49C291.667 332.171 291.604 331.855 291.482 331.56C291.359 331.265 291.18 330.997 290.955 330.771C290.729 330.545 290.461 330.366 290.166 330.244C289.871 330.122 289.555 330.059 289.235 330.059H255.216Z" fill="#E6E6E6"/>
<path d="M233.333 341.392C238.401 341.392 242.51 337.284 242.51 332.216C242.51 327.148 238.401 323.039 233.333 323.039C228.265 323.039 224.157 327.148 224.157 332.216C224.157 337.284 228.265 341.392 233.333 341.392Z" fill="#001CA8"/>
<path d="M337.255 330.059C336.936 330.059 336.619 330.122 336.324 330.244C336.029 330.366 335.761 330.545 335.536 330.771C335.31 330.997 335.131 331.265 335.009 331.56C334.886 331.855 334.823 332.171 334.823 332.49C334.823 332.809 334.886 333.126 335.009 333.421C335.131 333.716 335.31 333.984 335.536 334.209C335.761 334.435 336.029 334.614 336.324 334.736C336.619 334.859 336.936 334.922 337.255 334.922H371.274C371.594 334.922 371.91 334.859 372.205 334.736C372.5 334.614 372.768 334.435 372.994 334.209C373.219 333.984 373.399 333.716 373.521 333.421C373.643 333.126 373.706 332.809 373.706 332.49C373.706 332.171 373.643 331.855 373.521 331.56C373.399 331.265 373.219 330.997 372.994 330.771C372.768 330.545 372.5 330.366 372.205 330.244C371.91 330.122 371.594 330.059 371.274 330.059H337.255Z" fill="#E6E6E6"/>
<path d="M315.431 341.392C320.499 341.392 324.608 337.284 324.608 332.216C324.608 327.148 320.499 323.039 315.431 323.039C310.363 323.039 306.255 327.148 306.255 332.216C306.255 337.284 310.363 341.392 315.431 341.392Z" fill="#001CA8"/>
<path d="M419.392 330.059C419.073 330.059 418.757 330.122 418.462 330.244C418.167 330.366 417.899 330.545 417.673 330.771C417.447 330.997 417.268 331.265 417.146 331.56C417.024 331.855 416.961 332.171 416.961 332.49C416.961 332.809 417.024 333.126 417.146 333.421C417.268 333.716 417.447 333.984 417.673 334.209C417.899 334.435 418.167 334.614 418.462 334.736C418.757 334.859 419.073 334.922 419.392 334.922H453.412C454.057 334.922 454.675 334.665 455.131 334.209C455.587 333.753 455.843 333.135 455.843 332.49C455.843 331.845 455.587 331.227 455.131 330.771C454.675 330.315 454.057 330.059 453.412 330.059H419.392Z" fill="#E6E6E6"/>
<path d="M397.51 341.392C402.578 341.392 406.686 337.284 406.686 332.216C406.686 327.148 402.578 323.039 397.51 323.039C392.442 323.039 388.333 327.148 388.333 332.216C388.333 337.284 392.442 341.392 397.51 341.392Z" fill="#001CA8"/>
<path d="M450.98 205.098H324.118C321.647 205.098 319.627 203.667 319.627 201.922V174.353C319.627 172.588 321.588 171.157 324.118 171.157H450.98C453.451 171.157 455.451 172.588 455.451 174.353V201.961C455.412 203.667 453.412 205.098 450.98 205.098ZM324.118 172.431C322.627 172.431 321.431 173.294 321.431 174.392V201.961C321.431 203 322.627 203.922 324.118 203.922H450.98C452.451 203.922 453.667 203.059 453.667 201.961V174.353C453.667 173.294 452.451 172.392 450.98 172.392L324.118 172.431Z" fill="#E6E6E6"/>
<path d="M352.784 186.824C352.067 186.824 351.378 187.109 350.871 187.616C350.363 188.124 350.078 188.812 350.078 189.529V208.431C350.078 209.149 350.363 209.837 350.871 210.345C351.378 210.852 352.067 211.137 352.784 211.137H449.451C450.169 211.137 450.857 210.852 451.364 210.345C451.872 209.837 452.157 209.149 452.157 208.431V189.529C452.157 188.812 451.872 188.124 451.364 187.616C450.857 187.109 450.169 186.824 449.451 186.824H352.784Z" fill="#001CA8"/>
<path d="M366.294 205.196C369.575 205.196 372.235 202.536 372.235 199.255C372.235 195.974 369.575 193.314 366.294 193.314C363.013 193.314 360.353 195.974 360.353 199.255C360.353 202.536 363.013 205.196 366.294 205.196Z" fill="white"/>
<path d="M393.353 196.667C392.708 196.667 392.09 196.923 391.634 197.379C391.178 197.835 390.922 198.453 390.922 199.098C390.922 199.743 391.178 200.361 391.634 200.817C392.09 201.273 392.708 201.529 393.353 201.529H427.451C428.096 201.529 428.714 201.273 429.17 200.817C429.626 200.361 429.882 199.743 429.882 199.098C429.882 198.453 429.626 197.835 429.17 197.379C428.714 196.923 428.096 196.667 427.451 196.667H393.353Z" fill="white"/>
<path d="M355.882 140.843H229.059C226.588 140.843 224.588 139.412 224.588 137.647V110.078C224.588 108.333 226.549 106.902 229.059 106.902H355.882C358.353 106.902 360.353 108.333 360.373 110.078V137.647C360.353 139.412 358.353 140.824 355.882 140.843ZM229.059 108.176C227.588 108.176 226.373 109.02 226.373 110.137V137.647C226.373 138.706 227.588 139.608 229.059 139.608H355.882C357.373 139.608 358.569 138.745 358.569 137.647V110.078C358.569 109.02 357.373 108.118 355.882 108.118L229.059 108.176Z" fill="#E6E6E6"/>
<path d="M257.745 122.569C257.391 122.566 257.039 122.634 256.711 122.767C256.383 122.901 256.084 123.099 255.833 123.348C255.581 123.598 255.382 123.895 255.246 124.222C255.109 124.55 255.039 124.9 255.039 125.255V144.157C255.039 144.874 255.324 145.563 255.832 146.07C256.339 146.578 257.027 146.863 257.745 146.863H354.412C354.766 146.863 355.117 146.793 355.444 146.656C355.772 146.52 356.069 146.321 356.318 146.069C356.568 145.818 356.765 145.519 356.899 145.191C357.033 144.863 357.101 144.511 357.098 144.157V125.255C357.098 124.542 356.815 123.859 356.311 123.355C355.807 122.852 355.124 122.569 354.412 122.569H257.745Z" fill="#001CA8"/>
<path d="M271.235 140.922C274.517 140.922 277.176 138.262 277.176 134.98C277.176 131.699 274.517 129.039 271.235 129.039C267.954 129.039 265.294 131.699 265.294 134.98C265.294 138.262 267.954 140.922 271.235 140.922Z" fill="white"/>
<path d="M298.314 132.412C297.669 132.412 297.05 132.668 296.594 133.124C296.138 133.58 295.882 134.198 295.882 134.843C295.882 135.488 296.138 136.106 296.594 136.562C297.05 137.018 297.669 137.275 298.314 137.275H332.333C332.978 137.275 333.597 137.018 334.053 136.562C334.509 136.106 334.765 135.488 334.765 134.843C334.765 134.198 334.509 133.58 334.053 133.124C333.597 132.668 332.978 132.412 332.333 132.412H298.314Z" fill="white"/>
</svg>
