<svg width="500" height="500" viewBox="0 0 500 500" fill="none" xmlns="http://www.w3.org/2000/svg">
<path d="M145.706 304.961C144.375 304.454 143.295 303.445 142.701 302.15C142.107 300.855 142.045 299.379 142.529 298.039C142.647 297.743 142.784 297.454 142.941 297.176L130.49 282.353L140.451 281.176L150.745 295.353C151.852 296.106 152.643 297.24 152.967 298.539C153.292 299.838 153.127 301.211 152.504 302.396C151.881 303.581 150.844 304.495 149.59 304.965C148.337 305.434 146.954 305.426 145.706 304.941V304.961Z" fill="#FFB6B6"/>
<path d="M94.4118 443.078H101.02L104.176 417.529H94.4118V443.078Z" fill="#FFB6B6"/>
<path d="M92.7255 440.922H94.6863L101.961 437.961L105.882 440.922C108.084 440.922 110.196 441.795 111.754 443.35C113.313 444.905 114.191 447.014 114.196 449.216V449.49H92.7255V440.922Z" fill="#2F2E41"/>
<path d="M120.059 438.902L126.529 440.373L135.216 416.137L125.686 414L120.059 438.902Z" fill="#FFB6B6"/>
<path d="M118.902 436.431L120.706 436.843L128.549 435.549L131.686 439.294C132.752 439.533 133.761 439.979 134.653 440.609C135.546 441.238 136.306 442.037 136.889 442.961C137.472 443.885 137.867 444.915 138.051 445.991C138.235 447.068 138.204 448.17 137.961 449.235V449.49L117.137 444.784L118.902 436.431Z" fill="#2F2E41"/>
<path d="M82.3529 311.765L88.2353 378.784C88.2353 378.784 86.0392 419.059 93.2745 433.333H103.765L108.961 375.216L109.627 336.196L132.118 369.02L117.784 432.294L130.706 433.431L153.98 364.804L128.49 300.353L82.3529 311.765Z" fill="#2F2E41"/>
<path d="M88.549 204.882C97.0715 204.882 103.98 197.974 103.98 189.451C103.98 180.928 97.0715 174.02 88.549 174.02C80.0265 174.02 73.1176 180.928 73.1176 189.451C73.1176 197.974 80.0265 204.882 88.549 204.882Z" fill="#FFB8B8"/>
<path d="M120.98 219.608L103.039 214.176L100.706 207L81.4706 210.118L77.3726 217.118L64.1373 229.412L79.6471 299.49L79.1765 314.804C79.1765 314.804 89.098 319.275 132.118 308.922C132.647 308.804 131.569 308.275 131.569 308.275L120.98 219.608Z" fill="#3F3D56"/>
<path d="M138 296.863L116.98 268.627L111.098 218.725H111.275C112.904 217.922 114.709 217.54 116.524 217.613C118.339 217.686 120.108 218.213 121.667 219.145C123.227 220.077 124.528 221.384 125.453 222.948C126.377 224.512 126.896 226.282 126.961 228.098L128.216 258.941L149.02 286.51L138 296.863Z" fill="#3F3D56"/>
<path d="M72.549 198.216L72.2157 197.765L72.098 198.039L72.549 198.216Z" fill="#2F2E41"/>
<path d="M103.922 178.157C102.879 175.915 101.041 174.141 98.7647 173.176C96.5001 172.265 93.9705 172.265 91.7059 173.176C89.7196 171.808 87.4194 170.965 85.0196 170.725C83.8154 170.632 82.6064 170.829 81.4941 171.3C80.3818 171.771 79.3987 172.502 78.6274 173.431C78.2993 173.948 77.9252 174.433 77.5098 174.882C76.8505 175.328 76.1016 175.624 75.3157 175.749C74.5298 175.875 73.726 175.826 72.9608 175.608L75.0784 177.412L72.549 178.098L75.549 179.922C74.132 180.908 73.0156 182.267 72.3235 183.848C71.6313 185.43 71.3904 187.172 71.6274 188.882C72.0943 192.122 73.3988 195.184 75.4118 197.765C75.9889 196.077 76.1831 194.282 75.9804 192.51C75.8571 191.579 75.9583 190.633 76.2755 189.749C76.5927 188.866 77.1168 188.071 77.8039 187.431C78.8896 186.826 80.1366 186.572 81.3725 186.706C87.5663 186.729 93.7534 187.115 99.902 187.863C100.735 187.903 101.548 188.138 102.275 188.549C102.872 189.132 103.338 189.836 103.642 190.614C103.947 191.391 104.082 192.225 104.039 193.059C104.748 190.285 105.097 187.432 105.078 184.569C105.146 182.374 104.752 180.19 103.922 178.157V178.157Z" fill="#2F2E41"/>
<path d="M102.392 365.588C115.809 365.588 126.686 354.711 126.686 341.294C126.686 327.877 115.809 317 102.392 317C88.9749 317 78.0981 327.877 78.0981 341.294C78.0981 354.711 88.9749 365.588 102.392 365.588Z" fill="#F0F0F0"/>
<path d="M102.392 316.451C101.145 316.455 99.9005 316.546 98.6667 316.725C98.0392 316.824 97.4118 316.941 96.7059 317.078C92.2132 318.107 88.0955 320.365 84.8139 323.601C81.5322 326.837 79.2162 330.923 78.1253 335.4C77.0343 339.878 77.2115 344.571 78.6369 348.954C80.0624 353.337 82.6798 357.236 86.1961 360.216C86.6078 360.569 87.0196 360.902 87.4706 361.235C90.6241 363.591 94.2923 365.164 98.173 365.825C102.054 366.485 106.036 366.213 109.791 365.033C113.546 363.852 116.967 361.796 119.772 359.034C122.576 356.272 124.685 352.883 125.922 349.146C127.16 345.409 127.493 341.432 126.892 337.542C126.291 333.651 124.774 329.959 122.467 326.77C120.159 323.581 117.127 320.986 113.62 319.199C110.112 317.411 106.231 316.483 102.294 316.49L102.392 316.451ZM102.392 365.059C97.3423 365.05 92.4261 363.436 88.3529 360.451C87.9216 360.118 87.4902 359.784 87.0784 359.431C83.664 356.554 81.1299 352.773 79.7669 348.521C78.404 344.269 78.2675 339.719 79.373 335.394C80.4785 331.068 82.7813 327.141 86.0171 324.065C89.2529 320.988 93.2905 318.886 97.6667 318C98.268 317.882 98.8758 317.784 99.4902 317.706C100.453 317.589 101.422 317.53 102.392 317.529C108.695 317.529 114.74 320.033 119.196 324.49C123.653 328.947 126.157 334.991 126.157 341.294C126.157 347.597 123.653 353.642 119.196 358.098C114.74 362.555 108.695 365.059 102.392 365.059Z" fill="#3F3D56"/>
<path d="M114.274 336.431H90.5098C90.0816 336.426 89.6726 336.252 89.3717 335.948C89.0707 335.643 88.9019 335.232 88.9019 334.804V334.804C88.9019 334.378 89.0713 333.969 89.3729 333.667C89.6744 333.365 90.0834 333.196 90.5098 333.196H114.274C114.703 333.196 115.114 333.365 115.418 333.666C115.723 333.967 115.897 334.376 115.902 334.804V334.804C115.902 335.018 115.86 335.229 115.778 335.427C115.696 335.624 115.576 335.804 115.425 335.955C115.274 336.106 115.095 336.226 114.897 336.307C114.7 336.389 114.488 336.431 114.274 336.431Z" fill="#001CA8"/>
<path d="M114.274 342.902H90.5098C90.0834 342.902 89.6744 342.733 89.3729 342.431C89.0713 342.13 88.9019 341.721 88.9019 341.294C88.9019 340.866 89.0707 340.455 89.3717 340.15C89.6726 339.846 90.0816 339.672 90.5098 339.667H114.274C114.706 339.667 115.12 339.838 115.425 340.143C115.73 340.449 115.902 340.862 115.902 341.294V341.294C115.897 341.722 115.723 342.131 115.418 342.432C115.114 342.733 114.703 342.902 114.274 342.902V342.902Z" fill="#001CA8"/>
<path d="M114.274 349.392H90.5098C90.0816 349.387 89.6726 349.213 89.3717 348.909C89.0707 348.604 88.9019 348.193 88.9019 347.765V347.765C88.9019 347.338 89.0713 346.929 89.3729 346.628C89.6744 346.326 90.0834 346.157 90.5098 346.157H114.274C114.703 346.157 115.114 346.326 115.418 346.627C115.723 346.928 115.897 347.336 115.902 347.765V347.765C115.902 347.978 115.86 348.19 115.778 348.388C115.696 348.585 115.576 348.764 115.425 348.915C115.274 349.067 115.095 349.186 114.897 349.268C114.7 349.35 114.488 349.392 114.274 349.392Z" fill="#001CA8"/>
<path d="M103.922 323.882C102.498 323.651 101.224 322.865 100.379 321.696C99.5332 320.528 99.1856 319.072 99.4118 317.647C99.4693 317.335 99.5479 317.027 99.6471 316.726L84.451 304.824L93.9412 301.647L106.922 313.412C108.254 313.856 109.364 314.799 110.019 316.042C110.674 317.285 110.824 318.733 110.437 320.084C110.049 321.435 109.156 322.584 107.942 323.292C106.728 323.999 105.288 324.211 103.922 323.882Z" fill="#FFB6B6"/>
<path d="M73.5098 229.235L64.1372 229.431C62.3026 231.122 60.8432 233.179 59.8536 235.469C58.8639 237.759 58.3661 240.231 58.3921 242.725V286.961L93.5098 316.373L104.882 305.373L78.7255 276.843L73.5098 229.235Z" fill="#3F3D56"/>
<path d="M493.196 123.961H145.49V346.647H493.196V123.961Z" fill="#E6E6E6"/>
<path d="M483.255 151.882H155.431V333.471H483.255V151.882Z" fill="white"/>
<path d="M493.039 123.765H145.333V138.529H493.039V123.765Z" fill="#001CA8"/>
<path d="M156.314 134.059C157.83 134.059 159.059 132.83 159.059 131.314C159.059 129.798 157.83 128.569 156.314 128.569C154.798 128.569 153.569 129.798 153.569 131.314C153.569 132.83 154.798 134.059 156.314 134.059Z" fill="white"/>
<path d="M166.706 134.059C168.222 134.059 169.451 132.83 169.451 131.314C169.451 129.798 168.222 128.569 166.706 128.569C165.19 128.569 163.961 129.798 163.961 131.314C163.961 132.83 165.19 134.059 166.706 134.059Z" fill="white"/>
<path d="M177.098 134.059C178.614 134.059 179.843 132.83 179.843 131.314C179.843 129.798 178.614 128.569 177.098 128.569C175.582 128.569 174.353 129.798 174.353 131.314C174.353 132.83 175.582 134.059 177.098 134.059Z" fill="white"/>
<path d="M354.196 170.725H284V210.333H354.196V170.725Z" fill="#001CA8"/>
<path d="M354.196 221.373H284V264H354.196V221.373Z" fill="#E6E6E6"/>
<path d="M453.471 170.725H369.235V233.431H453.471V170.725Z" fill="#E6E6E6"/>
<path d="M453.471 251.922H369.235V314.627H453.471V251.922Z" fill="#001CA8"/>
<path d="M269.843 170.725H185.608V233.431H269.843V170.725Z" fill="#E6E6E6"/>
<path d="M342.706 98.0784L318.706 188.353L319.804 188.627L343.588 99.2157L342.706 98.0784Z" fill="#3F3D56"/>
<path d="M411.98 282.745L388.196 372.176L389.078 373.314L413.078 283.039L411.98 282.745Z" fill="#3F3D56"/>
<path d="M268.196 271.431H187.196C186.905 271.51 186.6 271.521 186.304 271.463C186.009 271.405 185.73 271.28 185.491 271.097C185.252 270.914 185.058 270.678 184.924 270.408C184.791 270.138 184.721 269.841 184.721 269.539C184.721 269.238 184.791 268.941 184.924 268.67C185.058 268.4 185.252 268.165 185.491 267.981C185.73 267.798 186.009 267.673 186.304 267.615C186.6 267.557 186.905 267.568 187.196 267.647H268.196C268.611 267.76 268.978 268.006 269.24 268.348C269.501 268.69 269.643 269.109 269.643 269.539C269.643 269.97 269.501 270.388 269.24 270.73C268.978 271.072 268.611 271.318 268.196 271.431Z" fill="#E6E6E6"/>
<path d="M268.196 260.627H187.196C186.905 260.706 186.6 260.717 186.304 260.659C186.009 260.601 185.73 260.476 185.491 260.293C185.252 260.11 185.058 259.874 184.924 259.604C184.791 259.334 184.721 259.037 184.721 258.735C184.721 258.434 184.791 258.137 184.924 257.867C185.058 257.596 185.252 257.361 185.491 257.178C185.73 256.995 186.009 256.869 186.304 256.811C186.6 256.753 186.905 256.764 187.196 256.843H268.196C268.611 256.956 268.978 257.202 269.24 257.544C269.501 257.886 269.643 258.305 269.643 258.735C269.643 259.166 269.501 259.584 269.24 259.926C268.978 260.268 268.611 260.515 268.196 260.627Z" fill="#E6E6E6"/>
<path d="M268.196 282.235H187.196C186.905 282.314 186.6 282.325 186.304 282.267C186.009 282.209 185.73 282.084 185.491 281.901C185.252 281.718 185.058 281.482 184.924 281.212C184.791 280.942 184.721 280.644 184.721 280.343C184.721 280.042 184.791 279.744 184.924 279.474C185.058 279.204 185.252 278.968 185.491 278.785C185.73 278.602 186.009 278.477 186.304 278.419C186.6 278.361 186.905 278.372 187.196 278.451H268.196C268.611 278.564 268.978 278.81 269.24 279.152C269.501 279.494 269.643 279.913 269.643 280.343C269.643 280.774 269.501 281.192 269.24 281.534C268.978 281.876 268.611 282.122 268.196 282.235Z" fill="#E6E6E6"/>
<path d="M268.196 293.039H187.196C186.905 293.118 186.6 293.129 186.304 293.071C186.009 293.013 185.73 292.888 185.491 292.705C185.252 292.522 185.058 292.286 184.924 292.016C184.791 291.746 184.721 291.448 184.721 291.147C184.721 290.846 184.791 290.548 184.924 290.278C185.058 290.008 185.252 289.772 185.491 289.589C185.73 289.406 186.009 289.281 186.304 289.223C186.6 289.165 186.905 289.176 187.196 289.255H268.196C268.611 289.368 268.978 289.614 269.24 289.956C269.501 290.298 269.643 290.717 269.643 291.147C269.643 291.578 269.501 291.996 269.24 292.338C268.978 292.68 268.611 292.926 268.196 293.039Z" fill="#E6E6E6"/>
<path d="M268.196 303.922H187.196C186.905 304.001 186.6 304.012 186.304 303.954C186.009 303.896 185.73 303.77 185.491 303.587C185.252 303.404 185.058 303.168 184.924 302.898C184.791 302.628 184.721 302.331 184.721 302.029C184.721 301.728 184.791 301.431 184.924 301.161C185.058 300.89 185.252 300.655 185.491 300.472C185.73 300.289 186.009 300.163 186.304 300.105C186.6 300.047 186.905 300.058 187.196 300.137H268.196C268.611 300.25 268.978 300.497 269.24 300.839C269.501 301.18 269.643 301.599 269.643 302.029C269.643 302.46 269.501 302.878 269.24 303.22C268.978 303.562 268.611 303.809 268.196 303.922Z" fill="#E6E6E6"/>
<path d="M268.196 314.627H187.196C186.904 314.713 186.596 314.729 186.296 314.674C185.997 314.62 185.714 314.496 185.471 314.314C185.227 314.131 185.029 313.894 184.893 313.622C184.757 313.35 184.686 313.05 184.686 312.745C184.686 312.441 184.757 312.14 184.893 311.868C185.029 311.596 185.227 311.359 185.471 311.176C185.714 310.994 185.997 310.87 186.296 310.816C186.596 310.762 186.904 310.778 187.196 310.863H268.196C268.603 310.982 268.961 311.229 269.216 311.569C269.47 311.908 269.608 312.321 269.608 312.745C269.608 313.169 269.47 313.582 269.216 313.922C268.961 314.261 268.603 314.509 268.196 314.627Z" fill="#E6E6E6"/>
<path d="M352.569 282.235H285.608C285.192 282.122 284.826 281.876 284.564 281.534C284.303 281.192 284.161 280.774 284.161 280.343C284.161 279.913 284.303 279.494 284.564 279.152C284.826 278.81 285.192 278.564 285.608 278.451H352.569C352.859 278.372 353.165 278.361 353.46 278.419C353.756 278.477 354.034 278.602 354.274 278.785C354.513 278.968 354.707 279.204 354.841 279.474C354.974 279.744 355.044 280.042 355.044 280.343C355.044 280.644 354.974 280.942 354.841 281.212C354.707 281.482 354.513 281.718 354.274 281.901C354.034 282.084 353.756 282.209 353.46 282.267C353.165 282.325 352.859 282.314 352.569 282.235Z" fill="#E6E6E6"/>
<path d="M352.569 293.039H285.608C285.192 292.926 284.826 292.68 284.564 292.338C284.303 291.996 284.161 291.578 284.161 291.147C284.161 290.717 284.303 290.298 284.564 289.956C284.826 289.614 285.192 289.368 285.608 289.255H352.569C352.859 289.176 353.165 289.165 353.46 289.223C353.756 289.281 354.034 289.406 354.274 289.589C354.513 289.772 354.707 290.008 354.841 290.278C354.974 290.548 355.044 290.846 355.044 291.147C355.044 291.448 354.974 291.746 354.841 292.016C354.707 292.286 354.513 292.522 354.274 292.705C354.034 292.888 353.756 293.013 353.46 293.071C353.165 293.129 352.859 293.118 352.569 293.039Z" fill="#E6E6E6"/>
<path d="M352.569 303.922H285.608C285.192 303.809 284.826 303.562 284.564 303.22C284.303 302.878 284.161 302.46 284.161 302.029C284.161 301.599 284.303 301.18 284.564 300.839C284.826 300.497 285.192 300.25 285.608 300.137H352.569C352.859 300.058 353.165 300.047 353.46 300.105C353.756 300.163 354.034 300.289 354.274 300.472C354.513 300.655 354.707 300.89 354.841 301.161C354.974 301.431 355.044 301.728 355.044 302.029C355.044 302.331 354.974 302.628 354.841 302.898C354.707 303.168 354.513 303.404 354.274 303.587C354.034 303.77 353.756 303.896 353.46 303.954C353.165 304.012 352.859 304.001 352.569 303.922Z" fill="#E6E6E6"/>
<path d="M352.569 314.627H285.608C285.201 314.509 284.843 314.261 284.588 313.922C284.334 313.582 284.196 313.169 284.196 312.745C284.196 312.321 284.334 311.908 284.588 311.569C284.843 311.229 285.201 310.982 285.608 310.863H352.569C352.861 310.778 353.169 310.762 353.468 310.816C353.768 310.87 354.051 310.994 354.294 311.176C354.538 311.359 354.735 311.596 354.871 311.868C355.008 312.14 355.078 312.441 355.078 312.745C355.078 313.05 355.008 313.35 354.871 313.622C354.735 313.894 354.538 314.131 354.294 314.314C354.051 314.496 353.768 314.62 353.468 314.674C353.169 314.729 352.861 314.713 352.569 314.627Z" fill="#E6E6E6"/>
<path d="M344.333 104.196C357.751 104.196 368.627 93.3192 368.627 79.902C368.627 66.4847 357.751 55.6078 344.333 55.6078C330.916 55.6078 320.039 66.4847 320.039 79.902C320.039 93.3192 330.916 104.196 344.333 104.196Z" fill="#F0F0F0"/>
<path d="M344.333 55.0588C343.086 55.0592 341.84 55.1576 340.608 55.3529C339.947 55.4266 339.292 55.5445 338.647 55.7059C334.157 56.7377 330.043 58.9975 326.764 62.2328C323.485 65.4681 321.169 69.5515 320.077 74.0268C318.985 78.502 319.158 83.1929 320.578 87.5752C321.998 91.9576 324.608 95.8589 328.118 98.8431C328.549 99.1961 328.961 99.5294 329.392 99.8431C332.545 102.199 336.212 103.771 340.092 104.432C343.972 105.092 347.953 104.822 351.708 103.642C355.462 102.462 358.883 100.408 361.688 97.6469C364.493 94.8862 366.602 91.4986 367.841 87.7631C369.08 84.0277 369.414 80.0513 368.815 76.1615C368.217 72.2717 366.702 68.5798 364.397 65.39C362.092 62.2001 359.062 59.6036 355.556 57.8142C352.051 56.0249 348.171 55.0939 344.235 55.098L344.333 55.0588ZM344.333 103.667C339.282 103.667 334.363 102.052 330.294 99.0588C329.851 98.7419 329.426 98.4016 329.02 98.0392C325.611 95.1611 323.082 91.3809 321.723 87.1319C320.363 82.8828 320.228 78.3367 321.334 74.0145C322.439 69.6924 324.739 65.7689 327.971 62.6938C331.203 59.6187 335.236 57.5163 339.608 56.6274C340.216 56.4902 340.824 56.3922 341.431 56.3137C342.394 56.1964 343.363 56.1374 344.333 56.1373C350.636 56.1373 356.681 58.641 361.138 63.0978C365.594 67.5545 368.098 73.5992 368.098 79.902C368.098 86.2048 365.594 92.2494 361.138 96.7061C356.681 101.163 350.636 103.667 344.333 103.667V103.667Z" fill="#3F3D56"/>
<path d="M356.216 75.0392H332.451C332.025 75.0392 331.616 74.8698 331.314 74.5683C331.013 74.2668 330.843 73.8578 330.843 73.4314V73.4314C330.843 73.0031 331.012 72.5921 331.313 72.2875C331.614 71.9828 332.023 71.8091 332.451 71.8039H356.216C356.429 71.8039 356.641 71.846 356.838 71.9278C357.036 72.0096 357.215 72.1295 357.366 72.2806C357.518 72.4317 357.637 72.6111 357.719 72.8086C357.801 73.006 357.843 73.2177 357.843 73.4314C357.838 73.8596 357.664 74.2685 357.36 74.5695C357.055 74.8705 356.644 75.0392 356.216 75.0392V75.0392Z" fill="#001CA8"/>
<path d="M356.216 81.5294H332.451C332.023 81.5243 331.614 81.3505 331.313 81.0459C331.012 80.7412 330.843 80.3302 330.843 79.902V79.902C330.843 79.4755 331.013 79.0666 331.314 78.765C331.616 78.4635 332.025 78.2941 332.451 78.2941H356.216C356.644 78.2941 357.055 78.4629 357.36 78.7638C357.664 79.0648 357.838 79.4737 357.843 79.902V79.902C357.843 80.1157 357.801 80.3273 357.719 80.5248C357.637 80.7222 357.518 80.9016 357.366 81.0527C357.215 81.2039 357.036 81.3237 356.838 81.4055C356.641 81.4873 356.429 81.5294 356.216 81.5294V81.5294Z" fill="#001CA8"/>
<path d="M356.216 88H332.451C332.025 88 331.616 87.8306 331.314 87.5291C331.013 87.2275 330.843 86.8186 330.843 86.3922V86.3922C330.843 85.9639 331.012 85.5529 331.313 85.2483C331.614 84.9436 332.023 84.7699 332.451 84.7647H356.216C356.429 84.7647 356.641 84.8068 356.838 84.8886C357.036 84.9704 357.215 85.0903 357.366 85.2414C357.518 85.3925 357.637 85.5719 357.719 85.7694C357.801 85.9668 357.843 86.1784 357.843 86.3922C357.838 86.8204 357.664 87.2293 357.36 87.5303C357.055 87.8313 356.644 88 356.216 88V88Z" fill="#001CA8"/>
<path d="M385.373 418.51C398.79 418.51 409.667 407.633 409.667 394.216C409.667 380.798 398.79 369.922 385.373 369.922C371.955 369.922 361.078 380.798 361.078 394.216C361.078 407.633 371.955 418.51 385.373 418.51Z" fill="#F0F0F0"/>
<path d="M385.373 369.373C384.126 369.376 382.881 369.468 381.647 369.647C381.02 369.647 380.412 369.863 379.784 370C375.292 371.028 371.174 373.287 367.892 376.523C364.611 379.759 362.295 383.844 361.204 388.322C360.113 392.8 360.29 397.493 361.715 401.876C363.141 406.258 365.758 410.158 369.275 413.137C369.682 413.498 370.107 413.839 370.549 414.157C373.703 416.513 377.371 418.086 381.251 418.746C385.132 419.406 389.114 419.135 392.869 417.954C396.625 416.774 400.045 414.718 402.85 411.955C405.655 409.193 407.763 405.804 409.001 402.068C410.239 398.331 410.571 394.353 409.97 390.463C409.369 386.573 407.853 382.881 405.545 379.692C403.238 376.503 400.205 373.907 396.698 372.12C393.191 370.333 389.309 369.405 385.373 369.412V369.373ZM385.373 417.98C380.321 417.981 375.402 416.366 371.333 413.373C370.902 413.039 370.471 412.706 370.059 412.353C366.644 409.476 364.11 405.695 362.747 401.443C361.384 397.191 361.248 392.641 362.353 388.315C363.459 383.989 365.762 380.063 368.997 376.986C372.233 373.91 376.271 371.808 380.647 370.922L382.471 370.627C383.433 370.51 384.403 370.451 385.373 370.451C391.675 370.451 397.72 372.955 402.177 377.412C406.633 381.868 409.137 387.913 409.137 394.216C409.137 400.519 406.633 406.563 402.177 411.02C397.72 415.477 391.675 417.98 385.373 417.98Z" fill="#3F3D56"/>
<path d="M397.255 389.353H373.51C373.296 389.353 373.084 389.311 372.887 389.229C372.69 389.147 372.51 389.027 372.359 388.876C372.208 388.725 372.088 388.546 372.006 388.348C371.924 388.151 371.882 387.939 371.882 387.726V387.726C371.888 387.297 372.061 386.888 372.366 386.587C372.671 386.286 373.082 386.118 373.51 386.118H397.255C397.683 386.118 398.094 386.286 398.399 386.587C398.703 386.888 398.877 387.297 398.882 387.726V387.726C398.882 388.157 398.711 388.571 398.406 388.876C398.1 389.181 397.687 389.353 397.255 389.353V389.353Z" fill="#001CA8"/>
<path d="M397.255 395.824H373.51C373.082 395.824 372.671 395.655 372.366 395.354C372.061 395.053 371.888 394.644 371.882 394.216V394.216C371.882 394.002 371.924 393.79 372.006 393.593C372.088 393.395 372.208 393.216 372.359 393.065C372.51 392.914 372.69 392.794 372.887 392.712C373.084 392.63 373.296 392.588 373.51 392.588H397.255C397.687 392.588 398.1 392.76 398.406 393.065C398.711 393.37 398.882 393.784 398.882 394.216V394.216C398.877 394.644 398.703 395.053 398.399 395.354C398.094 395.655 397.683 395.824 397.255 395.824V395.824Z" fill="#001CA8"/>
<path d="M397.255 402.314H373.51C373.296 402.314 373.084 402.272 372.887 402.19C372.69 402.108 372.51 401.988 372.359 401.837C372.208 401.686 372.088 401.507 372.006 401.309C371.924 401.112 371.882 400.9 371.882 400.686V400.686C371.888 400.258 372.061 399.849 372.366 399.548C372.671 399.247 373.082 399.078 373.51 399.078H397.255C397.683 399.078 398.094 399.247 398.399 399.548C398.703 399.849 398.877 400.258 398.882 400.686V400.686C398.882 400.9 398.84 401.112 398.758 401.309C398.677 401.507 398.557 401.686 398.406 401.837C398.255 401.988 398.075 402.108 397.878 402.19C397.68 402.272 397.469 402.314 397.255 402.314V402.314Z" fill="#001CA8"/>
<path d="M194.882 449.941H7.84313C7.67152 449.941 7.50694 449.873 7.38559 449.752C7.26425 449.63 7.19608 449.466 7.19608 449.294C7.19608 449.123 7.26425 448.958 7.38559 448.837C7.50694 448.715 7.67152 448.647 7.84313 448.647H194.882C195.054 448.647 195.219 448.715 195.34 448.837C195.461 448.958 195.529 449.123 195.529 449.294C195.529 449.466 195.461 449.63 195.34 449.752C195.219 449.873 195.054 449.941 194.882 449.941Z" fill="#CACACA"/>
</svg>
