<svg width="500" height="500" viewBox="0 0 500 500" fill="none" xmlns="http://www.w3.org/2000/svg">
<path d="M382.843 105.882V105.98V106.137C382.742 106.495 382.689 106.864 382.686 107.235C382.676 107.392 382.676 107.549 382.686 107.706C382.667 107.901 382.667 108.099 382.686 108.294C382.731 108.516 382.796 108.732 382.882 108.941C382.904 109.045 382.944 109.145 383 109.235C383.296 109.905 383.748 110.494 384.317 110.955C384.887 111.415 385.558 111.733 386.274 111.882H386.49C386.88 111.942 387.277 111.942 387.667 111.882V111.882C388.634 111.824 389.556 111.452 390.294 110.824C390.745 110.451 390.784 110.059 391.353 110.235C393.157 110.784 394.353 107.824 393.451 106.196V106.02C393.451 104.882 391.647 104.588 390.667 104.059C390.639 104.17 390.59 104.275 390.522 104.367C390.453 104.459 390.367 104.536 390.269 104.595C390.17 104.653 390.061 104.691 389.948 104.707C389.834 104.723 389.719 104.716 389.608 104.686C389.478 104.651 389.358 104.586 389.256 104.498C389.154 104.41 389.073 104.3 389.02 104.176C388.843 103.745 388.686 103.294 388.529 102.843C386.529 101.51 381.431 103.667 382.843 105.882Z" fill="#2F2E41"/>
<path d="M370.863 116.196C370.608 116.804 362.608 116.745 362.235 117.294C359.392 121.451 369.608 139.157 366.765 143.333L366.373 143.804C367.299 143.377 368.19 142.879 369.039 142.314C369.039 140.608 369.176 138.882 369.255 137.176C370.075 138.267 370.735 139.469 371.216 140.745C372.42 139.611 373.733 138.6 375.137 137.725C376.283 136.47 377.604 135.387 379.059 134.51L370.863 116.196Z" fill="#2F2E41"/>
<path d="M376.686 150.333C375.955 149.859 375.138 149.533 374.281 149.374C373.424 149.216 372.544 149.228 371.691 149.41C370.839 149.592 370.031 149.941 369.313 150.436C368.596 150.93 367.983 151.562 367.51 152.294C367.119 152.9 366.822 153.561 366.627 154.255L354.451 185.98L333.529 174.098C333.439 172.742 332.922 171.45 332.054 170.405C331.185 169.361 330.009 168.617 328.693 168.28C327.376 167.943 325.987 168.03 324.724 168.529C323.46 169.028 322.386 169.913 321.655 171.058C320.924 172.204 320.573 173.55 320.653 174.907C320.732 176.263 321.238 177.56 322.098 178.612C322.958 179.664 324.128 180.417 325.441 180.765C326.754 181.113 328.144 181.037 329.412 180.549C333.804 185.255 352.941 204.549 360.784 197C367.431 190.667 377.02 166.118 379.333 157.647C379.716 156.304 379.666 154.875 379.191 153.563C378.716 152.25 377.84 151.12 376.686 150.333Z" fill="#A0616A"/>
<path d="M281.706 171.569C275.721 156.657 274.798 140.193 279.078 124.706C279.025 123.757 279.35 122.826 279.982 122.116C280.614 121.407 281.502 120.977 282.451 120.922L317.863 118.961C318.796 118.923 319.708 119.253 320.401 119.88C321.093 120.507 321.513 121.381 321.569 122.314L324.216 169.176C324.264 170.127 323.934 171.058 323.299 171.767C322.664 172.476 321.774 172.905 320.823 172.961L285.431 174.922C284.497 174.954 283.586 174.623 282.891 173.998C282.196 173.372 281.771 172.501 281.706 171.569Z" fill="#E6E6E6"/>
<path d="M283.627 157.255C279.706 149.882 280.196 138.961 281.941 127.137C281.907 126.692 281.961 126.244 282.102 125.821C282.243 125.397 282.467 125.005 282.761 124.669C283.055 124.333 283.413 124.059 283.814 123.864C284.216 123.668 284.652 123.554 285.098 123.529L315.529 121.824C316.416 121.775 317.285 122.081 317.947 122.672C318.608 123.264 319.008 124.094 319.059 124.98L321.412 166.706C321.436 167.146 321.372 167.587 321.225 168.003C321.078 168.419 320.851 168.802 320.556 169.13C320.261 169.458 319.904 169.724 319.506 169.914C319.108 170.103 318.676 170.213 318.235 170.235L299.392 171.294C295.442 171.514 291.566 170.16 288.611 167.529C285.657 164.898 283.865 161.204 283.627 157.255V157.255Z" fill="white"/>
<path d="M298.961 162.941C300.693 162.941 302.098 161.537 302.098 159.804C302.098 158.071 300.693 156.667 298.961 156.667C297.228 156.667 295.823 158.071 295.823 159.804C295.823 161.537 297.228 162.941 298.961 162.941Z" fill="#001CA8"/>
<path d="M307.569 131.059C306.608 129.451 304.392 129.314 302.529 129.353C300.614 129.315 298.701 129.533 296.843 130C295.915 130.234 295.043 130.649 294.276 131.221C293.509 131.793 292.862 132.511 292.373 133.333C291.498 135.544 291.456 137.996 292.255 140.235C293.378 144.621 295.142 148.816 297.49 152.686L298.863 153.608C301.64 151.073 303.883 148.008 305.458 144.593C307.034 141.179 307.912 137.484 308.039 133.725C308.141 132.81 307.978 131.884 307.569 131.059Z" fill="#001CA8"/>
<path d="M107.059 292.471C95.549 249.49 97.3922 201.333 107.059 150.157C107.059 148.901 107.552 147.696 108.432 146.801C109.313 145.906 110.509 145.393 111.765 145.373H254.02C254.65 145.37 255.274 145.492 255.857 145.731C256.439 145.97 256.969 146.322 257.415 146.767C257.862 147.211 258.216 147.74 258.457 148.321C258.699 148.903 258.824 149.527 258.824 150.157V292.471C258.824 293.739 258.319 294.956 257.422 295.854C256.525 296.751 255.308 297.255 254.039 297.255H111.765C110.509 297.234 109.313 296.721 108.432 295.826C107.552 294.931 107.059 293.726 107.059 292.471Z" fill="#F2F2F2"/>
<path d="M107.961 256.863C105.044 222.389 105.819 187.701 110.274 153.392C110.28 152.125 110.785 150.911 111.681 150.015C112.578 149.119 113.792 148.613 115.059 148.608H250.98C251.608 148.608 252.229 148.732 252.808 148.972C253.388 149.213 253.914 149.566 254.356 150.01C254.799 150.455 255.15 150.982 255.388 151.563C255.626 152.143 255.748 152.765 255.745 153.392V289.255C255.758 289.889 255.645 290.519 255.411 291.108C255.177 291.698 254.828 292.235 254.385 292.688C253.941 293.141 253.411 293.5 252.827 293.746C252.242 293.991 251.614 294.118 250.98 294.118H148.451C138.258 294.123 128.436 290.295 120.935 283.393C113.434 276.491 108.802 267.021 107.961 256.863V256.863Z" fill="white"/>
<path d="M194.922 175.431H137.745C137.417 175.431 137.103 175.301 136.872 175.07C136.64 174.838 136.51 174.524 136.51 174.196C136.51 173.868 136.64 173.554 136.872 173.323C137.103 173.091 137.417 172.961 137.745 172.961H194.922C195.249 172.961 195.563 173.091 195.795 173.323C196.027 173.554 196.157 173.868 196.157 174.196C196.157 174.524 196.027 174.838 195.795 175.07C195.563 175.301 195.249 175.431 194.922 175.431V175.431Z" fill="#001CA8"/>
<path d="M223.863 186.706H137.745C137.417 186.706 137.103 186.576 136.872 186.344C136.64 186.112 136.51 185.798 136.51 185.471C136.51 185.143 136.64 184.829 136.872 184.597C137.103 184.365 137.417 184.235 137.745 184.235H223.863C224.19 184.235 224.505 184.365 224.736 184.597C224.968 184.829 225.098 185.143 225.098 185.471C225.093 185.797 224.961 186.108 224.731 186.338C224.5 186.569 224.189 186.701 223.863 186.706V186.706Z" fill="#F2F2F2"/>
<path d="M223.863 195.51H137.745C137.571 195.488 137.395 195.503 137.227 195.555C137.059 195.606 136.905 195.693 136.773 195.809C136.642 195.924 136.536 196.067 136.464 196.227C136.392 196.387 136.354 196.56 136.354 196.735C136.354 196.911 136.392 197.084 136.464 197.244C136.536 197.404 136.642 197.546 136.773 197.662C136.905 197.778 137.059 197.865 137.227 197.916C137.395 197.968 137.571 197.983 137.745 197.961H223.863C224.037 197.983 224.213 197.968 224.381 197.916C224.549 197.865 224.703 197.778 224.835 197.662C224.966 197.546 225.072 197.404 225.144 197.244C225.216 197.084 225.253 196.911 225.253 196.735C225.253 196.56 225.216 196.387 225.144 196.227C225.072 196.067 224.966 195.924 224.835 195.809C224.703 195.693 224.549 195.606 224.381 195.555C224.213 195.503 224.037 195.488 223.863 195.51V195.51Z" fill="#F2F2F2"/>
<path d="M223.863 209.235H137.745C137.571 209.257 137.395 209.242 137.227 209.191C137.059 209.139 136.905 209.053 136.773 208.937C136.642 208.821 136.536 208.678 136.464 208.518C136.392 208.358 136.354 208.185 136.354 208.01C136.354 207.834 136.392 207.661 136.464 207.501C136.536 207.342 136.642 207.199 136.773 207.083C136.905 206.967 137.059 206.881 137.227 206.829C137.395 206.778 137.571 206.762 137.745 206.784H223.863C224.037 206.762 224.213 206.778 224.381 206.829C224.549 206.881 224.703 206.967 224.835 207.083C224.966 207.199 225.072 207.342 225.144 207.501C225.216 207.661 225.253 207.834 225.253 208.01C225.253 208.185 225.216 208.358 225.144 208.518C225.072 208.678 224.966 208.821 224.835 208.937C224.703 209.053 224.549 209.139 224.381 209.191C224.213 209.242 224.037 209.257 223.863 209.235V209.235Z" fill="#F2F2F2"/>
<path d="M223.863 220.51H137.745C137.571 220.532 137.395 220.517 137.227 220.465C137.059 220.414 136.905 220.327 136.773 220.211C136.642 220.095 136.536 219.953 136.464 219.793C136.392 219.633 136.354 219.46 136.354 219.284C136.354 219.109 136.392 218.936 136.464 218.776C136.536 218.616 136.642 218.473 136.773 218.358C136.905 218.242 137.059 218.155 137.227 218.104C137.395 218.052 137.571 218.037 137.745 218.059H223.863C224.037 218.037 224.213 218.052 224.381 218.104C224.549 218.155 224.703 218.242 224.835 218.358C224.966 218.473 225.072 218.616 225.144 218.776C225.216 218.936 225.253 219.109 225.253 219.284C225.253 219.46 225.216 219.633 225.144 219.793C225.072 219.953 224.966 220.095 224.835 220.211C224.703 220.327 224.549 220.414 224.381 220.465C224.213 220.517 224.037 220.532 223.863 220.51V220.51Z" fill="#F2F2F2"/>
<path d="M223.863 231.863H137.745C137.417 231.863 137.103 231.733 136.872 231.501C136.64 231.269 136.51 230.955 136.51 230.627C136.51 230.3 136.64 229.986 136.872 229.754C137.103 229.522 137.417 229.392 137.745 229.392H223.863C224.19 229.392 224.505 229.522 224.736 229.754C224.968 229.986 225.098 230.3 225.098 230.627C225.098 230.955 224.968 231.269 224.736 231.501C224.505 231.733 224.19 231.863 223.863 231.863V231.863Z" fill="#F2F2F2"/>
<path d="M223.863 243.137H137.745C137.417 243.137 137.103 243.007 136.872 242.775C136.64 242.544 136.51 242.23 136.51 241.902C136.51 241.574 136.64 241.26 136.872 241.028C137.103 240.797 137.417 240.667 137.745 240.667H223.863C224.19 240.667 224.505 240.797 224.736 241.028C224.968 241.26 225.098 241.574 225.098 241.902C225.098 242.23 224.968 242.544 224.736 242.775C224.505 243.007 224.19 243.137 223.863 243.137V243.137Z" fill="#F2F2F2"/>
<path d="M223.863 254.529H137.745C137.584 254.532 137.424 254.502 137.274 254.443C137.124 254.383 136.988 254.293 136.873 254.18C136.758 254.067 136.667 253.932 136.604 253.784C136.542 253.635 136.51 253.475 136.51 253.314C136.51 252.986 136.64 252.672 136.872 252.44C137.103 252.209 137.417 252.078 137.745 252.078H223.863C224.037 252.056 224.213 252.072 224.381 252.123C224.549 252.175 224.703 252.261 224.835 252.377C224.966 252.493 225.072 252.636 225.144 252.795C225.216 252.955 225.253 253.129 225.253 253.304C225.253 253.479 225.216 253.653 225.144 253.812C225.072 253.972 224.966 254.115 224.835 254.231C224.703 254.347 224.549 254.433 224.381 254.485C224.213 254.536 224.037 254.551 223.863 254.529V254.529Z" fill="#F2F2F2"/>
<path d="M223.863 265.882H137.745C137.417 265.882 137.103 265.752 136.872 265.521C136.64 265.289 136.51 264.975 136.51 264.647C136.51 264.319 136.64 264.005 136.872 263.774C137.103 263.542 137.417 263.412 137.745 263.412H223.863C224.19 263.412 224.505 263.542 224.736 263.774C224.968 264.005 225.098 264.319 225.098 264.647C225.098 264.975 224.968 265.289 224.736 265.521C224.505 265.752 224.19 265.882 223.863 265.882V265.882Z" fill="#F2F2F2"/>
<path d="M203.431 190.784C201.521 190.02 199.425 189.846 197.414 190.287C195.404 190.727 193.573 191.761 192.157 193.255C190.901 194.697 190.239 196.561 190.305 198.471C190.37 200.382 191.158 202.197 192.51 203.549C196.196 206.745 201.294 205.51 205.314 203.765C209 202.118 213.059 199.431 213 194.902C213 193.73 212.716 192.576 212.171 191.539C211.627 190.501 210.838 189.611 209.874 188.946C208.909 188.281 207.798 187.859 206.635 187.718C205.471 187.578 204.291 187.721 203.196 188.137C202.235 188.49 202.647 190.098 203.627 189.706C205.039 189.17 206.606 189.216 207.985 189.833C209.363 190.451 210.44 191.59 210.98 193C211.117 193.361 211.216 193.736 211.274 194.118C211.843 197.882 208.627 200.314 205.647 201.804C202.373 203.431 198.196 205 194.706 203.118C194.028 202.739 193.435 202.225 192.965 201.606C192.495 200.988 192.157 200.28 191.973 199.525C191.789 198.771 191.763 197.987 191.895 197.221C192.028 196.456 192.318 195.727 192.745 195.078C194.824 191.588 199.451 191.157 202.961 192.353C203.941 192.706 204.373 191.137 203.392 190.784H203.431Z" fill="#001CA8"/>
<path d="M152.667 213.471C150.749 212.693 148.64 212.513 146.618 212.954C144.596 213.394 142.754 214.436 141.333 215.941C140.078 217.383 139.416 219.247 139.481 221.158C139.547 223.068 140.335 224.883 141.686 226.235C145.373 229.431 150.471 228.196 154.51 226.451C158.176 224.784 162.235 222.118 162.176 217.588C162.177 216.417 161.892 215.262 161.348 214.225C160.803 213.187 160.015 212.298 159.05 211.632C158.086 210.967 156.974 210.546 155.811 210.405C154.648 210.264 153.468 210.408 152.373 210.824C151.412 211.176 151.824 212.784 152.804 212.373C153.507 212.102 154.256 211.973 155.009 211.993C155.762 212.013 156.503 212.182 157.19 212.49C157.877 212.798 158.497 213.239 159.013 213.788C159.529 214.336 159.931 214.982 160.196 215.686C160.333 216.048 160.431 216.422 160.49 216.804C161.059 220.569 157.843 223 154.863 224.49C151.588 226.118 147.412 227.667 143.922 225.804C143.243 225.423 142.65 224.907 142.18 224.287C141.709 223.667 141.371 222.957 141.188 222.201C141.004 221.445 140.977 220.659 141.11 219.893C141.243 219.126 141.533 218.395 141.961 217.745C144.039 214.275 148.667 213.824 152.176 215.039C153.157 215.392 153.588 213.824 152.608 213.471H152.667Z" fill="#E6E6E6"/>
<path d="M202.902 258.824C200.98 258.047 198.87 257.867 196.844 258.308C194.819 258.749 192.974 259.789 191.549 261.294C190.293 262.733 189.632 264.596 189.701 266.505C189.771 268.414 190.565 270.225 191.922 271.569C195.608 274.784 200.706 273.529 204.725 271.784C208.412 270.137 212.451 267.471 212.392 262.941C212.377 261.786 212.089 260.65 211.55 259.628C211.012 258.605 210.239 257.725 209.294 257.059C208.328 256.41 207.224 255.997 206.07 255.85C204.916 255.704 203.744 255.829 202.647 256.216C201.667 256.569 202.098 258.176 203.078 257.784C203.776 257.517 204.52 257.39 205.267 257.41C206.013 257.431 206.749 257.6 207.43 257.906C208.112 258.212 208.726 258.65 209.238 259.194C209.75 259.739 210.149 260.379 210.412 261.078C210.555 261.446 210.66 261.827 210.725 262.216C211.294 265.98 208.078 268.412 205.098 269.882C202.118 271.353 197.647 273.078 194.137 271.216C193.456 270.837 192.861 270.322 192.389 269.702C191.917 269.083 191.578 268.372 191.394 267.615C191.21 266.858 191.185 266.071 191.319 265.304C191.454 264.537 191.746 263.806 192.176 263.157C194.137 259.686 198.882 259.235 202.392 260.431C203.373 260.784 203.784 259.216 202.824 258.882L202.902 258.824Z" fill="#E6E6E6"/>
<path d="M201.059 274.157C202.291 282.034 206 289.314 211.647 294.941C215.959 299.162 221.239 302.263 227.026 303.972C232.813 305.681 238.93 305.946 244.843 304.745C245.843 304.529 245.725 302.922 244.706 303.118C237.462 304.635 229.926 303.868 223.137 300.922C217.74 298.524 213.03 294.81 209.44 290.12C205.85 285.431 203.494 279.915 202.588 274.078C202.431 273.059 200.824 273.196 200.98 274.216L201.059 274.157Z" fill="#E6E6E6"/>
<path d="M247.275 315.098L259.333 308.157C259.507 308.034 259.625 307.848 259.662 307.639C259.699 307.429 259.651 307.214 259.529 307.039C259.495 306.978 259.448 306.925 259.392 306.882L247.059 297.902C246.216 297.294 245.098 298.529 246.02 299.137L258.431 308.118V306.824L246.353 313.725C245.451 314.255 246.353 315.588 247.275 315.059V315.098Z" fill="#E6E6E6"/>
<path d="M211.314 187.314C212.546 179.443 216.255 172.169 221.902 166.549C226.209 162.321 231.489 159.215 237.277 157.506C243.065 155.797 249.185 155.535 255.098 156.745C256.118 156.961 255.98 158.569 254.961 158.353C247.715 156.837 240.178 157.611 233.392 160.569C228.005 162.984 223.311 166.713 219.738 171.413C216.165 176.113 213.828 181.634 212.941 187.471C212.784 188.49 211.157 188.353 211.314 187.314Z" fill="#3F3D56"/>
<path d="M257.549 146.373L269.588 153.314C269.677 153.374 269.753 153.452 269.811 153.543C269.869 153.634 269.909 153.735 269.927 153.841C269.945 153.947 269.942 154.056 269.918 154.16C269.893 154.265 269.848 154.364 269.784 154.451L269.647 154.608L257.255 163.588C256.412 164.196 255.294 162.961 256.196 162.353L268.627 153.353V154.647L256.588 147.706C255.726 147.196 256.647 145.863 257.549 146.373Z" fill="#3F3D56"/>
<path d="M147.059 230.961C145.827 238.832 142.118 246.106 136.471 251.726C132.164 255.954 126.884 259.059 121.096 260.769C115.307 262.478 109.187 262.739 103.274 261.529C102.274 261.333 102.392 259.706 103.412 259.922C110.626 261.417 118.126 260.643 124.882 257.706C130.277 255.31 134.986 251.599 138.575 246.913C142.165 242.227 144.523 236.715 145.431 230.882C145.588 229.843 147.216 229.98 147.059 231.02V230.961Z" fill="#E6E6E6"/>
<path d="M100.824 271.902L88.7843 264.961C88.6091 264.835 88.4904 264.645 88.4537 264.432C88.4171 264.22 88.4654 264.001 88.5882 263.824L88.7255 263.667L101.137 254.686C101.961 254.078 103.098 255.314 102.176 255.941L89.7647 264.922V263.627L101.745 270.588C102.667 271.098 101.745 272.431 100.824 271.922V271.902Z" fill="#E6E6E6"/>
<path d="M50.7647 288.98C44.5999 278.876 41.9204 267.028 43.1372 255.255C43.0587 254.919 43.0471 254.571 43.1031 254.23C43.1591 253.89 43.2816 253.563 43.4637 253.27C43.6458 252.977 43.8838 252.723 44.1643 252.522C44.4447 252.32 44.762 252.177 45.098 252.098L70.5882 246.353C70.9243 246.274 71.2725 246.263 71.613 246.319C71.9535 246.375 72.2797 246.497 72.5728 246.679C72.866 246.861 73.1204 247.1 73.3215 247.38C73.5227 247.66 73.6666 247.978 73.7451 248.314L81.3529 282.039C81.4315 282.375 81.4431 282.723 81.3871 283.064C81.3311 283.405 81.2085 283.731 81.0265 284.024C80.8444 284.317 80.6063 284.571 80.3259 284.772C80.0455 284.974 79.7282 285.118 79.3922 285.196L53.902 290.941C53.2261 291.094 52.5173 290.974 51.9297 290.607C51.3422 290.239 50.9234 289.655 50.7647 288.98V288.98Z" fill="#F2F2F2"/>
<path d="M50.4117 278.431C46.6274 273.549 45.6863 265.549 45.5294 256.745C45.4581 256.422 45.4525 256.087 45.5132 255.761C45.5738 255.436 45.6993 255.125 45.8822 254.849C46.0651 254.573 46.3018 254.336 46.578 254.153C46.8542 253.97 47.1645 253.845 47.4902 253.784L69.3725 248.843C69.6959 248.775 70.0297 248.771 70.3544 248.833C70.6791 248.895 70.9883 249.02 71.2639 249.203C71.5395 249.386 71.7759 249.621 71.9596 249.896C72.1432 250.171 72.2702 250.479 72.3333 250.804L79.098 280.804C79.2391 281.443 79.1227 282.112 78.7741 282.666C78.4254 283.221 77.8726 283.615 77.2353 283.765L63.6667 286.824C62.2448 287.153 60.7716 287.197 59.3327 286.952C57.8938 286.707 56.5178 286.179 55.2846 285.399C54.0515 284.618 52.9857 283.6 52.1492 282.404C51.3127 281.208 50.7221 279.858 50.4117 278.431V278.431Z" fill="white"/>
<path d="M61.8627 280.647C63.1406 280.647 64.1765 279.611 64.1765 278.333C64.1765 277.055 63.1406 276.02 61.8627 276.02C60.5849 276.02 59.549 277.055 59.549 278.333C59.549 279.611 60.5849 280.647 61.8627 280.647Z" fill="#F2F2F2"/>
<path d="M64.7059 256.412C63.8235 255.353 62.1961 255.529 60.7843 255.784C59.3912 255.983 58.0321 256.372 56.7451 256.941C56.0967 257.224 55.5112 257.633 55.023 258.145C54.5348 258.656 54.1536 259.261 53.9019 259.922C53.5233 261.629 53.7886 263.417 54.647 264.941C55.9947 267.991 57.7853 270.826 59.9608 273.353L61.0784 273.863C62.788 271.678 64.0434 269.174 64.7708 266.496C65.4981 263.819 65.6827 261.024 65.3137 258.274C65.2889 257.609 65.0783 256.964 64.7059 256.412V256.412Z" fill="#F2F2F2"/>
<path d="M61.8627 280.647C63.1406 280.647 64.1765 279.611 64.1765 278.333C64.1765 277.055 63.1406 276.02 61.8627 276.02C60.5849 276.02 59.549 277.055 59.549 278.333C59.549 279.611 60.5849 280.647 61.8627 280.647Z" fill="#E6E6E6"/>
<path d="M64.7059 256.412C63.8235 255.353 62.1961 255.529 60.7843 255.784C59.3912 255.983 58.0321 256.372 56.7451 256.941C56.0967 257.224 55.5112 257.633 55.023 258.145C54.5348 258.656 54.1536 259.261 53.9019 259.922C53.5233 261.629 53.7886 263.417 54.647 264.941C55.9947 267.991 57.7853 270.826 59.9608 273.353L61.0784 273.863C62.788 271.678 64.0434 269.174 64.7708 266.496C65.4981 263.819 65.6827 261.024 65.3137 258.274C65.2889 257.609 65.0783 256.964 64.7059 256.412V256.412Z" fill="#E6E6E6"/>
<path d="M382.843 389.745H376.647L373.706 365.824H382.843V389.745Z" fill="#A0616A"/>
<path d="M364.137 398.882C364.137 399.579 364.414 400.247 364.907 400.74C365.399 401.233 366.068 401.51 366.765 401.51H378.431L378.784 400.765L380.431 397.353L381.078 400.765L381.216 401.51H385.627V400.765L384.471 386.686L382.921 386.588L376.294 386.196L374.667 386.098V390.294C373.353 391.608 363.647 396.588 364.137 398.882Z" fill="#2F2E41"/>
<path d="M358.647 384.922L352.804 386.98L342.098 365.392L350.725 362.373L358.647 384.922Z" fill="#A0616A"/>
<path d="M344.02 399.745C344.247 400.402 344.725 400.942 345.35 401.248C345.975 401.553 346.695 401.598 347.353 401.373L358.373 397.451V396.608L358.804 392.863L360.549 395.863L360.922 396.51L365.078 395.059L364.765 394.373L359 381.471L357.529 381.902L351.137 383.726L349.569 384.176L350.961 388.098C350.294 389.843 342.784 397.745 344.02 399.745Z" fill="#2F2E41"/>
<path d="M353.823 198.333L357.667 215.706L385.765 218.255L388.353 203.118L353.823 198.333Z" fill="#A0616A"/>
<path d="M387.647 210.549L356.02 210.02L355.333 219.235L330.922 292.647L326.588 310.706L339.02 377.706H360.078C360.078 377.706 359.647 360.059 358.804 359.373C357.961 358.686 356.216 359.373 357.51 355.627C358.804 351.882 359.765 350.647 358.235 349.137C356.706 347.627 354.824 348.902 355.98 345.216C357.137 341.529 366.431 292.49 366.431 292.49V380.588H388.098C388.098 380.588 392.647 376.451 390.549 374.294C388.451 372.137 386.765 371.706 388.471 368.745C390.176 365.784 393.843 366.529 390.726 362.765C388.255 359.765 394.177 277.333 396.608 243.569C397.29 234.445 394.377 225.416 388.49 218.412V218.412L387.647 210.549Z" fill="#2F2E41"/>
<path d="M371.373 141.902L385.353 141.196L391.843 151.451C391.843 151.451 404.078 153.51 403.216 167.902C402.353 182.294 388.353 194.941 388.353 194.941L388.941 192.98L387.902 195.941L388.039 197.627L389.471 199.392L389.608 201.216L388.353 204.118L390.059 206.882L354.078 203.392L352.765 198.608L354.725 196.039L353.647 192.667L355.255 189.451L356.098 188.745C356.098 188.745 346.902 175.02 357.471 164.529L361.706 157.314L366.431 151.431L371.373 141.902Z" fill="#001CA8"/>
<path d="M374.843 135.843C382.164 135.843 388.098 129.909 388.098 122.588C388.098 115.268 382.164 109.333 374.843 109.333C367.523 109.333 361.588 115.268 361.588 122.588C361.588 129.909 367.523 135.843 374.843 135.843Z" fill="#A0616A"/>
<path d="M384.922 141.686C383.834 140.79 383.081 139.554 382.784 138.176C382.538 139.847 382.598 141.547 382.961 143.196C382.255 143.745 381.549 144.255 380.902 144.706C380.414 143.433 379.754 142.232 378.941 141.137L378.706 146.275C377.864 146.839 376.979 147.338 376.059 147.765L376.451 147.294C379.275 143.118 371.961 135.529 374.784 131.294C375.588 130.118 372 120.902 369.275 120.49C366.843 120.118 366.941 120.824 364.588 121.333C364.338 120.314 363.956 119.332 363.451 118.412C363.618 119.431 363.618 120.471 363.451 121.49C362.627 121.49 361.961 121 361.078 120.863C355.392 119.98 355.961 113.843 357.549 111.882C359.137 109.922 364.412 109.353 366.843 108.725C367.059 108.51 367.569 108.725 367.784 108.431C369.994 106.469 372.697 105.146 375.602 104.604C378.507 104.061 381.505 104.32 384.275 105.353C384.782 105.528 385.273 105.744 385.745 106C390.49 108.49 394.569 111.882 394.275 117.294C394.137 119.804 393.569 120.196 394.275 121.608C394.451 121.961 392.922 125.235 395.49 125.529C398.059 125.824 396.902 127.863 397.451 128.588C399.726 131.373 391.157 139.549 384.922 141.686Z" fill="#2F2E41"/>
<path d="M264.824 326.176C261.848 314.721 262.709 302.606 267.275 291.686C267.299 291.341 267.392 291.004 267.548 290.694C267.703 290.385 267.918 290.109 268.181 289.884C268.443 289.658 268.748 289.486 269.077 289.378C269.406 289.27 269.753 289.228 270.098 289.255L296.137 291.098C296.836 291.148 297.487 291.474 297.947 292.003C298.406 292.532 298.637 293.222 298.588 293.922L296.078 328.392C296.023 329.089 295.696 329.737 295.168 330.195C294.64 330.654 293.953 330.886 293.255 330.843L267.216 329C266.529 328.93 265.896 328.597 265.45 328.071C265.004 327.544 264.779 326.865 264.824 326.176V326.176Z" fill="#F2F2F2"/>
<path d="M267.569 315.902C265.333 310.137 266.765 302.176 269.137 293.725C269.187 293.073 269.494 292.467 269.99 292.041C270.487 291.614 271.132 291.402 271.784 291.451L294.157 293.039C294.809 293.084 295.417 293.386 295.847 293.879C296.277 294.371 296.494 295.014 296.451 295.667L294.275 326.353C294.252 326.678 294.166 326.995 294.021 327.286C293.875 327.577 293.674 327.837 293.428 328.05C293.182 328.263 292.896 328.426 292.587 328.528C292.278 328.631 291.952 328.671 291.627 328.647L277.765 327.667C274.854 327.456 272.145 326.099 270.234 323.893C268.322 321.687 267.364 318.813 267.569 315.902V315.902Z" fill="white"/>
<path d="M278.529 321.49C279.807 321.49 280.843 320.454 280.843 319.176C280.843 317.899 279.807 316.863 278.529 316.863C277.252 316.863 276.216 317.899 276.216 319.176C276.216 320.454 277.252 321.49 278.529 321.49Z" fill="#F2F2F2"/>
<path d="M287.49 299C286.941 297.745 285.333 297.431 283.98 297.275C282.581 297.098 281.164 297.098 279.765 297.275C278.358 297.434 277.07 298.138 276.176 299.235C275.337 300.766 275.079 302.549 275.451 304.255C275.863 307.565 276.761 310.796 278.118 313.843L279.02 314.647C281.293 313.048 283.223 311.01 284.694 308.652C286.166 306.295 287.15 303.666 287.588 300.922C287.731 300.284 287.697 299.62 287.49 299V299Z" fill="#F2F2F2"/>
<path d="M404.255 204.529L403.745 163.863C403.719 162.139 403.015 160.496 401.786 159.288C400.556 158.081 398.9 157.406 397.176 157.412V157.412C395.434 157.412 393.764 158.104 392.532 159.336C391.3 160.568 390.608 162.238 390.608 163.98V164.314L392.451 206.549V232.255C391.414 232.703 390.532 233.448 389.917 234.396C389.303 235.344 388.982 236.453 388.996 237.583C389.01 238.712 389.358 239.813 389.997 240.745C390.635 241.678 391.535 242.4 392.583 242.822C393.631 243.244 394.781 243.347 395.887 243.117C396.993 242.887 398.007 242.334 398.8 241.529C399.593 240.725 400.13 239.703 400.343 238.593C400.557 237.484 400.438 236.336 400 235.294C399.863 234.984 399.706 234.682 399.529 234.392L404.255 204.529Z" fill="#A0616A"/>
<path d="M438.961 401.961H421.039V401.824C420.824 401.392 420.588 400.961 420.392 400.51C418.747 396.516 417.633 392.323 417.078 388.039L416.549 385.039C416.507 384.8 416.513 384.554 416.566 384.317C416.619 384.079 416.719 383.855 416.859 383.656C416.999 383.457 417.178 383.289 417.383 383.159C417.589 383.03 417.819 382.942 418.059 382.902C418.303 382.853 418.555 382.855 418.798 382.909C419.041 382.963 419.27 383.068 419.471 383.216L427.647 389.098C428.686 389.863 429.863 390.725 430.98 391.667L431.333 390.078C431.447 389.745 431.648 389.448 431.916 389.219C432.183 388.99 432.508 388.838 432.855 388.777C433.202 388.717 433.559 388.752 433.888 388.877C434.217 389.003 434.506 389.214 434.726 389.49L436.824 392.863C438.495 395.01 439.405 397.652 439.412 400.373V400.373C439.353 400.806 439.255 401.232 439.118 401.647L438.961 401.961Z" fill="#F0F0F0"/>
<path d="M456.961 402.373L286.647 402.549C286.475 402.549 286.311 402.481 286.19 402.359C286.068 402.238 286 402.074 286 401.902C286 401.73 286.068 401.566 286.19 401.444C286.311 401.323 286.475 401.255 286.647 401.255L456.961 401.098C457.045 401.098 457.128 401.115 457.206 401.148C457.283 401.18 457.353 401.228 457.412 401.289C457.47 401.349 457.516 401.421 457.546 401.499C457.577 401.577 457.591 401.661 457.588 401.745C457.588 401.911 457.522 402.071 457.404 402.189C457.287 402.306 457.127 402.373 456.961 402.373V402.373Z" fill="#CACACA"/>
</svg>
