<svg width="67" height="64" viewBox="0 0 67 64" fill="none" xmlns="http://www.w3.org/2000/svg">
<path opacity="0.95" d="M34.0288 2.80835V4.42397" stroke="#818696" stroke-width="1.44" stroke-linecap="round" stroke-linejoin="round"/>
<path d="M35.9475 58.3957L0 40.5229V44.562L33.3221 63.9999L35.9475 58.3957Z" fill="url(#paint0_linear_3531_197)"/>
<path d="M66.5939 44.36V40.5229L33.3223 59.0016V63.9999L66.5939 44.36Z" fill="#3940D8"/>
<path d="M0 40.5229L33.3221 59.9608L66.6443 40.5229L33.4231 21.1355L0 40.5229Z" fill="url(#paint1_linear_3531_197)"/>
<path opacity="0.3" fill-rule="evenodd" clip-rule="evenodd" d="M20.0941 31.1828C28.5257 26.7903 38.5728 26.7903 47.0043 31.1828C54.426 35.5752 54.426 42.6436 47.0043 47.036C38.5728 51.4285 28.5257 51.4285 20.0941 47.036C12.6724 42.6941 12.6724 35.5752 20.0941 31.1828Z" fill="url(#paint2_linear_3531_197)"/>
<path fill-rule="evenodd" clip-rule="evenodd" d="M14.6919 23.1549C23.0224 18.8129 43.975 18.9139 52.356 23.2559C52.4065 26.7396 52.4065 27.9008 52.356 30.7786C52.3055 33.6564 50.4879 36.3828 46.8528 38.5033C38.5223 42.8453 28.5761 42.8453 20.1951 38.5033C16.56 36.3828 14.6919 33.5555 14.6919 30.7281C14.6919 27.9008 14.6919 27.3959 14.6919 23.1549Z" fill="url(#paint3_linear_3531_197)"/>
<path fill-rule="evenodd" clip-rule="evenodd" d="M20.1952 15.1276C28.5762 10.7856 38.4719 10.7856 46.8529 15.1276C54.2241 19.4696 54.2241 26.4874 46.8529 30.8294C38.5223 35.1713 28.5762 35.1713 20.1952 30.8294C12.8744 26.5379 12.8744 19.4696 20.1952 15.1276Z" fill="url(#paint4_linear_3531_197)"/>
<path fill-rule="evenodd" clip-rule="evenodd" d="M14.6919 10.7855C23.0224 6.44356 43.975 6.54454 52.356 10.8865C52.4065 14.3702 52.4065 16.0363 52.356 18.9141C52.356 21.691 50.4375 24.5183 46.8528 26.6388C38.5223 30.9808 28.5761 30.9808 20.1951 26.6388C16.56 24.4678 14.6919 21.691 14.6919 18.8636C14.6919 16.0363 14.6919 15.0265 14.6919 10.7855Z" fill="url(#paint5_linear_3531_197)"/>
<path fill-rule="evenodd" clip-rule="evenodd" d="M20.1952 3.26282C28.5257 -1.07916 38.4719 -1.07916 46.8529 3.21233C54.2241 7.55431 54.2241 14.5721 46.8529 18.9646C38.5223 23.3066 28.5762 23.3066 20.1952 18.9646C12.8744 14.6226 12.8744 7.60479 20.1952 3.26282Z" fill="url(#paint6_linear_3531_197)"/>
<path d="M34.4333 10.8865L27.5669 6.84741" stroke="#3940D8" stroke-width="2.77" stroke-linecap="round" stroke-linejoin="round"/>
<path d="M38.2193 7.5542L34.2812 10.0786" stroke="#3940D8" stroke-width="2.88" stroke-linecap="round" stroke-linejoin="round"/>
<path fill-rule="evenodd" clip-rule="evenodd" d="M32.4133 9.62427C33.3725 9.11939 34.4833 9.11939 35.4425 9.62427C36.3008 10.1291 36.3008 10.937 35.4425 11.3913C34.4833 11.8962 33.3725 11.8962 32.4133 11.3913C31.555 10.937 31.555 10.1291 32.4133 9.62427Z" fill="#3940D8"/>
<path opacity="0.95" d="M25.1427 5.38325L23.729 4.57544" stroke="#818696" stroke-width="2.77" stroke-linecap="round" stroke-linejoin="round"/>
<path opacity="0.95" d="M19.6396 11.1894L18.125 11.0884" stroke="#818696" stroke-width="1.39" stroke-linecap="round" stroke-linejoin="round"/>
<path opacity="0.95" d="M48.822 10.634L47.2568 10.5835" stroke="#818696" stroke-width="1.44" stroke-linecap="round" stroke-linejoin="round"/>
<path opacity="0.95" d="M45.2881 16.5411L43.2686 15.3799" stroke="#818696" stroke-width="2.88" stroke-linecap="round" stroke-linejoin="round"/>
<path d="M41.7534 5.43393L43.2681 4.52515" stroke="#818696" stroke-width="2.88" stroke-linecap="round" stroke-linejoin="round"/>
<path d="M22.77 17.1472L24.5876 16.0869" stroke="#818696" stroke-width="2.77" stroke-linecap="round" stroke-linejoin="round"/>
<path opacity="0.5" d="M21.7099 4.17152C29.1317 0.334428 37.9166 0.334428 45.3383 4.17152C51.8513 8.00862 51.8513 14.2691 45.3383 18.1062C37.9671 21.9433 29.1317 21.9433 21.7099 18.1062C15.197 14.2691 15.197 8.00862 21.7099 4.17152Z" stroke="#818696" stroke-width="1.39" stroke-linecap="round" stroke-linejoin="round"/>
<path opacity="0.95" d="M33.9282 18.1567V19.7219" stroke="#818696" stroke-width="1.44" stroke-linecap="round" stroke-linejoin="round"/>
<path opacity="0.95" d="M33.9282 2.1521V3.71723" stroke="#818696" stroke-width="1.44" stroke-linecap="round" stroke-linejoin="round"/>
<path fill-rule="evenodd" clip-rule="evenodd" d="M56.0419 37.0897L55.5371 37.3927L55.5876 41.4317L50.9426 40.119L41.9558 48.0456C41.9558 48.0456 39.3809 46.531 39.0275 46.3291C38.5731 46.0261 38.3206 45.5212 38.3711 44.9659L38.4216 32.1419C38.4721 30.6273 39.2799 29.2641 40.5421 28.4563L55.941 19.4694C56.3954 19.116 56.9507 19.0655 57.4556 19.3179C57.8595 19.5199 60.5859 21.085 60.5859 21.085L58.2129 33.4546C58.0615 34.9187 57.3041 36.2819 56.0419 37.0897Z" fill="url(#paint7_linear_3531_197)"/>
<path fill-rule="evenodd" clip-rule="evenodd" d="M59.071 38.8571L58.5157 39.2105V43.2496L54.0222 41.8359L43.6217 47.945C42.4604 48.6518 41.4507 48.1469 41.4507 46.7838V33.9598C41.5012 32.4451 42.208 31.0315 43.4702 30.2237L58.9196 21.1358C60.0808 20.429 61.0401 20.9843 61.0401 22.3475V35.2725C60.9896 36.7366 60.2827 38.0493 59.071 38.8571Z" fill="url(#paint8_linear_3531_197)"/>
<path d="M49.832 32.4953C49.933 32.2933 50.0845 32.1418 50.2359 31.9399C50.3874 31.7379 50.5389 31.5865 50.6903 31.3845C50.8418 31.1826 50.9933 31.0311 51.1952 30.8796C51.3972 30.7282 51.5991 30.5767 51.8011 30.4757C52.0535 30.3243 52.3059 30.2233 52.6089 30.1728C52.8108 30.1223 53.0633 30.1223 53.2652 30.2233C53.4672 30.2738 53.5682 30.4253 53.6691 30.6272C53.7701 30.8796 53.8206 31.1321 53.8206 31.3845C53.8206 31.6875 53.7701 31.9904 53.7196 32.2428C53.6691 32.4953 53.5682 32.7477 53.4167 33.0001C53.3157 33.2526 53.1642 33.4545 53.0128 33.6565C52.8613 33.8584 52.7603 34.0604 52.6089 34.2119C52.5079 34.3633 52.4069 34.5653 52.3059 34.7167C52.205 34.8682 52.1545 35.0197 52.1545 35.1711L52.0535 36.1304L51.2962 36.5848L51.1952 35.6255C51.1952 35.4236 51.1952 35.2721 51.2962 35.0702C51.3972 34.8682 51.4476 34.7167 51.5991 34.5148C51.7001 34.3128 51.8516 34.1109 52.003 33.9594C52.1545 33.7575 52.2555 33.5555 52.4069 33.3536C52.5079 33.1516 52.6089 32.9497 52.7099 32.6972C52.8108 32.4953 52.8613 32.2428 52.8613 32.0409C52.8613 31.8894 52.8613 31.7884 52.7603 31.637C52.7099 31.536 52.6594 31.4855 52.5584 31.435C52.4574 31.3845 52.3564 31.3845 52.205 31.435C52.0535 31.4855 51.902 31.536 51.8011 31.5865C51.5991 31.6875 51.4477 31.8389 51.2962 31.9904C51.1447 32.0914 51.0437 32.2428 50.9428 32.3943C50.8418 32.5457 50.7408 32.6467 50.6903 32.7477C50.6398 32.7982 50.5894 32.8992 50.5389 32.9497C50.4379 33.0001 50.3369 33.0001 50.2864 32.8992L49.832 32.4953ZM50.8418 39.1092C50.8418 39.0082 50.8418 38.8568 50.8923 38.7558C50.9428 38.6548 50.9933 38.5033 51.0437 38.4024C51.0942 38.3014 51.1952 38.2004 51.2962 38.0994C51.3972 37.9985 51.4981 37.948 51.5991 37.847C51.7001 37.7965 51.8011 37.746 51.902 37.746C52.003 37.746 52.0535 37.746 52.1545 37.7965C52.205 37.847 52.2555 37.8975 52.3059 37.9985C52.3564 38.0994 52.3564 38.2004 52.3564 38.3014C52.3564 38.4024 52.3564 38.5538 52.3059 38.6548C52.2555 38.7558 52.205 38.9073 52.1545 39.0082C52.104 39.1092 52.003 39.2102 51.902 39.3112C51.8011 39.4121 51.7001 39.4626 51.5991 39.5131C51.4981 39.5636 51.3972 39.6141 51.2962 39.6141C51.1952 39.6141 51.1447 39.6141 51.0437 39.5636C50.9933 39.5131 50.9428 39.4626 50.8923 39.4121C50.8418 39.3112 50.8418 39.2102 50.8418 39.1092Z" fill="#3940D8"/>
<defs>
<linearGradient id="paint0_linear_3531_197" x1="-0.591463" y1="44.7761" x2="30.2946" y2="54.9413" gradientUnits="userSpaceOnUse">
<stop stop-color="#4255DF"/>
<stop offset="1" stop-color="#2816CB"/>
</linearGradient>
<linearGradient id="paint1_linear_3531_197" x1="66.6443" y1="59.9608" x2="-2.25662" y2="25.6697" gradientUnits="userSpaceOnUse">
<stop stop-color="#335EF7"/>
<stop offset="1" stop-color="#5F82FF"/>
</linearGradient>
<linearGradient id="paint2_linear_3531_197" x1="54.8645" y1="36.4375" x2="17.0843" y2="41.1733" gradientUnits="userSpaceOnUse">
<stop/>
<stop offset="1"/>
</linearGradient>
<linearGradient id="paint3_linear_3531_197" x1="53.5121" y1="30.7265" x2="6.40675" y2="31.0244" gradientUnits="userSpaceOnUse">
<stop offset="0.42" stop-color="#E7E9E9"/>
<stop offset="0.68" stop-color="#B1B4C3"/>
<stop offset="0.88" stop-color="#8F92AA"/>
<stop offset="0.99" stop-color="#8285A1"/>
</linearGradient>
<linearGradient id="paint4_linear_3531_197" x1="54.6206" y1="20.3343" x2="17.219" y2="25.0246" gradientUnits="userSpaceOnUse">
<stop stop-color="#CDD3DB"/>
<stop offset="1" stop-color="#ACB0C2"/>
</linearGradient>
<linearGradient id="paint5_linear_3531_197" x1="53.5172" y1="18.6095" x2="6.4068" y2="18.9074" gradientUnits="userSpaceOnUse">
<stop offset="0.42" stop-color="#E7E9E9"/>
<stop offset="0.68" stop-color="#B1B4C3"/>
<stop offset="0.88" stop-color="#8F92AA"/>
<stop offset="0.99" stop-color="#8285A1"/>
</linearGradient>
<linearGradient id="paint6_linear_3531_197" x1="54.6231" y1="8.46935" x2="17.2216" y2="13.1546" gradientUnits="userSpaceOnUse">
<stop stop-color="#CDD3DB"/>
<stop offset="1" stop-color="#ACB0C2"/>
</linearGradient>
<linearGradient id="paint7_linear_3531_197" x1="63.9562" y1="25.291" x2="20.7128" y2="51.5585" gradientUnits="userSpaceOnUse">
<stop stop-color="#E7E9E9"/>
<stop offset="0.46" stop-color="#B1B4C3"/>
<stop offset="0.81" stop-color="#8F92AA"/>
<stop offset="0.99" stop-color="#8285A1"/>
</linearGradient>
<linearGradient id="paint8_linear_3531_197" x1="64.0111" y1="28.8273" x2="36.0954" y2="45.7877" gradientUnits="userSpaceOnUse">
<stop stop-color="#E7E9E9"/>
<stop offset="0.45" stop-color="#E5E7E8"/>
<stop offset="0.63" stop-color="#DEE2E6"/>
<stop offset="0.75" stop-color="#D2D8E2"/>
<stop offset="0.86" stop-color="#C1CBDB"/>
<stop offset="0.94" stop-color="#ABB9D4"/>
<stop offset="1" stop-color="#98AACD"/>
</linearGradient>
</defs>
</svg>
