<svg width="68" height="64" viewBox="0 0 68 64" fill="none" xmlns="http://www.w3.org/2000/svg">
<path d="M36.1901 58.3589L0.00488281 40.3679V44.4337L33.5473 64.0001L36.1901 58.3589Z" fill="url(#paint0_linear_3531_254)"/>
<path d="M67.039 44.2304V40.3679L33.5474 58.9687V64.0001L67.039 44.2304Z" fill="url(#paint1_linear_3531_254)"/>
<path d="M0 40.3677L33.5018 59.9341L67.0443 40.3677L33.6035 20.8521L0 40.3677Z" fill="url(#paint2_linear_3531_254)"/>
<path opacity="0.3" d="M11.2163 39.7428L21.2841 45.7398L31.5247 39.7174L21.2841 33.7458L11.2163 39.7428Z" fill="url(#paint3_linear_3531_254)"/>
<path opacity="0.3" d="M35.6411 39.585L45.7445 45.5108L55.9038 39.585L45.7445 33.6541L35.6411 39.585Z" fill="url(#paint4_linear_3531_254)"/>
<path opacity="0.3" d="M22.9561 46.7104L33.588 52.9107L44.225 46.7104L33.588 40.5L22.9561 46.7104Z" fill="url(#paint5_linear_3531_254)"/>
<path d="M34.2083 11.3283L23.4341 6.05298V22.6311L34.1473 28.6636L34.0965 21.5333L34.2083 11.3283Z" fill="url(#paint6_linear_3531_254)"/>
<path d="M43.6711 24.0285V6.11377L33.5728 11.877L33.588 30.1475L43.6711 24.0285Z" fill="url(#paint7_linear_3531_254)"/>
<path d="M23.4287 6.04781L33.5829 12.1566L43.6711 6.11388L33.5829 0L23.4287 6.04781Z" fill="url(#paint8_linear_3531_254)"/>
<path d="M21.5687 18.6363L11.2163 13.2085V32.47L21.3756 38.4111L21.833 37.8571L21.5687 18.6363Z" fill="url(#paint9_linear_3531_254)"/>
<path d="M31.5246 32.399V13.1731L21.3907 18.9973L21.3755 38.4113L31.5246 32.399Z" fill="url(#paint10_linear_3531_254)"/>
<path d="M11.2163 13.2087L21.2841 19.2006L31.5247 13.1782L21.2841 7.21167L11.2163 13.2087Z" fill="url(#paint11_linear_3531_254)"/>
<path d="M46.1104 18.2297L35.6411 13.0459V32.3023L45.8309 38.2536L46.2172 37.537L46.1104 18.2297Z" fill="url(#paint12_linear_3531_254)"/>
<path d="M55.909 32.1145V13.041L45.8311 18.5145V38.2487L55.909 32.1145Z" fill="url(#paint13_linear_3531_254)"/>
<path d="M35.6411 13.0508L45.7445 18.9715L55.9038 13.0508L45.7445 7.11987L35.6411 13.0508Z" fill="url(#paint14_linear_3531_254)"/>
<path d="M33.9899 34.7367L22.9463 29.2124V39.2396L33.6291 45.1502L34.3406 43.7627L33.9899 34.7367Z" fill="url(#paint15_linear_3531_254)"/>
<path d="M43.783 39.2803V29.6902L33.6187 35.1383L33.6339 45.1197L43.783 39.2803Z" fill="url(#paint16_linear_3531_254)"/>
<path d="M22.9561 29.258L33.588 35.4583L44.225 29.258L33.588 23.0476L22.9561 29.258Z" fill="url(#paint17_linear_3531_254)"/>
<path opacity="0.5" d="M25.1772 29.2582L33.5883 34.1625L42.0044 29.2582L33.5883 24.3438L25.1772 29.2582Z" stroke="#818696" stroke-width="1.03" stroke-linecap="round" stroke-linejoin="round"/>
<path fill-rule="evenodd" clip-rule="evenodd" d="M47.6302 30.305C47.6732 30.2869 47.7106 30.2575 47.7383 30.22C47.766 30.1824 47.7831 30.138 47.7877 30.0916C47.7877 30.056 47.7877 28.8668 47.7877 28.8668L33.7456 28.7346C33.7456 28.7346 33.7456 29.9747 33.7456 30.0001C33.7569 30.0442 33.7778 30.0853 33.8068 30.1204C33.8358 30.1556 33.8721 30.1839 33.9133 30.2034L43.5237 35.743C43.8744 35.9462 44.4944 35.8192 44.4894 35.5193V34.3301L44.4436 33.2476L48.5094 34.2285C48.6369 34.2678 48.7726 34.272 48.9023 34.2407C49.0319 34.2094 49.1508 34.1438 49.2463 34.0506L49.8714 33.1409C49.8972 33.0999 49.9096 33.052 49.907 33.0037C49.907 32.8817 49.907 31.7738 49.907 31.7738L45.2364 31.6772L47.6302 30.305Z" fill="url(#paint18_linear_3531_254)"/>
<path fill-rule="evenodd" clip-rule="evenodd" d="M47.6301 29.1006C47.9757 28.8973 47.7216 28.5314 47.2134 28.5365L34.2945 28.4399C33.7863 28.4399 33.5372 28.7855 33.9031 28.999L43.5237 34.5386C43.8744 34.7419 44.4944 34.6199 44.4894 34.315L44.4334 32.0432L48.4992 33.0241C48.6288 33.0664 48.7676 33.0722 48.9003 33.0408C49.033 33.0094 49.1544 32.9421 49.2514 32.8462L49.8765 31.9365C49.9832 31.7688 49.846 31.5757 49.5512 31.5045L45.2568 30.4881L47.6301 29.1006Z" fill="url(#paint19_linear_3531_254)"/>
<defs>
<linearGradient id="paint0_linear_3531_254" x1="36.1901" y1="58.9937" x2="-1.6923" y2="49.494" gradientUnits="userSpaceOnUse">
<stop stop-color="#001DAC"/>
<stop offset="1" stop-color="#000F57"/>
</linearGradient>
<linearGradient id="paint1_linear_3531_254" x1="67.039" y1="58.9937" x2="31.6766" y2="50.7861" gradientUnits="userSpaceOnUse">
<stop stop-color="#001DAC"/>
<stop offset="1" stop-color="#000F57"/>
</linearGradient>
<linearGradient id="paint2_linear_3531_254" x1="-4.68271e-07" y1="23.7117" x2="69.8051" y2="35.1447" gradientUnits="userSpaceOnUse">
<stop stop-color="#0082F8"/>
<stop offset="1" stop-color="#1C40F2"/>
</linearGradient>
<linearGradient id="paint3_linear_3531_254" x1="27.5911" y1="37.7659" x2="13.1323" y2="42.2941" gradientUnits="userSpaceOnUse">
<stop/>
<stop offset="1"/>
</linearGradient>
<linearGradient id="paint4_linear_3531_254" x1="51.9753" y1="37.6283" x2="37.5622" y2="42.1464" gradientUnits="userSpaceOnUse">
<stop/>
<stop offset="1"/>
</linearGradient>
<linearGradient id="paint5_linear_3531_254" x1="40.1034" y1="44.6674" x2="24.9737" y2="49.404" gradientUnits="userSpaceOnUse">
<stop/>
<stop offset="1"/>
</linearGradient>
<linearGradient id="paint6_linear_3531_254" x1="21.4114" y1="17.3558" x2="32.1856" y2="17.3558" gradientUnits="userSpaceOnUse">
<stop stop-color="#989AAD"/>
<stop offset="1" stop-color="#98A0B7"/>
</linearGradient>
<linearGradient id="paint7_linear_3531_254" x1="46.3036" y1="18.1281" x2="46.4815" y2="18.1281" gradientUnits="userSpaceOnUse">
<stop stop-color="#E7E9E9"/>
<stop offset="1" stop-color="#98AACD"/>
</linearGradient>
<linearGradient id="paint8_linear_3531_254" x1="39.7476" y1="4.14707" x2="25.3599" y2="8.65497" gradientUnits="userSpaceOnUse">
<stop stop-color="#CDD3DB"/>
<stop offset="0.83" stop-color="#ACB0C2"/>
</linearGradient>
<linearGradient id="paint9_linear_3531_254" x1="9.21901" y1="25.8072" x2="19.8357" y2="25.8072" gradientUnits="userSpaceOnUse">
<stop stop-color="#989AAD"/>
<stop offset="1" stop-color="#98A0B7"/>
</linearGradient>
<linearGradient id="paint10_linear_3531_254" x1="34.1775" y1="25.7922" x2="34.3503" y2="25.7922" gradientUnits="userSpaceOnUse">
<stop stop-color="#E7E9E9"/>
<stop offset="1" stop-color="#98AACD"/>
</linearGradient>
<linearGradient id="paint11_linear_3531_254" x1="27.5911" y1="11.2317" x2="13.1323" y2="15.7599" gradientUnits="userSpaceOnUse">
<stop stop-color="#CDD3DB"/>
<stop offset="0.83" stop-color="#ACB0C2"/>
</linearGradient>
<linearGradient id="paint12_linear_3531_254" x1="33.6591" y1="25.6497" x2="44.23" y2="25.6497" gradientUnits="userSpaceOnUse">
<stop stop-color="#989AAD"/>
<stop offset="1" stop-color="#98A0B7"/>
</linearGradient>
<linearGradient id="paint13_linear_3531_254" x1="58.5416" y1="25.6448" x2="58.7144" y2="25.6448" gradientUnits="userSpaceOnUse">
<stop stop-color="#E7E9E9"/>
<stop offset="1" stop-color="#98AACD"/>
</linearGradient>
<linearGradient id="paint14_linear_3531_254" x1="51.9753" y1="11.0941" x2="37.5622" y2="15.6071" gradientUnits="userSpaceOnUse">
<stop stop-color="#CDD3DB"/>
<stop offset="0.83" stop-color="#ACB0C2"/>
</linearGradient>
<linearGradient id="paint15_linear_3531_254" x1="20.8067" y1="37.1813" x2="32.201" y2="37.1813" gradientUnits="userSpaceOnUse">
<stop stop-color="#989AAD"/>
<stop offset="1" stop-color="#98A0B7"/>
</linearGradient>
<linearGradient id="paint16_linear_3531_254" x1="46.441" y1="37.405" x2="46.6189" y2="37.405" gradientUnits="userSpaceOnUse">
<stop stop-color="#E7E9E9"/>
<stop offset="1" stop-color="#98AACD"/>
</linearGradient>
<linearGradient id="paint17_linear_3531_254" x1="40.1034" y1="27.215" x2="24.9737" y2="31.9516" gradientUnits="userSpaceOnUse">
<stop stop-color="#CDD3DB"/>
<stop offset="0.83" stop-color="#ACB0C2"/>
</linearGradient>
<linearGradient id="paint18_linear_3531_254" x1="49.9073" y1="34.3363" x2="34.114" y2="28.4547" gradientUnits="userSpaceOnUse">
<stop stop-color="#001DAC"/>
<stop offset="1" stop-color="#000F57"/>
</linearGradient>
<linearGradient id="paint19_linear_3531_254" x1="33.729" y1="28.8935" x2="50.0188" y2="32.9539" gradientUnits="userSpaceOnUse">
<stop stop-color="#0082F8"/>
<stop offset="1" stop-color="#1C40F2"/>
</linearGradient>
</defs>
</svg>
