<svg width="57" height="56" viewBox="0 0 57 56" fill="none" xmlns="http://www.w3.org/2000/svg">
<path d="M40.1376 0C31.0557 0 23.667 7.38872 23.667 16.4706C23.667 25.5525 31.0557 32.9412 40.1376 32.9412C49.2195 32.9412 56.6082 25.5525 56.6082 16.4706C56.6082 7.38872 49.2195 0 40.1376 0ZM40.1376 30.7452C32.2665 30.7452 25.8631 24.3417 25.8631 16.4706C25.8631 8.59953 32.2665 2.19608 40.1376 2.19608C48.0087 2.19608 54.4121 8.59953 54.4121 16.4706C54.4121 24.3417 48.0086 30.7452 40.1376 30.7452Z" fill="url(#paint0_linear_3531_651)"/>
<path d="M40.1376 4.39221C39.5311 4.39221 39.0396 4.88381 39.0396 5.49025V6.58829C39.0396 7.19463 39.5311 7.68634 40.1376 7.68634C40.7439 7.68634 41.2356 7.19463 41.2356 6.58829V5.49025C41.2356 4.88381 40.7439 4.39221 40.1376 4.39221Z" fill="url(#paint1_linear_3531_651)"/>
<path d="M33.1499 7.92978C32.721 7.50111 32.026 7.50111 31.597 7.92978C31.1682 8.35857 31.1682 9.05385 31.597 9.48274L32.3734 10.2592C32.8024 10.688 33.4974 10.6878 33.9263 10.2592C34.355 9.83038 34.355 9.1351 33.9263 8.70621L33.1499 7.92978Z" fill="url(#paint2_linear_3531_651)"/>
<path d="M30.2557 15.3726H29.1576C28.5512 15.3726 28.0596 15.8642 28.0596 16.4706C28.0596 17.0769 28.5512 17.5686 29.1576 17.5686H30.2557C30.862 17.5686 31.3537 17.0769 31.3537 16.4706C31.3537 15.8642 30.862 15.3726 30.2557 15.3726Z" fill="url(#paint3_linear_3531_651)"/>
<path d="M32.3734 22.682L31.597 23.4584C31.1682 23.8872 31.1682 24.5825 31.597 25.0114C32.026 25.4402 32.7209 25.44 33.1499 25.0114L33.9264 24.2349C34.3552 23.8062 34.3552 23.1109 33.9264 22.682C33.4974 22.2533 32.8023 22.2533 32.3734 22.682Z" fill="url(#paint4_linear_3531_651)"/>
<path d="M40.1376 25.2549C39.5311 25.2549 39.0396 25.7465 39.0396 26.3529V27.451C39.0396 28.0574 39.5311 28.549 40.1376 28.549C40.7439 28.549 41.2356 28.0574 41.2356 27.451V26.3529C41.2356 25.7465 40.7439 25.2549 40.1376 25.2549Z" fill="url(#paint5_linear_3531_651)"/>
<path d="M47.9023 22.682C47.4734 22.2533 46.7783 22.2533 46.3494 22.682C45.9206 23.1108 45.9206 23.806 46.3494 24.2349L47.1258 25.0114C47.5549 25.4402 48.2498 25.44 48.6788 25.0114C49.1076 24.5826 49.1076 23.8873 48.6788 23.4584L47.9023 22.682Z" fill="url(#paint6_linear_3531_651)"/>
<path d="M51.1184 15.3726H50.0204C49.414 15.3726 48.9224 15.8642 48.9224 16.4706C48.9224 17.0769 49.414 17.5686 50.0204 17.5686H51.1184C51.7248 17.5686 52.2165 17.0769 52.2165 16.4706C52.2165 15.8642 51.7248 15.3726 51.1184 15.3726Z" fill="url(#paint7_linear_3531_651)"/>
<path d="M47.9024 10.2592L48.6788 9.48274C49.1076 9.05396 49.1076 8.35868 48.6788 7.92978C48.2499 7.50111 47.5549 7.50111 47.1258 7.92978L46.3494 8.70621C45.9206 9.13499 45.9206 9.83027 46.3494 10.2592C46.7784 10.6881 47.4734 10.688 47.9024 10.2592Z" fill="url(#paint8_linear_3531_651)"/>
<path d="M40.1382 9.88232C39.5317 9.88232 39.0401 10.374 39.0401 10.9804V15.3725H35.746C35.1395 15.3725 34.6479 15.8641 34.6479 16.4706C34.6479 17.0769 35.1395 17.5686 35.746 17.5686H40.1382C40.7445 17.5686 41.2362 17.0769 41.2362 16.4706V10.9804C41.2362 10.3739 40.7445 9.88232 40.1382 9.88232Z" fill="url(#paint9_linear_3531_651)"/>
<path d="M35.2904 37.8134C33.3196 36.4453 30.6668 36.1872 28.801 37.6342C28.698 37.714 28.5442 37.8332 24.5609 42.4647C20.6402 41.1369 15.2713 35.7679 13.9422 31.8455C18.5739 27.862 18.693 27.7082 18.7723 27.6057C20.1143 25.8762 20.0466 23.2743 18.6042 21.131C17.415 19.4023 14.344 14.6592 12.5876 13.4939C10.9613 12.415 8.66514 12.4759 7.00688 13.4805C6.31489 13.9016 2.04307 17.953 1.49361 19.031C-0.888806 23.7423 1.03057 32.4042 3.11103 37.2613C5.71547 43.3486 13.0584 50.6914 19.1448 53.2953C22.286 54.6416 27.4184 56 31.8034 56C34.0755 56 35.9505 55.6342 37.371 54.9153C38.4189 54.3916 42.4881 50.1246 42.9262 49.3993C43.9651 47.6909 43.9603 45.397 42.9146 43.821C41.785 42.118 37.36 39.2493 35.2904 37.8134ZM41.0497 48.2588C40.6671 48.862 36.846 52.7226 36.3843 52.9535C32.4258 54.9567 24.0995 53.0297 20.0093 51.2767C14.4582 48.9016 7.50517 41.9488 5.12989 36.3971C3.23379 31.9705 1.46012 23.9636 3.45175 20.0253C3.71704 19.5041 7.6041 15.7034 8.14665 15.3578C9.13686 14.758 10.5141 14.7538 11.3736 15.3239C12.6661 16.1813 15.9199 21.0736 16.7824 22.3573C17.5306 23.4689 17.9038 25.0821 17.0736 26.2114C16.6487 26.6117 13.7581 29.1086 11.9777 30.6383C11.6674 30.9051 11.5311 31.3223 11.624 31.7208C12.7795 36.6711 19.738 43.6292 24.6861 44.7827C25.0849 44.8757 25.5017 44.7393 25.7681 44.4289C27.2981 42.6486 29.7952 39.7579 30.1951 39.3329C31.2927 38.5257 32.9055 38.8312 34.0382 39.6173C35.3447 40.5244 40.23 43.7465 41.0845 45.035C41.6573 45.8982 41.6424 47.284 41.0497 48.2588Z" fill="url(#paint10_linear_3531_651)"/>
<defs>
<linearGradient id="paint0_linear_3531_651" x1="56.6082" y1="25.9628" x2="20.9108" y2="20.1164" gradientUnits="userSpaceOnUse">
<stop stop-color="#001DAC"/>
<stop offset="1" stop-color="#000F57"/>
</linearGradient>
<linearGradient id="paint1_linear_3531_651" x1="41.2356" y1="6.98849" x2="38.8208" y2="6.72483" gradientUnits="userSpaceOnUse">
<stop stop-color="#001DAC"/>
<stop offset="1" stop-color="#000F57"/>
</linearGradient>
<linearGradient id="paint2_linear_3531_651" x1="34.2478" y1="9.95101" x2="31.0267" y2="9.42347" gradientUnits="userSpaceOnUse">
<stop stop-color="#001DAC"/>
<stop offset="1" stop-color="#000F57"/>
</linearGradient>
<linearGradient id="paint3_linear_3531_651" x1="31.3537" y1="17.1034" x2="27.8968" y2="16.2542" gradientUnits="userSpaceOnUse">
<stop stop-color="#001DAC"/>
<stop offset="1" stop-color="#000F57"/>
</linearGradient>
<linearGradient id="paint4_linear_3531_651" x1="34.248" y1="24.7032" x2="31.0267" y2="24.1756" gradientUnits="userSpaceOnUse">
<stop stop-color="#001DAC"/>
<stop offset="1" stop-color="#000F57"/>
</linearGradient>
<linearGradient id="paint5_linear_3531_651" x1="41.2356" y1="27.8512" x2="38.8208" y2="27.5875" gradientUnits="userSpaceOnUse">
<stop stop-color="#001DAC"/>
<stop offset="1" stop-color="#000F57"/>
</linearGradient>
<linearGradient id="paint6_linear_3531_651" x1="49.0004" y1="24.7032" x2="45.7791" y2="24.1756" gradientUnits="userSpaceOnUse">
<stop stop-color="#001DAC"/>
<stop offset="1" stop-color="#000F57"/>
</linearGradient>
<linearGradient id="paint7_linear_3531_651" x1="52.2165" y1="17.1034" x2="48.7596" y2="16.2542" gradientUnits="userSpaceOnUse">
<stop stop-color="#001DAC"/>
<stop offset="1" stop-color="#000F57"/>
</linearGradient>
<linearGradient id="paint8_linear_3531_651" x1="49.0004" y1="9.95108" x2="45.7791" y2="9.42351" gradientUnits="userSpaceOnUse">
<stop stop-color="#001DAC"/>
<stop offset="1" stop-color="#000F57"/>
</linearGradient>
<linearGradient id="paint9_linear_3531_651" x1="41.2362" y1="15.9403" x2="34.0469" y2="14.9311" gradientUnits="userSpaceOnUse">
<stop stop-color="#001DAC"/>
<stop offset="1" stop-color="#000F57"/>
</linearGradient>
<linearGradient id="paint10_linear_3531_651" x1="43.7021" y1="46.8283" x2="-3.23128" y2="39.1389" gradientUnits="userSpaceOnUse">
<stop stop-color="#001DAC"/>
<stop offset="1" stop-color="#000F57"/>
</linearGradient>
</defs>
</svg>
