<svg width="72" height="72" viewBox="0 0 72 72" fill="none" xmlns="http://www.w3.org/2000/svg">
<path d="M36.0001 55.62L3.06006 42.78V46.8L36.0001 66V55.62Z" fill="url(#paint0_linear_3534_1089)"/>
<path d="M68.88 46.8V42.78L36 55.62V66L68.88 46.8Z" fill="url(#paint1_linear_3534_1089)"/>
<path d="M3.06006 42.84L36.0001 61.98L68.8801 42.84L36.0001 23.58L3.06006 42.84Z" fill="url(#paint2_linear_3534_1089)"/>
<path opacity="0.3" d="M13.2598 45.3L35.9998 58.56L58.7398 45.3L35.9998 32.04L13.2598 45.3Z" fill="url(#paint3_linear_3534_1089)"/>
<path d="M35.9998 40.1999L13.2598 28.3199V38.8799L35.9998 52.1399V40.1999Z" fill="url(#paint4_linear_3534_1089)"/>
<path d="M58.74 38.8799V28.3199L36 40.1999V52.1999L58.74 38.8799Z" fill="url(#paint5_linear_3534_1089)"/>
<path d="M13.2598 28.3801L35.9998 41.6401L58.7398 28.3801L35.9998 15.0601L13.2598 28.3801Z" fill="url(#paint6_linear_3534_1089)"/>
<path d="M39.48 45.3001L45.06 42.0601" stroke="url(#paint7_linear_3534_1089)" stroke-width="0.9965" stroke-linecap="round" stroke-linejoin="round"/>
<path fill-rule="evenodd" clip-rule="evenodd" d="M51.5998 37.8C52.0798 37.5 52.4398 37.74 52.4398 38.28C52.4398 38.88 52.0798 39.48 51.5998 39.78C51.1198 40.08 50.7598 39.84 50.7598 39.3C50.7598 38.7 51.0598 38.1 51.5998 37.8Z" fill="#F70E28"/>
<path fill-rule="evenodd" clip-rule="evenodd" d="M55.2599 35.7C55.7399 35.4 56.0999 35.64 56.0999 36.18C56.0999 36.78 55.7399 37.38 55.2599 37.68C54.7799 37.98 54.4199 37.74 54.4199 37.2C54.4199 36.6 54.7199 36.06 55.2599 35.7Z" fill="#F70E28"/>
<path d="M35.9998 25.26L13.2598 13.38V23.94L36.0598 37.2L35.9998 25.26Z" fill="url(#paint8_linear_3534_1089)"/>
<path d="M58.74 23.94V13.38L36 25.2V37.2L58.74 23.94Z" fill="url(#paint9_linear_3534_1089)"/>
<path d="M13.2598 13.38L35.9998 26.64L58.7398 13.38L35.9998 0.119995L13.2598 13.38Z" fill="url(#paint10_linear_3534_1089)"/>
<path d="M39.48 29.94L45.06 26.64" stroke="url(#paint11_linear_3534_1089)" stroke-width="0.9965" stroke-linecap="round" stroke-linejoin="round"/>
<path fill-rule="evenodd" clip-rule="evenodd" d="M51.5998 22.38C52.0798 22.08 52.4398 22.32 52.4398 22.86C52.4398 23.46 52.0798 24.06 51.5998 24.36C51.1198 24.66 50.7598 24.42 50.7598 23.88C50.7598 23.28 51.0598 22.74 51.5998 22.38Z" fill="#F70E28"/>
<path fill-rule="evenodd" clip-rule="evenodd" d="M55.2599 20.34C55.7399 20.04 56.0999 20.28 56.0999 20.82C56.0999 21.42 55.7399 22.02 55.2599 22.32C54.7799 22.62 54.4199 22.38 54.4199 21.84C54.4199 21.24 54.7199 20.7 55.2599 20.34Z" fill="#F70E28"/>
<path d="M29.1815 7.81894L28.6633 8.11809L35.301 11.9504L32.9456 13.3103L28.9856 11.0239L24.2777 13.742L34.3414 19.5522C36.7125 20.9212 40.5209 20.9498 42.8311 19.616L43.3493 19.3168L37.107 15.7128L39.4624 14.3529L43.582 16.7314L48.2898 14.0133L37.6712 7.88265C35.3001 6.5137 31.4917 6.48512 29.1815 7.81894ZM41.2056 19.2758C39.4581 19.9913 36.9811 19.8796 35.3777 18.9539L33.4355 17.8326L36.0707 16.3111L41.2056 19.2758ZM46.1899 13.9976L43.5547 15.519L39.4351 13.1405L32.3719 17.2185L26.3777 13.7577L29.0129 12.2363L32.9729 14.5226L40.0361 10.4447L46.1899 13.9976ZM38.9725 9.83062L36.3373 11.3521L30.8069 8.15908C32.5545 7.44358 35.0311 7.55503 36.6349 8.48097L38.9725 9.83062Z" fill="#9195A8"/>
<defs>
<linearGradient id="paint0_linear_3534_1089" x1="36.0001" y1="61.081" x2="1.22366" y2="53.0013" gradientUnits="userSpaceOnUse">
<stop stop-color="#001DAC"/>
<stop offset="1" stop-color="#000F57"/>
</linearGradient>
<linearGradient id="paint1_linear_3534_1089" x1="36" y1="44.4791" x2="70.504" y2="49.1414" gradientUnits="userSpaceOnUse">
<stop stop-color="#18029D"/>
<stop offset="1" stop-color="#1C40F2"/>
</linearGradient>
<linearGradient id="paint2_linear_3534_1089" x1="3.06006" y1="26.3897" x2="71.5934" y2="37.6051" gradientUnits="userSpaceOnUse">
<stop stop-color="#0082F8"/>
<stop offset="1" stop-color="#1C40F2"/>
</linearGradient>
<linearGradient id="paint3_linear_3534_1089" x1="50.0195" y1="55.445" x2="22.5449" y2="35.564" gradientUnits="userSpaceOnUse">
<stop/>
<stop offset="1"/>
</linearGradient>
<linearGradient id="paint4_linear_3534_1089" x1="8.96431" y1="40.2299" x2="31.7042" y2="40.2299" gradientUnits="userSpaceOnUse">
<stop stop-color="#989AAD"/>
<stop offset="1" stop-color="#98A0B7"/>
</linearGradient>
<linearGradient id="paint5_linear_3534_1089" x1="64.6523" y1="40.2599" x2="65.0464" y2="40.2599" gradientUnits="userSpaceOnUse">
<stop stop-color="#E7E9E9"/>
<stop offset="1" stop-color="#98AACD"/>
</linearGradient>
<linearGradient id="paint6_linear_3534_1089" x1="50.0006" y1="38.5082" x2="22.526" y2="18.6332" gradientUnits="userSpaceOnUse">
<stop stop-color="#CDD3DB"/>
<stop offset="1" stop-color="#ACB0C2"/>
</linearGradient>
<linearGradient id="paint7_linear_3534_1089" x1="39.1598" y1="43.6801" x2="45.3377" y2="43.6801" gradientUnits="userSpaceOnUse">
<stop stop-color="#FC2632"/>
<stop offset="1" stop-color="#F70E28"/>
</linearGradient>
<linearGradient id="paint8_linear_3534_1089" x1="8.95453" y1="25.29" x2="31.7545" y2="25.29" gradientUnits="userSpaceOnUse">
<stop stop-color="#989AAD"/>
<stop offset="1" stop-color="#98A0B7"/>
</linearGradient>
<linearGradient id="paint9_linear_3534_1089" x1="64.6523" y1="25.29" x2="65.0464" y2="25.29" gradientUnits="userSpaceOnUse">
<stop stop-color="#E7E9E9"/>
<stop offset="1" stop-color="#98AACD"/>
</linearGradient>
<linearGradient id="paint10_linear_3534_1089" x1="50.0223" y1="23.5238" x2="22.5477" y2="3.64884" gradientUnits="userSpaceOnUse">
<stop stop-color="#CDD3DB"/>
<stop offset="1" stop-color="#ACB0C2"/>
</linearGradient>
<linearGradient id="paint11_linear_3534_1089" x1="39.1598" y1="28.29" x2="45.3377" y2="28.29" gradientUnits="userSpaceOnUse">
<stop stop-color="#FC2632"/>
<stop offset="1" stop-color="#F70E28"/>
</linearGradient>
</defs>
</svg>
