<svg width="47" height="56" viewBox="0 0 47 56" fill="none" xmlns="http://www.w3.org/2000/svg">
<path fill-rule="evenodd" clip-rule="evenodd" d="M16.9707 39.4053L20.2148 54.9061H26.7805L30.0246 39.4053C26.4207 43.3781 20.5777 43.3781 16.9707 39.4053V39.4053Z" fill="url(#paint0_linear_3531_631)"/>
<path d="M46.9451 48.8592C46.871 44.3451 45.3213 41.0339 42.2072 38.7368C39.5269 36.7598 36.0233 35.7754 32.635 34.8234C32.1571 34.6891 30.1884 34.1214 29.7045 33.9707V31.9851C32.5339 30.3867 34.6889 27.7306 35.6321 24.558H36.8605C39.1411 24.558 40.9967 22.7024 40.9967 20.4218C40.9967 18.1411 39.1413 16.2856 36.8605 16.2856H36.8297C37.5052 14.7174 37.7892 13.2892 37.6745 12.0241C37.5598 10.7586 37.0488 9.67152 36.1789 8.8208C37.0076 7.81794 37.6984 6.46715 37.9531 5.94073C38.7302 4.33553 39.5393 2.12243 38.9798 0.694753C38.8156 0.275626 38.4115 0 37.9614 0H24.0021C20.4253 0 17.4545 1.63954 15.1656 4.87464C13.8787 5.15902 12.7304 5.96118 11.891 7.17382C10.3807 9.35586 9.93539 12.6239 10.6171 16.2853H10.1388C7.85814 16.2853 6.00258 18.1409 6.00258 20.4216C6.00258 22.7022 7.85803 24.5577 10.1388 24.5577H11.3672C12.3105 27.7304 14.4655 30.3865 17.2948 31.9849V33.9704C16.8071 34.1221 14.8439 34.6881 14.3654 34.8225C10.9765 35.7745 7.47226 36.759 4.79201 38.7361C1.67799 41.0332 0.128356 44.3443 0.0543085 48.859C0.0541992 48.865 0.0541992 48.8709 0.0541992 48.8769V54.906C0.0541992 55.51 0.543873 55.9998 1.14795 55.9998H20.2094C20.211 55.9998 20.2126 56 20.2143 56C20.2157 56 20.217 55.9998 20.2184 55.9998H26.7781C26.7795 55.9998 26.7808 56 26.7823 56C26.7839 56 26.7856 55.9998 26.7872 55.9998H45.8518C46.4558 55.9998 46.9455 55.51 46.9455 54.906V48.8769C46.9452 48.8712 46.9452 48.8652 46.9451 48.8592V48.8592ZM10.1387 22.3704C9.06422 22.3704 8.18998 21.4963 8.18998 20.4218C8.18998 19.3473 9.06422 18.4731 10.1387 18.4731H10.8438V20.9584C10.8438 21.4358 10.8716 21.9068 10.9234 22.3706H10.1387V22.3704ZM36.8605 18.473C37.935 18.473 38.8092 19.3472 38.8092 20.4217C38.8092 21.4962 37.935 22.3703 36.8605 22.3703H36.0758C36.1275 21.9065 36.1554 21.4356 36.1554 20.9582V18.4729H36.8605V18.473ZM13.6897 8.41874C14.1033 7.82122 14.8267 7.0837 15.9242 6.96328C16.2466 6.92795 16.5366 6.75142 16.716 6.48137C18.6356 3.59211 21.0188 2.18751 24.0021 2.18751H36.9481C36.8618 2.78098 36.5977 3.6993 36.0302 4.89171C35.1827 6.67179 34.2942 7.74159 34.0216 7.90172C33.6517 8.07049 33.4055 8.43077 33.3833 8.83743C33.3609 9.24791 33.5705 9.6363 33.9261 9.8427C34.888 10.4013 35.4015 11.1795 35.4959 12.2215C35.5936 13.2994 35.2321 14.6686 34.448 16.2103C33.9253 16.0705 33.5222 15.7361 32.9341 15.2182C32.1511 14.5286 31.1765 13.6704 29.5074 13.4018C27.7371 13.1166 25.5392 13.5381 22.591 14.7275C19.1873 16.1008 16.5614 16.2666 12.8466 16.2837C12.1762 13.0677 12.4774 10.1704 13.6897 8.41874V8.41874ZM13.0313 20.9582V18.4714C16.4555 18.4573 19.5597 18.3093 23.4095 16.7559C28.8692 14.5532 30.1414 15.6735 31.4884 16.8597C32.1483 17.4408 32.8758 18.0815 33.9678 18.3471V20.9582C33.9678 26.7304 29.2718 31.4265 23.4995 31.4265C17.7272 31.4265 13.0313 26.7305 13.0313 20.9582V20.9582ZM10.4478 53.8125V48.3405C10.4478 47.7366 9.95814 47.2468 9.35406 47.2468C8.74998 47.2468 8.26031 47.7366 8.26031 48.3405V53.8125H2.24149V48.886C2.30624 45.0517 3.52938 42.3858 6.09041 40.4966C8.44876 38.757 11.61 37.8688 14.9569 36.9286C15.0757 36.8953 15.1965 36.8611 15.3159 36.8275L18.8689 53.8125H10.4478ZM25.8924 53.8125H21.1038L17.4232 36.2173C17.8623 36.0849 18.3 35.9498 18.7313 35.8075C19.1795 35.6596 19.4822 35.2409 19.4822 34.7689V32.9602C20.745 33.384 22.0959 33.6141 23.4996 33.6141C24.9033 33.6141 26.2541 33.384 27.5169 32.9602V34.7689C27.5169 35.2408 27.8197 35.6597 28.2678 35.8075C28.6992 35.95 29.1368 36.085 29.5758 36.2174L25.8924 53.8125ZM44.7577 53.8125H38.7358V48.3405C38.7358 47.7366 38.2461 47.2468 37.642 47.2468C37.038 47.2468 36.5483 47.7366 36.5483 48.3405V53.8125H28.1273L31.6829 36.8277C31.8029 36.8615 31.924 36.8957 32.0432 36.9293C35.3895 37.8696 38.5501 38.7576 40.9085 40.4973C43.4697 42.3865 44.6929 45.0524 44.7577 48.8861V53.8125Z" fill="url(#paint1_linear_3531_631)"/>
<defs>
<linearGradient id="paint0_linear_3531_631" x1="16.9707" y1="40.5395" x2="30.837" y2="41.6544" gradientUnits="userSpaceOnUse">
<stop stop-color="#0082F8"/>
<stop offset="1" stop-color="#1C40F2"/>
</linearGradient>
<linearGradient id="paint1_linear_3531_631" x1="46.9455" y1="44.1366" x2="-4.26902" y2="37.1133" gradientUnits="userSpaceOnUse">
<stop stop-color="#001DAC"/>
<stop offset="1" stop-color="#000F57"/>
</linearGradient>
</defs>
</svg>
