<svg width="57" height="56" viewBox="0 0 57 56" fill="none" xmlns="http://www.w3.org/2000/svg">
<path d="M28.5 44.4062C37.5609 44.4062 44.9062 37.0609 44.9062 28C44.9062 18.9391 37.5609 11.5938 28.5 11.5938C19.4391 11.5938 12.0938 18.9391 12.0938 28C12.0938 37.0609 19.4391 44.4062 28.5 44.4062Z" fill="url(#paint0_linear_3531_679)"/>
<path d="M54.4923 23.093L51.9687 22.6723C51.3669 20.0047 50.3244 17.4881 48.8618 15.1727L50.3493 13.0902C51.0457 12.115 50.9978 10.8997 50.2327 10.1345L46.3657 6.26762C45.6006 5.50222 44.3852 5.4542 43.4099 6.15092L41.3275 7.63831C39.0128 6.17575 36.4962 5.13319 33.8279 4.53141L33.4072 2.00769C33.2099 0.825563 32.3165 0 31.2344 0H25.7656C24.6833 0 23.79 0.825672 23.5931 2.00758L23.1725 4.5313C20.5041 5.13308 17.9875 6.17564 15.6728 7.6382L13.5905 6.15092C12.6152 5.45409 11.3998 5.50211 10.6347 6.26741L6.76741 10.1346C6.00233 10.8998 5.95431 12.1151 6.65081 13.0904L8.13831 15.1728C6.67575 17.4882 5.63319 20.0048 5.03141 22.6726L2.5078 23.0931C1.32556 23.29 0.5 24.1834 0.5 25.2656V30.7344C0.5 31.8166 1.32556 32.71 2.50747 32.907L5.03119 33.3275C5.63297 35.9953 6.67553 38.5119 8.13809 40.8273L6.65059 42.9098C5.9542 43.885 6.00211 45.1003 6.76719 45.8655L10.6341 49.7324C11.3992 50.4977 12.6146 50.5458 13.59 49.8491L15.6724 48.3617C17.9871 49.8242 20.5037 50.8668 23.172 51.4686L23.5927 53.9921C23.7899 55.1743 24.6833 56 25.7656 56H31.2344C32.3165 56 33.2099 55.1744 33.4069 53.9924L33.8275 51.4687C36.4959 50.8669 39.0125 49.8244 41.3272 48.3618L43.4095 49.8491C44.3846 50.5458 45.6 50.4978 46.3653 49.7326L50.2324 45.8656C50.9975 45.1005 51.0455 43.8851 50.349 42.9098L48.8615 40.8274C50.324 38.512 51.3666 35.9954 51.9684 33.3277L54.492 32.9071C55.6744 32.7099 56.5 31.8166 56.5 30.7344V25.2656C56.5 24.1834 55.6744 23.2901 54.4923 23.093ZM54.3125 30.687C54.2813 30.7065 54.222 30.7344 54.1328 30.7492L50.8716 31.2928C50.4205 31.368 50.0638 31.7158 49.9773 32.1647C49.4174 35.0695 48.2916 37.787 46.6312 40.2419C46.375 40.6205 46.3815 41.1184 46.6472 41.4904L48.569 44.181C48.6217 44.2548 48.6439 44.3165 48.6522 44.3522L44.8522 48.1522C44.8163 48.1438 44.7548 48.1217 44.6813 48.069L41.9904 46.1472C41.6181 45.8814 41.1203 45.8752 40.7418 46.1313C38.2878 47.7915 35.5703 48.9173 32.6647 49.4773C32.2158 49.5638 31.868 49.9205 31.7927 50.3715L31.2491 53.6327C31.2343 53.7219 31.2064 53.7812 31.187 53.8125H25.8129C25.7935 53.7813 25.7656 53.722 25.7509 53.6327L25.2073 50.3715C25.132 49.9204 24.7843 49.5638 24.3353 49.4773C21.4298 48.9173 18.7122 47.7915 16.2582 46.1313C15.8795 45.8752 15.3816 45.8814 15.0096 46.1472L12.3186 48.0691C12.2451 48.1216 12.1837 48.1438 12.1478 48.1522L8.34777 44.3522C8.35608 44.3163 8.37817 44.2548 8.43089 44.1812L10.3528 41.4904C10.6185 41.1184 10.6248 40.6205 10.3688 40.2419C8.70837 37.787 7.58258 35.0695 7.02269 32.1647C6.93617 31.7158 6.5795 31.368 6.12855 31.2928L2.8672 30.7492C2.77795 30.7344 2.71878 30.7065 2.6875 30.6871V25.313C2.71867 25.2936 2.77784 25.2657 2.8672 25.2509L6.12855 24.7073C6.5795 24.6321 6.93617 24.2843 7.02269 23.8354C7.58258 20.9307 8.70837 18.2131 10.3688 15.7582C10.625 15.3797 10.6185 14.8817 10.3528 14.5097L8.43089 11.8191C8.37828 11.7453 8.35608 11.6837 8.34777 11.6479L12.1478 7.84787C12.1837 7.8563 12.2452 7.8785 12.3187 7.93111L15.0096 9.85294C15.3817 10.1186 15.8798 10.1248 16.2582 9.8688C18.7122 8.20859 21.4297 7.0828 24.3353 6.5228C24.7842 6.43628 25.132 6.07961 25.2073 5.62866L25.7509 2.3672C25.7657 2.27795 25.7936 2.21878 25.8129 2.18761H31.187C31.2065 2.21889 31.2344 2.27806 31.2491 2.36742L31.7927 5.62866C31.868 6.07972 32.2157 6.43628 32.6647 6.5228C35.5702 7.0828 38.2878 8.20859 40.7418 9.8688C41.1205 10.125 41.6184 10.1187 41.9904 9.85294L44.6814 7.931C44.755 7.8785 44.8165 7.8563 44.8522 7.84787L48.6522 11.6479C48.6439 11.6838 48.6218 11.7453 48.5691 11.819L46.6472 14.5097C46.3815 14.8817 46.3752 15.3797 46.6312 15.7582C48.2916 18.2131 49.4174 20.9307 49.9773 23.8354C50.0638 24.2843 50.4205 24.6321 50.8716 24.7073L54.1328 25.2509C54.2219 25.2657 54.2812 25.2936 54.3125 25.313V30.687Z" fill="#020288"/>
<path d="M39.6491 30.9319C39.4927 30.3485 38.8935 30.002 38.3095 30.1585C37.7261 30.3149 37.3798 30.9146 37.5362 31.4981L37.6535 31.9356L35.2775 30.5639V24.6328C35.2775 24.242 35.069 23.8809 34.7306 23.6856L29.5942 20.7201V17.9764L29.9145 18.2968C30.1281 18.5104 30.408 18.6171 30.6879 18.6171C30.9678 18.6171 31.2477 18.5104 31.4613 18.2968C31.8884 17.8697 31.8884 17.1771 31.4613 16.7499L29.2738 14.5624C28.8466 14.1353 28.1542 14.1353 27.7269 14.5624L25.5394 16.7499C25.1123 17.177 25.1123 17.8696 25.5394 18.2968C25.9666 18.7239 26.659 18.7239 27.0863 18.2968L27.4067 17.9764V20.7201L22.2703 23.6856C21.9319 23.8809 21.7234 24.242 21.7234 24.6328V30.5639L19.3472 31.9356L19.4645 31.498C19.6209 30.9146 19.2746 30.3148 18.6911 30.1585C18.1074 30.002 17.508 30.3485 17.3516 30.9319L16.551 33.92C16.4758 34.2002 16.5152 34.4987 16.6602 34.75C16.8053 35.0012 17.0441 35.1845 17.3244 35.2595L20.3126 36.0602C20.4074 36.0855 20.5026 36.0977 20.5963 36.0977C21.0793 36.0977 21.5212 35.7754 21.6521 35.2867C21.8085 34.7033 21.4622 34.1034 20.8787 33.9471L20.4411 33.8299L22.8172 32.4581L27.9535 35.4238C28.1227 35.5215 28.3115 35.5704 28.5004 35.5704C28.6893 35.5704 28.8781 35.5215 29.0473 35.4238L34.1838 32.4583L36.5598 33.8301L36.1222 33.9474C35.5387 34.1037 35.1924 34.7035 35.3488 35.2869C35.4797 35.7756 35.9216 36.0979 36.4046 36.0979C36.4982 36.0979 36.5935 36.0858 36.6883 36.0604L39.6766 35.2598C39.9568 35.1847 40.1957 35.0014 40.3407 34.7502C40.4857 34.4989 40.5251 34.2005 40.45 33.9202L39.6491 30.9319ZM23.9109 26.5273L27.4067 28.5456V32.5821L23.9109 30.5639V26.5273ZM28.5004 22.6146L31.9963 24.6329L28.5004 26.6511L25.0047 24.6328L28.5004 22.6146ZM29.5942 28.5456L33.09 26.5273V30.5639L29.5942 32.5821V28.5456Z" fill="white"/>
<defs>
<linearGradient id="paint0_linear_3531_679" x1="12.0937" y1="13.9947" x2="46.857" y2="17.3137" gradientUnits="userSpaceOnUse">
<stop stop-color="#0082F8"/>
<stop offset="1" stop-color="#1C40F2"/>
</linearGradient>
</defs>
</svg>
