<svg width="125" height="120" viewBox="0 0 125 120" fill="none" xmlns="http://www.w3.org/2000/svg">
<path d="M67.3484 109.502L0.00927734 76.0214V83.5876L62.4304 120L67.3484 109.502Z" fill="url(#paint0_linear_3534_1218)"/>
<path d="M124.756 83.2092V76.0214L62.4297 110.637V120L124.756 83.2092Z" fill="url(#paint1_linear_3534_1218)"/>
<path d="M0 76.0214L62.3455 112.434L124.767 76.0214L62.5346 39.7037L0 76.0214Z" fill="url(#paint2_linear_3534_1218)"/>
<path d="M61.9861 26.4343L38.0391 13.8745V37.0365L61.8442 50.911L62.2982 49.6342L61.9861 26.4343Z" fill="url(#paint3_linear_3534_1218)"/>
<path d="M85.1283 36.6299V13.78L61.4839 26.5763L61.5123 50.5801L85.1283 36.6299Z" fill="url(#paint4_linear_3534_1218)"/>
<path d="M38.0391 13.8083L61.6834 27.5977L85.1103 13.8083L61.6834 0L38.0391 13.8083Z" fill="url(#paint5_linear_3534_1218)"/>
<path d="M62.2412 18.0927L61.059 17.4118C61.0055 17.3898 60.9575 17.3564 60.9183 17.3139C60.8791 17.2714 60.8497 17.2209 60.832 17.1659C60.823 17.1217 60.8235 17.0762 60.8332 17.0322C60.843 16.9882 60.8619 16.9467 60.8887 16.9105L62.1845 15.2649L58.1365 12.9288L55.2992 13.6665C55.1585 13.6916 55.0144 13.6916 54.8736 13.6665C54.7208 13.6613 54.5715 13.6191 54.4386 13.5436L53.2563 12.8626L66.3459 9.62805L67.8969 10.5738L62.2412 18.0927ZM62.8654 14.3948L65.0029 11.6709C65.2121 11.3974 65.4429 11.1413 65.6933 10.9048L64.9745 11.1318L64.3597 11.3115L59.6309 12.5316L62.8654 14.3948Z" fill="url(#paint6_linear_3534_1218)"/>
<path opacity="0.5" d="M41.9917 13.8083L61.6827 25.29L81.3832 13.8083L61.6827 2.30768L41.9917 13.8083Z" stroke="#818696" stroke-width="0.99" stroke-linecap="round" stroke-linejoin="round"/>
<path opacity="0.3" d="M109.122 81.3462L85.4025 67.5001L85.5349 67.4244L61.7581 53.5121L37.9908 67.4244L38.0759 67.4717L14.3086 81.3462L38.0759 95.2018L61.7203 81.4219L85.3646 95.2018L109.122 81.3462Z" fill="url(#paint7_linear_3534_1218)"/>
<path d="M38.5396 62.5348L15.1411 50.1168V72.0493L37.9627 85.8576L38.7855 84.8078L38.5396 62.5348Z" fill="url(#paint8_linear_3534_1218)"/>
<path d="M61.5794 72.0587V49.8897L37.9351 62.6482L37.9634 85.8575L61.5794 72.0587Z" fill="url(#paint9_linear_3534_1218)"/>
<path d="M15.1328 50.126L38.3043 63.6222L61.5798 50.0787L38.3043 36.5258L15.1328 50.126Z" fill="url(#paint10_linear_3534_1218)"/>
<path d="M85.508 62.5159L61.561 49.9655V72.1722L85.1392 86.1224L85.9431 84.9307L85.508 62.5159Z" fill="url(#paint11_linear_3534_1218)"/>
<path d="M108.773 72.2949L108.754 49.9274L85.1284 62.7048V86.1316L108.773 72.2949Z" fill="url(#paint12_linear_3534_1218)"/>
<path d="M61.561 49.9656L85.0257 63.8212L108.708 49.9183L85.3284 36.0911L61.561 49.9656Z" fill="url(#paint13_linear_3534_1218)"/>
<path d="M42.7868 47.0239C43.2701 47.2853 43.7208 47.6027 44.1298 47.9697C44.3869 48.2094 44.5761 48.5129 44.6783 48.8493C44.7093 48.9846 44.7101 49.1251 44.6807 49.2607C44.6513 49.3964 44.5923 49.5239 44.5081 49.6342C44.2815 49.9196 43.9981 50.1547 43.6758 50.3247C43.447 50.4586 43.2023 50.5634 42.9476 50.6368C42.6598 50.7148 42.3653 50.7655 42.068 50.7881C41.3617 50.8261 40.6542 50.7397 39.9778 50.5327C41.0087 51.4785 40.9236 52.2257 39.8549 52.8688C39.4507 53.0981 39.0137 53.2639 38.5592 53.3606C38.0684 53.4656 37.5658 53.5037 37.0648 53.4741C36.5259 53.4488 35.9922 53.3567 35.4759 53.1998C34.9203 53.0514 34.3839 52.8387 33.8776 52.5661L30.4917 50.6178L39.7319 45.2458L42.7868 47.0239ZM35.003 51.819C35.2989 52.0005 35.6167 52.1436 35.9488 52.2446C36.2404 52.334 36.5425 52.3848 36.8473 52.3959C37.1182 52.3988 37.3884 52.367 37.6512 52.3013C37.895 52.2308 38.1298 52.1324 38.3511 52.0081C38.7861 51.7622 38.9753 51.4785 38.928 51.1569C38.8807 50.8354 38.5402 50.5044 37.8971 50.1355L36.0056 49.0573L33.0831 50.7503L35.003 51.819ZM40.0156 46.7875L37.1783 48.452L38.6821 49.3221C39.2309 49.6591 39.8481 49.8691 40.4885 49.9369C41.0262 49.9818 41.5646 49.8596 42.0302 49.587C42.5409 49.2938 42.7584 49.0006 42.6827 48.6979C42.6071 48.3953 42.2666 48.0643 41.6329 47.6954L40.0156 46.7875Z" fill="url(#paint14_linear_3534_1218)"/>
<path d="M86.6137 53.3799C86.6495 53.3947 86.6802 53.4195 86.702 53.4514C86.7238 53.4834 86.7359 53.521 86.7367 53.5596L86.6799 54.2879C85.8425 54.3368 85.0023 54.2699 84.1831 54.0893C83.3451 53.8972 82.5414 53.5782 81.7997 53.1435C81.2111 52.8251 80.6956 52.3869 80.2865 51.8573C79.9846 51.4547 79.8309 50.9603 79.8514 50.4575C79.9061 49.9356 80.1208 49.4434 80.4662 49.0483C80.9248 48.5182 81.476 48.0759 82.0929 47.7431C82.8094 47.3256 83.5794 47.0074 84.3817 46.7974C85.1907 46.5846 86.0231 46.4734 86.8596 46.4663C87.6907 46.4531 88.5202 46.5453 89.3281 46.7406C90.1129 46.927 90.8675 47.2231 91.5696 47.6202C92.1421 47.9262 92.6446 48.3481 93.045 48.8591C93.33 49.2333 93.4948 49.6851 93.5179 50.1549L92.3073 50.2778H92.0519C91.9649 50.2668 91.8812 50.2378 91.806 50.1927C91.7603 50.1669 91.7206 50.1316 91.6896 50.0892C91.6586 50.0467 91.637 49.9982 91.6263 49.9468C91.525 49.5929 91.3401 49.2685 91.0872 49.001C90.8358 48.7496 90.549 48.5361 90.236 48.3673C89.7761 48.1018 89.2787 47.9073 88.7606 47.7904C88.2163 47.6571 87.6561 47.5998 87.0961 47.6202C86.5104 47.6436 85.9295 47.7356 85.3653 47.8945C84.7692 48.0597 84.197 48.3013 83.6629 48.6132C83.1917 48.8685 82.7691 49.2046 82.4145 49.6063C82.1583 49.9073 82.0028 50.2811 81.97 50.675C81.9639 51.0181 82.0776 51.3525 82.2915 51.6208C82.5415 51.9622 82.8646 52.2433 83.2373 52.4436C83.4785 52.5875 83.728 52.717 83.9845 52.8314C84.2131 52.9343 84.4505 53.0166 84.6938 53.0773C84.9363 53.1432 85.1827 53.1937 85.4315 53.2286C85.7011 53.2667 85.9727 53.2888 86.2449 53.2948C86.3734 53.2878 86.5013 53.3173 86.6137 53.3799Z" fill="url(#paint15_linear_3534_1218)"/>
<path opacity="0.5" d="M65.854 49.8519L85.1762 61.3998L105.463 49.8519L85.3653 38.2946L65.854 49.8519Z" stroke="#818696" stroke-linecap="round" stroke-linejoin="round"/>
<path opacity="0.5" d="M19.2563 49.9749L38.5974 61.258L57.948 49.9749L38.5974 38.6823L19.2563 49.9749Z" stroke="#818696" stroke-width="0.98" stroke-linecap="round" stroke-linejoin="round"/>
<defs>
<linearGradient id="paint0_linear_3534_1218" x1="67.3484" y1="110.683" x2="-3.14911" y2="93.0047" gradientUnits="userSpaceOnUse">
<stop stop-color="#001DAC"/>
<stop offset="1" stop-color="#000F57"/>
</linearGradient>
<linearGradient id="paint1_linear_3534_1218" x1="62.4297" y1="79.2393" x2="127.866" y2="88.0932" gradientUnits="userSpaceOnUse">
<stop stop-color="#0082F8"/>
<stop offset="1" stop-color="#1C40F2"/>
</linearGradient>
<linearGradient id="paint2_linear_3534_1218" x1="-8.71433e-07" y1="45.0254" x2="129.904" y2="66.3016" gradientUnits="userSpaceOnUse">
<stop stop-color="#0082F8"/>
<stop offset="1" stop-color="#1C40F2"/>
</linearGradient>
<linearGradient id="paint3_linear_3534_1218" x1="33.4804" y1="32.3927" x2="57.7395" y2="32.3927" gradientUnits="userSpaceOnUse">
<stop stop-color="#989AAD"/>
<stop offset="1" stop-color="#98A0B7"/>
</linearGradient>
<linearGradient id="paint4_linear_3534_1218" x1="91.3042" y1="32.1753" x2="91.7108" y2="32.1753" gradientUnits="userSpaceOnUse">
<stop stop-color="#E7E9E9"/>
<stop offset="1" stop-color="#98AACD"/>
</linearGradient>
<linearGradient id="paint5_linear_3534_1218" x1="76.0876" y1="24.3064" x2="47.6576" y2="3.73581" gradientUnits="userSpaceOnUse">
<stop stop-color="#CDD3DB"/>
<stop offset="1" stop-color="#ACB0C2"/>
</linearGradient>
<linearGradient id="paint6_linear_3534_1218" x1="53.2563" y1="10.2474" x2="68.4932" y2="12.7635" gradientUnits="userSpaceOnUse">
<stop stop-color="#0082F8"/>
<stop offset="1" stop-color="#1C40F2"/>
</linearGradient>
<linearGradient id="paint7_linear_3534_1218" x1="90.9542" y1="60.1893" x2="33.6781" y2="101.624" gradientUnits="userSpaceOnUse">
<stop/>
<stop offset="1"/>
</linearGradient>
<linearGradient id="paint8_linear_3534_1218" x1="10.696" y1="67.9919" x2="34.3403" y2="67.9919" gradientUnits="userSpaceOnUse">
<stop stop-color="#989AAD"/>
<stop offset="1" stop-color="#98A0B7"/>
</linearGradient>
<linearGradient id="paint9_linear_3534_1218" x1="67.7459" y1="67.8783" x2="68.162" y2="67.8783" gradientUnits="userSpaceOnUse">
<stop stop-color="#E7E9E9"/>
<stop offset="1" stop-color="#98AACD"/>
</linearGradient>
<linearGradient id="paint10_linear_3534_1218" x1="52.6706" y1="60.4539" x2="24.6284" y2="40.1765" gradientUnits="userSpaceOnUse">
<stop stop-color="#CDD3DB"/>
<stop offset="1" stop-color="#ACB0C2"/>
</linearGradient>
<linearGradient id="paint11_linear_3534_1218" x1="56.974" y1="68.0392" x2="81.3561" y2="68.0392" gradientUnits="userSpaceOnUse">
<stop stop-color="#989AAD"/>
<stop offset="1" stop-color="#98A0B7"/>
</linearGradient>
<linearGradient id="paint12_linear_3534_1218" x1="114.949" y1="68.0295" x2="115.355" y2="68.0295" gradientUnits="userSpaceOnUse">
<stop stop-color="#E7E9E9"/>
<stop offset="1" stop-color="#98AACD"/>
</linearGradient>
<linearGradient id="paint13_linear_3534_1218" x1="99.6663" y1="60.4543" x2="71.1985" y2="39.8648" gradientUnits="userSpaceOnUse">
<stop stop-color="#CDD3DB"/>
<stop offset="1" stop-color="#ACB0C2"/>
</linearGradient>
<linearGradient id="paint14_linear_3534_1218" x1="30.4917" y1="45.8486" x2="45.283" y2="48.2847" gradientUnits="userSpaceOnUse">
<stop stop-color="#0082F8"/>
<stop offset="1" stop-color="#1C40F2"/>
</linearGradient>
<linearGradient id="paint15_linear_3534_1218" x1="79.8496" y1="47.0386" x2="94.0684" y2="49.4059" gradientUnits="userSpaceOnUse">
<stop stop-color="#0082F8"/>
<stop offset="1" stop-color="#1C40F2"/>
</linearGradient>
</defs>
</svg>
