<svg width="40" height="40" viewBox="0 0 40 40" fill="none" xmlns="http://www.w3.org/2000/svg">
<circle cx="20" cy="20" r="20" fill="url(#paint0_linear_3605_149)" fill-opacity="0.3"/>
<path d="M27.5055 12.7633C27.1604 12.7633 26.8805 13.0431 26.8805 13.3883V26.9441C26.8805 27.157 26.835 27.3594 26.7534 27.5422L17.1365 19.6536L23.0959 14.4171C23.3553 14.1892 23.3808 13.7943 23.1529 13.5351C22.925 13.2757 22.53 13.2502 22.2709 13.4781L16.0747 18.9228C14.9109 18.3491 13.534 18.3493 12.3704 18.9232L2.53907 10.2844C2.58832 10.262 2.63444 10.2332 2.67625 10.1989L12.3659 2.24908C13.4418 1.36627 15.0037 1.36627 16.0798 2.24883L20.1155 5.55933C20.3823 5.77839 20.7762 5.73939 20.9951 5.47245C21.214 5.20558 21.1751 4.81183 20.9082 4.59289L16.8724 1.28239C15.3371 0.0228906 13.1083 0.0231407 11.573 1.28264L1.95594 9.17308C0.970004 9.59914 0.314941 10.5891 0.314941 11.6701V26.9441C0.314941 28.443 1.533 29.6624 3.03019 29.6624H25.4151C26.9124 29.6624 28.1304 28.443 28.1304 26.9441V13.3883C28.1305 13.0431 27.8506 12.7633 27.5055 12.7633ZM1.69275 27.5436C1.61069 27.3604 1.56494 27.1575 1.56494 26.944V11.6701C1.56494 11.497 1.596 11.3281 1.65357 11.1703L11.3087 19.6543L1.69275 27.5436ZM3.03019 28.4124C2.903 28.4124 2.77957 28.3961 2.66182 28.3654L12.3659 20.4037C13.4418 19.521 15.0037 19.5208 16.0798 20.4035L25.7854 28.3649C25.6671 28.3959 25.543 28.4124 25.4151 28.4124H3.03019Z" fill="url(#paint1_linear_3605_149)"/>
<path d="M16.7449 24.8748H11.7002C11.3551 24.8748 11.0752 25.1546 11.0752 25.4998C11.0752 25.8449 11.3551 26.1248 11.7002 26.1248H16.7449C17.09 26.1248 17.3699 25.8449 17.3699 25.4998C17.3699 25.1546 17.09 24.8748 16.7449 24.8748Z" fill="url(#paint2_linear_3605_149)"/>
<path d="M23.7388 0.385498C19.0023 0.385498 15.1626 4.22712 15.1626 8.966C15.1626 10.7271 15.6928 12.3642 16.6023 13.7263L15.86 15.8798L17.9813 15.3256C19.5033 16.7057 21.5229 17.5465 23.7388 17.5465C28.4753 17.5465 32.315 13.7049 32.315 8.966C32.315 4.22712 28.4753 0.385498 23.7388 0.385498Z" fill="url(#paint3_linear_3605_149)"/>
<path d="M26.3845 8.33911H21.3398C20.9947 8.33911 20.7148 8.05924 20.7148 7.71411C20.7148 7.36899 20.9947 7.08911 21.3398 7.08911H26.3845C26.7297 7.08911 27.0095 7.36899 27.0095 7.71411C27.0095 8.05924 26.7297 8.33911 26.3845 8.33911Z" fill="white"/>
<path d="M26.3845 11.2393H21.3398C20.9947 11.2393 20.7148 10.9594 20.7148 10.6143C20.7148 10.2691 20.9947 9.98926 21.3398 9.98926H26.3845C26.7297 9.98926 27.0095 10.2691 27.0095 10.6143C27.0095 10.9594 26.7297 11.2393 26.3845 11.2393Z" fill="white"/>
<defs>
<linearGradient id="paint0_linear_3605_149" x1="33.2113" y1="36.6667" x2="11.5446" y2="7.77778" gradientUnits="userSpaceOnUse">
<stop stop-color="#62A1FF"/>
<stop offset="1" stop-color="white" stop-opacity="0"/>
</linearGradient>
<linearGradient id="paint1_linear_3605_149" x1="28.1304" y1="23.4501" x2="-2.09155" y2="18.7552" gradientUnits="userSpaceOnUse">
<stop stop-color="#001DAC"/>
<stop offset="1" stop-color="#000F57"/>
</linearGradient>
<linearGradient id="paint2_linear_3605_149" x1="17.3699" y1="25.8599" x2="13.2011" y2="22.4218" gradientUnits="userSpaceOnUse">
<stop stop-color="#001DAC"/>
<stop offset="1" stop-color="#000F57"/>
</linearGradient>
<linearGradient id="paint3_linear_3605_149" x1="15.1626" y1="1.64118" x2="33.3349" y2="3.3753" gradientUnits="userSpaceOnUse">
<stop stop-color="#0082F8"/>
<stop offset="1" stop-color="#1C40F2"/>
</linearGradient>
</defs>
</svg>
