<svg width="42" height="40" viewBox="0 0 42 40" fill="none" xmlns="http://www.w3.org/2000/svg">
<circle cx="21.1001" cy="20" r="20" fill="url(#paint0_linear_3605_139)" fill-opacity="0.3"/>
<path d="M10.9066 15.3901C11.5646 14.542 11.3931 13.3277 10.7857 12.4253C10.15 11.4809 8.37041 8.79703 7.52128 8.2337C6.81295 7.76374 5.76347 7.77992 5.00532 8.23922C4.875 8.31853 4.58009 8.58005 4.23242 8.90746L9.50547 16.6234C10.1998 16.0223 10.8688 15.4389 10.9066 15.3901Z" fill="url(#paint1_linear_3605_139)"/>
<path d="M24.6687 27.9021C25.129 27.1452 25.1453 26.0956 24.6752 25.3873C24.112 24.5382 21.514 22.838 20.4837 22.123C19.59 21.5026 18.366 21.3431 17.5177 22.001C17.4699 22.038 16.911 22.6786 16.3242 23.3561L23.9848 28.6932C24.3197 28.3379 24.5885 28.035 24.6687 27.9021Z" fill="url(#paint2_linear_3605_139)"/>
<path d="M23.6115 0C18.4218 0 14.1997 4.22213 14.1997 9.41179C14.1997 14.6015 18.4218 18.8236 23.6115 18.8236C28.8012 18.8236 33.0233 14.6015 33.0233 9.41179C33.0233 4.22213 28.8012 0 23.6115 0ZM23.6115 17.5687C19.1137 17.5687 15.4546 13.9096 15.4546 9.41179C15.4546 4.91402 19.1137 1.25491 23.6115 1.25491C28.1093 1.25491 31.7684 4.91402 31.7684 9.41179C31.7684 13.9096 28.1092 17.5687 23.6115 17.5687Z" fill="url(#paint3_linear_3605_139)"/>
<path d="M23.6118 2.51001C23.2653 2.51001 22.9844 2.79092 22.9844 3.13746V3.76492C22.9844 4.1114 23.2653 4.39237 23.6118 4.39237C23.9583 4.39237 24.2393 4.1114 24.2393 3.76492V3.13746C24.2393 2.79092 23.9583 2.51001 23.6118 2.51001Z" fill="url(#paint4_linear_3605_139)"/>
<path d="M19.618 4.53137C19.373 4.28642 18.9758 4.28642 18.7306 4.53137C18.4856 4.77639 18.4856 5.1737 18.7306 5.41878L19.1743 5.86245C19.4195 6.10747 19.8166 6.10741 20.0617 5.86245C20.3067 5.61743 20.3067 5.22013 20.0617 4.97505L19.618 4.53137Z" fill="url(#paint5_linear_3605_139)"/>
<path d="M17.9644 8.78442H17.3369C16.9904 8.78442 16.7095 9.06533 16.7095 9.41188C16.7095 9.75836 16.9904 10.0393 17.3369 10.0393H17.9644C18.3109 10.0393 18.5918 9.75836 18.5918 9.41188C18.5918 9.06533 18.3109 8.78442 17.9644 8.78442Z" fill="url(#paint6_linear_3605_139)"/>
<path d="M19.1748 12.9611L18.7311 13.4047C18.4861 13.6498 18.4861 14.0471 18.7311 14.2921C18.9763 14.5372 19.3734 14.5371 19.6185 14.2921L20.0622 13.8485C20.3072 13.6034 20.3072 13.2061 20.0622 12.9611C19.8171 12.7161 19.4199 12.7161 19.1748 12.9611Z" fill="url(#paint7_linear_3605_139)"/>
<path d="M23.6118 14.4314C23.2653 14.4314 22.9844 14.7123 22.9844 15.0588V15.6863C22.9844 16.0328 23.2653 16.3138 23.6118 16.3138C23.9583 16.3138 24.2393 16.0328 24.2393 15.6863V15.0588C24.2393 14.7123 23.9583 14.4314 23.6118 14.4314Z" fill="url(#paint8_linear_3605_139)"/>
<path d="M28.0482 12.9611C27.8031 12.7161 27.4059 12.7161 27.1608 12.9611C26.9158 13.2061 26.9158 13.6034 27.1608 13.8485L27.6045 14.2921C27.8496 14.5372 28.2467 14.5371 28.4919 14.2921C28.7369 14.0471 28.7369 13.6498 28.4919 13.4047L28.0482 12.9611Z" fill="url(#paint9_linear_3605_139)"/>
<path d="M29.8863 8.78442H29.2588C28.9123 8.78442 28.6313 9.06533 28.6313 9.41188C28.6313 9.75836 28.9123 10.0393 29.2588 10.0393H29.8863C30.2327 10.0393 30.5137 9.75836 30.5137 9.41188C30.5137 9.06533 30.2327 8.78442 29.8863 8.78442Z" fill="url(#paint10_linear_3605_139)"/>
<path d="M28.0482 5.86245L28.4919 5.41878C28.7369 5.17376 28.7369 4.77646 28.4919 4.53137C28.2468 4.28642 27.8496 4.28642 27.6045 4.53137L27.1608 4.97505C26.9158 5.22007 26.9158 5.61737 27.1608 5.86245C27.406 6.10754 27.8031 6.10747 28.0482 5.86245Z" fill="url(#paint11_linear_3605_139)"/>
<path d="M23.6119 5.64697C23.2653 5.64697 22.9844 5.92795 22.9844 6.27443V8.78424H21.1021C20.7555 8.78424 20.4746 9.06515 20.4746 9.41169C20.4746 9.75817 20.7555 10.0391 21.1021 10.0391H23.6119C23.9584 10.0391 24.2393 9.75817 24.2393 9.41169V6.27443C24.2393 5.92788 23.9584 5.64697 23.6119 5.64697Z" fill="url(#paint12_linear_3605_139)"/>
<path d="M20.8416 21.6077C19.7154 20.8259 18.1996 20.6784 17.1334 21.5053C17.0745 21.5509 16.9866 21.619 14.7105 24.2656C12.47 23.5069 9.4021 20.4389 8.64263 18.1975C11.2893 15.9212 11.3574 15.8333 11.4027 15.7748C12.1695 14.7865 12.1308 13.2996 11.3066 12.0749C10.6271 11.0871 8.87222 8.37671 7.86854 7.71086C6.93922 7.09432 5.62716 7.12914 4.67958 7.7032C4.28416 7.94383 1.84311 10.2589 1.52914 10.8749C0.167752 13.5671 1.26454 18.5167 2.45337 21.2922C3.94163 24.7707 8.1376 28.9666 11.6156 30.4545C13.4105 31.2238 16.3433 32.0001 18.849 32.0001C20.1474 32.0001 21.2188 31.7911 22.0305 31.3803C22.6293 31.081 24.9546 28.6427 25.2049 28.2283C25.7986 27.252 25.7958 25.9412 25.1983 25.0406C24.5528 24.0675 22.0243 22.4282 20.8416 21.6077ZM24.1326 27.5765C23.914 27.9212 21.7305 30.1272 21.4667 30.2592C19.2047 31.4039 14.4468 30.3027 12.1096 29.301C8.93747 27.9438 4.96432 23.9708 3.60701 20.7984C2.52352 18.2689 1.51 13.6936 2.64807 11.4431C2.79967 11.1452 5.02085 8.97342 5.33087 8.77589C5.89671 8.43318 6.68373 8.4308 7.17483 8.75657C7.91341 9.24648 9.77274 12.0421 10.2656 12.7757C10.6931 13.4108 10.9064 14.3327 10.432 14.978C10.1892 15.2067 8.53741 16.6336 7.52006 17.5077C7.34274 17.6601 7.26487 17.8985 7.31795 18.1262C7.97822 20.9549 11.9545 24.931 14.782 25.5902C15.0099 25.6433 15.2481 25.5653 15.4003 25.388C16.2746 24.3707 17.7015 22.7188 17.93 22.476C18.5572 22.0147 19.4788 22.1893 20.1261 22.6385C20.8726 23.1569 23.6642 24.9981 24.1525 25.7343C24.4799 26.2276 24.4713 27.0195 24.1326 27.5765Z" fill="url(#paint13_linear_3605_139)"/>
<defs>
<linearGradient id="paint0_linear_3605_139" x1="34.3114" y1="36.6667" x2="12.6447" y2="7.77778" gradientUnits="userSpaceOnUse">
<stop stop-color="#62A1FF"/>
<stop offset="1" stop-color="white" stop-opacity="0"/>
</linearGradient>
<linearGradient id="paint1_linear_3605_139" x1="4.23242" y1="8.52712" x2="11.7719" y2="9.11173" gradientUnits="userSpaceOnUse">
<stop stop-color="#0082F8"/>
<stop offset="1" stop-color="#1C40F2"/>
</linearGradient>
<linearGradient id="paint2_linear_3605_139" x1="16.3242" y1="22.0976" x2="25.497" y2="23.1679" gradientUnits="userSpaceOnUse">
<stop stop-color="#0082F8"/>
<stop offset="1" stop-color="#1C40F2"/>
</linearGradient>
<linearGradient id="paint3_linear_3605_139" x1="33.0233" y1="14.8359" x2="12.6247" y2="11.4951" gradientUnits="userSpaceOnUse">
<stop stop-color="#001DAC"/>
<stop offset="1" stop-color="#000F57"/>
</linearGradient>
<linearGradient id="paint4_linear_3605_139" x1="24.2393" y1="3.9936" x2="22.8594" y2="3.84293" gradientUnits="userSpaceOnUse">
<stop stop-color="#001DAC"/>
<stop offset="1" stop-color="#000F57"/>
</linearGradient>
<linearGradient id="paint5_linear_3605_139" x1="20.2454" y1="5.68637" x2="18.4048" y2="5.38491" gradientUnits="userSpaceOnUse">
<stop stop-color="#001DAC"/>
<stop offset="1" stop-color="#000F57"/>
</linearGradient>
<linearGradient id="paint6_linear_3605_139" x1="18.5918" y1="9.77348" x2="16.6165" y2="9.28821" gradientUnits="userSpaceOnUse">
<stop stop-color="#001DAC"/>
<stop offset="1" stop-color="#000F57"/>
</linearGradient>
<linearGradient id="paint7_linear_3605_139" x1="20.246" y1="14.1161" x2="18.4052" y2="13.8146" gradientUnits="userSpaceOnUse">
<stop stop-color="#001DAC"/>
<stop offset="1" stop-color="#000F57"/>
</linearGradient>
<linearGradient id="paint8_linear_3605_139" x1="24.2393" y1="15.915" x2="22.8594" y2="15.7643" gradientUnits="userSpaceOnUse">
<stop stop-color="#001DAC"/>
<stop offset="1" stop-color="#000F57"/>
</linearGradient>
<linearGradient id="paint9_linear_3605_139" x1="28.6757" y1="14.1161" x2="26.8349" y2="13.8146" gradientUnits="userSpaceOnUse">
<stop stop-color="#001DAC"/>
<stop offset="1" stop-color="#000F57"/>
</linearGradient>
<linearGradient id="paint10_linear_3605_139" x1="30.5137" y1="9.77348" x2="28.5383" y2="9.28821" gradientUnits="userSpaceOnUse">
<stop stop-color="#001DAC"/>
<stop offset="1" stop-color="#000F57"/>
</linearGradient>
<linearGradient id="paint11_linear_3605_139" x1="28.6757" y1="5.6864" x2="26.8349" y2="5.38493" gradientUnits="userSpaceOnUse">
<stop stop-color="#001DAC"/>
<stop offset="1" stop-color="#000F57"/>
</linearGradient>
<linearGradient id="paint12_linear_3605_139" x1="24.2393" y1="9.10868" x2="20.1311" y2="8.53198" gradientUnits="userSpaceOnUse">
<stop stop-color="#001DAC"/>
<stop offset="1" stop-color="#000F57"/>
</linearGradient>
<linearGradient id="paint13_linear_3605_139" x1="25.6483" y1="26.7591" x2="-1.17081" y2="22.3651" gradientUnits="userSpaceOnUse">
<stop stop-color="#001DAC"/>
<stop offset="1" stop-color="#000F57"/>
</linearGradient>
</defs>
</svg>
