<svg width="46" height="40" viewBox="0 0 46 40" fill="none" xmlns="http://www.w3.org/2000/svg">
<circle cx="25.7402" cy="20" r="20" fill="url(#paint0_linear_3605_109)" fill-opacity="0.3"/>
<path d="M5.73438 14.3193V27.8042H25.2311V14.3193H5.73438ZM17.8015 24.7043L15.4828 23.5709L13.1639 24.7043L13.5253 22.1489L11.7308 20.2939L14.273 19.8479L15.4828 17.5681L16.6925 19.8479L19.2347 20.2939L17.4402 22.1489L17.8015 24.7043Z" fill="url(#paint1_linear_3605_109)"/>
<path d="M37.5402 5.33686C37.9069 5.28657 38.1802 4.97329 38.1802 4.60312V2.24938C38.1802 1.00904 37.1711 0 35.9308 0H9.98111C8.7407 0 7.73158 1.00911 7.73158 2.24938V4.60312C7.73158 4.97329 8.00488 5.28665 8.37164 5.33686C9.11568 5.43885 9.67671 6.08342 9.67671 6.83613C9.67671 7.58884 9.11568 8.23334 8.37164 8.33532C8.00495 8.38561 7.73158 8.6989 7.73158 9.06907V10.1232H2.50922C1.26888 10.1233 0.259766 11.1323 0.259766 12.3727V14.7264C0.259766 15.0966 0.53306 15.4099 0.899822 15.4602C1.64386 15.5621 2.20489 16.2067 2.20489 16.9593C2.20489 17.712 1.64386 18.3566 0.899822 18.4586C0.53306 18.5089 0.259766 18.8223 0.259766 19.1924V22.9309C0.259766 23.3011 0.53306 23.6145 0.899822 23.6647C1.64386 23.7667 2.20489 24.4112 2.20489 25.1639C2.20489 25.9165 1.64386 26.5611 0.899822 26.6631C0.53306 26.7134 0.259766 27.0267 0.259766 27.3969V29.7506C0.259766 30.991 1.26888 32 2.50922 32H28.4589C29.6993 32 30.7084 30.9909 30.7084 29.7506V27.3969C30.7084 27.0267 30.4351 26.7134 30.0684 26.6631C29.3243 26.5611 28.7633 25.9166 28.7633 25.1639C28.7633 24.4112 29.3243 23.7667 30.0684 23.6647C30.4351 23.6144 30.7084 23.3011 30.7084 22.9309V21.8768H35.9308C37.1711 21.8768 38.1802 20.8677 38.1802 19.6273V17.2736C38.1802 16.9034 37.907 16.5901 37.5402 16.5398C36.7962 16.4379 36.2351 15.7933 36.2351 15.0407C36.2351 14.288 36.7962 13.6434 37.5402 13.5414C37.9069 13.4911 38.1802 13.1778 38.1802 12.8076V9.06914C38.1802 8.69897 37.907 8.38561 37.5402 8.3354C36.7962 8.23341 36.2351 7.58884 36.2351 6.8362C36.2351 6.08357 36.7962 5.43892 37.5402 5.33686ZM29.2272 22.359C28.0833 22.789 27.282 23.8993 27.282 25.1639C27.282 26.4284 28.0832 27.5386 29.2272 27.9687V29.7506C29.2272 30.1742 28.8825 30.5187 28.4589 30.5187H2.50922C2.08565 30.5187 1.74103 30.1742 1.74103 29.7506V27.9687C2.88494 27.5386 3.68616 26.4284 3.68616 25.1639C3.68616 23.8994 2.88502 22.7891 1.74103 22.359V19.7643C2.88494 19.3342 3.68616 18.2239 3.68616 16.9594C3.68616 15.6949 2.88502 14.5846 1.74103 14.1546V12.3727C1.74103 11.9491 2.08565 11.6045 2.50922 11.6045H28.4589C28.8825 11.6045 29.2272 11.9491 29.2272 12.3727V14.1546C28.0833 14.5846 27.282 15.6949 27.282 16.9594C27.282 18.2239 28.0832 19.3342 29.2272 19.7643V22.359ZM28.7635 16.9401C28.7729 16.1957 29.3307 15.5613 30.0684 15.4602C30.4351 15.4099 30.7084 15.0966 30.7084 14.7265V12.3727C30.7084 11.1324 29.6993 10.1233 28.4589 10.1233H13.9482V4.93655H31.9636V16.9401H28.7635ZM36.699 9.64099V12.2357C35.5551 12.6658 34.7539 13.7761 34.7539 15.0406C34.7539 16.3051 35.555 17.4154 36.699 17.8454V19.6273C36.699 20.0509 36.3544 20.3955 35.9308 20.3955H30.7084V19.1925C30.7084 18.8223 30.4351 18.509 30.0684 18.4588C30.0054 18.4501 29.9438 18.4376 29.8837 18.4215H32.7042C33.1132 18.4215 33.4449 18.0899 33.4449 17.6809V4.19592C33.4449 3.78686 33.1132 3.45528 32.7042 3.45528H13.2075C12.7986 3.45528 12.4669 3.78686 12.4669 4.19592V10.1233H9.21278V9.64099C10.3567 9.21097 11.1579 8.10069 11.1579 6.83613C11.1579 5.57164 10.3568 4.46136 9.21278 4.03127V2.24938C9.21278 1.82581 9.55739 1.48127 9.98104 1.48127H35.9307C36.3543 1.48127 36.6989 1.82581 36.6989 2.24938V4.03127C35.555 4.46136 34.7538 5.57164 34.7538 6.83613C34.7538 8.10062 35.5551 9.2109 36.699 9.64099Z" fill="url(#paint2_linear_3605_109)"/>
<defs>
<linearGradient id="paint0_linear_3605_109" x1="38.9515" y1="36.6667" x2="17.2848" y2="7.77778" gradientUnits="userSpaceOnUse">
<stop stop-color="#62A1FF"/>
<stop offset="1" stop-color="white" stop-opacity="0"/>
</linearGradient>
<linearGradient id="paint1_linear_3605_109" x1="5.73437" y1="15.306" x2="26.1888" y2="18.1295" gradientUnits="userSpaceOnUse">
<stop stop-color="#0082F8"/>
<stop offset="1" stop-color="#1C40F2"/>
</linearGradient>
<linearGradient id="paint2_linear_3605_109" x1="38.1802" y1="25.2209" x2="-2.48366" y2="17.3291" gradientUnits="userSpaceOnUse">
<stop stop-color="#001DAC"/>
<stop offset="1" stop-color="#000F57"/>
</linearGradient>
</defs>
</svg>
