<svg width="113" height="108" viewBox="0 0 113 108" fill="none" xmlns="http://www.w3.org/2000/svg">
<path d="M60.9415 98.4223L0 68.1227V74.97L56.4907 107.923L60.9415 98.4223Z" fill="url(#paint0_linear_3534_1248)"/>
<path d="M112.896 74.6277V68.1227L56.4907 99.4494V107.923L112.896 74.6277Z" fill="url(#paint1_linear_3534_1248)"/>
<path d="M0 68.1226L56.4907 101.076L112.981 68.1226L56.6619 35.2553L0 68.1226Z" fill="url(#paint2_linear_3534_1248)"/>
<path opacity="0.3" d="M17.2041 66.8388L56.662 89.6919L95.692 66.8388L56.4908 43.9001L17.2041 66.8388Z" fill="url(#paint3_linear_3534_1248)"/>
<path d="M60.257 62.2169L17.2898 48.351V55.2839L56.5765 78.2226L60.257 62.2169Z" fill="url(#paint4_linear_3534_1248)"/>
<path d="M95.7776 55.2839V48.351L56.5764 62.3024V78.2226L95.7776 55.2839Z" fill="url(#paint5_linear_3534_1248)"/>
<path d="M17.2898 48.3509L56.5765 71.2895L95.7777 48.3509L56.4909 25.4122L17.2898 48.3509Z" fill="url(#paint6_linear_3534_1248)"/>
<path opacity="0.3" d="M64.6221 30.1198L25.3353 53.0585L17.2041 48.4365L56.4908 25.4122L64.6221 30.1198Z" fill="white"/>
<path d="M60.257 49.5492L17.2898 35.6833V42.7018L56.6621 65.6405L60.257 49.5492Z" fill="url(#paint7_linear_3534_1248)"/>
<path d="M95.7776 42.7018V35.6833L56.5764 49.7204L56.662 65.6405L95.7776 42.7018Z" fill="url(#paint8_linear_3534_1248)"/>
<path d="M17.2898 35.7689L56.5765 58.622L95.7777 35.7689L56.4909 12.8303L17.2898 35.7689Z" fill="url(#paint9_linear_3534_1248)"/>
<path opacity="0.3" d="M64.6221 17.5378L25.3353 40.4765L17.2041 35.7689L56.4908 12.8303L64.6221 17.5378Z" fill="white"/>
<path d="M60.257 36.796L17.2898 22.9301V29.9487L56.5765 52.8873L60.257 36.796Z" fill="url(#paint10_linear_3534_1248)"/>
<path d="M95.7776 29.9487V22.9301L56.5764 36.9672V52.8873L95.7776 29.9487Z" fill="url(#paint11_linear_3534_1248)"/>
<path d="M17.2898 22.9301L56.5765 45.8687L95.7777 22.9301L56.4909 0.0770264L17.2898 22.9301Z" fill="url(#paint12_linear_3534_1248)"/>
<path opacity="0.3" d="M64.6221 4.78459L25.3353 27.7232L17.2041 23.0157L56.4908 0.0770264L64.6221 4.78459Z" fill="white"/>
<path fill-rule="evenodd" clip-rule="evenodd" d="M54.1799 5.81169C53.4096 5.38373 52.3825 5.38373 51.6122 5.81169C51.1842 5.98288 51.013 6.49643 51.2698 6.92439C51.3554 7.09557 51.5266 7.26676 51.6122 7.26676C52.3825 7.69472 53.4096 7.69472 54.1799 7.26676C54.6079 7.09557 54.7791 6.58202 54.5223 6.15406C54.4367 6.06847 54.3511 5.89728 54.1799 5.81169Z" fill="url(#paint13_linear_3534_1248)"/>
<path fill-rule="evenodd" clip-rule="evenodd" d="M49.9856 8.20824C49.2153 7.78028 48.1882 7.78028 47.4178 8.20824C46.9899 8.37942 46.8187 8.89297 47.0755 9.32093C47.1611 9.49212 47.3323 9.6633 47.4178 9.6633C48.1882 10.0913 49.2153 10.0913 49.9856 9.6633C50.4136 9.49212 50.5848 8.97857 50.328 8.55061C50.328 8.46501 50.1568 8.29383 49.9856 8.20824Z" fill="url(#paint14_linear_3534_1248)"/>
<path fill-rule="evenodd" clip-rule="evenodd" d="M58.2026 3.50072C57.4322 3.07276 56.4051 3.07276 55.6348 3.50072C55.2068 3.6719 54.9501 4.09986 55.1212 4.52782C55.2068 4.7846 55.378 4.95578 55.6348 5.04137C56.4051 5.46933 57.4322 5.46933 58.2026 5.04137C58.6305 4.87019 58.8873 4.44223 58.7161 4.01427C58.6305 3.75749 58.4593 3.58631 58.2026 3.50072Z" fill="url(#paint15_linear_3534_1248)"/>
<path d="M69.9289 46.2111L93.8946 32.2596C95.2641 31.4037 96.9759 31.4893 98.3454 32.3452C99.5437 33.1155 101.512 34.2282 102.454 34.7418L100.4 56.6533C100.4 58.194 99.6293 59.5635 98.2598 60.4194L74.2941 76.8531C72.9246 76.0827 71.1272 75.2268 69.8433 74.4565C68.5594 73.6862 67.7891 72.3167 67.7891 70.776V49.9772C67.7891 48.4365 68.645 46.9814 69.9289 46.2111Z" fill="url(#paint16_linear_3534_1248)"/>
<path d="M74.1227 48.4365L97.8317 34.5706C99.8859 33.3723 102.454 33.9715 103.738 36.0257C104.166 36.7104 104.337 37.4807 104.337 38.3366V59.0499C104.337 60.5906 103.566 61.96 102.197 62.816L78.4879 76.7675C76.4337 77.9657 73.8659 77.3666 72.5821 75.3124C72.1541 74.6277 71.9829 73.8573 71.9829 73.0014V52.2026C71.9829 50.6619 72.8388 49.2068 74.1227 48.4365Z" fill="url(#paint17_linear_3534_1248)"/>
<path d="M96.982 53.1238C96.6797 53.2984 96.4342 53.1567 96.4342 52.8076C96.4342 50.3659 94.7141 49.3728 92.5996 50.5936L87.3042 53.651L87.3042 56.392C87.3042 56.9486 86.7243 57.5652 86.3781 57.3838L82.3609 55.2753C82.2528 55.2188 82.1914 55.0889 82.1914 54.916C82.1914 54.7432 82.2528 54.5424 82.3609 54.3611L86.3781 47.6139C86.7257 47.0303 87.3042 46.9814 87.3042 47.5363L87.3042 50.2774L91.8692 47.6418C94.9902 45.8398 97.5298 47.3061 97.5298 50.9099L97.5298 52.175C97.5298 52.5242 97.2844 52.9493 96.982 53.1238Z" fill="url(#paint18_linear_3534_1248)"/>
<path d="M90.2259 63.1391L90.2259 60.3981L85.6609 63.0337C82.5399 64.8356 80.0002 63.3694 80.0002 59.7656L80.0002 58.5005C80.0002 58.1513 80.2457 57.7262 80.548 57.5516C80.8504 57.3771 81.0958 57.5188 81.0958 57.8679C81.0958 60.3095 82.8159 61.3026 84.9305 60.0818L90.2259 57.0245L90.2259 54.2835C90.2259 53.7294 90.8036 53.1082 91.152 53.2917L95.1692 55.4001C95.2773 55.4567 95.3387 55.5865 95.3387 55.7594C95.3387 55.9323 95.2773 56.1331 95.1692 56.3144L91.152 63.0615C90.8036 63.6456 90.2259 63.6941 90.2259 63.1391Z" fill="url(#paint19_linear_3534_1248)"/>
<path opacity="0.2" d="M33.3809 27.3809L57.4322 41.4179L88.1597 23.4436L64.1084 9.49213L33.3809 27.3809Z" fill="#818696"/>
<defs>
<linearGradient id="paint0_linear_3534_1248" x1="-4.25425e-07" y1="71.0349" x2="63.758" y2="80.3508" gradientUnits="userSpaceOnUse">
<stop stop-color="#18029D"/>
<stop offset="1" stop-color="#1C40F2"/>
</linearGradient>
<linearGradient id="paint1_linear_3534_1248" x1="56.4907" y1="71.0349" x2="115.71" y2="79.0476" gradientUnits="userSpaceOnUse">
<stop stop-color="#0082F8"/>
<stop offset="1" stop-color="#1C40F2"/>
</linearGradient>
<linearGradient id="paint2_linear_3534_1248" x1="-7.89119e-07" y1="40.0714" x2="117.63" y2="59.3491" gradientUnits="userSpaceOnUse">
<stop stop-color="#0082F8"/>
<stop offset="1" stop-color="#1C40F2"/>
</linearGradient>
<linearGradient id="paint3_linear_3534_1248" x1="80.6964" y1="84.3122" x2="33.2785" y2="50.0069" gradientUnits="userSpaceOnUse">
<stop/>
<stop offset="1"/>
</linearGradient>
<linearGradient id="paint4_linear_3534_1248" x1="9.18423" y1="63.2739" x2="52.1857" y2="63.2739" gradientUnits="userSpaceOnUse">
<stop stop-color="#989AAD"/>
<stop offset="1" stop-color="#98A0B7"/>
</linearGradient>
<linearGradient id="paint5_linear_3534_1248" x1="105.989" y1="63.2782" x2="106.673" y2="63.2782" gradientUnits="userSpaceOnUse">
<stop stop-color="#E7E9E9"/>
<stop offset="1" stop-color="#98AACD"/>
</linearGradient>
<linearGradient id="paint6_linear_3534_1248" x1="80.7136" y1="65.8414" x2="33.2957" y2="31.5361" gradientUnits="userSpaceOnUse">
<stop stop-color="#CDD3DB"/>
<stop offset="1" stop-color="#ACB0C2"/>
</linearGradient>
<linearGradient id="paint7_linear_3534_1248" x1="9.18423" y1="50.6576" x2="52.1857" y2="50.6576" gradientUnits="userSpaceOnUse">
<stop stop-color="#989AAD"/>
<stop offset="1" stop-color="#98A0B7"/>
</linearGradient>
<linearGradient id="paint8_linear_3534_1248" x1="105.98" y1="50.6704" x2="106.665" y2="50.6704" gradientUnits="userSpaceOnUse">
<stop stop-color="#E7E9E9"/>
<stop offset="1" stop-color="#98AACD"/>
</linearGradient>
<linearGradient id="paint9_linear_3534_1248" x1="80.7136" y1="53.2423" x2="33.2957" y2="18.937" gradientUnits="userSpaceOnUse">
<stop stop-color="#CDD3DB"/>
<stop offset="1" stop-color="#ACB0C2"/>
</linearGradient>
<linearGradient id="paint10_linear_3534_1248" x1="9.18423" y1="37.9044" x2="52.1857" y2="37.9044" gradientUnits="userSpaceOnUse">
<stop stop-color="#989AAD"/>
<stop offset="1" stop-color="#98A0B7"/>
</linearGradient>
<linearGradient id="paint11_linear_3534_1248" x1="105.989" y1="37.9087" x2="106.673" y2="37.9087" gradientUnits="userSpaceOnUse">
<stop stop-color="#E7E9E9"/>
<stop offset="1" stop-color="#98AACD"/>
</linearGradient>
<linearGradient id="paint12_linear_3534_1248" x1="80.7136" y1="40.4805" x2="33.2957" y2="6.1752" gradientUnits="userSpaceOnUse">
<stop stop-color="#CDD3DB"/>
<stop offset="1" stop-color="#ACB0C2"/>
</linearGradient>
<linearGradient id="paint13_linear_3534_1248" x1="51.1492" y1="5.64416" x2="54.7922" y2="6.22366" gradientUnits="userSpaceOnUse">
<stop stop-color="#0082F8"/>
<stop offset="1" stop-color="#1C40F2"/>
</linearGradient>
<linearGradient id="paint14_linear_3534_1248" x1="46.9548" y1="8.04071" x2="50.5979" y2="8.6202" gradientUnits="userSpaceOnUse">
<stop stop-color="#0082F8"/>
<stop offset="1" stop-color="#1C40F2"/>
</linearGradient>
<linearGradient id="paint15_linear_3534_1248" x1="55.0676" y1="3.33945" x2="58.9244" y2="3.96403" gradientUnits="userSpaceOnUse">
<stop stop-color="#0082F8"/>
<stop offset="1" stop-color="#1C40F2"/>
</linearGradient>
<linearGradient id="paint16_linear_3534_1248" x1="112.134" y1="54.2719" x2="10.3055" y2="54.2719" gradientUnits="userSpaceOnUse">
<stop offset="0.05" stop-color="#E7E9E9"/>
<stop offset="0.29" stop-color="#CBCDD5"/>
<stop offset="0.79" stop-color="#8285A1"/>
</linearGradient>
<linearGradient id="paint17_linear_3534_1248" x1="95.564" y1="52.3619" x2="31.6095" y2="80.8384" gradientUnits="userSpaceOnUse">
<stop stop-color="#E7E9E9"/>
<stop offset="0.27" stop-color="#E4E6E7"/>
<stop offset="0.46" stop-color="#DBDDE1"/>
<stop offset="0.62" stop-color="#CCCED6"/>
<stop offset="0.76" stop-color="#B6B9C6"/>
<stop offset="0.9" stop-color="#9A9DB2"/>
<stop offset="0.99" stop-color="#8285A1"/>
</linearGradient>
<linearGradient id="paint18_linear_3534_1248" x1="82.1914" y1="50.7196" x2="97.2918" y2="52.4673" gradientUnits="userSpaceOnUse">
<stop stop-color="#0082F8"/>
<stop offset="1" stop-color="#1C40F2"/>
</linearGradient>
<linearGradient id="paint19_linear_3534_1248" x1="80.0002" y1="58.7319" x2="95.1007" y2="60.4796" gradientUnits="userSpaceOnUse">
<stop stop-color="#0082F8"/>
<stop offset="1" stop-color="#1C40F2"/>
</linearGradient>
</defs>
</svg>
