<svg width="67" height="64" viewBox="0 0 67 64" fill="none" xmlns="http://www.w3.org/2000/svg">
<path d="M35.9191 58.4009L0.00488281 40.5447V44.58L33.2962 63.9999L35.9191 58.4009Z" fill="url(#paint0_linear_3531_227)"/>
<path d="M66.5367 44.3782V40.5447L33.2959 59.0062V63.9999L66.5367 44.3782Z" fill="url(#paint1_linear_3531_227)"/>
<path d="M0 40.5448L33.2509 59.9647L66.5422 40.5448L33.3518 21.1753L0 40.5448Z" fill="url(#paint2_linear_3531_227)"/>
<path d="M33.0593 14.0983L20.2876 7.39966V19.7527L32.9837 27.1525L33.2258 26.4715L33.0593 14.0983Z" fill="url(#paint3_linear_3531_227)"/>
<path d="M45.4018 19.536V7.34937L32.7915 14.1741L32.8066 26.9761L45.4018 19.536Z" fill="url(#paint4_linear_3531_227)"/>
<path d="M20.2876 7.36443L32.8979 14.7188L45.3922 7.36443L32.8979 0L20.2876 7.36443Z" fill="url(#paint5_linear_3531_227)"/>
<path d="M33.1952 9.64951L32.5647 9.28633C32.5362 9.27459 32.5106 9.25678 32.4897 9.23413C32.4688 9.21147 32.4531 9.18453 32.4437 9.15518C32.4389 9.13163 32.4391 9.10733 32.4443 9.08387C32.4495 9.06041 32.4596 9.0383 32.4739 9.01899L33.165 8.14131L31.0061 6.89541L29.4929 7.28885C29.4178 7.30226 29.3409 7.30226 29.2659 7.28885C29.1844 7.28608 29.1047 7.26357 29.0338 7.22328L28.4033 6.8601L35.3844 5.13501L36.2116 5.63942L33.1952 9.64951ZM33.5282 7.67725L34.6681 6.22454C34.7797 6.07869 34.9028 5.94205 35.0363 5.81597L34.653 5.93703L34.3251 6.03286L31.8031 6.68356L33.5282 7.67725Z" fill="url(#paint6_linear_3531_227)"/>
<path opacity="0.5" d="M22.3955 7.36438L32.8974 13.488L43.4043 7.36438L32.8974 1.23071L22.3955 7.36438Z" stroke="#818696" stroke-width="0.99" stroke-linecap="round" stroke-linejoin="round"/>
<path opacity="0.3" d="M58.1988 43.3847L45.5481 36.0001L45.6187 35.9597L32.9378 28.5398L20.2619 35.9597L20.3072 35.9849L7.63135 43.3847L20.3072 50.7743L32.9176 43.425L45.5279 50.7743L58.1988 43.3847Z" fill="url(#paint7_linear_3531_227)"/>
<path d="M20.5544 33.3519L8.0752 26.729V38.4263L20.2467 45.7908L20.6855 45.2309L20.5544 33.3519Z" fill="url(#paint8_linear_3531_227)"/>
<path d="M32.8423 38.4314V26.6079L20.2319 33.4124L20.2471 45.7907L32.8423 38.4314Z" fill="url(#paint9_linear_3531_227)"/>
<path d="M8.0708 26.7339L20.4289 33.9319L32.8425 26.7087L20.4289 19.4805L8.0708 26.7339Z" fill="url(#paint10_linear_3531_227)"/>
<path d="M45.6043 33.3418L32.8325 26.6482V38.4918L45.4075 45.9319L45.8363 45.2963L45.6043 33.3418Z" fill="url(#paint11_linear_3531_227)"/>
<path d="M58.0122 38.5573L58.0021 26.6279L45.4019 33.4426V45.9369L58.0122 38.5573Z" fill="url(#paint12_linear_3531_227)"/>
<path d="M32.8325 26.6483L45.347 34.0379L57.9775 26.6231L45.5084 19.2485L32.8325 26.6483Z" fill="url(#paint13_linear_3531_227)"/>
<path d="M22.8196 25.0794C23.0773 25.2188 23.3177 25.3881 23.5358 25.5838C23.673 25.7117 23.7739 25.8735 23.8284 26.0529C23.8449 26.1251 23.8454 26.2 23.8297 26.2724C23.814 26.3447 23.7825 26.4127 23.7376 26.4716C23.6168 26.6238 23.4656 26.7491 23.2937 26.8398C23.1717 26.9112 23.0412 26.9671 22.9053 27.0063C22.7519 27.0479 22.5948 27.0749 22.4362 27.087C22.0595 27.1073 21.6822 27.0612 21.3215 26.9508C21.8713 27.4552 21.8259 27.8537 21.2559 28.1967C21.0403 28.319 20.8073 28.4074 20.5649 28.459C20.3031 28.515 20.035 28.5353 19.7679 28.5195C19.4804 28.506 19.1958 28.4569 18.9205 28.3732C18.6242 28.294 18.3381 28.1806 18.068 28.0353L16.2622 26.9962L21.1903 24.1311L22.8196 25.0794ZM18.6683 27.6368C18.826 27.7336 18.9956 27.8099 19.1727 27.8638C19.3282 27.9114 19.4893 27.9386 19.6519 27.9445C19.7963 27.946 19.9404 27.929 20.0806 27.894C20.2106 27.8564 20.3359 27.8039 20.4539 27.7377C20.6859 27.6065 20.7868 27.4552 20.7616 27.2837C20.7364 27.1122 20.5548 26.9356 20.2118 26.7389L19.2029 26.1639L17.6443 27.0668L18.6683 27.6368ZM21.3416 24.9533L19.8284 25.8411L20.6304 26.3051C20.9231 26.4848 21.2523 26.5968 21.5939 26.633C21.8806 26.6569 22.1677 26.5917 22.416 26.4464C22.6884 26.29 22.8044 26.1336 22.7641 25.9722C22.7237 25.8108 22.5422 25.6343 22.2042 25.4375L21.3416 24.9533Z" fill="url(#paint14_linear_3531_227)"/>
<path d="M46.1939 28.4692C46.213 28.477 46.2294 28.4903 46.241 28.5073C46.2527 28.5243 46.2591 28.5444 46.2595 28.565L46.2293 28.9534C45.7826 28.9795 45.3345 28.9438 44.8976 28.8475C44.4507 28.745 44.0221 28.5749 43.6265 28.3431C43.3125 28.1732 43.0376 27.9396 42.8194 27.6571C42.6584 27.4424 42.5765 27.1787 42.5874 26.9105C42.6166 26.6322 42.7311 26.3697 42.9153 26.159C43.1598 25.8762 43.4538 25.6404 43.7829 25.4629C44.165 25.2402 44.5757 25.0705 45.0035 24.9585C45.435 24.845 45.879 24.7857 46.3251 24.7819C46.7684 24.7749 47.2107 24.824 47.6416 24.9282C48.0602 25.0276 48.4626 25.1855 48.8371 25.3973C49.1424 25.5605 49.4104 25.7855 49.624 26.0581C49.7759 26.2576 49.8639 26.4986 49.8762 26.7491L49.2305 26.8147H49.0943C49.0479 26.8088 49.0033 26.7933 48.9632 26.7693C48.9388 26.7555 48.9176 26.7367 48.9011 26.7141C48.8846 26.6915 48.8731 26.6656 48.8673 26.6382C48.8133 26.4494 48.7147 26.2764 48.5798 26.1337C48.4457 25.9996 48.2928 25.8858 48.1259 25.7958C47.8806 25.6541 47.6153 25.5504 47.339 25.4881C47.0487 25.417 46.7499 25.3865 46.4512 25.3973C46.1388 25.4098 45.829 25.4589 45.5281 25.5436C45.2102 25.6317 44.905 25.7606 44.6202 25.9269C44.3689 26.0631 44.1435 26.2423 43.9544 26.4566C43.8177 26.6171 43.7348 26.8165 43.7173 27.0266C43.7141 27.2095 43.7747 27.3879 43.8888 27.531C44.0221 27.713 44.1944 27.863 44.3932 27.9698C44.5218 28.0466 44.6549 28.1156 44.7917 28.1766C44.9136 28.2315 45.0402 28.2754 45.17 28.3078C45.2993 28.3429 45.4307 28.3699 45.5634 28.3885C45.7072 28.4088 45.8521 28.4206 45.9972 28.4238C46.0658 28.42 46.134 28.4358 46.1939 28.4692Z" fill="url(#paint15_linear_3531_227)"/>
<path opacity="0.5" d="M35.1221 26.5878L45.4272 32.7466L56.2469 26.5878L45.5281 20.4238L35.1221 26.5878Z" stroke="#818696" stroke-linecap="round" stroke-linejoin="round"/>
<path opacity="0.5" d="M10.27 26.6533L20.5853 32.671L30.9056 26.6533L20.5853 20.6306L10.27 26.6533Z" stroke="#818696" stroke-width="0.98" stroke-linecap="round" stroke-linejoin="round"/>
<defs>
<linearGradient id="paint0_linear_3531_227" x1="35.9191" y1="59.031" x2="-1.67959" y2="49.6025" gradientUnits="userSpaceOnUse">
<stop stop-color="#001DAC"/>
<stop offset="1" stop-color="#000F57"/>
</linearGradient>
<linearGradient id="paint1_linear_3531_227" x1="33.2959" y1="42.2609" x2="68.195" y2="46.983" gradientUnits="userSpaceOnUse">
<stop stop-color="#0082F8"/>
<stop offset="1" stop-color="#1C40F2"/>
</linearGradient>
<linearGradient id="paint2_linear_3531_227" x1="-4.64764e-07" y1="24.0135" x2="69.2823" y2="35.3609" gradientUnits="userSpaceOnUse">
<stop stop-color="#0082F8"/>
<stop offset="1" stop-color="#1C40F2"/>
</linearGradient>
<linearGradient id="paint3_linear_3531_227" x1="17.8563" y1="17.2761" x2="30.7945" y2="17.2761" gradientUnits="userSpaceOnUse">
<stop stop-color="#989AAD"/>
<stop offset="1" stop-color="#98A0B7"/>
</linearGradient>
<linearGradient id="paint4_linear_3531_227" x1="48.6957" y1="17.1602" x2="48.9125" y2="17.1602" gradientUnits="userSpaceOnUse">
<stop stop-color="#E7E9E9"/>
<stop offset="1" stop-color="#98AACD"/>
</linearGradient>
<linearGradient id="paint5_linear_3531_227" x1="40.5801" y1="12.9634" x2="25.4175" y2="1.99243" gradientUnits="userSpaceOnUse">
<stop stop-color="#CDD3DB"/>
<stop offset="1" stop-color="#ACB0C2"/>
</linearGradient>
<linearGradient id="paint6_linear_3531_227" x1="28.4033" y1="5.46534" x2="36.5297" y2="6.80727" gradientUnits="userSpaceOnUse">
<stop stop-color="#0082F8"/>
<stop offset="1" stop-color="#1C40F2"/>
</linearGradient>
<linearGradient id="paint7_linear_3531_227" x1="48.509" y1="32.101" x2="17.9617" y2="54.1993" gradientUnits="userSpaceOnUse">
<stop/>
<stop offset="1"/>
</linearGradient>
<linearGradient id="paint8_linear_3531_227" x1="5.70445" y1="36.2624" x2="18.3148" y2="36.2624" gradientUnits="userSpaceOnUse">
<stop stop-color="#989AAD"/>
<stop offset="1" stop-color="#98A0B7"/>
</linearGradient>
<linearGradient id="paint9_linear_3531_227" x1="36.131" y1="36.2018" x2="36.353" y2="36.2018" gradientUnits="userSpaceOnUse">
<stop stop-color="#E7E9E9"/>
<stop offset="1" stop-color="#98AACD"/>
</linearGradient>
<linearGradient id="paint10_linear_3531_227" x1="28.091" y1="32.2421" x2="13.1351" y2="21.4275" gradientUnits="userSpaceOnUse">
<stop stop-color="#CDD3DB"/>
<stop offset="1" stop-color="#ACB0C2"/>
</linearGradient>
<linearGradient id="paint11_linear_3531_227" x1="30.3861" y1="36.2875" x2="43.3899" y2="36.2875" gradientUnits="userSpaceOnUse">
<stop stop-color="#989AAD"/>
<stop offset="1" stop-color="#98A0B7"/>
</linearGradient>
<linearGradient id="paint12_linear_3531_227" x1="61.306" y1="36.2824" x2="61.5229" y2="36.2824" gradientUnits="userSpaceOnUse">
<stop stop-color="#E7E9E9"/>
<stop offset="1" stop-color="#98AACD"/>
</linearGradient>
<linearGradient id="paint13_linear_3531_227" x1="53.1553" y1="32.2422" x2="37.9725" y2="21.2611" gradientUnits="userSpaceOnUse">
<stop stop-color="#CDD3DB"/>
<stop offset="1" stop-color="#ACB0C2"/>
</linearGradient>
<linearGradient id="paint14_linear_3531_227" x1="16.2622" y1="24.4526" x2="24.1509" y2="25.7518" gradientUnits="userSpaceOnUse">
<stop stop-color="#0082F8"/>
<stop offset="1" stop-color="#1C40F2"/>
</linearGradient>
<linearGradient id="paint15_linear_3531_227" x1="42.5864" y1="25.0871" x2="50.1698" y2="26.3497" gradientUnits="userSpaceOnUse">
<stop stop-color="#0082F8"/>
<stop offset="1" stop-color="#1C40F2"/>
</linearGradient>
</defs>
</svg>
