<svg width="74" height="72" viewBox="0 0 74 72" fill="none" xmlns="http://www.w3.org/2000/svg">
<path d="M40.6392 63.9351L0.970703 46.6252V50.9527L37.033 72L40.6392 63.9351Z" fill="url(#paint0_linear_3534_1122)"/>
<path d="M73.0299 50.9527V46.5597L37.0332 60.5912V72L73.0299 50.9527Z" fill="url(#paint1_linear_3534_1122)"/>
<path d="M0.970703 46.6253L37.033 67.607L73.0297 46.5597L37.033 25.5125L0.970703 46.6253Z" fill="url(#paint2_linear_3534_1122)"/>
<path opacity="0.3" fill-rule="evenodd" clip-rule="evenodd" d="M52.7036 46.0614L52.4479 46.2056L35.1446 56.1719C30.7122 58.7291 23.526 58.7356 19.1001 56.1719C15.5333 54.1197 14.8382 51.038 17.0085 48.5726C12.622 45.6876 12.8188 41.288 17.5986 38.5276C20.9492 36.5606 25.6963 35.9574 29.9713 36.6196C30.7322 35.7537 31.6373 35.0261 32.6465 34.469C38.1869 31.2693 47.1632 31.2693 52.7102 34.469C58.2572 37.6687 58.2441 42.842 52.7036 46.0614Z" fill="url(#paint3_linear_3534_1122)"/>
<path fill-rule="evenodd" clip-rule="evenodd" d="M53.1165 38.0424L52.8542 38.1867L35.5181 48.1792C31.0857 50.7495 23.8995 50.7495 19.4671 48.1792C17.3624 46.9662 16.2543 45.3926 16.1559 43.7796C16.1232 42.6584 16.1559 40.4226 16.1559 39.5964C15.6099 39.139 15.1601 38.5777 14.8326 37.9452C14.5051 37.3126 14.3063 36.6214 14.2479 35.9115C14.1627 33.9445 14.2086 29.0859 14.2479 26.5878C17.5984 24.6207 26.0501 27.9385 30.3448 28.6072C31.1131 27.7464 32.0194 27.0196 33.0265 26.4566C38.567 23.2569 51.7002 19.8998 57.2342 23.1061C57.3128 28.0696 57.2997 30.3186 57.2342 32.4823C57.1161 34.528 55.7327 36.5147 53.1165 38.0424Z" fill="url(#paint4_linear_3534_1122)"/>
<path fill-rule="evenodd" clip-rule="evenodd" d="M53.0708 29.0924L52.8151 29.2367L35.5118 39.2292C31.0794 41.8126 23.9194 41.8126 19.4673 39.2292C15.9004 37.1769 15.2054 34.0953 17.3757 31.6299C12.9892 28.7384 13.1859 24.3453 17.9658 21.5784C21.3163 19.6507 26.07 19.0147 30.3319 19.6769C31.0992 18.8221 32.006 18.1038 33.0136 17.5525C38.5541 14.3528 47.5303 14.3462 53.0774 17.5525C58.6244 20.7588 58.6113 25.8927 53.0708 29.0924Z" fill="url(#paint5_linear_3534_1122)"/>
<path fill-rule="evenodd" clip-rule="evenodd" d="M53.1165 22.6012L52.8542 22.7454L35.5181 32.738C31.0857 35.2951 23.8995 35.3017 19.4671 32.738C17.3558 31.5184 16.2543 29.9513 16.1559 28.3515C16.1232 27.2368 16.1559 24.9944 16.1559 24.1748C15.0605 23.2449 14.3751 21.9212 14.2479 20.4899C14.1627 18.5229 14.2086 13.6643 14.2479 11.1596C17.5984 9.19259 26.0501 12.5169 30.3448 13.1857C31.1095 12.3211 32.0165 11.5937 33.0265 11.035C38.567 7.82878 51.7002 4.47826 57.2342 7.68453C57.3128 12.648 57.2997 14.897 57.2342 17.0607C57.1161 19.0802 55.7327 21.0735 53.1165 22.6012Z" fill="url(#paint6_linear_3534_1122)"/>
<path fill-rule="evenodd" clip-rule="evenodd" d="M53.1167 13.9987L52.8545 14.143L35.5183 24.1093C31.0859 26.6926 23.9194 26.6926 19.4673 24.1093C15.907 22.0504 15.212 18.9688 17.3757 16.51C12.9892 13.6184 13.1859 9.21883 17.9658 6.45843C21.2967 4.51106 26.07 3.90784 30.3385 4.57008C31.1067 3.70922 32.013 2.98239 33.0202 2.41945C38.5607 -0.806484 47.5238 -0.806484 53.0839 2.41945C58.6441 5.64539 58.6244 10.7925 53.1167 13.9987Z" fill="url(#paint7_linear_3534_1122)"/>
<path fill-rule="evenodd" clip-rule="evenodd" d="M62.4865 40.5013C63.7794 37.5832 64.4877 34.4401 64.5716 31.2497C64.5716 29.4203 66.9779 26.3124 65.7518 25.6239C64.2897 24.7978 60.985 23.0012 60.0999 22.6734C57.9952 21.8735 55.3003 22.2406 52.3694 23.9847C45.6356 27.9975 40.1738 37.754 40.1738 45.7795C40.1738 48.7038 40.8951 50.9856 42.1409 52.5198L46.6191 54.959L62.4865 40.5013Z" fill="url(#paint8_linear_3534_1122)"/>
<path fill-rule="evenodd" clip-rule="evenodd" d="M67.0041 42.9535C68.2876 40.02 68.9848 36.8637 69.0564 33.6625C69.0564 25.6173 63.5815 22.3586 56.828 26.3845C50.0745 30.4103 44.5996 40.1865 44.5996 48.2251C44.5996 51.156 45.3274 53.4705 46.5666 54.9851L67.0041 42.9535Z" fill="url(#paint9_linear_3534_1122)"/>
<path d="M65.5091 37.4392C65.5555 37.0211 65.5796 36.6009 65.5812 36.1803C65.5812 30.7775 61.9028 28.5875 57.3655 31.2889C52.8283 33.9903 49.1499 40.5602 49.1499 45.963C49.1501 46.2893 49.1676 46.6154 49.2024 46.9399" stroke="white" stroke-width="2.34" stroke-linecap="round" stroke-linejoin="round"/>
<path d="M57.7985 41.0127L52.1138 44.0616" stroke="white" stroke-width="1.46" stroke-linecap="round" stroke-linejoin="round"/>
<path fill-rule="evenodd" clip-rule="evenodd" d="M57.8508 39.38C58.6049 38.9342 59.2146 39.2948 59.2146 40.1996C59.192 40.6841 59.057 41.1567 58.8203 41.58C58.5836 42.0033 58.2517 42.3658 57.8508 42.6387C57.0968 43.0912 56.4805 42.724 56.4805 41.8257C56.5049 41.34 56.6412 40.8665 56.879 40.4422C57.1167 40.018 57.4493 39.6544 57.8508 39.38Z" fill="white"/>
<path d="M27.7843 7.82015L27.3409 8.07614L33.0208 11.3554L31.0053 12.5191L27.6167 10.5627L23.5882 12.8885L32.1997 17.8604C34.2287 19.0318 37.4875 19.0563 39.4644 17.9149L39.9078 17.659L34.5662 14.575L36.5818 13.4113L40.1069 15.4466L44.1355 13.1207L35.049 7.87467C33.02 6.70325 29.7612 6.67879 27.7843 7.82015ZM38.0735 17.6239C36.5781 18.2361 34.4585 18.1406 33.0865 17.3484L31.4245 16.3889L33.6795 15.087L38.0735 17.6239ZM42.3385 13.1072L40.0836 14.4092L36.5584 12.3739L30.5144 15.8634L25.3851 12.902L27.64 11.6001L31.0287 13.5566L37.0727 10.067L42.3385 13.1072ZM36.1626 9.54156L33.9076 10.8435L29.1752 8.11121C30.6706 7.49895 32.7899 7.59432 34.1622 8.38666L36.1626 9.54156Z" fill="#9195A8"/>
<defs>
<linearGradient id="paint0_linear_3534_1122" x1="40.6392" y1="66.6244" x2="-0.785936" y2="56.0184" gradientUnits="userSpaceOnUse">
<stop stop-color="#001DAC"/>
<stop offset="1" stop-color="#000F57"/>
</linearGradient>
<linearGradient id="paint1_linear_3534_1122" x1="73.0299" y1="66.6106" x2="35.0164" y2="57.8016" gradientUnits="userSpaceOnUse">
<stop stop-color="#001DAC"/>
<stop offset="1" stop-color="#000F57"/>
</linearGradient>
<linearGradient id="paint2_linear_3534_1122" x1="0.970703" y1="28.5925" x2="76.0053" y2="40.856" gradientUnits="userSpaceOnUse">
<stop stop-color="#0082F8"/>
<stop offset="1" stop-color="#1C40F2"/>
</linearGradient>
<linearGradient id="paint3_linear_3534_1122" x1="63.8174" y1="34.0559" x2="37.3149" y2="43.4518" gradientUnits="userSpaceOnUse">
<stop/>
<stop offset="1"/>
</linearGradient>
<linearGradient id="paint4_linear_3534_1122" x1="55.313" y1="26.6795" x2="11.4351" y2="42.2191" gradientUnits="userSpaceOnUse">
<stop offset="0.42" stop-color="#E7E9E9"/>
<stop offset="0.68" stop-color="#B1B4C3"/>
<stop offset="0.88" stop-color="#8F92AA"/>
<stop offset="0.99" stop-color="#8285A1"/>
</linearGradient>
<linearGradient id="paint5_linear_3534_1122" x1="55.4247" y1="20.2342" x2="9.69773" y2="36.4295" gradientUnits="userSpaceOnUse">
<stop stop-color="#CDD3DB"/>
<stop offset="0.59" stop-color="#B7BBCA"/>
<stop offset="1" stop-color="#ACB0C2"/>
</linearGradient>
<linearGradient id="paint6_linear_3534_1122" x1="55.313" y1="11.2449" x2="11.4416" y2="26.7844" gradientUnits="userSpaceOnUse">
<stop offset="0.42" stop-color="#E7E9E9"/>
<stop offset="0.68" stop-color="#B1B4C3"/>
<stop offset="0.88" stop-color="#8F92AA"/>
<stop offset="0.99" stop-color="#8285A1"/>
</linearGradient>
<linearGradient id="paint7_linear_3534_1122" x1="55.4247" y1="5.10773" x2="9.69117" y2="21.3095" gradientUnits="userSpaceOnUse">
<stop stop-color="#CDD3DB"/>
<stop offset="0.59" stop-color="#B7BBCA"/>
<stop offset="1" stop-color="#ACB0C2"/>
</linearGradient>
<linearGradient id="paint8_linear_3534_1122" x1="40.1738" y1="24.6621" x2="67.7195" y2="26.7469" gradientUnits="userSpaceOnUse">
<stop stop-color="#18029D"/>
<stop offset="1" stop-color="#1C40F2"/>
</linearGradient>
<linearGradient id="paint9_linear_3534_1122" x1="44.5996" y1="26.8779" x2="70.5925" y2="28.8793" gradientUnits="userSpaceOnUse">
<stop stop-color="#0082F8"/>
<stop offset="1" stop-color="#1C40F2"/>
</linearGradient>
</defs>
</svg>
