<svg width="57" height="56" viewBox="0 0 57 56" fill="none" xmlns="http://www.w3.org/2000/svg">
<path d="M28.4998 0C13.0206 0 0.427246 12.5933 0.427246 28.0725C1.96926 65.3146 55.036 65.3038 56.5724 28.0723C56.5723 12.5933 43.9791 0 28.4998 0ZM41.1838 29.1691H54.3563C54.0958 35.3877 51.6304 41.0462 47.7234 45.3812C44.9668 42.7858 41.7203 40.7858 38.1576 39.4797C38.4947 37.4064 38.7403 35.2142 38.8843 32.9535C38.9228 32.3491 38.464 31.828 37.8595 31.7895C37.2552 31.7516 36.734 32.2098 36.6955 32.8143C36.5593 34.9532 36.3398 36.9521 36.053 38.7999C31.1704 37.4232 25.8293 37.4232 20.9465 38.7999C20.6598 36.9521 20.4403 34.9532 20.3041 32.8143C20.2656 32.2098 19.7445 31.7516 19.14 31.7895C18.5356 31.828 18.0769 32.3492 18.1153 32.9535C18.2593 35.2143 18.5049 37.4064 18.842 39.4797C15.2792 40.7858 12.0329 42.7857 9.2762 45.3811C5.36931 41.0461 2.90387 35.3877 2.64343 29.1691H15.8158C17.2707 29.1112 17.2696 27.0333 15.8158 26.976H2.64332C2.90387 20.7574 5.3692 15.099 9.2762 10.764C12.0328 13.3593 15.2793 15.3593 18.842 16.6654C18.5049 18.7387 18.2593 20.9308 18.1153 23.1916C18.0768 23.796 18.5356 24.3171 19.14 24.3556C19.7445 24.3944 20.2656 23.9353 20.3041 23.3308C20.4403 21.1918 20.6598 19.193 20.9465 17.3451C25.8293 18.7219 31.1703 18.7219 36.053 17.3451C36.3398 19.193 36.5593 21.1918 36.6955 23.3308C36.7325 23.9116 37.215 24.3579 37.7888 24.3578C37.8122 24.3578 37.8358 24.357 37.8595 24.3555C38.464 24.317 38.9227 23.7958 38.8843 23.1914C38.7403 20.9306 38.4947 18.7386 38.1576 16.6653C41.7204 15.359 44.9668 13.3592 47.7235 10.7638C51.6305 15.0988 54.0958 20.7571 54.3564 26.9757H41.1838C39.7289 27.0339 39.73 29.1118 41.1838 29.1691ZM21.4029 49.0186C22.1908 50.9085 23.072 52.4301 24.028 53.5653C18.9684 52.6803 14.4094 50.3207 10.8119 46.9473C13.288 44.6262 16.1459 42.8438 19.239 41.6601C19.7989 44.4252 20.5295 46.9236 21.4029 49.0186ZM21.3256 40.9629C25.9096 39.6285 31.09 39.6285 35.6739 40.9629C32.164 57.9979 24.8349 57.9952 21.3256 40.9629ZM35.5966 49.0186C36.4701 46.9236 37.2007 44.4252 37.7605 41.6603C40.8535 42.8439 43.7114 44.6264 46.1876 46.9474C42.5901 50.3208 38.031 52.6803 32.9714 53.5653C33.9275 52.4301 34.8087 50.9085 35.5966 49.0186ZM35.5966 7.12645C34.8087 5.2366 33.9274 3.71499 32.9715 2.57981C38.0311 3.46475 42.5902 5.82437 46.1877 9.19767C43.7115 11.5188 40.8535 13.3012 37.7605 14.4848C37.2007 11.7199 36.4701 9.22146 35.5966 7.12645ZM35.6739 15.1821C31.09 16.5166 25.9096 16.5166 21.3256 15.1821C24.8356 -1.85278 32.1647 -1.85015 35.6739 15.1821ZM21.4029 7.12645C20.5295 9.22146 19.7989 11.7199 19.239 14.4848C16.1459 13.3012 13.288 11.5188 10.8119 9.19767C14.4094 5.82426 18.9684 3.46475 24.028 2.57981C23.072 3.71499 22.1908 5.23671 21.4029 7.12645Z" fill="url(#paint0_linear_3531_637)"/>
<path fill-rule="evenodd" clip-rule="evenodd" d="M10.2524 22.9818C10.2524 21.8772 11.1479 20.9818 12.2524 20.9818H44.7468C45.8514 20.9818 46.7468 21.8772 46.7468 22.9818V33.0181C46.7468 34.1227 45.8514 35.0181 44.7468 35.0181H12.2524C11.1479 35.0181 10.2524 34.1227 10.2524 33.0181V22.9818Z" fill="url(#paint1_linear_3531_637)"/>
<path d="M31.566 25.3802C30.9875 25.2007 30.3733 25.5245 30.194 26.1031L29.7671 27.4806L29.3374 26.9722C28.9243 26.459 28.0756 26.459 27.6625 26.9722L27.2329 27.4806L26.806 26.1031C26.6268 25.5246 26.0124 25.2008 25.4339 25.3802C24.8555 25.5595 24.5318 26.1737 24.7111 26.7523L25.7306 30.0421C25.8491 30.4247 26.1669 30.7124 26.5595 30.7921C26.6323 30.8069 26.7054 30.8141 26.778 30.8141C27.097 30.8141 27.4048 30.6746 27.6155 30.4254L28.5 29.3789L29.3845 30.4253C29.6431 30.7313 30.0479 30.872 30.4405 30.792C30.8331 30.7121 31.1509 30.4246 31.2694 30.042L32.2889 26.7522C32.4682 26.1737 32.1445 25.5595 31.566 25.3802Z" fill="white"/>
<path d="M22.7931 25.3803C22.2148 25.2009 21.6003 25.5246 21.421 26.1032L20.9941 27.4807L20.5645 26.9723C20.1513 26.4591 19.3026 26.4591 18.8895 26.9723L18.4599 27.4807L18.033 26.1032C17.5471 24.7306 15.5626 25.3466 15.9381 26.7523L16.9576 30.0422C17.0761 30.4248 17.3939 30.7124 17.7865 30.7922C17.8593 30.807 17.9324 30.8142 18.005 30.8142C18.324 30.8142 18.6318 30.6747 18.8425 30.4255L19.727 29.379L20.6115 30.4254C20.8701 30.7314 21.2752 30.8721 21.6675 30.7921C22.0601 30.7122 22.3779 30.4247 22.4964 30.0421L23.5159 26.7522C23.6952 26.1738 23.3716 25.5596 22.7931 25.3803Z" fill="white"/>
<path d="M40.3385 25.3802C39.76 25.2008 39.1457 25.5245 38.9664 26.103L38.5395 27.4806L38.1099 26.9722C37.6967 26.459 36.8481 26.459 36.435 26.9722L36.0053 27.4806L35.5784 26.103C35.3993 25.5246 34.7849 25.2009 34.2064 25.3802C33.6279 25.5595 33.3042 26.1737 33.4835 26.7522L34.503 30.0421C34.6216 30.4247 34.9393 30.7123 35.3319 30.792C35.4047 30.8069 35.4779 30.8141 35.5505 30.8141C35.8695 30.8141 36.1773 30.6746 36.3879 30.4253L37.2724 29.3789L38.1569 30.4252C38.4155 30.7313 38.8205 30.872 39.213 30.7919C39.6055 30.7121 39.9233 30.4246 40.0419 30.042L41.0614 26.7521C41.2407 26.1737 40.9171 25.5595 40.3385 25.3802Z" fill="white"/>
<defs>
<linearGradient id="paint0_linear_3531_637" x1="56.5724" y1="44.1366" x2="-4.2622" y2="34.1476" gradientUnits="userSpaceOnUse">
<stop stop-color="#001DAC"/>
<stop offset="1" stop-color="#000F57"/>
</linearGradient>
<linearGradient id="paint1_linear_3531_637" x1="10.2524" y1="22.0089" x2="47.0042" y2="31.1319" gradientUnits="userSpaceOnUse">
<stop stop-color="#0082F8"/>
<stop offset="1" stop-color="#1C40F2"/>
</linearGradient>
</defs>
</svg>
