<svg width="53" height="56" viewBox="0 0 53 56" fill="none" xmlns="http://www.w3.org/2000/svg">
<path d="M7.6874 38.3682C7.12262 38.3682 6.66479 38.8261 6.66479 39.3908V48.1174C6.66479 48.6822 7.12262 49.14 7.6874 49.14H19.2244C19.7892 49.14 20.247 48.6822 20.247 48.1174V39.3908C20.247 38.8261 19.7892 38.3682 19.2244 38.3682H7.6874ZM18.2018 47.0948H8.71V40.4134H18.2018V47.0948Z" fill="#020288"/>
<path d="M52.6786 22.0268C52.6786 19.4742 50.6086 17.3975 48.0641 17.3975H37.0542L36.2144 18.0371C36.2144 18.22 37.0485 19.2655 37.0375 19.4427H48.0641C49.4808 19.4427 50.6334 20.6019 50.6334 22.0268V25.103H34.3564C33.5431 25.9196 32.6269 26.5965 31.7273 27.1482H50.6334V31.144H2.3665V27.1482H22.584C21.6844 26.5965 20.7681 25.9196 19.9549 25.103H2.3665V22.0268C2.3665 20.6019 3.51907 19.4427 4.93579 19.4427H17.2737C17.2627 19.2655 18.406 18.5018 18.406 18.3189L17.257 17.3975H4.93579C2.39135 17.3975 0.321289 19.4742 0.321289 22.0268V51.3706C0.321289 53.9233 2.39135 56 4.93579 56H48.064C50.6085 56 52.6785 53.9233 52.6785 51.3706V42.3008C52.6785 42.2791 52.6778 42.2574 52.6764 42.2359C52.6777 42.2144 52.6785 42.1928 52.6785 42.171V22.0268H52.6786ZM50.6334 42.3007V51.3705C50.6334 52.7954 49.4807 53.9546 48.0641 53.9546H4.93579C3.51907 53.9546 2.3665 52.7954 2.3665 51.3706V33.1892H50.6334V42.171C50.6334 42.1928 50.6341 42.2144 50.6356 42.2359C50.6341 42.2574 50.6334 42.279 50.6334 42.3007Z" fill="url(#paint0_linear_3531_666)"/>
<path d="M40.5465 37.9504C37.3552 37.9504 34.759 40.5541 34.759 43.7543C34.759 46.9546 37.3552 49.5581 40.5465 49.5581C43.7377 49.5581 46.3339 46.9546 46.3339 43.7543C46.3339 40.5541 43.7377 37.9504 40.5465 37.9504ZM40.5465 47.5129C38.4831 47.5129 36.8042 45.8268 36.8042 43.7543C36.8042 41.6817 38.4831 39.9956 40.5465 39.9956C42.61 39.9956 44.2887 41.6817 44.2887 43.7543C44.2887 45.8268 42.61 47.5129 40.5465 47.5129Z" fill="#020288"/>
<path d="M37.1959 5.22454C33.6038 5.22454 30.5055 3.08781 29.0641 0H24.8394C23.3978 3.08781 20.2997 5.22454 16.7076 5.22454C15.3699 5.22454 14.1008 4.92787 12.9597 4.39674V19.4932C12.9597 30.5349 26.9518 34.3031 26.9518 34.3031C26.9518 34.3031 40.9438 30.5351 40.9438 19.4932V4.39674C39.8027 4.92787 38.5336 5.22454 37.1959 5.22454Z" fill="url(#paint1_linear_3531_666)"/>
<path d="M26.6499 21.6649C26.2942 21.6649 25.9519 21.5141 25.6987 21.2438L23.2883 18.6724C22.7598 18.1087 22.7575 17.1921 23.2829 16.6252C23.8083 16.058 24.6628 16.0556 25.1911 16.6194L26.5629 18.0828L30.4395 13.1521C30.9201 12.541 31.7714 12.4634 32.3409 12.9789C32.9104 13.4944 32.9828 14.4076 32.5023 15.0188L27.6814 21.1506C27.4383 21.46 27.0857 21.6458 26.709 21.6635C26.6893 21.6645 26.6695 21.6649 26.6499 21.6649Z" fill="white"/>
<defs>
<linearGradient id="paint0_linear_3531_666" x1="52.6786" y1="47.8222" x2="-2.84182" y2="35.4894" gradientUnits="userSpaceOnUse">
<stop stop-color="#001DAC"/>
<stop offset="1" stop-color="#000F57"/>
</linearGradient>
<linearGradient id="paint1_linear_3531_666" x1="12.9597" y1="2.50998" x2="42.6974" y2="4.82616" gradientUnits="userSpaceOnUse">
<stop stop-color="#0082F8"/>
<stop offset="1" stop-color="#1C40F2"/>
</linearGradient>
</defs>
</svg>
