<svg width="72" height="72" viewBox="0 0 72 72" fill="none" xmlns="http://www.w3.org/2000/svg">
<path d="M40.3854 63.8836L0 46.6036V50.9891L36 72L40.3854 63.8836Z" fill="url(#paint0_linear_3534_1151)"/>
<path d="M72 50.9891V46.6036L36 60.6109V72L72 50.9891Z" fill="url(#paint1_linear_3534_1151)"/>
<path d="M0 46.6035L36 67.6144L72 46.6035L36 25.5927L0 46.6035Z" fill="url(#paint2_linear_3534_1151)"/>
<path opacity="0.3" d="M11.1274 49.3528L36.0002 63.8837L60.8729 49.3528L36.0002 34.8219L11.1274 49.3528Z" fill="url(#paint3_linear_3534_1151)"/>
<path d="M37.7674 43.1346L11.1274 29.52V41.04L36.0002 55.5709L37.7674 43.1346Z" fill="url(#paint4_linear_3534_1151)"/>
<path d="M60.8727 41.04V29.52L36 42.48V55.5709L60.8727 41.04Z" fill="url(#paint5_linear_3534_1151)"/>
<path d="M11.1274 29.52L36.0002 43.9855L60.8729 29.52L36.0002 14.9891L11.1274 29.52Z" fill="url(#paint6_linear_3534_1151)"/>
<path d="M35.9998 12.3054L24.8726 6.54541V13.8763L35.9998 20.3563V12.3054Z" fill="url(#paint7_linear_3534_1151)"/>
<path d="M47.1273 13.8763V6.54541L36 12.3054V20.3563L47.1273 13.8763Z" fill="url(#paint8_linear_3534_1151)"/>
<path d="M24.8726 6.54545L35.9998 13.0254L47.1271 6.54545L35.9998 0L24.8726 6.54545Z" fill="url(#paint9_linear_3534_1151)"/>
<path d="M22.2547 20.3564L11.1274 14.5964V21.9273L22.2547 28.4073V20.3564Z" fill="url(#paint10_linear_3534_1151)"/>
<path d="M33.3817 21.9273V14.5964L22.2544 20.3564V28.4073L33.3817 21.9273Z" fill="url(#paint11_linear_3534_1151)"/>
<path d="M11.1274 14.5963L22.2547 21.0763L33.382 14.5963L22.2547 8.11633L11.1274 14.5963Z" fill="url(#paint12_linear_3534_1151)"/>
<path d="M49.7454 20.291L38.6182 14.531V21.8619L49.7454 28.3419V20.291Z" fill="url(#paint13_linear_3534_1151)"/>
<path d="M60.8729 21.8619V14.531L49.7456 20.291V28.3419L60.8729 21.8619Z" fill="url(#paint14_linear_3534_1151)"/>
<path d="M38.6836 14.5309L49.8109 21.0109L60.9381 14.5309L49.8109 8.0509L38.6836 14.5309Z" fill="url(#paint15_linear_3534_1151)"/>
<path d="M36.6546 28.4072L25.5273 22.5818V29.9127L36.6546 36.4581V28.4072Z" fill="url(#paint16_linear_3534_1151)"/>
<path d="M47.7816 29.9127V22.5818L36.6543 28.4072V36.4581L47.7816 29.9127Z" fill="url(#paint17_linear_3534_1151)"/>
<path d="M25.5273 22.5818L36.6546 29.0618L47.7819 22.5818L36.6546 16.1018L25.5273 22.5818Z" fill="url(#paint18_linear_3534_1151)"/>
<path fill-rule="evenodd" clip-rule="evenodd" d="M62.3129 39.6C63.4256 37.1127 64.0147 34.4291 64.0802 31.68C64.0802 30.1091 66.1093 27.4909 65.062 26.9018C63.8184 26.1818 61.0038 24.6763 60.2184 24.4145C58.4511 23.76 56.0947 24.0218 53.6075 25.5272C47.9129 28.9309 43.2002 37.2436 43.2002 44.1163C43.2002 46.6036 43.8547 48.5672 44.902 49.8763L48.6984 51.9709L62.3129 39.6Z" fill="url(#paint19_linear_3534_1151)"/>
<path fill-rule="evenodd" clip-rule="evenodd" d="M66.1742 41.6945C67.287 39.2072 67.8761 36.5236 67.9415 33.7745C67.9415 26.9018 63.2942 24.1527 57.5342 27.5563C51.7742 30.96 47.0615 39.3382 47.0615 46.2109C47.0615 48.6981 47.7161 50.6618 48.7633 51.9709L66.1742 41.6945Z" fill="url(#paint20_linear_3534_1151)"/>
<path d="M64.8651 36.9817C64.8651 36.6545 64.9306 36.2618 64.9306 35.9345C64.9306 31.3527 61.7888 29.4545 57.927 31.7454C54.0652 34.0363 50.9233 39.6654 50.9233 44.2472C50.9233 44.509 50.9233 44.8363 50.9888 45.0981" stroke="white" stroke-width="2" stroke-linecap="round" stroke-linejoin="round"/>
<path d="M58.3202 40.0582L53.4766 42.611" stroke="white" stroke-width="1.25" stroke-linecap="round" stroke-linejoin="round"/>
<path fill-rule="evenodd" clip-rule="evenodd" d="M58.3198 38.6182C58.9743 38.2255 59.498 38.5527 59.498 39.3382C59.4325 40.1891 59.0398 40.9746 58.3198 41.4327C57.6652 41.8255 57.1416 41.4982 57.1416 40.7127C57.2071 39.8618 57.6652 39.0764 58.3198 38.6182Z" fill="white"/>
<defs>
<linearGradient id="paint0_linear_3534_1151" x1="40.3854" y1="66.6199" x2="-1.69853" y2="55.6598" gradientUnits="userSpaceOnUse">
<stop stop-color="#001DAC"/>
<stop offset="1" stop-color="#000F57"/>
</linearGradient>
<linearGradient id="paint1_linear_3534_1151" x1="72" y1="66.6199" x2="33.99" y2="57.7957" gradientUnits="userSpaceOnUse">
<stop stop-color="#001DAC"/>
<stop offset="1" stop-color="#000F57"/>
</linearGradient>
<linearGradient id="paint2_linear_3534_1151" x1="-5.02884e-07" y1="28.6674" x2="74.9696" y2="40.9314" gradientUnits="userSpaceOnUse">
<stop stop-color="#0082F8"/>
<stop offset="1" stop-color="#1C40F2"/>
</linearGradient>
<linearGradient id="paint3_linear_3534_1151" x1="51.3484" y1="60.4876" x2="21.2721" y2="38.724" gradientUnits="userSpaceOnUse">
<stop/>
<stop offset="1"/>
</linearGradient>
<linearGradient id="paint4_linear_3534_1151" x1="6.12024" y1="42.5258" x2="32.7405" y2="42.5258" gradientUnits="userSpaceOnUse">
<stop stop-color="#989AAD"/>
<stop offset="1" stop-color="#98A0B7"/>
</linearGradient>
<linearGradient id="paint5_linear_3534_1151" x1="67.3592" y1="42.5291" x2="67.7979" y2="42.5291" gradientUnits="userSpaceOnUse">
<stop stop-color="#E7E9E9"/>
<stop offset="1" stop-color="#98AACD"/>
</linearGradient>
<linearGradient id="paint6_linear_3534_1151" x1="51.35" y1="40.6069" x2="21.2737" y2="18.8498" gradientUnits="userSpaceOnUse">
<stop stop-color="#CDD3DB"/>
<stop offset="1" stop-color="#ACB0C2"/>
</linearGradient>
<linearGradient id="paint7_linear_3534_1151" x1="22.778" y1="13.441" x2="33.9053" y2="13.441" gradientUnits="userSpaceOnUse">
<stop stop-color="#989AAD"/>
<stop offset="1" stop-color="#98A0B7"/>
</linearGradient>
<linearGradient id="paint8_linear_3534_1151" x1="50.0334" y1="13.441" x2="50.2233" y2="13.441" gradientUnits="userSpaceOnUse">
<stop stop-color="#E7E9E9"/>
<stop offset="1" stop-color="#98AACD"/>
</linearGradient>
<linearGradient id="paint9_linear_3534_1151" x1="42.8654" y1="11.4881" x2="29.4211" y2="1.76158" gradientUnits="userSpaceOnUse">
<stop stop-color="#CDD3DB"/>
<stop offset="1" stop-color="#ACB0C2"/>
</linearGradient>
<linearGradient id="paint10_linear_3534_1151" x1="9.0329" y1="21.5052" x2="20.1602" y2="21.5052" gradientUnits="userSpaceOnUse">
<stop stop-color="#989AAD"/>
<stop offset="1" stop-color="#98A0B7"/>
</linearGradient>
<linearGradient id="paint11_linear_3534_1151" x1="36.2878" y1="21.5052" x2="36.4777" y2="21.5052" gradientUnits="userSpaceOnUse">
<stop stop-color="#E7E9E9"/>
<stop offset="1" stop-color="#98AACD"/>
</linearGradient>
<linearGradient id="paint12_linear_3534_1151" x1="29.1311" y1="19.5552" x2="15.6867" y2="9.82862" gradientUnits="userSpaceOnUse">
<stop stop-color="#CDD3DB"/>
<stop offset="1" stop-color="#ACB0C2"/>
</linearGradient>
<linearGradient id="paint13_linear_3534_1151" x1="36.5105" y1="21.4365" x2="47.6378" y2="21.4365" gradientUnits="userSpaceOnUse">
<stop stop-color="#989AAD"/>
<stop offset="1" stop-color="#98A0B7"/>
</linearGradient>
<linearGradient id="paint14_linear_3534_1151" x1="63.7791" y1="21.4365" x2="63.9689" y2="21.4365" gradientUnits="userSpaceOnUse">
<stop stop-color="#E7E9E9"/>
<stop offset="1" stop-color="#98AACD"/>
</linearGradient>
<linearGradient id="paint15_linear_3534_1151" x1="56.6391" y1="19.4839" x2="43.2013" y2="9.75737" gradientUnits="userSpaceOnUse">
<stop stop-color="#CDD3DB"/>
<stop offset="1" stop-color="#ACB0C2"/>
</linearGradient>
<linearGradient id="paint16_linear_3534_1151" x1="23.4328" y1="29.5232" x2="34.5601" y2="29.5232" gradientUnits="userSpaceOnUse">
<stop stop-color="#989AAD"/>
<stop offset="1" stop-color="#98A0B7"/>
</linearGradient>
<linearGradient id="paint17_linear_3534_1151" x1="50.6877" y1="29.5232" x2="50.8776" y2="29.5232" gradientUnits="userSpaceOnUse">
<stop stop-color="#E7E9E9"/>
<stop offset="1" stop-color="#98AACD"/>
</linearGradient>
<linearGradient id="paint18_linear_3534_1151" x1="43.5145" y1="27.5691" x2="30.0701" y2="17.8426" gradientUnits="userSpaceOnUse">
<stop stop-color="#CDD3DB"/>
<stop offset="1" stop-color="#ACB0C2"/>
</linearGradient>
<linearGradient id="paint19_linear_3534_1151" x1="43.2002" y1="26.1185" x2="66.7461" y2="27.9037" gradientUnits="userSpaceOnUse">
<stop stop-color="#18029D"/>
<stop offset="1" stop-color="#1C40F2"/>
</linearGradient>
<linearGradient id="paint20_linear_3534_1151" x1="47.0615" y1="27.9912" x2="69.2528" y2="29.701" gradientUnits="userSpaceOnUse">
<stop stop-color="#0082F8"/>
<stop offset="1" stop-color="#1C40F2"/>
</linearGradient>
</defs>
</svg>
