<svg width="67" height="64" viewBox="0 0 67 64" fill="none" xmlns="http://www.w3.org/2000/svg">
<path d="M36.7787 55.5935L0.100098 40.6819V44.685L33.1259 64.0001L36.7787 55.5935Z" fill="url(#paint0_linear_3531_280)"/>
<path d="M66.1518 44.5349V40.6819L33.126 58.9962V64.0001L66.1518 44.5349Z" fill="url(#paint1_linear_3531_280)"/>
<path d="M0 40.7318L33.1259 59.9468L66.1517 40.6818L33.0258 21.4668L0 40.7318Z" fill="url(#paint2_linear_3531_280)"/>
<path opacity="0.3" fill-rule="evenodd" clip-rule="evenodd" d="M37.0289 28.8726L12.3096 42.3831L30.6739 53.1916L54.9429 39.3808L37.0289 28.8726Z" fill="url(#paint3_linear_3531_280)"/>
<path fill-rule="evenodd" clip-rule="evenodd" d="M30.2734 35.8279L30.6237 46.5863L55.1929 32.5754L55.2429 23.5684L30.2734 35.8279Z" fill="url(#paint4_linear_3531_280)"/>
<path fill-rule="evenodd" clip-rule="evenodd" d="M12.1594 26.5208L12.1094 35.7279L30.6238 46.5364V36.3784L12.1594 26.5208Z" fill="url(#paint5_linear_3531_280)"/>
<path fill-rule="evenodd" clip-rule="evenodd" d="M37.0291 13.0603L12.1597 26.5208L30.6241 37.5294L54.9431 23.6185L37.0291 13.0603Z" fill="url(#paint6_linear_3531_280)"/>
<path fill-rule="evenodd" clip-rule="evenodd" d="M30.624 24.2691V33.3261L54.6428 19.5654V10.5583L30.624 24.2691Z" fill="url(#paint7_linear_3531_280)"/>
<path fill-rule="evenodd" clip-rule="evenodd" d="M12.1094 13.4604V22.5676L30.6238 33.376V24.3189L12.1094 13.4604Z" fill="url(#paint8_linear_3531_280)"/>
<path fill-rule="evenodd" clip-rule="evenodd" d="M37.0288 0L12.1094 13.4605L30.6238 24.369L54.6426 10.5582L37.0288 0Z" fill="url(#paint9_linear_3531_280)"/>
<path fill-rule="evenodd" clip-rule="evenodd" d="M36.5284 3.90308L20.8662 12.81L32.4252 19.6153L48.0875 10.7084L36.5284 3.90308Z" fill="url(#paint10_linear_3531_280)"/>
<path fill-rule="evenodd" clip-rule="evenodd" d="M17.1635 12.4596C17.6639 12.2094 18.2144 12.2094 18.7148 12.4596C18.965 12.5597 19.065 12.8599 18.965 13.1101C18.9149 13.2102 18.8148 13.3103 18.7148 13.3603C18.2144 13.6105 17.6639 13.6105 17.1635 13.3603C16.9134 13.2602 16.8133 12.96 16.9134 12.7098C16.9634 12.5597 17.0635 12.5097 17.1635 12.4596Z" fill="url(#paint11_linear_3531_280)"/>
<path fill-rule="evenodd" clip-rule="evenodd" d="M36.0283 1.75137C36.5287 1.50117 37.0791 1.50117 37.5795 1.75137C37.8297 1.85145 37.9298 2.15168 37.8297 2.40188C37.7797 2.50195 37.6796 2.60203 37.5795 2.65207C37.0791 2.90227 36.5287 2.90227 36.0283 2.65207C35.7781 2.55199 35.678 2.25176 35.7781 2.00156C35.8782 1.90148 35.9282 1.80141 36.0283 1.75137Z" fill="url(#paint12_linear_3531_280)"/>
<path fill-rule="evenodd" clip-rule="evenodd" d="M50.4897 10.1579C50.9901 9.90767 51.5405 9.90767 52.0409 10.1579C52.2911 10.2579 52.3912 10.5582 52.2911 10.8084C52.2411 10.9084 52.141 11.0085 52.0409 11.0586C51.5405 11.3088 50.9901 11.3088 50.4897 11.0586C50.2395 10.9585 50.1394 10.6583 50.2395 10.4081C50.2896 10.308 50.3396 10.2079 50.4897 10.1579Z" fill="url(#paint13_linear_3531_280)"/>
<path fill-rule="evenodd" clip-rule="evenodd" d="M31.2246 20.8664C31.725 20.6162 32.2754 20.6162 32.7758 20.8664C33.026 20.9664 33.1261 21.2667 33.026 21.5169C32.976 21.6169 32.8759 21.717 32.7758 21.7671C32.2754 22.0173 31.725 22.0173 31.2246 21.7671C30.9744 21.667 30.8743 21.3667 30.9744 21.1166C31.0244 21.0165 31.1245 20.9164 31.2246 20.8664Z" fill="url(#paint14_linear_3531_280)"/>
<path fill-rule="evenodd" clip-rule="evenodd" d="M26.5707 19.7153L24.6191 20.8162L26.0703 21.6669L28.0218 20.516L26.5707 19.7153Z" fill="url(#paint15_linear_3531_280)"/>
<path d="M24.6191 22.5678V20.8164L26.0703 21.6671V23.3684L24.6191 22.5678Z" fill="url(#paint16_linear_3531_280)"/>
<path fill-rule="evenodd" clip-rule="evenodd" d="M24.2191 18.3145L22.2676 19.4153L23.7187 20.266L25.6702 19.1151L24.2191 18.3145Z" fill="url(#paint17_linear_3531_280)"/>
<path d="M22.2178 21.1664V19.4651L23.6689 20.3158V22.0171L22.2178 21.1664Z" fill="url(#paint18_linear_3531_280)"/>
<path fill-rule="evenodd" clip-rule="evenodd" d="M21.8172 16.9133L19.8657 18.0142L21.3169 18.8649L23.2684 17.714L21.8172 16.9133Z" fill="url(#paint19_linear_3531_280)"/>
<path d="M19.8657 19.7655V18.0142L21.3169 18.8648V20.5662L19.8657 19.7655Z" fill="url(#paint20_linear_3531_280)"/>
<path fill-rule="evenodd" clip-rule="evenodd" d="M19.5155 15.5623L17.564 16.6631L19.0151 17.5138L20.9666 16.3629L19.5155 15.5623Z" fill="url(#paint21_linear_3531_280)"/>
<path d="M17.564 18.4142V16.7129L19.0151 17.5636V19.2649L17.564 18.4142Z" fill="url(#paint22_linear_3531_280)"/>
<path fill-rule="evenodd" clip-rule="evenodd" d="M55.5933 35.9281C56.594 33.6263 57.1445 31.1744 57.1945 28.6724C57.1945 27.2213 59.096 24.8194 58.1453 24.269C56.9944 23.6185 54.3923 22.2174 53.6918 21.9672C52.0405 21.3167 49.9389 21.6169 47.6371 23.018C42.3329 26.1705 38.0796 33.8265 38.0796 40.1314C38.0796 42.4332 38.63 44.2346 39.6308 45.4355L43.1335 47.337L55.5933 35.9281Z" fill="url(#paint23_linear_3531_280)"/>
<path fill-rule="evenodd" clip-rule="evenodd" d="M59.1462 37.8795C60.147 35.5777 60.6974 33.1258 60.7475 30.5738C60.7475 24.2689 56.4441 21.7169 51.14 24.8693C45.8358 28.0218 41.5825 35.6778 41.5825 41.9827C41.5825 44.2845 42.1329 46.0859 43.1337 47.2868L59.1462 37.8795Z" fill="url(#paint24_linear_3531_280)"/>
<path d="M57.9453 33.5262C57.9953 33.1759 57.9953 32.8757 57.9953 32.5254C57.9953 28.2721 55.093 26.5708 51.5403 28.6724C47.9875 30.774 45.1353 35.9781 45.1353 40.2314C45.1353 40.4816 45.1353 40.7318 45.1853 40.982" stroke="url(#paint25_linear_3531_280)" stroke-width="1.5" stroke-linecap="round" stroke-linejoin="round"/>
<path d="M51.9409 36.3284L53.8924 31.3745" stroke="url(#paint26_linear_3531_280)" stroke-width="1.51" stroke-linecap="round" stroke-linejoin="round"/>
<path fill-rule="evenodd" clip-rule="evenodd" d="M51.9405 35.0774C52.5409 34.7272 52.9913 35.0274 52.9913 35.7279C52.9412 36.4785 52.5409 37.2291 51.9405 37.6294C51.34 37.9797 50.8896 37.6795 50.8896 36.9789C50.9397 36.1783 51.34 35.4777 51.9405 35.0774Z" fill="url(#paint27_linear_3531_280)"/>
<defs>
<linearGradient id="paint0_linear_3531_280" x1="36.7787" y1="59.0602" x2="-1.49497" y2="49.2005" gradientUnits="userSpaceOnUse">
<stop stop-color="#001DAC"/>
<stop offset="1" stop-color="#000F57"/>
</linearGradient>
<linearGradient id="paint1_linear_3531_280" x1="66.1518" y1="59.0602" x2="31.279" y2="50.9713" gradientUnits="userSpaceOnUse">
<stop stop-color="#001DAC"/>
<stop offset="1" stop-color="#000F57"/>
</linearGradient>
<linearGradient id="paint2_linear_3531_280" x1="-4.62037e-07" y1="24.2824" x2="68.8681" y2="35.5858" gradientUnits="userSpaceOnUse">
<stop stop-color="#0082F8"/>
<stop offset="1" stop-color="#1C40F2"/>
</linearGradient>
<linearGradient id="paint3_linear_3531_280" x1="48.5576" y1="32.7081" x2="5.13254" y2="56.9056" gradientUnits="userSpaceOnUse">
<stop/>
<stop offset="1"/>
</linearGradient>
<linearGradient id="paint4_linear_3531_280" x1="47.7487" y1="29.9239" x2="14.5387" y2="58.0219" gradientUnits="userSpaceOnUse">
<stop stop-color="#E7E9E9"/>
<stop offset="0.47" stop-color="#E5E8E8"/>
<stop offset="0.64" stop-color="#DEE2E6"/>
<stop offset="0.76" stop-color="#D3D9E2"/>
<stop offset="0.86" stop-color="#C2CBDC"/>
<stop offset="0.94" stop-color="#ACBAD4"/>
<stop offset="1" stop-color="#98AACD"/>
</linearGradient>
<linearGradient id="paint5_linear_3531_280" x1="11.9184" y1="27.2142" x2="41.0891" y2="54.4995" gradientUnits="userSpaceOnUse">
<stop stop-color="#989AAD"/>
<stop offset="1" stop-color="#98A0B7"/>
</linearGradient>
<linearGradient id="paint6_linear_3531_280" x1="48.5905" y1="16.8682" x2="5.02715" y2="41.1479" gradientUnits="userSpaceOnUse">
<stop stop-color="#CDD3DB"/>
<stop offset="1" stop-color="#ACB0C2"/>
</linearGradient>
<linearGradient id="paint7_linear_3531_280" x1="47.8753" y1="17.4894" x2="15.2458" y2="45.0978" gradientUnits="userSpaceOnUse">
<stop stop-color="#E7E9E9"/>
<stop offset="0.47" stop-color="#E5E8E8"/>
<stop offset="0.64" stop-color="#DEE2E6"/>
<stop offset="0.76" stop-color="#D3D9E2"/>
<stop offset="0.86" stop-color="#C2CBDC"/>
<stop offset="0.94" stop-color="#ACBAD4"/>
<stop offset="1" stop-color="#98AACD"/>
</linearGradient>
<linearGradient id="paint8_linear_3531_280" x1="11.6903" y1="14.3814" x2="40.8337" y2="41.6366" gradientUnits="userSpaceOnUse">
<stop stop-color="#989AAD"/>
<stop offset="1" stop-color="#98A0B7"/>
</linearGradient>
<linearGradient id="paint9_linear_3531_280" x1="48.3255" y1="3.89247" x2="5.07247" y2="27.9932" gradientUnits="userSpaceOnUse">
<stop stop-color="#CDD3DB"/>
<stop offset="1" stop-color="#ACB0C2"/>
</linearGradient>
<linearGradient id="paint10_linear_3531_280" x1="47.5051" y1="3.87418" x2="74.7791" y2="-12.6329" gradientUnits="userSpaceOnUse">
<stop stop-color="#CDD3DB"/>
<stop offset="0.32" stop-color="#C2C7D2"/>
<stop offset="1" stop-color="#ACB0C2"/>
</linearGradient>
<linearGradient id="paint11_linear_3531_280" x1="16.875" y1="12.3653" x2="19.0941" y2="12.7187" gradientUnits="userSpaceOnUse">
<stop stop-color="#0082F8"/>
<stop offset="1" stop-color="#1C40F2"/>
</linearGradient>
<linearGradient id="paint12_linear_3531_280" x1="35.7397" y1="1.65709" x2="37.9589" y2="2.01047" gradientUnits="userSpaceOnUse">
<stop stop-color="#0082F8"/>
<stop offset="1" stop-color="#1C40F2"/>
</linearGradient>
<linearGradient id="paint13_linear_3531_280" x1="50.2012" y1="10.0636" x2="52.4203" y2="10.417" gradientUnits="userSpaceOnUse">
<stop stop-color="#0082F8"/>
<stop offset="1" stop-color="#1C40F2"/>
</linearGradient>
<linearGradient id="paint14_linear_3531_280" x1="30.936" y1="20.7721" x2="33.1551" y2="21.1255" gradientUnits="userSpaceOnUse">
<stop stop-color="#0082F8"/>
<stop offset="1" stop-color="#1C40F2"/>
</linearGradient>
<linearGradient id="paint15_linear_3531_280" x1="24.6191" y1="19.8581" x2="28.1589" y2="20.4474" gradientUnits="userSpaceOnUse">
<stop stop-color="#0082F8"/>
<stop offset="1" stop-color="#1C40F2"/>
</linearGradient>
<linearGradient id="paint16_linear_3531_280" x1="26.0703" y1="22.8278" x2="24.4694" y2="22.6787" gradientUnits="userSpaceOnUse">
<stop stop-color="#001DAC"/>
<stop offset="1" stop-color="#000F57"/>
</linearGradient>
<linearGradient id="paint17_linear_3531_280" x1="22.2676" y1="18.4572" x2="25.8073" y2="19.0465" gradientUnits="userSpaceOnUse">
<stop stop-color="#0082F8"/>
<stop offset="1" stop-color="#1C40F2"/>
</linearGradient>
<linearGradient id="paint18_linear_3531_280" x1="23.6689" y1="21.4764" x2="22.0681" y2="21.3274" gradientUnits="userSpaceOnUse">
<stop stop-color="#001DAC"/>
<stop offset="1" stop-color="#000F57"/>
</linearGradient>
<linearGradient id="paint19_linear_3531_280" x1="19.8657" y1="17.0561" x2="23.4054" y2="17.6454" gradientUnits="userSpaceOnUse">
<stop stop-color="#0082F8"/>
<stop offset="1" stop-color="#1C40F2"/>
</linearGradient>
<linearGradient id="paint20_linear_3531_280" x1="21.3169" y1="20.0255" x2="19.716" y2="19.8764" gradientUnits="userSpaceOnUse">
<stop stop-color="#001DAC"/>
<stop offset="1" stop-color="#000F57"/>
</linearGradient>
<linearGradient id="paint21_linear_3531_280" x1="17.564" y1="15.7051" x2="21.1037" y2="16.2943" gradientUnits="userSpaceOnUse">
<stop stop-color="#0082F8"/>
<stop offset="1" stop-color="#1C40F2"/>
</linearGradient>
<linearGradient id="paint22_linear_3531_280" x1="19.0151" y1="18.7243" x2="17.4143" y2="18.5752" gradientUnits="userSpaceOnUse">
<stop stop-color="#001DAC"/>
<stop offset="1" stop-color="#000F57"/>
</linearGradient>
<linearGradient id="paint23_linear_3531_280" x1="58.9748" y1="26.1487" x2="36.7874" y2="40.7851" gradientUnits="userSpaceOnUse">
<stop offset="0.22" stop-color="#CDD3DB"/>
<stop offset="0.97" stop-color="#ACB0C2"/>
</linearGradient>
<linearGradient id="paint24_linear_3531_280" x1="42.5735" y1="37.5198" x2="79.3672" y2="24.8649" gradientUnits="userSpaceOnUse">
<stop offset="0.64" stop-color="#E7E9E9"/>
<stop offset="0.8" stop-color="#B1B4C3"/>
<stop offset="0.93" stop-color="#8F92AA"/>
<stop offset="0.99" stop-color="#8285A1"/>
</linearGradient>
<linearGradient id="paint25_linear_3531_280" x1="57.9953" y1="38.1837" x2="44.0402" y2="35.9586" gradientUnits="userSpaceOnUse">
<stop stop-color="#001DAC"/>
<stop offset="1" stop-color="#000F57"/>
</linearGradient>
<linearGradient id="paint26_linear_3531_280" x1="53.8924" y1="35.2789" x2="51.7299" y2="35.1394" gradientUnits="userSpaceOnUse">
<stop stop-color="#001DAC"/>
<stop offset="1" stop-color="#000F57"/>
</linearGradient>
<linearGradient id="paint27_linear_3531_280" x1="50.8896" y1="35.1389" x2="53.1254" y2="35.2965" gradientUnits="userSpaceOnUse">
<stop stop-color="#0082F8"/>
<stop offset="1" stop-color="#1C40F2"/>
</linearGradient>
</defs>
</svg>
