<svg width="106" height="20" viewBox="0 0 106 20" fill="none" xmlns="http://www.w3.org/2000/svg">
<path d="M19.8752 0H0V19.9837H19.8752V0Z" fill="#FF8622"/>
<path d="M41.4064 0H21.5312V19.9837H41.4064V0Z" fill="#FF8622"/>
<path d="M62.9377 0H43.0625V19.9837H62.9377V0Z" fill="#FF8622"/>
<path d="M84.4689 0H64.5938V19.9837H84.4689V0Z" fill="#DCDCE6"/>
<path d="M106 0H86.125V19.9837H106V0Z" fill="#DCDCE6"/>
<path d="M9.93678 13.469L12.9595 12.6988L14.2224 16.6123L9.93678 13.469ZM16.8931 8.41062H11.5723L9.93678 3.37305L8.30122 8.41062H2.98047L7.28676 11.5331L5.6512 16.5706L9.95748 13.4482L12.6075 11.5331L16.8931 8.41062Z" fill="white"/>
<path d="M31.468 13.469L34.4907 12.6988L35.7536 16.6123L31.468 13.469ZM38.4243 8.41062H33.1036L31.468 3.37305L29.8325 8.41062H24.5117L28.818 11.5331L27.1824 16.5706L31.4887 13.4482L34.1388 11.5331L38.4243 8.41062Z" fill="white"/>
<path d="M53.0012 13.469L56.0239 12.6988L57.2868 16.6123L53.0012 13.469ZM59.9575 8.41062H54.6368L53.0012 3.37305L51.3657 8.41062H46.0449L50.3512 11.5331L48.7156 16.5706L53.0219 13.4482L55.672 11.5331L59.9575 8.41062Z" fill="white"/>
<path d="M74.5325 13.469L77.5552 12.6988L78.8181 16.6123L74.5325 13.469ZM81.4888 8.41062H76.168L74.5325 3.37305L72.8969 8.41062H67.5762L71.8825 11.5331L70.2469 16.5706L74.5532 13.4482L77.2032 11.5331L81.4888 8.41062Z" fill="white"/>
<path d="M96.0618 13.469L99.0845 12.6988L100.347 16.6123L96.0618 13.469ZM103.018 8.41062H97.6973L96.0618 3.37305L94.4262 8.41062H89.1055L93.4118 11.5331L91.7762 16.5706L96.0825 13.4482L98.7325 11.5331L103.018 8.41062Z" fill="white"/>
<path d="M19.8752 0H0V19.9837H19.8752V0Z" fill="#FF8622"/>
<path d="M41.4064 0H21.5312V19.9837H41.4064V0Z" fill="#FF8622"/>
<path d="M62.9377 0H43.0625V19.9837H62.9377V0Z" fill="#FF8622"/>
<path d="M84.4689 0H64.5938V19.9837H84.4689V0Z" fill="#FF8622"/>
<path d="M106 0H86.125V19.9837H106V0Z" fill="#DCDCE6"/>
<path d="M9.93678 13.469L12.9595 12.6988L14.2224 16.6123L9.93678 13.469ZM16.8931 8.41062H11.5723L9.93678 3.37305L8.30122 8.41062H2.98047L7.28676 11.5331L5.6512 16.5706L9.95748 13.4482L12.6075 11.5331L16.8931 8.41062Z" fill="white"/>
<path d="M31.468 13.469L34.4907 12.6988L35.7536 16.6123L31.468 13.469ZM38.4243 8.41062H33.1036L31.468 3.37305L29.8325 8.41062H24.5117L28.818 11.5331L27.1824 16.5706L31.4887 13.4482L34.1388 11.5331L38.4243 8.41062Z" fill="white"/>
<path d="M53.0012 13.469L56.0239 12.6988L57.2868 16.6123L53.0012 13.469ZM59.9575 8.41062H54.6368L53.0012 3.37305L51.3657 8.41062H46.0449L50.3512 11.5331L48.7156 16.5706L53.0219 13.4482L55.672 11.5331L59.9575 8.41062Z" fill="white"/>
<path d="M74.5325 13.469L77.5552 12.6988L78.8181 16.6123L74.5325 13.469ZM81.4888 8.41062H76.168L74.5325 3.37305L72.8969 8.41062H67.5762L71.8825 11.5331L70.2469 16.5706L74.5532 13.4482L77.2032 11.5331L81.4888 8.41062Z" fill="white"/>
<path d="M96.0618 13.469L99.0845 12.6988L100.347 16.6123L96.0618 13.469ZM103.018 8.41062H97.6973L96.0618 3.37305L94.4262 8.41062H89.1055L93.4118 11.5331L91.7762 16.5706L96.0825 13.4482L98.7325 11.5331L103.018 8.41062Z" fill="white"/>
</svg>
