<svg width="106" height="21" viewBox="0 0 106 21" fill="none" xmlns="http://www.w3.org/2000/svg">
<g clip-path="url(#clip0_3939_3352)">
<path d="M19.875 0.589844H0V20.4648H19.875V0.589844Z" fill="#FF3722"/>
<path d="M41.4062 0.589844H21.5312V20.4648H41.4062V0.589844Z" fill="#DCDCE6"/>
<path d="M62.9375 0.589844H43.0625V20.4648H62.9375V0.589844Z" fill="#DCDCE6"/>
<path d="M84.4688 0.589844H64.5938V20.4648H84.4688V0.589844Z" fill="#DCDCE6"/>
<path d="M106 0.589844H86.125V20.4648H106V0.589844Z" fill="#DCDCE6"/>
<path d="M9.93745 13.9847L12.9601 13.2187L14.223 17.1109L9.93745 13.9847ZM16.8937 8.95388H11.573L9.93745 3.94373L8.3019 8.95388H2.9812L7.28745 12.0594L5.6519 17.0695L9.95815 13.964L12.6082 12.0594L16.8937 8.95388Z" fill="white"/>
<path d="M31.4687 13.9847L34.4914 13.2187L35.7542 17.1109L31.4687 13.9847ZM38.425 8.95388H33.1042L31.4687 3.94373L29.8332 8.95388H24.5125L28.8187 12.0594L27.1832 17.0695L31.4894 13.964L34.1394 12.0594L38.425 8.95388Z" fill="white"/>
<path d="M53 13.9847L56.0226 13.2187L57.2855 17.1109L53 13.9847ZM59.9562 8.95388H54.6355L53 3.94373L51.3644 8.95388H46.0437L50.35 12.0594L48.7144 17.0695L53.0207 13.964L55.6707 12.0594L59.9562 8.95388Z" fill="white"/>
<path d="M74.5312 13.9847L77.5539 13.2187L78.8168 17.1109L74.5312 13.9847ZM81.4875 8.95388H76.1667L74.5312 3.94373L72.8957 8.95388H67.575L71.8812 12.0594L70.2457 17.0695L74.5519 13.964L77.2019 12.0594L81.4875 8.95388Z" fill="white"/>
<path d="M96.0625 13.9847L99.0851 13.2187L100.348 17.1109L96.0625 13.9847ZM103.019 8.95388H97.698L96.0625 3.94373L94.4269 8.95388H89.1062L93.4125 12.0594L91.7769 17.0695L96.0832 13.964L98.7332 12.0594L103.019 8.95388Z" fill="white"/>
</g>
<defs>
<clipPath id="clip0_3939_3352">
<rect width="106" height="19.875" fill="white" transform="translate(0 0.589844)"/>
</clipPath>
</defs>
</svg>
