<svg width="106" height="21" viewBox="0 0 106 21" fill="none" xmlns="http://www.w3.org/2000/svg">
<g clip-path="url(#clip0_3939_3339)">
<path d="M19.875 0.535156H0V20.4102H19.875V0.535156Z" fill="#FF8622"/>
<path d="M41.4062 0.535156H21.5312V20.4102H41.4062V0.535156Z" fill="#FF8622"/>
<path d="M62.9375 0.535156H43.0625V20.4102H62.9375V0.535156Z" fill="#DCDCE6"/>
<path d="M84.4688 0.535156H64.5938V20.4102H84.4688V0.535156Z" fill="#DCDCE6"/>
<path d="M106 0.535156H86.125V20.4102H106V0.535156Z" fill="#DCDCE6"/>
<path d="M9.93745 13.9301L12.9601 13.164L14.223 17.0562L9.93745 13.9301ZM16.8937 8.89919H11.573L9.93745 3.88904L8.3019 8.89919H2.9812L7.28745 12.0047L5.6519 17.0148L9.95815 13.9094L12.6082 12.0047L16.8937 8.89919Z" fill="white"/>
<path d="M31.4687 13.9301L34.4914 13.164L35.7542 17.0562L31.4687 13.9301ZM38.425 8.89919H33.1042L31.4687 3.88904L29.8332 8.89919H24.5125L28.8187 12.0047L27.1832 17.0148L31.4894 13.9094L34.1394 12.0047L38.425 8.89919Z" fill="white"/>
<path d="M53 13.9301L56.0226 13.164L57.2855 17.0562L53 13.9301ZM59.9562 8.89919H54.6355L53 3.88904L51.3644 8.89919H46.0437L50.35 12.0047L48.7144 17.0148L53.0207 13.9094L55.6707 12.0047L59.9562 8.89919Z" fill="white"/>
<path d="M74.5312 13.9301L77.5539 13.164L78.8168 17.0562L74.5312 13.9301ZM81.4875 8.89919H76.1667L74.5312 3.88904L72.8957 8.89919H67.575L71.8812 12.0047L70.2457 17.0148L74.5519 13.9094L77.2019 12.0047L81.4875 8.89919Z" fill="white"/>
<path d="M96.0625 13.9301L99.0851 13.164L100.348 17.0562L96.0625 13.9301ZM103.019 8.89919H97.698L96.0625 3.88904L94.4269 8.89919H89.1062L93.4125 12.0047L91.7769 17.0148L96.0832 13.9094L98.7332 12.0047L103.019 8.89919Z" fill="white"/>
</g>
<defs>
<clipPath id="clip0_3939_3339">
<rect width="106" height="19.875" fill="white" transform="translate(0 0.535156)"/>
</clipPath>
</defs>
</svg>
