<svg width="439" height="328" viewBox="0 0 439 328" fill="none" xmlns="http://www.w3.org/2000/svg">
<path d="M119.613 277.82C119.613 277.82 108.026 285.485 94.2108 292.615C83.8716 297.963 80.3064 297.696 71.9282 292.615C55.7064 282.722 26.4716 266.233 22.5499 263.737C18.6282 261.241 15.9542 258.478 20.2325 255.359C24.7782 252.061 35.3847 246.446 35.3847 246.446" stroke="url(#paint0_linear_3540_2249)" stroke-width="0.891304" stroke-dasharray="139.04 139.04"/>
<path d="M119.613 282.098V277.641H114.265" stroke="url(#paint1_linear_3540_2249)" stroke-width="0.891304" stroke-dasharray="14.26 14.26"/>
<path d="M211.417 252.952C203.128 247.961 191.452 241.187 191.452 241.187C189.313 239.939 185.658 240.117 183.252 241.544L129.417 272.472" stroke="url(#paint2_linear_3540_2249)" stroke-width="0.891304" stroke-dasharray="93.59 93.59"/>
<path d="M211.774 249.03V253.487H206.426" stroke="url(#paint3_linear_3540_2249)" stroke-width="0.891304" stroke-dasharray="14.26 14.26"/>
<path d="M251.525 29.1456C251.525 29.1456 243.325 24.0651 232.808 17.5586C227.282 14.1717 224.341 12.6565 220.33 14.8847C209.456 20.8565 187.352 33.6021 187.352 33.6021" stroke="url(#paint4_linear_3540_2249)" stroke-width="0.891304" stroke-dasharray="73.09 73.09"/>
<path d="M193.236 34.0478H186.997V29.5913" stroke="url(#paint5_linear_3540_2249)" stroke-width="0.891304" stroke-dasharray="14.26 14.26"/>
<path fill-rule="evenodd" clip-rule="evenodd" d="M236.641 143.233C233.968 141.539 230.402 139.667 230.402 139.667V116.493C230.402 100.093 248.763 78.7022 263.291 70.5022L268.105 67.8283C276.126 63.3717 283.613 65.7783 290.744 68.0956C296.002 69.7891 296.27 71.4826 296.27 71.4826C296.27 71.4826 247.694 128.526 236.641 143.233Z" fill="#BEC6D8" stroke="#BEC6D8" stroke-width="0.891304"/>
<path fill-rule="evenodd" clip-rule="evenodd" d="M272.472 72.1065L267.659 74.7805C253.042 82.8913 236.642 105.352 236.642 121.663V143.233L303.489 105.798V84.2283C303.4 67.9174 287.089 63.9065 272.472 72.1065Z" fill="#E2E7F1" stroke="#BEC6D8" stroke-width="0.891304" stroke-linejoin="round"/>
<path fill-rule="evenodd" clip-rule="evenodd" d="M282.365 70.6805L273.274 107.67L261.152 81.6436L282.365 70.6805Z" fill="white" stroke="#BEC6D8" stroke-width="0.891304"/>
<path fill-rule="evenodd" clip-rule="evenodd" d="M267.034 33.8696C256.517 39.8414 247.96 54.2805 247.96 66.1349C247.96 71.1262 249.476 74.8696 251.971 77.0979C254.021 78.9696 256.606 80.3066 259.28 80.8414C264.717 79.4153 288.604 51.6066 289.406 39.6631C289.673 36.0979 284.504 34.4936 281.117 32.5327C277.641 30.4827 272.382 30.8392 267.034 33.8696Z" fill="#BEC6D8"/>
<path fill-rule="evenodd" clip-rule="evenodd" d="M272.294 36.8109C261.687 42.7826 253.131 57.2218 253.131 69.0761C253.131 80.9304 261.687 85.8326 272.205 79.8609C282.722 73.8891 291.279 59.45 291.279 47.5957C291.279 35.7413 282.811 30.8391 272.294 36.8109Z" fill="white" stroke="#BEC6D8" stroke-width="0.891304"/>
<path fill-rule="evenodd" clip-rule="evenodd" d="M308.036 157.494C305.362 155.8 302.599 153.928 302.599 153.928V130.755C302.599 114.355 320.959 92.9633 335.488 84.7633L340.301 82.0894C348.323 77.5437 355.81 80.0394 362.94 82.3567C368.199 84.0502 368.555 85.7437 368.555 85.7437C368.555 85.7437 319.088 142.787 308.036 157.494Z" fill="#BEC6D8" stroke="#BEC6D8" stroke-width="0.891304"/>
<path fill-rule="evenodd" clip-rule="evenodd" d="M344.668 86.8131L339.855 89.4871C325.237 97.5979 308.837 120.059 308.837 136.37V157.939L375.685 120.504V98.9349C375.596 82.624 359.285 78.7023 344.668 86.8131Z" fill="#E2E7F1" stroke="#BEC6D8" stroke-width="0.891304" stroke-linecap="round" stroke-linejoin="round"/>
<path fill-rule="evenodd" clip-rule="evenodd" d="M354.651 85.4762L345.56 122.465L333.349 96.4392L354.651 85.4762Z" fill="white" stroke="#BEC6D8" stroke-width="0.891304"/>
<path fill-rule="evenodd" clip-rule="evenodd" d="M339.231 48.1306C328.535 54.1023 319.979 68.6306 319.979 80.6632C319.979 85.6545 321.494 89.3979 323.989 91.6262C326.039 93.4979 328.624 94.8349 331.387 95.3697C336.824 93.9436 361.513 67.2045 362.226 55.261C362.494 51.6958 356.255 48.8436 352.868 46.8827C349.481 44.9219 344.579 45.1001 339.231 48.1306Z" fill="#BEC6D8" stroke="#BEC6D8" stroke-width="0.891304"/>
<path fill-rule="evenodd" clip-rule="evenodd" d="M344.847 51.7848C334.24 57.7565 325.684 72.2848 325.684 84.2283C325.684 96.1717 334.24 100.985 344.847 95.013C355.453 89.0413 364.01 74.513 364.01 62.5696C364.01 50.6261 355.453 45.813 344.847 51.7848Z" fill="white" stroke="#BEC6D8" stroke-width="0.891304"/>
<path fill-rule="evenodd" clip-rule="evenodd" d="M229.689 200.276C227.015 198.583 224.252 196.711 224.252 196.711V173.537C224.252 157.137 242.613 135.746 257.142 127.546L261.955 124.872C269.976 120.326 277.463 122.822 284.594 125.139C289.852 126.833 290.12 128.526 290.12 128.526C290.12 128.526 240.742 185.57 229.689 200.276Z" fill="#BEC6D8" stroke="#BEC6D8" stroke-width="0.891304"/>
<path fill-rule="evenodd" clip-rule="evenodd" d="M266.233 128.704L261.42 131.378C246.802 139.489 230.402 161.95 230.402 178.261V199.92L297.25 162.485V140.826C297.161 124.515 280.85 120.504 266.233 128.704Z" fill="#E2E7F1" stroke="#BEC6D8" stroke-width="0.891304"/>
<path fill-rule="evenodd" clip-rule="evenodd" d="M276.305 128.437L267.214 165.426L254.914 139.4L276.305 128.437Z" fill="white" stroke="#BEC6D8" stroke-width="0.891304"/>
<path fill-rule="evenodd" clip-rule="evenodd" d="M260.796 91.0915C250.19 97.0632 241.544 111.591 241.544 123.535C241.544 128.526 243.059 132.27 245.555 134.498C247.605 136.37 250.19 137.707 252.953 138.241C258.39 136.815 282.633 109.809 283.346 97.8654C283.614 94.3002 277.909 91.8045 274.433 89.7545C271.046 87.8828 266.144 88.061 260.796 91.0915Z" fill="#BEC6D8" stroke="#BEC6D8" stroke-width="0.891304"/>
<path fill-rule="evenodd" clip-rule="evenodd" d="M266.5 94.7457C255.894 100.717 247.337 115.246 247.337 127.189C247.337 139.133 255.894 143.946 266.5 137.974C277.107 132.002 285.663 117.474 285.663 105.53C285.663 93.587 277.018 88.774 266.5 94.7457Z" fill="white" stroke="#BEC6D8" stroke-width="0.891304"/>
<path fill-rule="evenodd" clip-rule="evenodd" d="M200.187 170.685L142.252 173.804L116.494 161.772C113.107 159.811 107.937 159.633 104.996 161.326L71.8393 177.548L1.42627 181.291V213.913C1.42627 215.25 2.31757 216.676 4.27844 217.746L85.0306 264.361C88.4176 266.322 93.5871 266.589 96.5284 264.807L198.226 206.159C199.563 205.357 200.187 204.376 200.187 203.307V170.685Z" fill="#E2E7F1" stroke="#BEC6D8" stroke-width="0.891304"/>
<path fill-rule="evenodd" clip-rule="evenodd" d="M104.996 120.148L3.29803 178.706C0.356723 180.4 0.713245 183.43 4.1002 185.391L84.9415 231.917C88.3285 233.878 93.498 234.146 96.4393 232.363L198.226 173.804C201.168 172.111 200.811 169.169 197.424 167.119L116.583 120.593C113.107 118.722 107.937 118.543 104.996 120.148Z" fill="#BEC6D8" stroke="#BEC6D8" stroke-width="0.891304"/>
<path fill-rule="evenodd" clip-rule="evenodd" d="M103.213 240.919C102.055 241.722 101.342 242.969 101.252 244.306C101.252 245.554 102.144 246.089 103.213 245.465C104.372 244.663 105.085 243.415 105.174 242.078C105.174 240.83 104.283 240.295 103.213 240.919Z" fill="#144FC4"/>
<path fill-rule="evenodd" clip-rule="evenodd" d="M110.344 237.354C109.185 238.156 108.472 239.404 108.383 240.741C108.383 241.989 109.274 242.524 110.344 241.9C111.502 241.098 112.215 239.85 112.305 238.513C112.305 237.265 111.413 236.73 110.344 237.354Z" fill="#144FC4"/>
<path fill-rule="evenodd" clip-rule="evenodd" d="M117.474 233.789C116.315 234.591 115.602 235.839 115.513 237.176C115.513 238.424 116.404 238.959 117.474 238.335C118.632 237.532 119.345 236.285 119.434 234.948C119.434 233.7 118.543 233.165 117.474 233.789Z" fill="#144FC4"/>
<path fill-rule="evenodd" clip-rule="evenodd" d="M200.187 131.467L142.253 134.587L116.494 122.554C113.107 120.593 107.937 120.415 104.996 122.109L71.8396 138.33L1.3374 142.074V174.696C1.3374 176.032 2.22871 177.459 4.18958 178.528L85.0309 225.143C88.4178 227.104 93.5874 227.372 96.5287 225.589L198.137 166.941C199.474 166.139 200.098 165.159 200.098 164.089V131.467H200.187Z" fill="#E2E7F1" stroke="#BEC6D8" stroke-width="0.891304"/>
<path fill-rule="evenodd" clip-rule="evenodd" d="M104.996 81.376L3.29803 139.935C0.356723 141.628 0.713245 144.569 4.1002 146.619L84.9415 193.146C88.3285 195.106 93.498 195.374 96.4393 193.591L198.137 135.033C201.078 133.339 200.722 130.398 197.335 128.348L116.494 81.8216C113.107 79.9499 107.937 79.6825 104.996 81.376Z" fill="#BEC6D8" stroke="#BEC6D8" stroke-width="0.891304"/>
<path fill-rule="evenodd" clip-rule="evenodd" d="M103.213 203.485C102.054 204.287 101.341 205.535 101.252 206.872C101.163 207.496 101.519 208.119 102.143 208.298C102.5 208.387 102.856 208.298 103.124 208.03C104.282 207.228 104.995 205.98 105.084 204.643C105.174 203.396 104.282 202.861 103.213 203.485Z" fill="#144FC4"/>
<path fill-rule="evenodd" clip-rule="evenodd" d="M110.344 199.919C109.185 200.722 108.472 201.969 108.383 203.306C108.294 203.93 108.65 204.554 109.274 204.732C109.631 204.822 109.987 204.732 110.254 204.465C111.413 203.663 112.126 202.415 112.215 201.078C112.304 199.83 111.413 199.295 110.344 199.919Z" fill="#144FC4"/>
<path fill-rule="evenodd" clip-rule="evenodd" d="M117.473 196.354C116.315 197.156 115.602 198.404 115.513 199.741C115.423 200.365 115.78 200.989 116.404 201.167C116.76 201.256 117.117 201.167 117.384 200.9C118.543 200.098 119.256 198.85 119.345 197.513C119.434 196.265 118.543 195.73 117.473 196.354Z" fill="#144FC4"/>
<path fill-rule="evenodd" clip-rule="evenodd" d="M200.187 91.3586L142.253 94.4782L116.494 82.4456C113.107 80.4847 107.937 80.3065 104.996 81.9999L71.8396 98.2217L1.3374 103.302V134.587C1.3374 135.924 2.22871 137.35 4.18958 138.42L85.0309 185.035C88.4178 186.996 93.5874 187.263 96.5287 185.48L198.137 126.833C199.474 126.03 200.098 125.05 200.098 123.98V91.3586H200.187Z" fill="#E2E7F1" stroke="#BEC6D8" stroke-width="0.891304"/>
<path fill-rule="evenodd" clip-rule="evenodd" d="M104.996 41.8021L3.29803 100.361C0.356723 102.054 0.713245 105.085 4.1002 107.046L84.9415 153.482C88.3285 155.443 93.498 155.711 96.4393 153.928L198.226 95.3695C201.168 93.676 200.811 90.7347 197.424 88.6847L116.583 42.2477C113.107 40.2868 107.937 40.1086 104.996 41.8021Z" fill="#BEC6D8" stroke="#BEC6D8" stroke-width="0.891304"/>
<path d="M103.213 167.565C104.296 167.565 105.174 166.687 105.174 165.604C105.174 164.521 104.296 163.643 103.213 163.643C102.13 163.643 101.252 164.521 101.252 165.604C101.252 166.687 102.13 167.565 103.213 167.565Z" fill="#144FC4"/>
<path d="M110.344 164C111.427 164 112.305 163.122 112.305 162.039C112.305 160.956 111.427 160.078 110.344 160.078C109.261 160.078 108.383 160.956 108.383 162.039C108.383 163.122 109.261 164 110.344 164Z" fill="#144FC4"/>
<path d="M117.474 160.435C118.557 160.435 119.434 159.557 119.434 158.474C119.434 157.391 118.557 156.513 117.474 156.513C116.391 156.513 115.513 157.391 115.513 158.474C115.513 159.557 116.391 160.435 117.474 160.435Z" fill="#144FC4"/>
<path fill-rule="evenodd" clip-rule="evenodd" d="M200.187 52.1411L142.253 55.2607L116.494 43.2281C113.107 41.2672 107.937 40.9998 104.996 42.7824L71.8396 59.0042L1.3374 64.0846V95.3694C1.3374 96.7063 2.22871 98.1324 4.18958 99.202L84.9418 145.906C88.3287 147.867 93.4983 148.135 96.4396 146.352L198.137 87.7042C199.474 86.902 200.098 85.9215 200.098 84.852V52.1411H200.187Z" fill="#E2E7F1" stroke="#BEC6D8" stroke-width="0.891304"/>
<path fill-rule="evenodd" clip-rule="evenodd" d="M104.996 2.2281L3.29803 60.7868C0.356723 62.4803 0.713245 65.4216 4.1002 67.3824L84.9415 113.909C88.3285 115.869 93.498 116.137 96.4393 114.354L198.226 55.7955C201.168 54.102 200.811 51.1607 197.424 49.1107L116.494 2.67375C113.107 0.712879 107.937 0.445488 104.996 2.2281Z" fill="white" stroke="#BEC6D8" stroke-width="0.891304"/>
<path fill-rule="evenodd" clip-rule="evenodd" d="M103.213 123.357C102.054 124.159 101.341 125.407 101.252 126.744C101.163 127.367 101.519 127.991 102.143 128.17C102.5 128.259 102.856 128.17 103.124 127.902C104.282 127.1 104.995 125.852 105.084 124.515C105.174 123.178 104.282 122.644 103.213 123.357Z" fill="#144FC4"/>
<path fill-rule="evenodd" clip-rule="evenodd" d="M110.344 119.791C109.185 120.593 108.472 121.841 108.383 123.178C108.294 123.802 108.65 124.426 109.274 124.604C109.631 124.693 109.987 124.604 110.254 124.337C111.413 123.535 112.126 122.287 112.215 120.95C112.304 119.613 111.413 119.078 110.344 119.791Z" fill="#144FC4"/>
<path fill-rule="evenodd" clip-rule="evenodd" d="M117.473 116.226C116.315 117.028 115.602 118.276 115.513 119.613C115.423 120.237 115.78 120.861 116.404 121.039C116.76 121.128 117.117 121.039 117.384 120.772C118.543 119.97 119.256 118.722 119.345 117.385C119.434 116.048 118.543 115.513 117.473 116.226Z" fill="#144FC4"/>
<path fill-rule="evenodd" clip-rule="evenodd" d="M148.938 304.47L167.923 307.322L173.004 318.374L158.03 321.226V327.643C167.388 328.356 176.658 326.396 183.788 322.206C192.523 317.126 195.019 309.728 191.275 303.4L261.688 262.578C272.651 264.806 285.308 263.38 294.132 258.3C301.351 254.111 303.936 249.03 303.491 243.148V237.8L287.536 251.972L268.641 249.03L263.738 237.978L280.049 228.174V221.756C280.049 221.756 256.43 228.798 250.012 232.541C241.277 237.622 238.782 245.02 242.525 251.348L172.112 292.17C161.149 289.941 148.493 291.367 139.669 296.448C134.054 299.746 131.291 306.163 131.291 306.163V314.72L148.938 304.47Z" fill="#BEC6D8"/>
<path fill-rule="evenodd" clip-rule="evenodd" d="M148.938 298.052L167.923 300.904L172.914 311.956L157.762 320.869C167.121 321.583 176.569 319.978 183.699 315.878C192.434 310.798 194.929 303.4 191.186 297.072L261.599 256.25C272.562 258.478 285.219 257.052 294.043 251.972C301.262 247.783 303.936 242.346 302.777 236.909L287.536 245.733L268.64 242.791L263.738 231.739L280.049 221.935C269.443 220.152 258.479 221.489 250.012 226.302C241.277 231.383 238.782 238.78 242.525 245.109L172.112 285.93C161.149 283.702 148.493 285.128 139.669 290.209C131.29 295.111 128.795 301.885 131.914 308.124L148.938 298.052Z" fill="white" stroke="#BEC6D8" stroke-width="0.891304"/>
<path d="M360.534 316.769C349.838 317.661 338.697 315.967 330.408 311.422C323.01 307.411 319.177 302.063 318.91 296.448" stroke="url(#paint6_linear_3540_2249)" stroke-width="0.891304" stroke-dasharray="50.8 50.8"/>
<path d="M374.171 274.522C377.38 275.413 380.41 276.572 383.173 278.087C398.147 286.198 398.593 300.281 383.975 309.55" stroke="url(#paint7_linear_3540_2249)" stroke-width="0.891304" stroke-dasharray="50.8 50.8"/>
<path d="M357.325 313.65L361.068 316.591L358.127 320.335" stroke="url(#paint8_linear_3540_2249)" stroke-width="0.891304" stroke-dasharray="14.26 14.26"/>
<path fill-rule="evenodd" clip-rule="evenodd" d="M338.786 302.776C348.857 308.302 365.257 308.57 375.151 302.687C379.34 300.28 381.925 296.27 382.281 293.061C382.281 287.802 382.281 264.004 382.281 264.004H331.477C331.477 264.004 331.477 288.426 331.477 292.17C331.477 296.002 333.705 300.013 338.786 302.776Z" fill="url(#paint9_linear_3540_2249)"/>
<path d="M332.545 289.139C334.15 291.546 336.378 293.506 338.963 294.933C349.302 301.083 365.435 301.439 374.972 295.913C378.982 293.596 381.211 290.565 381.745 287.356" stroke="#113A8F" stroke-width="0.891304" stroke-linecap="round" stroke-linejoin="round"/>
<path d="M332.634 282.544C334.239 284.95 336.467 286.911 338.963 288.248C349.302 294.398 365.434 294.755 374.971 289.139C378.982 286.822 381.21 283.791 381.745 280.583" stroke="#113A8F" stroke-width="0.891304" stroke-linecap="round" stroke-linejoin="round"/>
<path d="M330.852 270.689C331.03 274.611 333.704 278.533 338.962 281.652C349.302 287.802 365.434 288.159 374.971 282.543C378.982 280.226 381.21 277.196 381.745 273.987" stroke="#113A8F" stroke-width="0.891304" stroke-linecap="round" stroke-linejoin="round"/>
<path d="M330.852 264.004C331.03 267.926 333.704 271.848 338.962 274.967C349.302 281.117 365.434 281.474 374.971 275.859C378.982 273.541 381.21 270.511 381.745 267.302" stroke="#113A8F" stroke-width="0.891304"/>
<path d="M330.495 259.637C330.673 263.559 333.436 267.57 338.695 270.778C349.123 277.017 365.523 277.463 375.328 271.759C379.428 269.352 381.656 266.322 382.191 263.113" stroke="#113A8F" stroke-width="0.891304"/>
<path d="M330.495 252.863C330.673 256.785 333.436 260.796 338.695 264.004C349.123 270.243 365.523 270.6 375.328 264.985C379.428 262.578 381.656 259.548 382.191 256.339" stroke="#113A8F" stroke-width="0.891304"/>
<path fill-rule="evenodd" clip-rule="evenodd" d="M319.176 276.126H401.265L437.541 237.8V214.27L278.265 214.448L278.176 233.076L319.176 276.126Z" fill="#113A8F"/>
<path fill-rule="evenodd" clip-rule="evenodd" d="M315.878 254.913L399.394 254.824L437.541 214.448L400.285 173.804H316.591L278.176 214.448L315.878 254.913Z" fill="url(#paint10_linear_3540_2249)"/>
<path fill-rule="evenodd" clip-rule="evenodd" d="M329.158 242.969L387.449 243.059L414.277 214.448L387.984 186.104L329.693 186.015L302.864 214.537L329.158 242.969Z" fill="#133C8F" fill-opacity="0.5"/>
<path d="M344.579 219.707L365.079 220.954L361.87 200.989" stroke="white" stroke-width="4.45652" stroke-linecap="round"/>
<defs>
<linearGradient id="paint0_linear_3540_2249" x1="18.0488" y1="250.11" x2="122.708" y2="270.375" gradientUnits="userSpaceOnUse">
<stop stop-color="#0082F8"/>
<stop offset="1" stop-color="#1C40F2"/>
</linearGradient>
<linearGradient id="paint1_linear_3540_2249" x1="114.265" y1="277.967" x2="119.908" y2="278.614" gradientUnits="userSpaceOnUse">
<stop stop-color="#0082F8"/>
<stop offset="1" stop-color="#1C40F2"/>
</linearGradient>
<linearGradient id="paint2_linear_3540_2249" x1="129.417" y1="242.703" x2="212.168" y2="262.873" gradientUnits="userSpaceOnUse">
<stop stop-color="#0082F8"/>
<stop offset="1" stop-color="#1C40F2"/>
</linearGradient>
<linearGradient id="paint3_linear_3540_2249" x1="206.426" y1="249.356" x2="212.07" y2="250.003" gradientUnits="userSpaceOnUse">
<stop stop-color="#0082F8"/>
<stop offset="1" stop-color="#1C40F2"/>
</linearGradient>
<linearGradient id="paint4_linear_3540_2249" x1="187.352" y1="15.2805" x2="249.947" y2="34.6817" gradientUnits="userSpaceOnUse">
<stop stop-color="#0082F8"/>
<stop offset="1" stop-color="#1C40F2"/>
</linearGradient>
<linearGradient id="paint5_linear_3540_2249" x1="186.997" y1="29.9174" x2="193.55" y2="30.7933" gradientUnits="userSpaceOnUse">
<stop stop-color="#0082F8"/>
<stop offset="1" stop-color="#1C40F2"/>
</linearGradient>
<linearGradient id="paint6_linear_3540_2249" x1="318.91" y1="297.951" x2="361.806" y2="306.247" gradientUnits="userSpaceOnUse">
<stop stop-color="#0082F8"/>
<stop offset="1" stop-color="#1C40F2"/>
</linearGradient>
<linearGradient id="paint7_linear_3540_2249" x1="374.171" y1="277.085" x2="396.025" y2="278.306" gradientUnits="userSpaceOnUse">
<stop stop-color="#0082F8"/>
<stop offset="1" stop-color="#1C40F2"/>
</linearGradient>
<linearGradient id="paint8_linear_3540_2249" x1="357.325" y1="314.139" x2="361.315" y2="314.353" gradientUnits="userSpaceOnUse">
<stop stop-color="#0082F8"/>
<stop offset="1" stop-color="#1C40F2"/>
</linearGradient>
<linearGradient id="paint9_linear_3540_2249" x1="331.288" y1="285.607" x2="382.088" y2="285.22" gradientUnits="userSpaceOnUse">
<stop stop-color="#2E6AD8"/>
<stop offset="1" stop-color="#1749AF"/>
</linearGradient>
<linearGradient id="paint10_linear_3540_2249" x1="279.134" y1="214.278" x2="438.499" y2="214.44" gradientUnits="userSpaceOnUse">
<stop stop-color="#2E6AD8"/>
<stop offset="1" stop-color="#1749AF"/>
</linearGradient>
</defs>
</svg>
