<svg width="423" height="317" viewBox="0 0 423 317" fill="none" xmlns="http://www.w3.org/2000/svg">
<g clip-path="url(#clip0_3540_2176)">
<path fill-rule="evenodd" clip-rule="evenodd" d="M276.967 1.87541L149.348 74.7947C148.061 75.5677 147.289 76.856 147.118 78.2302V170.303C147.118 171.505 148.147 171.935 149.348 171.247L276.967 98.3281C278.254 97.5551 279.026 96.2668 279.197 94.8926V2.82018C279.197 1.61774 278.168 1.1883 276.967 1.87541Z" fill="white" stroke="#B9C2D5" stroke-width="0.814612"/>
<path fill-rule="evenodd" clip-rule="evenodd" d="M318.135 23.3476L190.516 96.2669C189.229 97.0399 188.457 98.3282 188.286 99.7024V191.775C188.286 192.977 189.315 193.407 190.516 192.72L318.135 119.8C319.422 119.027 320.194 117.739 320.365 116.365V24.2923C320.365 23.0899 319.336 22.6605 318.135 23.3476Z" fill="white" stroke="#B9C2D5" stroke-width="0.814612"/>
<path fill-rule="evenodd" clip-rule="evenodd" d="M350.726 49.1141L223.106 122.033C221.819 122.806 221.048 124.095 220.876 125.469V217.541C220.876 218.744 221.905 219.173 223.106 218.486L350.726 145.567C352.012 144.794 352.784 143.505 352.956 142.131V50.0588C352.956 48.8564 351.927 48.4269 350.726 49.1141Z" fill="white" stroke="#B9C2D5" stroke-width="0.814612"/>
<path fill-rule="evenodd" clip-rule="evenodd" d="M352.528 50.059C352.528 49.8013 352.442 49.4577 352.185 49.286C352.099 49.2001 351.928 49.2001 351.842 49.2001C351.585 49.2001 351.242 49.286 350.984 49.4577L273.452 93.7762L222.164 123.408C221.649 124.009 221.392 124.782 221.306 125.555V138.009L352.528 62.0833V50.059Z" fill="#E2E7F1"/>
<path fill-rule="evenodd" clip-rule="evenodd" d="M342.407 90.9419L274.48 130.107C274.052 130.365 273.708 130.88 273.708 131.395V132.598C273.708 133.027 274.052 133.199 274.48 132.941L342.407 93.7762C342.836 93.5185 343.179 93.0032 343.179 92.4879V91.2854C343.265 90.856 342.922 90.6842 342.407 90.9419ZM308.958 117.567L274.566 136.978C274.137 137.236 273.794 137.665 273.794 138.181V139.297C273.794 139.727 274.137 139.898 274.566 139.641L308.958 120.23C309.387 119.972 309.73 119.543 309.73 119.027V117.911C309.816 117.481 309.473 117.396 308.958 117.567ZM342.407 121.862L274.48 160.941C274.052 161.199 273.708 161.628 273.708 162.143V163.346C273.708 163.775 274.052 163.947 274.48 163.689L342.407 124.61C342.836 124.352 343.179 123.923 343.179 123.408V122.205C343.265 121.776 342.922 121.604 342.407 121.862ZM308.958 148.487L274.566 167.898C274.137 168.156 273.794 168.585 273.794 169.1V170.217C273.794 170.646 274.137 170.818 274.566 170.56L308.958 151.15C309.387 150.892 309.73 150.463 309.73 149.947V148.831C309.816 148.401 309.473 148.229 308.958 148.487Z" fill="url(#paint0_linear_3540_2176)"/>
<path fill-rule="evenodd" clip-rule="evenodd" d="M266.504 129.591L234.599 148.401C234.17 148.659 233.913 149.088 233.827 149.604V164.205C233.827 164.634 234.17 164.806 234.599 164.548L266.504 145.739C266.933 145.481 267.19 145.051 267.276 144.536V129.935C267.19 129.506 266.933 129.42 266.504 129.591ZM266.504 161.37L234.599 180.18C234.17 180.437 233.913 180.867 233.827 181.382V195.983C233.827 196.413 234.17 196.584 234.599 196.327L266.504 177.517C266.933 177.26 267.19 176.83 267.276 176.315V161.714C267.19 161.284 266.933 161.113 266.504 161.37Z" fill="#E2E7F1"/>
<path fill-rule="evenodd" clip-rule="evenodd" d="M243.348 116.794C242.318 117.481 241.718 118.598 241.632 119.8C241.546 120.402 241.89 120.917 242.404 121.003C242.747 121.089 243.09 121.003 243.348 120.745C244.377 120.058 244.977 118.941 245.063 117.739C245.149 117.138 244.806 116.623 244.291 116.537C243.862 116.537 243.605 116.622 243.348 116.794ZM237.344 120.316C236.315 121.003 235.714 122.119 235.629 123.322C235.543 123.923 235.886 124.438 236.401 124.524C236.744 124.61 237.087 124.524 237.344 124.267C238.373 123.579 238.973 122.463 239.059 121.26C239.145 120.659 238.802 120.144 238.287 120.058C237.859 119.972 237.601 120.058 237.344 120.316ZM231.598 123.579C230.568 124.267 229.968 125.383 229.882 126.586C229.797 127.187 230.14 127.702 230.654 127.788C230.997 127.874 231.34 127.788 231.598 127.53C232.627 126.843 233.227 125.727 233.313 124.524C233.399 123.923 233.056 123.408 232.541 123.322C232.284 123.322 231.855 123.408 231.598 123.579Z" fill="#144FC4"/>
<path fill-rule="evenodd" clip-rule="evenodd" d="M191.717 207.922C191.717 209.897 190.774 210.928 189.916 211.357L93.3433 268.215C90.5131 269.847 85.5386 269.675 82.2795 267.786L4.83275 223.124C2.6886 221.921 2.25977 220.805 2.25977 218.744V188.597L191.717 177.689V207.922Z" fill="#E2E7F1" stroke="#BEC6D8" stroke-width="0.814612"/>
<path fill-rule="evenodd" clip-rule="evenodd" d="M100.633 127.874L4.14618 184.818C1.3159 186.45 1.65896 189.284 4.91808 191.173L82.2791 235.921C85.5382 237.811 90.5126 237.983 93.3429 236.351L189.83 179.407C192.66 177.775 192.317 174.941 189.058 173.051L111.697 128.303C108.438 126.414 103.463 126.328 100.633 127.874Z" fill="#BEC6D8" stroke="#BEC6D8" stroke-width="0.814612"/>
<path fill-rule="evenodd" clip-rule="evenodd" d="M167.359 206.633C166.244 207.406 165.558 208.609 165.473 209.897C165.387 210.498 165.73 211.1 166.33 211.271C166.673 211.357 167.016 211.271 167.359 211.014C168.474 210.241 169.16 209.038 169.246 207.75C169.332 207.149 168.989 206.547 168.389 206.376C167.96 206.204 167.617 206.376 167.359 206.633ZM173.363 203.198C172.248 203.971 171.562 205.173 171.476 206.462C171.476 207.664 172.334 208.179 173.363 207.578C174.478 206.805 175.164 205.603 175.25 204.314C175.336 203.713 174.993 203.112 174.392 202.94C173.963 202.768 173.62 202.94 173.363 203.198ZM179.367 199.762C178.252 200.535 177.566 201.738 177.48 203.026C177.48 204.228 178.337 204.744 179.367 204.143C180.482 203.37 181.168 202.167 181.253 200.879C181.339 200.278 180.996 199.676 180.396 199.505C179.967 199.333 179.624 199.505 179.367 199.762Z" fill="#144FC4"/>
<path fill-rule="evenodd" clip-rule="evenodd" d="M191.717 169.272C191.717 171.247 190.774 172.278 189.916 172.707L93.3433 229.566C90.5131 231.198 85.5386 231.026 82.2795 229.136L4.83275 184.474C2.6886 183.272 2.25977 182.155 2.25977 180.094V149.947L191.717 139.039V169.272Z" fill="#E2E7F1" stroke="#BEC6D8" stroke-width="0.814612"/>
<path fill-rule="evenodd" clip-rule="evenodd" d="M100.633 89.2238L4.14618 146.168C1.3159 147.8 1.65896 150.634 4.91808 152.524L82.2791 197.272C85.5382 199.161 90.5126 199.333 93.3429 197.701L189.83 140.757C192.66 139.125 192.317 136.291 189.058 134.401L111.697 89.6533C108.438 87.7637 103.463 87.5919 100.633 89.2238Z" fill="#BEC6D8" stroke="#BEC6D8" stroke-width="0.814612"/>
<path fill-rule="evenodd" clip-rule="evenodd" d="M167.359 167.984C166.244 168.757 165.558 169.959 165.473 171.247C165.387 171.849 165.73 172.45 166.33 172.622C166.673 172.708 167.016 172.622 167.359 172.364C168.474 171.591 169.16 170.389 169.246 169.1C169.332 168.499 168.989 167.898 168.389 167.726C167.96 167.554 167.617 167.726 167.359 167.984ZM173.363 164.548C172.248 165.321 171.562 166.524 171.476 167.812C171.476 169.014 172.334 169.53 173.363 168.928C174.478 168.155 175.164 166.953 175.25 165.665C175.336 165.063 174.993 164.462 174.392 164.29C173.963 164.119 173.62 164.29 173.363 164.548ZM179.367 161.113C178.252 161.886 177.566 163.088 177.48 164.376C177.48 165.579 178.337 166.094 179.367 165.493C180.482 164.72 181.168 163.517 181.253 162.229C181.339 161.628 180.996 161.027 180.396 160.855C179.967 160.683 179.624 160.855 179.367 161.113Z" fill="#144FC4"/>
<path fill-rule="evenodd" clip-rule="evenodd" d="M191.717 132.34C191.717 134.315 190.774 135.346 189.916 135.775L93.3433 192.634C90.5131 194.265 85.5386 194.094 82.2795 192.204L4.83275 147.542C2.6886 146.34 2.25977 145.223 2.25977 143.162V113.015L191.717 102.107V132.34Z" fill="#E2E7F1" stroke="#BEC6D8" stroke-width="0.814612"/>
<path fill-rule="evenodd" clip-rule="evenodd" d="M100.633 52.2918L4.14618 109.236C1.3159 110.868 1.65896 113.702 4.91808 115.592L82.2791 160.339C85.5382 162.229 90.5126 162.401 93.3429 160.769L189.83 103.825C192.66 102.193 192.317 99.3587 189.058 97.4691L111.697 52.7213C108.438 50.8317 103.463 50.6599 100.633 52.2918Z" fill="#BEC6D8" stroke="#BEC6D8" stroke-width="0.814612"/>
<path fill-rule="evenodd" clip-rule="evenodd" d="M167.359 131.052C166.244 131.825 165.558 133.027 165.473 134.315C165.387 134.917 165.73 135.518 166.33 135.69C166.673 135.776 167.016 135.69 167.359 135.432C168.474 134.659 169.16 133.457 169.246 132.168C169.332 131.567 168.989 130.966 168.389 130.794C167.96 130.622 167.617 130.794 167.359 131.052ZM173.363 127.616C172.248 128.389 171.562 129.592 171.476 130.88C171.476 132.082 172.334 132.598 173.363 131.996C174.478 131.223 175.164 130.021 175.25 128.733C175.336 128.131 174.993 127.53 174.392 127.358C173.963 127.187 173.62 127.358 173.363 127.616ZM179.367 124.181C178.252 124.954 177.566 126.156 177.48 127.444C177.48 128.647 178.337 129.162 179.367 128.561C180.482 127.788 181.168 126.585 181.253 125.297C181.339 124.696 180.996 124.095 180.396 123.923C179.967 123.751 179.624 123.923 179.367 124.181Z" fill="#144FC4"/>
<path fill-rule="evenodd" clip-rule="evenodd" d="M191.717 94.549C191.717 96.5245 190.774 97.5551 189.916 97.9846L93.3433 154.843C90.5131 156.475 85.5386 156.303 82.2795 154.413L4.83275 109.751C2.6886 108.549 2.25977 107.432 2.25977 105.371V75.2241L191.717 64.3163V94.549Z" fill="#E2E7F1" stroke="#BEC6D8" stroke-width="0.814612"/>
<path fill-rule="evenodd" clip-rule="evenodd" d="M100.633 14.5008L4.14618 71.4448C1.3159 73.0767 1.65896 75.911 4.91808 77.8006L82.2791 122.548C85.5382 124.438 90.5126 124.61 93.3429 122.978L189.83 66.0339C192.66 64.402 192.317 61.5677 189.058 59.6781L111.697 14.9302C108.438 13.0407 103.463 12.8689 100.633 14.5008Z" fill="white" stroke="#BEC6D8" stroke-width="0.814612"/>
<path fill-rule="evenodd" clip-rule="evenodd" d="M167.359 93.1747C166.244 93.9477 165.558 95.1501 165.473 96.4384C165.387 97.0396 165.73 97.6409 166.33 97.8126C166.673 97.8985 167.016 97.8126 167.359 97.555C168.474 96.782 169.16 95.5795 169.246 94.2912C169.332 93.69 168.989 93.0888 168.389 92.917C167.96 92.8311 167.617 93.0029 167.359 93.1747ZM173.363 89.7391C172.248 90.5121 171.562 91.7146 171.476 93.0029C171.476 94.2053 172.334 94.7207 173.363 94.1194C174.478 93.3464 175.164 92.144 175.25 90.8557C175.336 90.2544 174.993 89.6532 174.392 89.4815C173.963 89.3956 173.62 89.5673 173.363 89.7391ZM179.367 86.3036C178.252 87.0766 177.566 88.279 177.48 89.5673C177.48 90.7698 178.337 91.2851 179.367 90.6839C180.482 89.9109 181.168 88.7085 181.253 87.4201C181.339 86.8189 180.996 86.2177 180.396 86.0459C179.967 85.96 179.624 86.1318 179.367 86.3036Z" fill="#144FC4"/>
<path d="M196.947 271.222C180.566 264.265 158.009 264.608 142.486 272.338M133.737 278.093C124.132 286.939 124.989 298.534 136.139 307.037M143 311.16C158.61 318.804 181.166 319.233 197.376 312.362M204.752 308.411C218.646 299.049 218.732 285.136 205.009 275.516" stroke="url(#paint1_linear_3540_2176)" stroke-width="0.814612" stroke-dasharray="52.95 52.95"/>
<path fill-rule="evenodd" clip-rule="evenodd" d="M195.746 276.289L205.352 271.222L206.038 272.596L196.432 277.663L195.746 276.289Z" fill="url(#paint2_linear_3540_2176)"/>
<path fill-rule="evenodd" clip-rule="evenodd" d="M133.309 312.019L142.657 307.123L143.343 308.411L133.995 313.307L133.309 312.019Z" fill="url(#paint3_linear_3540_2176)"/>
<path fill-rule="evenodd" clip-rule="evenodd" d="M142.915 275.946L133.395 270.878L132.709 272.253L142.229 277.32L142.915 275.946Z" fill="url(#paint4_linear_3540_2176)"/>
<path fill-rule="evenodd" clip-rule="evenodd" d="M205.181 312.019L195.833 306.264L195.146 307.552L204.495 313.307L205.181 312.019Z" fill="url(#paint5_linear_3540_2176)"/>
<path fill-rule="evenodd" clip-rule="evenodd" d="M157.322 298.534L184.424 282.473L185.11 283.761L158.008 299.822L157.322 298.534Z" fill="url(#paint6_linear_3540_2176)"/>
<path fill-rule="evenodd" clip-rule="evenodd" d="M183.395 297.675L157.151 283.332L156.465 284.62L182.709 298.964L183.395 297.675Z" fill="url(#paint7_linear_3540_2176)"/>
<path fill-rule="evenodd" clip-rule="evenodd" d="M328.256 145.481C346.095 151.579 374.227 135.26 374.227 135.26C374.227 135.26 380.916 139.211 383.404 140.499C377.915 161.971 377.829 168.241 374.227 188.339C374.227 222.093 328.256 267.958 328.256 267.958C328.256 267.958 312.904 270.62 299.524 265.123C290.948 261.602 282.2 254.645 282.2 241.418V188.253C282.285 188.339 310.588 172.106 328.256 145.481Z" fill="url(#paint8_linear_3540_2176)"/>
<path d="M289.49 244.51C266.847 257.737 251.753 266.412 251.753 266.412C249.351 267.786 247.464 270.878 247.464 273.283V293.81" stroke="url(#paint9_linear_3540_2176)" stroke-width="0.814612"/>
<path d="M251.494 244.51C260.585 239.357 274.565 231.713 288.459 223.811" stroke="url(#paint10_linear_3540_2176)" stroke-width="0.814612"/>
<path fill-rule="evenodd" clip-rule="evenodd" d="M252.353 250.522C255.612 248.719 258.271 244.424 258.271 240.903C258.271 237.381 255.612 235.921 252.353 237.725C249.094 239.529 246.435 243.823 246.435 247.345C246.521 250.866 249.18 252.326 252.353 250.522Z" fill="white" stroke="url(#paint11_linear_3540_2176)" stroke-width="0.814612"/>
<path fill-rule="evenodd" clip-rule="evenodd" d="M247.721 303.43C251.152 301.197 253.296 297.503 253.468 293.467C253.468 289.773 250.895 288.313 247.721 290.117C244.291 292.35 242.147 296.043 241.975 300.08C242.061 303.773 244.634 305.233 247.721 303.43Z" fill="white" stroke="url(#paint12_linear_3540_2176)" stroke-width="0.814612"/>
<path d="M244.892 206.547V225.357C244.892 227.848 246.864 228.621 249.266 227.247C249.266 227.247 265.047 218.056 288.632 204.314" stroke="url(#paint13_linear_3540_2176)" stroke-width="0.814612"/>
<path fill-rule="evenodd" clip-rule="evenodd" d="M245.749 207.664C249.179 205.517 251.324 201.824 251.495 197.787C251.495 194.18 248.922 192.634 245.749 194.523C242.318 196.67 240.26 200.363 240.002 204.4C240.002 208.008 242.575 209.468 245.749 207.664Z" fill="white" stroke="url(#paint14_linear_3540_2176)" stroke-width="0.814612"/>
<path d="M373.54 156.389C396.182 143.505 411.277 134.831 411.277 134.831C413.679 133.456 415.565 130.45 415.565 128.045V108.291" stroke="url(#paint15_linear_3540_2176)" stroke-width="0.814612"/>
<path d="M411.449 156.475C402.357 161.628 388.378 169.272 374.483 177.174" stroke="url(#paint16_linear_3540_2176)" stroke-width="0.814612"/>
<path fill-rule="evenodd" clip-rule="evenodd" d="M410.419 150.462C407.16 152.266 404.501 156.56 404.501 160.082C404.501 163.603 407.16 165.063 410.419 163.346C413.678 161.628 416.337 157.247 416.337 153.726C416.337 150.205 413.593 148.659 410.419 150.462Z" fill="white" stroke="url(#paint17_linear_3540_2176)" stroke-width="0.814612"/>
<path d="M417.281 195.124V176.143C417.281 173.652 415.308 172.879 412.907 174.253C412.907 174.253 397.126 183.529 373.54 197.357" stroke="url(#paint18_linear_3540_2176)" stroke-width="0.814612"/>
<path fill-rule="evenodd" clip-rule="evenodd" d="M417.024 190.83C413.679 192.977 411.535 196.67 411.278 200.707C411.278 204.314 413.851 205.86 417.024 203.971C420.455 201.824 422.599 198.13 422.77 194.094C422.856 190.486 420.283 188.94 417.024 190.83Z" fill="white" stroke="url(#paint19_linear_3540_2176)" stroke-width="0.814612"/>
<path fill-rule="evenodd" clip-rule="evenodd" d="M416.681 95.0643C413.25 97.2974 411.106 100.991 410.935 105.027C410.935 108.721 413.508 110.181 416.681 108.377C420.112 106.144 422.256 102.451 422.427 98.4139C422.427 94.7207 419.854 93.1747 416.681 95.0643Z" fill="white" stroke="url(#paint20_linear_3540_2176)" stroke-width="0.814612"/>
<path fill-rule="evenodd" clip-rule="evenodd" d="M337.518 150.634C355.357 156.732 383.403 140.499 383.403 140.499V193.235C383.403 226.903 337.518 272.338 337.518 272.338C337.518 272.338 291.633 279.553 291.633 245.97V193.235C291.633 193.149 319.85 177.002 337.518 150.634Z" fill="url(#paint21_linear_3540_2176)"/>
<path d="M333.402 196.842C333.316 196.67 333.145 196.499 332.887 196.413C332.63 196.327 332.459 196.413 332.201 196.499L328.256 198.818C328.084 198.903 327.913 199.075 327.827 199.333L315.648 237.553C315.563 237.897 315.648 238.24 315.906 238.498C316.077 238.584 316.249 238.67 316.42 238.67C316.592 238.67 316.678 238.67 316.849 238.584L321.738 235.75C321.909 235.664 322.081 235.492 322.167 235.234L324.825 226.645L336.918 219.688L339.234 224.584C339.32 224.842 339.491 224.928 339.749 225.013C340.006 225.099 340.263 225.099 340.435 224.928L345.323 222.093C345.752 221.836 345.838 221.406 345.666 220.977L333.402 196.842ZM327.227 218.915L330.915 206.891L334.603 214.621L327.227 218.915Z" fill="white"/>
<path d="M352.957 184.99C352.7 184.818 352.357 184.818 352.099 184.99L347.211 187.824C346.953 187.996 346.782 188.253 346.782 188.597V219.774C346.782 220.118 346.953 220.376 347.211 220.547C347.382 220.633 347.468 220.633 347.639 220.633C347.811 220.633 347.897 220.633 348.068 220.547L352.957 217.713C353.214 217.541 353.386 217.284 353.386 216.94V185.763C353.386 185.419 353.214 185.161 352.957 184.99Z" fill="white"/>
<path d="M212.043 26.4394C212.043 26.4394 204.153 21.5437 194.032 15.2739C188.715 12.0101 185.884 10.55 182.025 12.6972C171.561 18.4517 150.292 30.7338 150.292 30.7338" stroke="url(#paint22_linear_3540_2176)" stroke-width="0.814612"/>
<path d="M206.039 25.5806H212.042V21.2861" stroke="#FF7800" stroke-width="0.814612" stroke-dasharray="14.66 14.66"/>
<path fill-rule="evenodd" clip-rule="evenodd" d="M101.091 98.9818L114.246 111.271L100.6 119.038L88.2295 106.552L101.091 98.9818Z" fill="url(#paint23_linear_3540_2176)"/>
<path fill-rule="evenodd" clip-rule="evenodd" d="M114.052 91.4116L134.964 99.4736L122.201 106.749L101.289 98.982L114.052 91.4116Z" fill="url(#paint24_linear_3540_2176)"/>
<path d="M114.247 144.404V111.272L100.6 119.039L100.698 152.27L107.669 143.028L114.247 144.404Z" fill="url(#paint25_linear_3540_2176)"/>
<path d="M134.963 132.902V99.4738L122.2 106.749L122.298 140.177L128.974 130.935L134.963 132.902Z" fill="url(#paint26_linear_3540_2176)"/>
<path fill-rule="evenodd" clip-rule="evenodd" d="M123.773 85.021C124.362 84.3328 124.755 83.3496 124.755 82.4647C124.755 80.5967 124.755 75.4842 124.755 74.8943C124.264 70.3718 111.894 76.4674 111.599 76.2708C110.421 74.5994 109.341 72.8297 108.359 70.9617C106.985 68.4054 104.039 67.2256 101.29 68.0121C97.5598 69.0936 92.7491 70.4701 90.2947 70.9617C89.4111 71.1583 88.4293 71.1583 87.5457 70.9617C85.0913 70.3718 80.1825 68.9953 76.5499 68.0121C73.801 67.2256 70.8556 68.4054 69.4812 70.9617C68.4994 72.8297 67.5176 74.5994 66.2413 76.2708C65.8486 76.4674 53.282 70.3718 53.0856 74.8943C52.9874 76.5657 53.0856 80.4984 53.0856 82.2681C53.0856 83.2513 53.3802 84.2344 54.0674 85.021C55.2455 86.2991 56.2273 87.5772 57.2091 89.052C57.2091 89.2486 53.7729 85.7092 53.6747 88.1671C53.5765 89.2486 53.5765 94.656 53.5765 95.5409C53.5765 97.5072 54.951 99.1786 56.9145 99.5719L65.4559 101.243C67.0267 101.538 68.4012 102.423 69.2848 103.701L72.1319 107.634C73.7028 109.797 76.4517 110.682 79.0043 109.895L87.2512 107.339C88.4293 106.946 89.7056 106.946 90.8837 107.339L99.1306 109.895C101.683 110.682 104.432 109.797 106.003 107.634L108.85 103.701C109.734 102.423 111.108 101.538 112.679 101.243L121.22 99.5719C123.086 99.1786 124.46 97.6055 124.558 95.6392C124.558 94.7544 124.558 89.7402 124.558 88.0688C124.558 85.6109 120.926 89.3469 120.926 89.052C121.613 87.6755 122.693 86.2991 123.773 85.021Z" fill="url(#paint27_linear_3540_2176)"/>
<path fill-rule="evenodd" clip-rule="evenodd" d="M123.772 77.6471C125.245 75.9757 125.049 73.3211 123.281 71.8464C122.791 71.3548 122.103 71.0598 121.416 70.9615C116.9 70.0767 111.893 69.0935 111.5 68.8969C110.322 67.2255 109.242 65.4558 108.359 63.5878C106.984 61.0315 104.039 59.8517 101.29 60.6382C97.5591 61.7197 92.6502 63.0962 90.1958 63.6861C89.3122 63.8827 88.3304 63.8827 87.4468 63.6861C84.9924 63.0962 80.0836 61.7197 76.451 60.7366C73.7021 59.95 70.7568 61.1298 69.3823 63.6861C68.4987 65.4558 67.4188 67.2255 66.2406 68.8969C65.8479 69.0935 60.8409 70.175 56.3248 71.0598C54.1649 71.4531 52.6922 73.6161 53.0849 75.8774C53.1831 76.5656 53.5758 77.2538 53.9685 77.7454C55.1467 79.0235 56.1284 80.3016 57.1102 81.7764C56.3248 83.1528 55.343 84.5293 54.2631 85.8074C52.8886 87.5771 53.2813 90.1333 55.0485 91.5098C55.5394 91.903 56.1284 92.0997 56.7175 92.2963L65.2589 93.9677C66.8297 94.2626 68.2042 95.1475 69.0878 96.4256L71.9349 100.358C73.5057 102.521 76.2547 103.406 78.8073 102.62L87.0541 100.063C88.2323 99.6701 89.5086 99.6701 90.6867 100.063L98.9335 102.62C101.486 103.406 104.235 102.521 105.806 100.358L108.653 96.4256C109.537 95.1475 110.911 94.2626 112.482 93.9677L121.023 92.2963C123.183 91.903 124.656 89.7401 124.263 87.4788C124.165 86.8889 123.87 86.299 123.478 85.8074C122.398 84.5293 121.514 83.1528 120.631 81.7764C121.612 80.2033 122.692 78.9252 123.772 77.6471Z" fill="url(#paint28_linear_3540_2176)"/>
<path d="M106.492 71.4533C95.2018 65.5543 81.6534 65.5543 70.3631 71.4533C60.349 77.3523 60.349 86.9874 70.3631 92.8864C81.6534 98.7854 95.2018 98.7854 106.492 92.8864C116.506 86.9874 116.506 77.3523 106.492 71.4533Z" stroke="url(#paint29_linear_3540_2176)" stroke-width="1.01012" stroke-miterlimit="10"/>
<path d="M81.7528 87.8723L82.6364 88.3639L78.3166 90.9201L77.433 90.4285L79.102 89.4454L74.095 86.5942L73.6041 86.2992L73.4077 87.6757C73.4077 87.774 73.4077 87.774 73.3096 87.8723C73.3096 87.8723 73.2114 87.9706 73.1132 87.9706C73.015 87.9706 73.015 87.9706 72.9169 88.0689H72.7205L71.8369 87.9706L72.1314 85.4144L73.1132 84.8245L80.1819 88.9538L81.7528 87.8723Z" fill="white"/>
<path d="M85.4821 82.17C86.0711 82.4649 86.562 82.8582 87.0529 83.3498C87.3474 83.6447 87.642 84.038 87.7402 84.4313C87.8383 84.7262 87.7402 85.1195 87.5438 85.4144C87.3474 85.7094 87.0529 86.0043 86.6602 86.201C86.2675 86.3976 85.7766 86.5942 85.2857 86.6925C84.6967 86.7909 84.2058 86.7909 83.6167 86.7909C83.0277 86.6925 82.3404 86.5942 81.7514 86.3976C81.0641 86.201 80.3769 85.8077 79.6897 85.5127C79.1006 85.2178 78.6097 84.8245 78.1188 84.3329C77.8243 84.038 77.5298 83.6447 77.4316 83.2515C77.3334 82.9565 77.4316 82.5632 77.6279 82.2683C77.8243 81.9733 78.1188 81.6784 78.5115 81.4817C78.9042 81.2851 79.3951 81.0885 79.886 80.9902C80.4751 80.8918 80.9659 80.8918 81.555 80.8918C82.2422 80.9902 82.8313 81.0885 83.4204 81.2851C84.1076 81.4817 84.7948 81.7767 85.4821 82.17ZM84.2058 82.8582C83.7149 82.5632 83.1258 82.2683 82.635 82.0716C82.2423 81.875 81.7514 81.7767 81.3587 81.7767C80.9659 81.6784 80.6714 81.6784 80.2787 81.7767C79.9842 81.7767 79.7878 81.875 79.4933 82.0716C79.2969 82.17 79.1006 82.3666 79.0024 82.5632C78.9042 82.7599 78.9042 82.9565 79.0024 83.1531C79.1006 83.4481 79.2969 83.743 79.5915 83.9397C79.9842 84.3329 80.4751 84.6279 80.966 84.9228C81.4568 85.2178 82.0459 85.5127 82.5368 85.7094C82.9295 85.906 83.4204 86.0043 83.8131 86.0043C84.2058 86.1026 84.5003 86.1026 84.893 86.0043C85.1876 85.906 85.3839 85.8077 85.6784 85.7094C85.8748 85.6111 86.0711 85.4144 86.1693 85.2178C86.2675 85.0212 86.2675 84.8245 86.1693 84.6279C86.0711 84.3329 85.8748 84.038 85.5803 83.8414C85.1876 83.4481 84.6967 83.1531 84.2058 82.8582Z" fill="white"/>
<path d="M91.8654 78.4341C92.4544 78.7291 92.9453 79.1223 93.4362 79.6139C93.7308 79.9089 93.9271 80.3021 94.1235 80.6954C94.2216 80.9904 94.1235 81.3836 93.9271 81.6786C93.7308 81.9735 93.338 82.2685 93.0435 82.4651C92.6508 82.7601 92.1599 82.8584 91.669 82.9567C91.08 83.055 90.5891 83.1533 90 83.055C89.3128 82.9567 88.7237 82.8584 88.1347 82.6618C87.4474 82.4651 86.7602 82.1702 86.073 81.7769C85.4839 81.482 84.993 81.0887 84.5021 80.5971C84.2076 80.3021 84.0112 79.9089 83.8149 79.5156C83.7167 79.2207 83.8149 78.8274 84.0112 78.5324C84.2076 78.2375 84.5021 77.9425 84.8948 77.7459C85.2875 77.451 85.7784 77.3526 86.2693 77.2543C86.8584 77.156 87.3492 77.156 87.9383 77.156C88.6255 77.156 89.2146 77.3526 89.8037 77.5493C90.5891 77.7459 91.2763 78.0409 91.8654 78.4341ZM90.6873 79.1223C90.1964 78.8274 89.6073 78.5324 89.1164 78.3358C88.7237 78.1392 88.2328 78.0409 87.8401 78.0409C87.4474 77.9425 87.1529 77.9425 86.7602 78.0409C86.4657 78.1392 86.2693 78.2375 85.9748 78.3358C85.7784 78.4341 85.5821 78.6308 85.4839 78.8274C85.3857 79.024 85.3857 79.2207 85.4839 79.4173C85.5821 79.7122 85.7784 80.0072 86.073 80.2038C86.4657 80.5971 86.9565 80.8921 87.4474 81.0887C87.9383 81.3836 88.5274 81.6786 89.0183 81.8752C89.411 82.0719 89.9019 82.1702 90.2946 82.1702C90.6873 82.2685 90.9818 82.2685 91.3745 82.1702C91.669 82.1702 91.9636 82.0719 92.1599 81.8752C92.3563 81.7769 92.5526 81.5803 92.6508 81.3836C92.749 81.187 92.749 80.9904 92.6508 80.7937C92.5526 80.4988 92.3563 80.2038 92.0617 80.0072C91.5709 79.7122 91.1781 79.4173 90.6873 79.1223Z" fill="white"/>
<path d="M94.2213 74.6979C94.5158 74.7962 94.7122 74.9929 94.9085 75.2878C95.0067 75.4845 95.1049 75.6811 95.1049 75.8777C95.1049 76.0744 95.0067 76.271 94.9085 76.4676C94.7122 76.6643 94.614 76.8609 94.3194 76.9592C94.0249 77.1559 93.7304 77.2542 93.4359 77.2542C93.1413 77.3525 92.7486 77.3525 92.4541 77.3525C92.1596 77.3525 91.7669 77.2542 91.4723 77.2542C91.1778 77.1559 90.7851 77.0575 90.4906 76.8609C90.196 76.7626 89.9997 76.566 89.8033 76.271C89.7051 76.0744 89.607 75.8777 89.5088 75.6811C89.5088 75.4845 89.607 75.2878 89.7051 75.0912C89.9015 74.8946 90.0979 74.6979 90.2942 74.5996C90.5887 74.403 90.8833 74.3047 91.1778 74.3047C91.4723 74.2063 91.865 74.2063 92.1596 74.2063C92.4541 74.2063 92.8468 74.3047 93.1413 74.3047C93.534 74.403 93.9268 74.5013 94.2213 74.6979ZM93.3377 75.2878C93.1413 75.1895 92.945 75.0912 92.6504 74.9929C92.4541 74.8946 92.2577 74.8946 92.0614 74.8946C91.865 74.8946 91.7668 74.8946 91.5705 74.8946C91.4723 74.8946 91.276 74.9929 91.1778 75.0912C91.0796 75.1895 90.9814 75.1895 90.8833 75.2878C90.7851 75.3861 90.7851 75.4845 90.7851 75.5828C90.7851 75.6811 90.8833 75.7794 90.9814 75.8777C91.1778 76.0744 91.276 76.1727 91.4723 76.271C91.6687 76.3693 91.865 76.4676 92.0614 76.566C92.2577 76.6643 92.4541 76.6643 92.6504 76.6643C92.945 76.6643 93.2395 76.566 93.534 76.4676C93.6322 76.3693 93.7304 76.3693 93.8286 76.271C93.9267 76.1727 93.9267 76.0744 93.9267 75.9761C93.9267 75.8777 93.8286 75.7794 93.7304 75.6811C93.6322 75.4845 93.4359 75.2878 93.3377 75.2878ZM95.2031 72.1417C95.2031 72.0434 95.2031 72.0434 95.2031 71.9451C95.2031 71.8467 95.3012 71.8467 95.3994 71.7484L96.283 71.2568L98.2465 79.1222C98.2465 79.2205 98.2465 79.2205 98.2465 79.3188C98.2465 79.4171 98.1484 79.4171 98.0502 79.5155L97.1666 80.007L95.2031 72.1417ZM102.861 74.5013C103.155 74.5996 103.352 74.7962 103.548 75.0912C103.646 75.2878 103.744 75.4845 103.744 75.6811C103.744 75.8777 103.646 76.0744 103.548 76.271C103.45 76.4676 103.254 76.6643 102.959 76.7626C102.664 76.9592 102.37 77.0575 102.075 77.0575C101.781 77.1559 101.388 77.1559 101.094 77.1559C100.799 77.1559 100.406 77.0575 100.112 77.0575C99.8174 76.9592 99.4247 76.8609 99.1301 76.6643C98.8356 76.566 98.6392 76.3693 98.4429 76.0744C98.3447 75.8777 98.2465 75.6811 98.1484 75.4845C98.1484 75.2878 98.1484 75.0912 98.3447 74.8946C98.5411 74.6979 98.7374 74.5013 98.9338 74.403C99.2283 74.2063 99.5228 74.108 99.8174 74.108C100.112 74.0097 100.505 74.0097 100.799 74.0097C101.094 74.0097 101.486 74.108 101.781 74.108C102.174 74.2063 102.468 74.403 102.861 74.5013ZM101.879 75.0912C101.683 74.9929 101.486 74.8946 101.192 74.7962C100.995 74.6979 100.799 74.6979 100.603 74.6979C100.406 74.6979 100.308 74.6979 100.112 74.6979C100.014 74.6979 99.8174 74.7963 99.7192 74.8946C99.621 74.9929 99.5228 74.9929 99.4246 75.0912C99.3265 75.1895 99.3265 75.2878 99.3265 75.3862C99.3265 75.4845 99.4247 75.5828 99.5228 75.6811C99.7192 75.7794 99.8174 75.9761 100.014 76.0744C100.21 76.1727 100.406 76.271 100.603 76.3693C100.799 76.4676 100.995 76.4676 101.192 76.4676C101.388 76.4676 101.486 76.4676 101.683 76.4676C101.781 76.4676 101.977 76.3693 102.075 76.271C102.174 76.1727 102.272 76.1727 102.37 76.0744C102.468 75.9761 102.468 75.8777 102.468 75.7794C102.468 75.6811 102.37 75.5828 102.272 75.4845C102.272 75.2878 102.075 75.1895 101.879 75.0912Z" fill="white"/>
</g>
<defs>
<linearGradient id="paint0_linear_3540_2176" x1="273.359" y1="130.756" x2="342.579" y2="130.756" gradientUnits="userSpaceOnUse">
<stop stop-color="#1C40F2"/>
<stop offset="0.9833" stop-color="#03F8FB"/>
</linearGradient>
<linearGradient id="paint1_linear_3540_2176" x1="126.663" y1="291.743" x2="214.46" y2="291.743" gradientUnits="userSpaceOnUse">
<stop stop-color="#1C40F2"/>
<stop offset="0.9833" stop-color="#03F8FB"/>
</linearGradient>
<linearGradient id="paint2_linear_3540_2176" x1="195.694" y1="274.443" x2="205.947" y2="274.443" gradientUnits="userSpaceOnUse">
<stop stop-color="#1C40F2"/>
<stop offset="0.9833" stop-color="#03F8FB"/>
</linearGradient>
<linearGradient id="paint3_linear_3540_2176" x1="133.258" y1="310.215" x2="143.255" y2="310.215" gradientUnits="userSpaceOnUse">
<stop stop-color="#1C40F2"/>
<stop offset="0.9833" stop-color="#03F8FB"/>
</linearGradient>
<linearGradient id="paint4_linear_3540_2176" x1="132.658" y1="274.1" x2="142.825" y2="274.1" gradientUnits="userSpaceOnUse">
<stop stop-color="#1C40F2"/>
<stop offset="0.9833" stop-color="#03F8FB"/>
</linearGradient>
<linearGradient id="paint5_linear_3540_2176" x1="195.096" y1="309.786" x2="205.093" y2="309.786" gradientUnits="userSpaceOnUse">
<stop stop-color="#1C40F2"/>
<stop offset="0.9833" stop-color="#03F8FB"/>
</linearGradient>
<linearGradient id="paint6_linear_3540_2176" x1="157.182" y1="291.149" x2="184.865" y2="291.149" gradientUnits="userSpaceOnUse">
<stop stop-color="#1C40F2"/>
<stop offset="0.9833" stop-color="#03F8FB"/>
</linearGradient>
<linearGradient id="paint7_linear_3540_2176" x1="156.329" y1="291.149" x2="183.158" y2="291.149" gradientUnits="userSpaceOnUse">
<stop stop-color="#1C40F2"/>
<stop offset="0.9833" stop-color="#03F8FB"/>
</linearGradient>
<linearGradient id="paint8_linear_3540_2176" x1="383.404" y1="240.354" x2="272.504" y2="226.569" gradientUnits="userSpaceOnUse">
<stop stop-color="#001DAC"/>
<stop offset="1" stop-color="#000F57"/>
</linearGradient>
<linearGradient id="paint9_linear_3540_2176" x1="247.253" y1="269.163" x2="289.119" y2="269.163" gradientUnits="userSpaceOnUse">
<stop stop-color="#1C40F2"/>
<stop offset="0.9833" stop-color="#03F8FB"/>
</linearGradient>
<linearGradient id="paint10_linear_3540_2176" x1="251.308" y1="234.162" x2="288.133" y2="234.162" gradientUnits="userSpaceOnUse">
<stop stop-color="#1C40F2"/>
<stop offset="0.9833" stop-color="#03F8FB"/>
</linearGradient>
<linearGradient id="paint11_linear_3540_2176" x1="246.375" y1="244.125" x2="258.166" y2="244.125" gradientUnits="userSpaceOnUse">
<stop stop-color="#1C40F2"/>
<stop offset="0.9833" stop-color="#03F8FB"/>
</linearGradient>
<linearGradient id="paint12_linear_3540_2176" x1="241.917" y1="296.774" x2="253.366" y2="296.774" gradientUnits="userSpaceOnUse">
<stop stop-color="#1C40F2"/>
<stop offset="0.9833" stop-color="#03F8FB"/>
</linearGradient>
<linearGradient id="paint13_linear_3540_2176" x1="244.671" y1="216.119" x2="288.247" y2="216.119" gradientUnits="userSpaceOnUse">
<stop stop-color="#1C40F2"/>
<stop offset="0.9833" stop-color="#03F8FB"/>
</linearGradient>
<linearGradient id="paint14_linear_3540_2176" x1="239.945" y1="201.076" x2="251.394" y2="201.076" gradientUnits="userSpaceOnUse">
<stop stop-color="#1C40F2"/>
<stop offset="0.9833" stop-color="#03F8FB"/>
</linearGradient>
<linearGradient id="paint15_linear_3540_2176" x1="373.328" y1="132.343" x2="415.195" y2="132.343" gradientUnits="userSpaceOnUse">
<stop stop-color="#1C40F2"/>
<stop offset="0.9833" stop-color="#03F8FB"/>
</linearGradient>
<linearGradient id="paint16_linear_3540_2176" x1="374.297" y1="166.825" x2="411.123" y2="166.825" gradientUnits="userSpaceOnUse">
<stop stop-color="#1C40F2"/>
<stop offset="0.9833" stop-color="#03F8FB"/>
</linearGradient>
<linearGradient id="paint17_linear_3540_2176" x1="404.442" y1="156.886" x2="416.233" y2="156.886" gradientUnits="userSpaceOnUse">
<stop stop-color="#1C40F2"/>
<stop offset="0.9833" stop-color="#03F8FB"/>
</linearGradient>
<linearGradient id="paint18_linear_3540_2176" x1="373.32" y1="185.47" x2="416.895" y2="185.47" gradientUnits="userSpaceOnUse">
<stop stop-color="#1C40F2"/>
<stop offset="0.9833" stop-color="#03F8FB"/>
</linearGradient>
<linearGradient id="paint19_linear_3540_2176" x1="411.22" y1="197.401" x2="422.671" y2="197.401" gradientUnits="userSpaceOnUse">
<stop stop-color="#1C40F2"/>
<stop offset="0.9833" stop-color="#03F8FB"/>
</linearGradient>
<linearGradient id="paint20_linear_3540_2176" x1="410.877" y1="101.703" x2="422.326" y2="101.703" gradientUnits="userSpaceOnUse">
<stop stop-color="#1C40F2"/>
<stop offset="0.9833" stop-color="#03F8FB"/>
</linearGradient>
<linearGradient id="paint21_linear_3540_2176" x1="291.633" y1="150.194" x2="389.267" y2="156.647" gradientUnits="userSpaceOnUse">
<stop stop-color="#18029D"/>
<stop offset="1" stop-color="#1C40F2"/>
</linearGradient>
<linearGradient id="paint22_linear_3540_2176" x1="149.98" y1="21.2105" x2="211.499" y2="21.2105" gradientUnits="userSpaceOnUse">
<stop stop-color="#1C40F2"/>
<stop offset="0.9833" stop-color="#03F8FB"/>
</linearGradient>
<linearGradient id="paint23_linear_3540_2176" x1="88.2295" y1="100.449" x2="115.624" y2="103.842" gradientUnits="userSpaceOnUse">
<stop stop-color="#0082F8"/>
<stop offset="1" stop-color="#1C40F2"/>
</linearGradient>
<linearGradient id="paint24_linear_3540_2176" x1="101.289" y1="92.5339" x2="135.776" y2="99.763" gradientUnits="userSpaceOnUse">
<stop stop-color="#0082F8"/>
<stop offset="1" stop-color="#1C40F2"/>
</linearGradient>
<linearGradient id="paint25_linear_3540_2176" x1="100.6" y1="114.271" x2="115.175" y2="114.735" gradientUnits="userSpaceOnUse">
<stop stop-color="#0082F8"/>
<stop offset="1" stop-color="#1C40F2"/>
</linearGradient>
<linearGradient id="paint26_linear_3540_2176" x1="122.2" y1="102.452" x2="135.833" y2="102.86" gradientUnits="userSpaceOnUse">
<stop stop-color="#0082F8"/>
<stop offset="1" stop-color="#1C40F2"/>
</linearGradient>
<linearGradient id="paint27_linear_3540_2176" x1="124.755" y1="101.194" x2="50.642" y2="80.6687" gradientUnits="userSpaceOnUse">
<stop stop-color="#001DAC"/>
<stop offset="1" stop-color="#000F57"/>
</linearGradient>
<linearGradient id="paint28_linear_3540_2176" x1="53.0215" y1="63.5075" x2="127.772" y2="75.5519" gradientUnits="userSpaceOnUse">
<stop stop-color="#0082F8"/>
<stop offset="1" stop-color="#1C40F2"/>
</linearGradient>
<linearGradient id="paint29_linear_3540_2176" x1="62.5949" y1="82.1717" x2="113.552" y2="82.1717" gradientUnits="userSpaceOnUse">
<stop stop-color="#1C40F2"/>
<stop offset="0.9833" stop-color="#03F8FB"/>
</linearGradient>
<clipPath id="clip0_3540_2176">
<rect width="421.969" height="316.069" fill="white" transform="translate(0.886719 0.930542)"/>
</clipPath>
</defs>
</svg>
