<svg width="424" height="317" viewBox="0 0 424 317" fill="none" xmlns="http://www.w3.org/2000/svg">
<g clip-path="url(#clip0_3540_2098)">
<path fill-rule="evenodd" clip-rule="evenodd" d="M260.175 4.30685C259.657 4.47913 257.589 6.02968 257.503 6.02968L259.83 122.234C260.088 124.043 261.122 125.68 262.674 126.627C262.674 126.627 378.843 194.335 412.28 213.458C415.469 215.353 418.657 217.42 421.588 219.746C422.794 218.885 422.535 218.971 423.053 218.626C423.57 218.11 423.914 217.42 423.914 216.731V102.163C423.828 100.01 422.708 98.0286 420.898 96.9949L262.243 4.47913C261.64 4.04843 260.864 3.96229 260.175 4.30685ZM421.415 221.9C421.415 224.053 419.519 226.638 416.417 228.447L330.755 277.805C325.153 281.079 316.622 281.423 311.709 278.581L163.482 193.042C161.327 191.75 160.207 190.114 160.207 188.305C160.207 186.151 160.207 185.548 160.207 183.567L250.436 132.744C256.038 129.47 264.57 129.126 269.482 131.968L421.329 219.229C421.415 222.675 421.329 220.091 421.415 221.9Z" fill="#BEC6D8" stroke="#B9C2D5" stroke-width="0.747967"/>
<path fill-rule="evenodd" clip-rule="evenodd" d="M416.934 223.795L331.186 273.068C325.584 276.341 317.052 276.686 312.14 273.843L163.568 188.305C158.656 185.548 159.259 180.638 164.947 177.365L250.695 128.092C256.296 124.819 264.828 124.474 269.74 127.317L418.313 212.855C423.225 215.698 422.621 220.608 416.934 223.795Z" fill="#E2E7F1" stroke="#B9C2D5" stroke-width="0.747967"/>
<path fill-rule="evenodd" clip-rule="evenodd" d="M258.537 5.59912C257.417 5.59912 256.641 6.54668 256.727 7.58037V122.148C256.813 124.302 257.934 126.369 259.743 127.661L418.571 219.746C420.122 220.608 421.329 220.091 421.329 218.54V102.422C421.157 100.613 420.122 98.9763 418.571 98.0287L259.743 5.94369C259.399 5.68526 258.968 5.59912 258.537 5.59912Z" fill="#E2E7F1" stroke="#B9C2D5" stroke-width="0.747967"/>
<path fill-rule="evenodd" clip-rule="evenodd" d="M263.622 19.8121V118.702C263.622 120.167 264.225 122.234 265.604 123.096L412.539 207.686C413.918 208.462 415.296 207.859 415.296 206.48V106.643C415.296 105.264 413.918 103.283 412.539 102.508L265.604 17.917C264.225 17.1417 263.622 18.3477 263.622 19.8121Z" fill="white" stroke="#B9C2D5" stroke-width="0.747967"/>
<path fill-rule="evenodd" clip-rule="evenodd" d="M264.569 18.1755C264.225 18.3478 264.052 19.0369 264.052 19.8122V32.9918L414.865 119.736V106.643C414.865 105.437 413.573 103.628 412.28 102.852L265.431 18.2616C265.086 18.0893 264.742 18.0893 264.569 18.1755Z" fill="#E2E7F1"/>
<path fill-rule="evenodd" clip-rule="evenodd" d="M391.511 98.7175C391.597 100.096 392.287 101.388 393.493 102.163C394.614 102.852 395.475 102.335 395.475 101.043C395.389 99.665 394.7 98.3729 393.493 97.5976C392.373 96.9946 391.511 97.5115 391.511 98.7175ZM400.388 101.646C399.267 100.957 398.406 101.474 398.406 102.852C398.492 104.231 399.181 105.523 400.388 106.298C400.646 106.556 401.077 106.642 401.422 106.556C402.111 106.384 402.542 105.781 402.37 105.092C402.284 103.714 401.594 102.422 400.388 101.646ZM407.023 105.436C405.903 104.833 405.041 105.35 405.041 106.556C405.128 107.935 405.817 109.227 407.023 110.002C408.144 110.691 409.006 110.174 409.006 108.882C408.919 107.504 408.144 106.212 407.023 105.436Z" fill="#2259C2"/>
<path fill-rule="evenodd" clip-rule="evenodd" d="M268.448 137.223C287.838 148.68 377.551 200.106 397.458 211.735C400.043 213.199 399.871 215.267 398.32 216.128C387.375 222.417 357.557 239.645 346.44 246.105C343.682 247.742 340.321 247.656 337.65 246.019C317.139 233.959 231.047 184.687 209.933 172.196C207.52 170.732 206.658 168.837 208.64 167.631C221.395 160.05 253.022 141.788 262.157 136.361C263.105 135.758 266.121 135.586 268.448 137.223Z" fill="white" stroke="#B9C2D5" stroke-width="0.747967"/>
<path fill-rule="evenodd" clip-rule="evenodd" d="M314.812 217.679L321.017 221.297C321.534 221.641 321.534 222.072 321.103 222.33L314.64 226.034C314.123 226.293 313.433 226.207 312.916 225.948L306.711 222.417C306.194 222.072 306.194 221.641 306.625 221.383L313.089 217.679C313.606 217.42 314.209 217.42 314.812 217.679ZM322.741 223.192C323.258 222.933 323.947 223.02 324.464 223.278L330.669 226.81C331.186 227.154 331.186 227.585 330.755 227.843L324.292 231.547C323.775 231.806 323.085 231.72 322.568 231.461L316.363 227.93C315.846 227.585 315.846 227.154 316.277 226.896L322.741 223.192ZM332.306 228.791C332.824 228.533 333.513 228.533 334.03 228.877L340.235 232.409C340.752 232.753 340.752 233.184 340.321 233.443L333.858 237.147C333.341 237.405 332.651 237.319 332.134 237.061L325.929 233.529C325.412 233.184 325.412 232.753 325.843 232.495L332.306 228.791ZM341.958 234.304C342.476 234.046 343.165 234.046 343.682 234.39L349.973 238.008C350.49 238.353 350.49 238.783 350.059 239.042L343.51 242.832C342.993 243.09 342.303 243.09 341.786 242.746L335.495 239.128C334.978 238.783 334.978 238.353 335.409 238.094L341.958 234.304ZM223.118 165.133C223.721 164.874 224.324 164.874 224.841 165.219L231.822 169.612C232.339 169.956 232.339 170.387 231.908 170.646L225.445 174.35C224.928 174.608 224.238 174.522 223.721 174.264L216.741 169.87C216.224 169.526 216.224 169.095 216.654 168.837L223.118 165.133ZM233.545 171.507C234.149 171.249 234.752 171.249 235.269 171.593L241.474 175.125C241.991 175.47 241.991 175.9 241.56 176.159L235.097 179.863C234.58 180.121 233.89 180.035 233.373 179.777L227.168 176.245C226.651 175.9 226.651 175.469 227.082 175.211L233.545 171.507ZM243.111 177.02C243.715 176.848 244.318 176.848 244.835 177.106L251.04 180.638C251.557 180.983 251.557 181.413 251.126 181.672L244.663 185.376C244.145 185.634 243.456 185.634 242.939 185.29L236.734 181.758C236.217 181.413 236.217 180.983 236.648 180.724L243.111 177.02ZM252.85 182.619C253.453 182.361 254.056 182.447 254.573 182.705L260.778 186.237C261.295 186.582 261.295 187.012 260.864 187.271L254.401 190.975C253.884 191.233 253.194 191.233 252.677 190.889L246.472 187.357C245.955 187.012 245.955 186.582 246.386 186.323L252.85 182.619ZM262.502 188.477C263.019 188.218 263.708 188.218 264.225 188.563L310.417 215.439C310.934 215.784 310.934 216.214 310.503 216.473L304.04 220.177C303.523 220.435 302.833 220.349 302.316 220.091L256.124 193.215C255.607 192.87 255.607 192.439 256.038 192.181L262.502 188.477ZM232.511 159.447C233.115 159.189 233.718 159.189 234.235 159.533L243.198 165.219C243.715 165.563 243.715 165.994 243.284 166.252L236.82 169.956C236.303 170.215 235.614 170.129 235.097 169.87L226.134 164.185C225.617 163.84 225.617 163.41 226.048 163.151L232.511 159.447ZM244.835 167.028C245.438 166.769 246.041 166.855 246.559 167.114L252.763 170.646C253.28 170.99 253.28 171.421 252.85 171.679L246.386 175.383C245.869 175.642 245.18 175.556 244.663 175.297L238.458 171.765C237.941 171.421 237.941 170.99 238.372 170.732L244.835 167.028ZM254.573 172.627C255.176 172.368 255.78 172.368 256.297 172.713L262.502 176.245C263.019 176.589 263.019 177.02 262.588 177.278L256.124 180.983C255.607 181.241 254.918 181.155 254.401 180.896L248.196 177.365C247.679 177.02 247.679 176.589 248.11 176.331L254.573 172.627ZM264.139 178.14C264.742 177.881 265.345 177.968 265.863 178.226L272.067 181.758C272.585 182.102 272.585 182.533 272.154 182.792L265.69 186.496C265.173 186.754 264.484 186.668 263.967 186.409L257.762 182.878C257.245 182.533 257.245 182.102 257.676 181.844L264.139 178.14ZM273.877 183.739C274.48 183.481 275.084 183.481 275.601 183.825L281.806 187.357C282.323 187.702 282.323 188.132 281.892 188.391L275.428 192.095C274.911 192.353 274.222 192.267 273.705 192.009L267.5 188.477C266.983 188.132 266.983 187.702 267.414 187.443L273.877 183.739ZM283.529 189.252C284.132 188.994 284.736 189.08 285.253 189.338L291.458 192.87C291.975 193.215 291.975 193.645 291.544 193.904L285.08 197.608C284.563 197.866 283.874 197.78 283.357 197.522L277.152 193.99C276.635 193.645 276.635 193.215 277.066 192.956L283.529 189.252ZM293.095 194.851C293.698 194.593 294.302 194.593 294.819 194.937L301.024 198.469C301.541 198.814 301.541 199.245 301.11 199.503L294.646 203.207C294.129 203.465 293.44 203.379 292.923 203.121L286.718 199.589C286.201 199.244 286.201 198.814 286.632 198.555L293.095 194.851ZM302.833 200.364C303.437 200.106 304.04 200.192 304.557 200.45L310.762 203.982C311.279 204.327 311.279 204.758 310.848 205.016L304.385 208.72C303.867 208.978 303.178 208.892 302.661 208.634L296.456 205.102C295.939 204.758 295.939 204.327 296.37 204.068L302.833 200.364ZM312.399 205.964C313.002 205.705 313.606 205.705 314.123 206.05L320.328 209.581C320.845 209.926 320.845 210.357 320.414 210.615L313.95 214.319C313.433 214.578 312.744 214.492 312.227 214.233L306.022 210.701C305.505 210.357 305.505 209.926 305.936 209.668L312.399 205.964ZM322.137 211.477C322.741 211.218 323.344 211.304 323.861 211.563L330.066 215.094C330.583 215.439 330.583 215.87 330.152 216.128L323.689 219.832C323.172 220.091 322.482 220.005 321.965 219.746L315.76 216.214C315.243 215.87 315.243 215.439 315.674 215.181L322.137 211.477ZM331.789 217.076C332.393 216.817 333.082 216.817 333.513 217.162L339.718 220.694C340.235 221.038 340.235 221.469 339.804 221.727L333.341 225.431C332.824 225.69 332.134 225.604 331.617 225.345L325.412 221.814C324.895 221.469 324.895 221.038 325.326 220.78L331.789 217.076ZM341.355 222.589C341.959 222.33 342.562 222.417 343.079 222.675L358.936 232.064C359.453 232.409 359.453 232.84 359.022 233.098L352.559 236.802C352.041 237.061 351.352 236.974 350.835 236.716L334.978 227.327C334.461 226.982 334.461 226.551 334.892 226.293L341.355 222.589ZM269.224 160.136C269.827 159.878 270.344 159.878 270.861 160.222L276.549 163.496C276.98 163.754 277.066 164.185 276.635 164.443L270.689 167.889C270.172 168.061 269.568 168.061 269.051 167.803L263.363 164.53C262.932 164.271 262.846 163.84 263.277 163.582L269.224 160.136ZM260.175 154.968C260.778 154.709 261.295 154.796 261.812 155.054L267.5 158.327C267.931 158.586 268.017 159.017 267.586 159.275L261.64 162.721C261.123 162.893 260.519 162.893 260.002 162.634L254.315 159.361C253.884 159.103 253.798 158.672 254.228 158.414L260.175 154.968ZM251.212 149.283C251.815 149.11 252.332 149.11 252.85 149.369L258.537 152.642C258.968 152.9 259.054 153.331 258.624 153.59L252.677 157.035C252.16 157.208 251.557 157.208 251.04 156.949L245.352 153.676C244.921 153.417 244.835 152.987 245.266 152.728L251.212 149.283ZM278.186 165.219C278.703 164.96 279.22 165.046 279.824 165.305L285.511 168.578C285.942 168.837 286.028 169.267 285.598 169.526L279.651 172.971C279.134 173.23 278.531 173.144 278.014 172.885L272.326 169.612C271.895 169.353 271.809 168.923 272.24 168.664L278.186 165.219ZM286.976 170.387C287.493 170.129 288.097 170.129 288.614 170.473L294.302 173.747C294.732 174.005 294.819 174.436 294.388 174.694L288.441 178.14C287.924 178.312 287.321 178.312 286.804 178.054L281.116 174.78C280.685 174.522 280.599 174.091 281.03 173.833L286.976 170.387ZM295.939 175.469C296.456 175.211 297.059 175.297 297.576 175.556L303.264 178.829C303.695 179.087 303.781 179.518 303.35 179.777L297.404 183.222C296.887 183.394 296.284 183.395 295.767 183.136L290.079 179.863C289.648 179.604 289.562 179.174 289.993 178.915L295.939 175.469ZM304.729 180.552C305.246 180.38 305.85 180.38 306.367 180.638L312.054 183.911C312.485 184.17 312.572 184.6 312.141 184.859L306.194 188.305C305.677 188.477 305.074 188.477 304.557 188.218L298.869 184.945C298.438 184.687 298.352 184.256 298.783 183.997L304.729 180.552ZM313.692 185.72C314.209 185.462 314.812 185.462 315.329 185.806L321.017 189.08C321.448 189.338 321.534 189.769 321.103 190.027L315.157 193.473C314.64 193.645 314.037 193.645 313.519 193.387L307.832 190.114C307.401 189.855 307.315 189.424 307.745 189.166L313.692 185.72ZM322.654 190.803C323.172 190.63 323.689 190.63 324.292 190.889L329.98 194.162C330.411 194.421 330.497 194.851 330.066 195.11L324.119 198.555C323.602 198.728 322.999 198.728 322.482 198.469L316.794 195.196C316.363 194.937 316.277 194.507 316.708 194.248L322.654 190.803ZM331.445 195.971C331.962 195.713 332.565 195.713 333.082 196.057L338.77 199.331C339.201 199.589 339.287 200.02 338.856 200.278L332.91 203.724C332.393 203.896 331.789 203.896 331.272 203.638L325.585 200.364C325.154 200.106 325.067 199.675 325.498 199.417L331.445 195.971ZM340.407 201.053C340.924 200.795 341.528 200.881 342.045 201.14L347.732 204.413C348.163 204.671 348.25 205.102 347.819 205.361L341.872 208.806C341.355 208.978 340.752 208.978 340.235 208.72L334.547 205.447C334.116 205.188 334.03 204.758 334.461 204.499L340.407 201.053ZM349.284 206.136C349.801 205.964 350.404 205.964 350.921 206.222L356.609 209.495C357.04 209.754 357.126 210.184 356.695 210.443L350.749 213.889C350.232 214.061 349.628 214.061 349.111 213.802L343.424 210.529C342.993 210.271 342.906 209.84 343.337 209.581L349.284 206.136ZM358.074 211.304C358.591 211.046 359.194 211.046 359.711 211.39L365.399 214.664C365.83 214.922 365.916 215.353 365.485 215.611L359.539 219.057C359.022 219.229 358.419 219.229 357.902 218.971L352.214 215.697C351.783 215.439 351.697 215.008 352.128 214.75L358.074 211.304ZM367.037 216.387C367.64 216.214 368.157 216.214 368.674 216.473L377.637 221.641C378.067 221.9 378.154 222.33 377.723 222.589L371.776 226.034C371.259 226.207 370.656 226.207 370.139 225.948L361.176 220.78C360.745 220.521 360.659 220.091 361.09 219.832L367.037 216.387ZM281.892 158.414C282.409 158.241 282.926 158.241 283.357 158.5L288.528 161.428C288.958 161.687 288.959 162.031 288.614 162.29L283.271 165.391C282.754 165.563 282.237 165.563 281.806 165.305L276.635 162.376C276.204 162.118 276.204 161.773 276.549 161.515L281.892 158.414ZM274.136 153.934C274.653 153.676 275.17 153.676 275.601 154.02L280.772 156.949C281.202 157.208 281.202 157.638 280.858 157.811L275.515 160.912C274.998 161.084 274.48 161.084 274.05 160.825L268.879 157.897C268.448 157.638 268.448 157.208 268.793 157.035L274.136 153.934ZM259.227 144.717C259.744 144.545 260.261 144.545 260.692 144.803L273.102 152.384C273.532 152.642 273.532 153.073 273.188 153.245L267.845 156.346C267.328 156.518 266.811 156.518 266.38 156.26L253.97 148.68C253.539 148.421 253.539 147.99 253.884 147.818L259.227 144.717ZM289.993 162.979C290.51 162.807 291.027 162.807 291.458 163.065L296.628 165.994C297.059 166.252 297.059 166.683 296.715 166.855L291.372 169.956C290.854 170.129 290.337 170.129 289.906 169.87L284.736 166.942C284.305 166.683 284.305 166.252 284.65 166.08L289.993 162.979ZM298.007 167.631C298.524 167.458 299.041 167.458 299.472 167.717L304.643 170.646C305.074 170.904 305.074 171.249 304.729 171.507L299.386 174.608C298.869 174.78 298.352 174.78 297.921 174.522L292.75 171.593C292.319 171.335 292.319 170.99 292.664 170.732L298.007 167.631ZM305.936 172.196C306.453 172.024 306.97 172.024 307.315 172.282L312.485 175.211C312.916 175.469 312.916 175.814 312.572 176.072L307.228 179.174C306.711 179.346 306.194 179.346 305.763 179.087L300.679 176.159C300.248 175.9 300.248 175.556 300.593 175.297L305.936 172.196ZM314.037 176.848C314.467 176.589 314.985 176.675 315.502 176.934L320.672 179.863C321.103 180.121 321.103 180.552 320.759 180.724L315.415 183.825C314.898 183.997 314.381 183.997 313.95 183.739L308.78 180.81C308.349 180.552 308.349 180.121 308.693 179.949L314.037 176.848ZM321.965 181.413C322.396 181.241 322.913 181.241 323.344 181.499L328.515 184.428C328.946 184.687 328.945 185.117 328.601 185.29L323.258 188.391C322.741 188.563 322.224 188.563 321.793 188.305L316.708 185.376C316.277 185.117 316.277 184.687 316.622 184.514L321.965 181.413ZM330.066 186.065C330.497 185.806 331.014 185.893 331.531 186.151L336.702 189.08C337.133 189.338 337.132 189.683 336.788 189.941L331.445 193.042C330.928 193.215 330.411 193.215 329.98 192.956L324.809 190.027C324.378 189.769 324.378 189.424 324.723 189.166L330.066 186.065ZM337.908 190.63C338.425 190.458 338.942 190.458 339.373 190.717L344.544 193.645C344.975 193.904 344.975 194.334 344.63 194.507L339.287 197.608C338.77 197.78 338.253 197.78 337.822 197.522L332.651 194.593C332.22 194.334 332.22 193.99 332.565 193.731L337.908 190.63ZM346.009 195.282C346.526 195.024 347.043 195.11 347.474 195.368L352.645 198.297C353.076 198.555 353.076 198.986 352.731 199.158L347.388 202.259C346.871 202.432 346.354 202.432 345.923 202.173L340.752 199.244C340.321 198.986 340.321 198.555 340.666 198.383L346.009 195.282ZM354.024 199.847C354.541 199.675 355.058 199.675 355.489 199.934L360.659 202.862C361.09 203.121 361.09 203.465 360.745 203.724L355.402 206.825C354.885 206.997 354.368 206.997 353.937 206.739L348.767 203.81C348.336 203.552 348.336 203.207 348.68 202.949L354.024 199.847ZM361.952 204.499C362.469 204.241 362.986 204.327 363.417 204.585L368.588 207.514C369.019 207.772 369.019 208.117 368.674 208.375L363.331 211.477C362.814 211.649 362.297 211.649 361.866 211.39L356.695 208.462C356.264 208.203 356.264 207.859 356.609 207.6L361.952 204.499ZM370.053 209.065C370.57 208.892 371.087 208.892 371.518 209.151L376.689 212.08C377.119 212.338 377.119 212.769 376.775 212.941L371.432 216.042C370.915 216.214 370.398 216.214 369.967 215.956L364.796 213.027C364.365 212.769 364.365 212.338 364.71 212.166L370.053 209.065ZM378.412 214.233C378.929 214.061 379.446 214.061 379.963 214.319L385.048 217.248C385.479 217.506 385.479 217.937 385.134 218.109L379.791 221.211C379.274 221.383 378.757 221.383 378.326 221.124L373.155 218.196C372.724 217.937 372.724 217.506 373.069 217.334L378.412 214.233ZM241.991 154.193C242.594 153.934 243.198 154.02 243.715 154.279L257.072 162.462C257.503 162.721 257.589 163.151 257.159 163.41L250.867 167.028C250.264 167.286 249.661 167.2 249.144 166.942L235.786 158.758C235.355 158.5 235.269 158.069 235.7 157.811L241.991 154.193ZM258.624 164.271C259.227 164.099 259.83 164.099 260.347 164.357L266.38 167.803C266.811 168.061 266.897 168.492 266.466 168.75L260.175 172.368C259.572 172.627 258.968 172.541 258.451 172.282L252.419 168.837C251.988 168.578 251.902 168.147 252.332 167.889L258.624 164.271ZM268.103 169.784C268.706 169.526 269.31 169.526 269.913 169.87L275.946 173.316C276.376 173.574 276.463 174.005 276.032 174.264L269.654 177.881C269.051 178.14 268.448 178.054 267.931 177.795L261.898 174.35C261.467 174.091 261.381 173.661 261.812 173.402L268.103 169.784ZM277.583 175.211C278.1 174.953 278.789 174.953 279.306 175.297L285.339 178.743C285.77 179.001 285.856 179.432 285.425 179.69L279.134 183.308C278.531 183.567 277.928 183.481 277.411 183.222L271.378 179.777C270.947 179.518 270.861 179.087 271.292 178.829L277.583 175.211ZM287.063 180.638C287.58 180.38 288.183 180.466 288.786 180.724L294.819 184.17C295.25 184.428 295.336 184.859 294.905 185.117L288.614 188.735C288.011 188.994 287.407 188.908 286.89 188.649L280.858 185.203C280.427 184.945 280.341 184.514 280.772 184.256L287.063 180.638ZM296.542 186.065C297.059 185.806 297.663 185.893 298.266 186.151L304.298 189.597C304.729 189.855 304.815 190.286 304.385 190.544L298.093 194.162C297.49 194.421 296.887 194.334 296.37 194.076L290.337 190.63C289.906 190.372 289.82 189.941 290.251 189.683L296.542 186.065ZM305.936 191.492C306.539 191.319 307.142 191.319 307.659 191.578L313.692 195.024C314.123 195.282 314.209 195.713 313.778 195.971L307.487 199.589C306.884 199.847 306.28 199.761 305.763 199.503L299.731 196.057C299.3 195.799 299.214 195.368 299.645 195.11L305.936 191.492ZM315.415 197.005C316.019 196.746 316.622 196.746 317.139 197.091L323.172 200.537C323.602 200.795 323.689 201.226 323.258 201.484L316.967 205.102C316.363 205.361 315.76 205.274 315.243 205.016L309.211 201.57C308.78 201.312 308.693 200.881 309.124 200.623L315.415 197.005ZM324.895 202.432C325.412 202.173 326.102 202.173 326.619 202.518L332.651 205.964C333.082 206.222 333.168 206.653 332.737 206.911L326.446 210.529C325.843 210.787 325.24 210.701 324.723 210.443L318.69 206.997C318.259 206.739 318.173 206.308 318.604 206.05L324.895 202.432ZM334.375 207.859C334.892 207.6 335.495 207.686 336.098 207.945L342.131 211.39C342.562 211.649 342.648 212.08 342.217 212.338L335.926 215.956C335.323 216.214 334.719 216.128 334.202 215.87L328.17 212.424C327.739 212.166 327.653 211.735 328.084 211.477L334.375 207.859ZM343.854 213.286C344.458 213.027 345.061 213.113 345.578 213.372L351.611 216.817C352.041 217.076 352.128 217.506 351.697 217.765L345.406 221.383C344.802 221.641 344.199 221.555 343.682 221.297L337.65 217.851C337.219 217.593 337.133 217.162 337.563 216.903L343.854 213.286ZM353.334 218.712C353.937 218.54 354.541 218.54 355.058 218.799L368.243 226.81C368.674 227.068 368.76 227.499 368.329 227.757L362.038 231.375C361.435 231.634 360.832 231.547 360.315 231.289L347.129 223.278C346.698 223.02 346.612 222.589 347.043 222.33L353.334 218.712ZM288.786 155.485C289.303 155.312 289.82 155.312 290.251 155.571L295.422 158.5C295.853 158.758 295.853 159.189 295.508 159.361L292.061 161.17C291.544 161.342 291.027 161.342 290.596 161.084L285.425 158.155C284.994 157.897 284.994 157.552 285.339 157.294L288.786 155.485ZM296.887 160.136C297.318 159.878 297.835 159.964 298.352 160.222L303.523 163.151C303.954 163.41 303.954 163.754 303.609 164.013L300.162 165.822C299.645 165.994 299.128 165.994 298.697 165.736L293.526 162.807C293.095 162.548 293.095 162.118 293.44 161.945L296.887 160.136ZM273.274 146.526C273.791 146.268 274.308 146.354 274.739 146.612L279.91 149.541C280.341 149.799 280.341 150.144 279.996 150.402L276.549 152.211C276.032 152.384 275.515 152.384 275.084 152.125L269.913 149.196C269.482 148.938 269.482 148.507 269.827 148.335L273.274 146.526ZM264.828 141.185C265.259 141.013 265.776 141.013 266.293 141.271L272.24 145.062C272.671 145.32 272.671 145.665 272.326 145.923L268.879 147.732C268.362 147.904 267.845 147.904 267.414 147.646L261.467 143.856C261.037 143.597 261.037 143.253 261.381 142.994L264.828 141.185ZM281.375 151.092C281.892 150.919 282.409 150.919 282.84 151.178L288.011 154.106C288.441 154.365 288.441 154.709 288.097 154.968L284.65 156.777C284.132 156.949 283.615 156.949 283.185 156.691L278.014 153.762C277.583 153.503 277.583 153.159 277.928 152.9L281.375 151.092ZM306.194 164.788L311.365 167.717C311.796 167.975 311.796 168.32 311.451 168.578L308.004 170.387C307.487 170.559 306.97 170.559 306.539 170.301L301.454 167.372C301.024 167.114 301.024 166.683 301.368 166.511L304.815 164.702C305.332 164.53 305.936 164.53 306.194 164.788ZM312.83 169.353C313.261 169.095 313.778 169.095 314.295 169.44L319.466 172.368C319.897 172.627 319.897 173.058 319.552 173.23L316.105 175.039C315.588 175.211 315.071 175.211 314.64 174.953L309.469 172.024C309.038 171.765 309.038 171.421 309.383 171.162L312.83 169.353ZM320.931 173.919C321.362 173.747 321.879 173.747 322.31 174.005L327.48 176.934C327.911 177.192 327.911 177.537 327.567 177.795L324.119 179.604C323.602 179.777 323.085 179.777 322.654 179.518L317.57 176.589C317.139 176.331 317.139 175.9 317.484 175.728L320.931 173.919ZM330.411 178.657L335.581 181.586C336.012 181.844 336.012 182.189 335.667 182.447L332.22 184.256C331.703 184.428 331.186 184.428 330.755 184.17L325.585 181.241C325.154 180.983 325.154 180.552 325.498 180.38L328.946 178.571C329.29 178.312 329.893 178.312 330.411 178.657ZM336.874 183.136C337.391 182.964 337.908 182.964 338.339 183.222L343.51 186.151C343.941 186.409 343.941 186.84 343.596 187.012L340.149 188.821C339.632 188.994 339.115 188.994 338.684 188.735L333.513 185.806C333.082 185.548 333.082 185.203 333.427 184.945L336.874 183.136ZM344.802 187.788C345.319 187.529 345.837 187.529 346.267 187.874L351.438 190.803C351.869 191.061 351.869 191.492 351.524 191.664L348.077 193.473C347.56 193.645 347.043 193.645 346.612 193.387L341.441 190.458C341.011 190.2 341.011 189.855 341.355 189.597L344.802 187.788ZM352.903 192.353C353.42 192.181 353.937 192.181 354.368 192.439L359.539 195.368C359.97 195.627 359.97 195.971 359.625 196.23L356.178 198.039C355.661 198.211 355.144 198.211 354.713 197.952L349.542 195.024C349.111 194.765 349.111 194.334 349.456 194.162L352.903 192.353ZM360.918 197.005C361.349 196.746 361.952 196.746 362.469 197.091L367.554 200.02C367.985 200.278 367.985 200.623 367.64 200.881L364.193 202.69C363.676 202.862 363.159 202.862 362.728 202.604L357.557 199.675C357.126 199.417 357.126 199.072 357.471 198.814L360.918 197.005ZM368.846 201.57C369.277 201.398 369.88 201.398 370.311 201.656L375.482 204.585C375.913 204.844 375.913 205.274 375.568 205.447L372.121 207.256C371.604 207.428 371.087 207.428 370.656 207.169L365.485 204.241C365.054 203.982 365.054 203.638 365.399 203.379L368.846 201.57ZM376.947 206.136C377.378 205.964 377.895 205.964 378.412 206.222L383.583 209.151C384.014 209.409 384.014 209.754 383.669 210.012L380.222 211.821C379.705 211.993 379.188 211.993 378.757 211.735L373.586 208.806C373.155 208.548 373.155 208.117 373.5 207.945L376.947 206.136ZM384.703 210.701C385.134 210.443 385.651 210.529 386.168 210.787L391.253 213.716C391.684 213.975 391.684 214.405 391.339 214.578L387.892 216.387C387.375 216.559 386.858 216.559 386.427 216.3L381.342 213.372C380.911 213.113 380.911 212.769 381.256 212.51L384.703 210.701Z" fill="#D8DFEC"/>
<path fill-rule="evenodd" clip-rule="evenodd" d="M300.248 228.015L270.948 245.071C270.517 245.33 270.086 245.33 269.655 245.157L211.656 211.562C211.312 211.304 211.398 211.046 211.743 210.787L241.388 193.731C241.819 193.473 242.25 193.473 242.681 193.645L300.335 227.24C300.593 227.412 300.593 227.757 300.248 228.015Z" fill="white" stroke="#B9C2D5" stroke-width="0.747967"/>
<path d="M376.689 170.129L303.178 127.747C301.11 126.541 299.817 122.923 299.731 120.167V72.7891" stroke="url(#paint0_linear_3540_2098)" stroke-width="2.2439"/>
<path d="M300.507 118.358L328.946 107.59L346.182 123.871L376.862 114.826" stroke="url(#paint1_linear_3540_2098)" stroke-width="2.2439"/>
<path d="M369.278 112.069L377.034 115.601L373.673 123.009" stroke="url(#paint2_linear_3540_2098)" stroke-width="2.2439"/>
<path d="M228.116 65.7258C201.917 50.6511 180.89 38.5052 180.89 38.5052C175.977 35.6625 167.446 36.0071 161.844 39.2804C161.844 39.2804 157.88 41.3478 149.003 46.0856" stroke="url(#paint3_linear_3540_2098)" stroke-width="0.747967"/>
<path d="M221.049 65.295L228.633 65.9841L227.943 59.179" stroke="url(#paint4_linear_3540_2098)" stroke-width="0.747967"/>
<path fill-rule="evenodd" clip-rule="evenodd" d="M54.8959 0.689171L187.87 77.3549C189.163 78.2163 189.938 79.6807 190.024 81.2313V117.497C190.024 119.133 188.904 119.65 187.87 119.047L54.8959 42.3816C53.8618 41.7786 53.0862 40.6587 53 39.3666V1.46444C53 0.516888 53.8618 0.0861815 54.8959 0.689171Z" fill="white" stroke="#B9C2D5" stroke-width="0.747967"/>
<path d="M61.8762 14.3858L155.294 67.7073C155.897 68.0518 156.328 68.741 156.414 69.5162V91.9991C156.414 92.6021 155.897 92.8605 155.294 92.4298L61.8762 39.1945C61.2729 38.8499 60.842 38.1608 60.7559 37.3855V14.8165C60.7559 14.2135 61.2729 14.0413 61.8762 14.3858Z" stroke="#B9C2D5" stroke-width="0.747967"/>
<path fill-rule="evenodd" clip-rule="evenodd" d="M178.133 99.4935L175.633 95.1864C176.495 94.325 176.926 93.119 176.84 91.913C176.581 87.9505 174.427 84.3326 171.066 82.1791C167.877 80.3701 165.292 81.8345 165.292 85.4524C165.551 89.4149 167.705 93.0329 171.066 95.1864C172.1 95.8755 173.393 96.1339 174.599 95.7894L177.098 100.096C177.185 100.183 177.271 100.269 177.357 100.355C177.443 100.441 177.529 100.441 177.616 100.355L178.133 100.096C178.219 99.838 178.219 99.6657 178.133 99.4935ZM170.98 83.8157C173.479 85.4524 175.116 88.1228 175.289 91.1378C175.289 93.8081 173.393 94.928 170.98 93.5497C168.481 91.913 166.843 89.2426 166.671 86.2277C166.671 83.5573 168.653 82.4375 170.98 83.8157Z" fill="#B9C2D5"/>
<path fill-rule="evenodd" clip-rule="evenodd" d="M29.9042 17.9177L162.275 94.5835C163.309 95.1864 163.999 96.3063 164.171 97.5984V135.501C164.171 136.534 163.309 136.879 162.275 136.276L29.9042 59.6101C28.8701 59.0071 28.1807 57.8872 28.0083 56.5951V18.693C28.0083 17.7454 28.8701 17.3147 29.9042 17.9177Z" fill="white" stroke="#B9C2D5" stroke-width="0.747967"/>
<path d="M36.8845 31.6143L130.302 84.9358C130.906 85.2804 131.337 85.9695 131.423 86.7448V109.314C131.423 109.917 130.906 110.175 130.302 109.831L36.8845 56.3369C36.2812 55.9923 35.8503 55.3032 35.7642 54.5279V32.045C35.7642 31.4421 36.2812 31.2698 36.8845 31.6143Z" stroke="#B9C2D5" stroke-width="0.747967"/>
<path fill-rule="evenodd" clip-rule="evenodd" d="M153.141 116.722L150.642 112.415C151.504 111.553 151.934 110.348 151.848 109.142C151.59 105.179 149.435 101.561 146.074 99.4076C142.886 97.5986 140.3 99.063 140.3 102.681C140.559 106.643 142.713 110.261 146.074 112.415C147.108 113.104 148.401 113.362 149.608 113.018L152.107 117.325C152.193 117.411 152.279 117.497 152.365 117.583C152.452 117.67 152.538 117.67 152.624 117.583L153.141 117.325C153.227 117.153 153.227 116.894 153.141 116.722ZM145.988 101.044C148.487 102.595 150.125 105.351 150.297 108.366C150.297 111.037 148.401 112.156 145.988 110.778C143.489 109.228 141.852 106.471 141.679 103.456C141.679 100.786 143.661 99.666 145.988 101.044Z" fill="#B9C2D5"/>
<path fill-rule="evenodd" clip-rule="evenodd" d="M2.32709 34.4566L135.043 110.95C136.077 111.553 136.594 113.19 136.594 114.223V151.264C136.594 152.298 135.043 152.729 134.008 152.126L2.32709 75.9767C1.29294 75.3737 0.517331 74.2539 0.431152 72.9618V35.2319C0.431152 34.1982 1.29294 33.8536 2.32709 34.4566Z" fill="#E2E7F1" stroke="#B9C2D5" stroke-width="0.747967"/>
<path fill-rule="evenodd" clip-rule="evenodd" d="M9.30734 47.6365L102.639 100.7C103.242 101.044 103.673 101.733 103.759 102.508V125.336C103.759 125.939 103.242 126.197 102.639 125.853L9.30734 72.6175C8.70409 72.2729 8.27319 71.5838 8.18701 70.8085V48.0672C8.18701 47.4642 8.70409 47.2058 9.30734 47.6365Z" fill="white" stroke="#B9C2D5" stroke-width="0.747967"/>
<path fill-rule="evenodd" clip-rule="evenodd" d="M125.563 133.088L123.064 128.781C123.926 127.92 124.357 126.714 124.271 125.508C124.012 121.545 121.858 117.928 118.497 115.774C115.308 113.965 112.723 115.429 112.723 119.047C112.981 123.01 115.136 126.628 118.497 128.781C119.531 129.47 120.823 129.643 122.03 129.384L124.529 133.691C124.615 133.778 124.702 133.864 124.788 133.95C124.874 134.036 124.96 134.036 125.046 133.95L125.563 133.691C125.649 133.433 125.649 133.261 125.563 133.088ZM118.41 117.411C120.91 118.961 122.547 121.718 122.719 124.733C122.719 127.403 120.823 128.523 118.41 127.145C115.911 125.508 114.274 122.838 114.102 119.823C114.102 117.152 116.084 116.032 118.41 117.411Z" fill="url(#paint5_linear_3540_2098)"/>
<path fill-rule="evenodd" clip-rule="evenodd" d="M260.088 292.019C248.799 298.566 233.545 298.049 223.549 291.675C219.498 289.09 216.223 286.075 216.137 281.854C216.137 276.772 216.137 270.57 216.137 270.57L267.672 269.45C267.672 269.45 267.672 277.892 267.672 281.854C267.758 285.903 265.173 289.09 260.088 292.019Z" fill="#E2E7F1" stroke="#B9C2D5" stroke-width="0.747967"/>
<path fill-rule="evenodd" clip-rule="evenodd" d="M260.001 281.51C249.746 287.109 233.372 286.851 223.462 280.993C213.551 275.135 213.723 265.832 223.979 260.319C234.234 254.806 250.608 254.978 260.519 260.836C270.429 266.694 270.171 275.997 260.001 281.51Z" fill="#BEC6D8" stroke="#B9C2D5" stroke-width="0.747967"/>
<path fill-rule="evenodd" clip-rule="evenodd" d="M260.088 278.236C248.799 284.783 233.545 284.266 223.549 277.892C219.498 275.308 216.223 272.379 216.137 268.158C216.137 263.075 216.137 256.873 216.137 256.873L267.672 255.753C267.672 255.753 267.672 264.195 267.672 268.158C267.758 272.12 265.173 275.307 260.088 278.236Z" fill="#E2E7F1" stroke="#B9C2D5" stroke-width="0.747967"/>
<path fill-rule="evenodd" clip-rule="evenodd" d="M260.001 267.727C249.746 273.326 233.372 273.068 223.462 267.21C213.551 261.353 213.723 252.049 223.979 246.536C234.234 241.023 250.608 241.196 260.519 247.053C270.429 252.911 270.171 262.214 260.001 267.727Z" fill="#BEC6D8" stroke="#B9C2D5" stroke-width="0.747967"/>
<path fill-rule="evenodd" clip-rule="evenodd" d="M260.088 264.454C248.799 271.001 233.545 270.484 223.549 264.109C219.498 261.525 216.223 258.596 216.137 254.375C216.137 249.293 216.137 243.091 216.137 243.091L267.672 241.971C267.672 241.971 267.672 250.413 267.672 254.375C267.758 258.338 265.173 261.525 260.088 264.454Z" fill="#E2E7F1" stroke="#B9C2D5" stroke-width="0.747967"/>
<path fill-rule="evenodd" clip-rule="evenodd" d="M260.001 253.944C249.746 259.544 233.372 259.285 223.462 253.428C213.551 247.57 213.723 238.267 223.979 232.754C234.234 227.241 250.608 227.413 260.519 233.27C270.429 239.128 270.171 248.431 260.001 253.944Z" fill="white" stroke="#B9C2D5" stroke-width="0.747967"/>
<path fill-rule="evenodd" clip-rule="evenodd" d="M255.607 251.791C247.506 256.27 234.579 256.098 226.737 251.36C218.895 246.623 219.067 239.042 227.168 234.563C235.269 230.084 248.196 230.256 256.038 234.994C263.88 239.731 263.708 247.312 255.607 251.791Z" fill="white" stroke="url(#paint6_linear_3540_2098)" stroke-width="0.747967"/>
<path fill-rule="evenodd" clip-rule="evenodd" d="M231.735 241.024C231.304 241.54 231.132 242.23 231.304 242.919C231.563 243.608 232.08 244.211 232.769 244.555C233.459 244.986 234.148 245.244 234.924 245.331C235.613 245.417 236.389 245.503 237.165 245.331C237.94 245.244 238.63 245.072 239.319 244.9C240.008 244.728 240.784 244.469 241.387 244.211C241.991 243.952 242.766 243.78 243.369 243.608C243.973 243.435 244.49 243.349 245.093 243.349C245.61 243.349 246.127 243.522 246.558 243.78C247.075 243.952 247.42 244.555 247.334 245.072C247.075 245.675 246.558 246.192 245.869 246.45C244.145 247.312 242.335 247.743 240.439 247.743L241.387 249.293C242.163 249.293 242.852 249.207 243.628 249.035C244.404 248.862 245.093 248.69 245.869 248.432C246.558 248.173 247.247 247.915 247.851 247.57C248.712 247.14 249.402 246.537 250.005 245.761C250.436 245.244 250.608 244.555 250.436 243.866C250.178 243.177 249.66 242.574 248.971 242.23C248.282 241.799 247.592 241.54 246.817 241.368C246.041 241.282 245.351 241.196 244.576 241.282C243.8 241.368 243.111 241.54 242.335 241.713C241.646 241.885 240.87 242.143 240.267 242.316C239.664 242.488 238.888 242.746 238.285 242.919C237.768 243.091 237.164 243.177 236.561 243.177C236.044 243.177 235.613 243.091 235.182 242.832C234.665 242.66 234.321 242.057 234.407 241.54C234.751 240.851 235.269 240.334 235.958 240.076C236.82 239.645 237.682 239.301 238.543 239.042C239.577 238.784 240.612 238.612 241.732 238.612L240.784 237.061C239.578 237.061 238.371 237.319 237.251 237.578C236.044 237.922 234.924 238.353 233.89 238.956C233.114 239.645 232.338 240.248 231.735 241.024Z" fill="#001042"/>
<path d="M232.252 237.492L249.919 249.982" stroke="#001042" stroke-width="1.49593" stroke-miterlimit="10"/>
<path fill-rule="evenodd" clip-rule="evenodd" d="M295.853 312.262C285.339 318.206 269.137 318.292 259.054 311.918C254.918 309.333 251.47 306.146 251.384 301.925C251.384 296.843 251.384 290.727 251.384 290.727L303.953 289.865C303.953 289.865 303.953 297.963 303.953 301.925C303.953 305.974 301.023 309.333 295.853 312.262Z" fill="#E2E7F1" stroke="#B9C2D5" stroke-width="0.747967"/>
<path fill-rule="evenodd" clip-rule="evenodd" d="M296.025 302.873C285.597 308.73 268.965 308.472 258.882 302.27C248.799 296.068 249.058 286.247 259.485 280.304C269.913 274.36 286.545 274.705 296.628 280.907C306.711 287.109 306.453 296.929 296.025 302.873Z" fill="white" stroke="#B9C2D5" stroke-width="0.747967"/>
<path fill-rule="evenodd" clip-rule="evenodd" d="M292.234 299.858C284.133 304.337 271.292 304.165 263.45 299.427C255.608 294.689 255.78 287.109 263.881 282.63C271.982 278.15 284.822 278.322 292.665 283.06C300.507 287.798 300.334 295.292 292.234 299.858Z" fill="white" stroke="url(#paint7_linear_3540_2098)" stroke-width="0.747967"/>
<path fill-rule="evenodd" clip-rule="evenodd" d="M268.792 288.401C268.361 288.918 268.189 289.607 268.361 290.296C268.62 290.985 269.137 291.588 269.827 291.933C270.516 292.364 271.205 292.622 271.981 292.708C272.67 292.794 273.446 292.88 274.222 292.708C274.997 292.622 275.687 292.45 276.376 292.277C277.066 292.105 277.841 291.847 278.444 291.588C279.048 291.33 279.823 291.158 280.427 290.985C281.03 290.813 281.547 290.727 282.15 290.727C282.667 290.727 283.184 290.899 283.615 291.158C284.132 291.33 284.477 291.933 284.391 292.45C284.132 293.053 283.615 293.57 282.926 293.828C281.202 294.689 279.392 295.12 277.496 295.12L278.444 296.671C279.22 296.671 279.909 296.585 280.685 296.412C281.461 296.24 282.15 296.068 282.926 295.809C283.615 295.551 284.305 295.292 284.908 294.948C285.77 294.517 286.459 293.914 287.062 293.139C287.493 292.622 287.666 291.933 287.493 291.244C287.235 290.555 286.718 289.952 286.028 289.607C285.339 289.176 284.649 288.918 283.874 288.746C283.098 288.66 282.409 288.573 281.633 288.66C280.857 288.746 280.168 288.918 279.392 289.09C278.703 289.263 277.927 289.521 277.324 289.693C276.721 289.865 275.945 290.124 275.342 290.296C274.825 290.468 274.222 290.555 273.618 290.555C273.101 290.555 272.67 290.468 272.24 290.21C271.722 290.038 271.378 289.435 271.464 288.918C271.809 288.229 272.326 287.712 273.015 287.454C273.877 287.023 274.739 286.678 275.6 286.42C276.635 286.161 277.669 285.989 278.789 285.989L277.841 284.439C276.635 284.439 275.428 284.697 274.308 284.955C273.101 285.3 271.981 285.731 270.947 286.334C270.171 287.023 269.396 287.626 268.792 288.401Z" fill="#001042"/>
<path d="M269.311 284.869L286.977 297.36" stroke="#001042" stroke-width="1.49593" stroke-miterlimit="10"/>
<path fill-rule="evenodd" clip-rule="evenodd" d="M147.538 284.18C145.47 285.645 143.229 286.937 140.989 288.143L100.14 259.716C98.6747 263.851 96.2617 267.555 93.0731 270.57C88.7642 274.446 81.956 278.409 76.4406 281.338C54.2926 253.342 17.9252 212.683 13.7886 169.009C17.9252 166.942 22.0617 165.133 24.8195 163.496C33.0926 158.586 44.5544 159.189 57.2227 166.425C82.1284 180.638 102.294 215.181 102.553 243.694L141.247 265.746C146.073 268.503 149.951 274.619 149.951 279.443C150.037 281.424 149.089 283.147 147.538 284.18Z" fill="url(#paint8_linear_3540_2098)"/>
<path fill-rule="evenodd" clip-rule="evenodd" d="M132.974 288.229L90.3154 264.023C85.0585 283.405 67.2195 289.694 46.0195 277.548C20.5967 263.076 0 227.758 0 198.814C0 169.871 20.5967 158.07 45.9333 172.627C70.1496 186.496 90.0569 219.316 91.6943 247.484L132.974 270.915C137.8 273.671 141.678 279.787 141.678 284.611C141.678 289.435 137.8 290.986 132.974 288.229Z" fill="url(#paint9_linear_3540_2098)"/>
<path fill-rule="evenodd" clip-rule="evenodd" d="M45.9329 183.05C66.1849 194.593 82.6451 222.848 82.6451 246.02C82.6451 269.192 66.1849 278.581 45.9329 267.038C25.6809 255.495 9.2207 227.241 9.2207 204.069C9.2207 180.897 25.6809 171.507 45.9329 183.05Z" fill="url(#paint10_linear_3540_2098)"/>
<path d="M53.776 215.956C53.5175 215.698 53.0004 215.698 52.7419 215.87L37.4882 226.638C36.2817 227.069 35.5923 228.189 35.5923 229.825C35.7646 232.496 37.1435 234.908 39.4703 236.372C40.1598 236.717 40.8492 236.975 41.4524 236.975C42.3142 236.975 43.0037 236.63 43.5207 235.941C43.6069 235.855 43.6069 235.855 43.6931 235.769L43.7793 235.597L43.0898 235.252L43.7793 235.597C43.8655 235.511 43.8655 235.424 43.8655 235.424L54.0346 216.99C54.2069 216.646 54.1207 216.215 53.776 215.956Z" fill="white"/>
<path d="M45.8476 191.406C38.2638 187.185 30.9386 186.668 25.337 190.028C19.6492 193.387 16.2882 200.192 16.202 208.72C16.0297 208.979 16.0297 209.41 16.202 209.668C16.4606 210.013 16.9776 210.357 17.7532 210.099C18.098 210.013 18.3565 209.668 18.3565 209.323C18.3565 202.949 20.8557 198.039 25.4232 195.455C30.5077 192.612 37.402 193.043 43.176 196.574C57.2232 205.189 67.737 223.192 67.737 238.439C67.737 238.611 67.737 238.698 67.8232 238.87C67.9093 238.956 67.9955 239.128 68.0817 239.214C68.3402 239.387 74.4589 243.435 75.3207 243.952C75.4931 244.038 75.5793 244.038 75.7516 244.038C75.924 244.038 76.0102 244.038 76.1825 243.952C76.4411 243.78 76.6134 243.521 76.6134 243.177C76.7858 224.743 62.3939 200.623 45.8476 191.406Z" fill="white"/>
<path fill-rule="evenodd" clip-rule="evenodd" d="M69.0288 237.75C69.0288 234.821 68.5979 231.892 67.8223 229.05C69.1149 228.619 70.7524 228.188 72.3036 227.758C74.0271 232.151 74.8889 236.889 74.9751 241.626C74.1995 241.196 69.0288 237.75 69.0288 237.75Z" fill="url(#paint11_linear_3540_2098)"/>
<path d="M48.0889 144.804C56.5344 138.257 69.1165 138.257 83.1637 146.441C108.586 161.257 129.269 197.35 129.269 226.983" stroke="url(#paint12_linear_3540_2098)" stroke-width="0.747967"/>
<path d="M126.426 223.365L128.753 227.414L131.252 226.035" stroke="url(#paint13_linear_3540_2098)" stroke-width="0.747967"/>
</g>
<defs>
<linearGradient id="paint0_linear_3540_2098" x1="299.731" y1="79.9115" x2="381.541" y2="86.0868" gradientUnits="userSpaceOnUse">
<stop stop-color="#0082F8"/>
<stop offset="1" stop-color="#00C0FD"/>
</linearGradient>
<linearGradient id="paint1_linear_3540_2098" x1="300.507" y1="108.782" x2="368.505" y2="139.229" gradientUnits="userSpaceOnUse">
<stop stop-color="#0082F8"/>
<stop offset="1" stop-color="#00C0FD"/>
</linearGradient>
<linearGradient id="paint2_linear_3540_2098" x1="369.278" y1="112.87" x2="377.533" y2="113.429" gradientUnits="userSpaceOnUse">
<stop stop-color="#0082F8"/>
<stop offset="1" stop-color="#00C0FD"/>
</linearGradient>
<linearGradient id="paint3_linear_3540_2098" x1="148.605" y1="51.1547" x2="227.418" y2="51.1547" gradientUnits="userSpaceOnUse">
<stop stop-color="#1C40F2"/>
<stop offset="0.9833" stop-color="#03F8FB"/>
</linearGradient>
<linearGradient id="paint4_linear_3540_2098" x1="221.011" y1="62.582" x2="228.566" y2="62.582" gradientUnits="userSpaceOnUse">
<stop stop-color="#1C40F2"/>
<stop offset="0.9833" stop-color="#03F8FB"/>
</linearGradient>
<linearGradient id="paint5_linear_3540_2098" x1="125.628" y1="129.986" x2="111.443" y2="128.409" gradientUnits="userSpaceOnUse">
<stop stop-color="#001DAC"/>
<stop offset="1" stop-color="#000F57"/>
</linearGradient>
<linearGradient id="paint6_linear_3540_2098" x1="220.766" y1="243.178" x2="261.443" y2="243.178" gradientUnits="userSpaceOnUse">
<stop stop-color="#1C40F2"/>
<stop offset="0.9833" stop-color="#03F8FB"/>
</linearGradient>
<linearGradient id="paint7_linear_3540_2098" x1="257.479" y1="291.245" x2="298.071" y2="291.245" gradientUnits="userSpaceOnUse">
<stop stop-color="#1C40F2"/>
<stop offset="0.9833" stop-color="#03F8FB"/>
</linearGradient>
<linearGradient id="paint8_linear_3540_2098" x1="149.957" y1="261.062" x2="2.91251" y2="235.41" gradientUnits="userSpaceOnUse">
<stop stop-color="#001DAC"/>
<stop offset="1" stop-color="#000F57"/>
</linearGradient>
<linearGradient id="paint9_linear_3540_2098" x1="-9.89036e-07" y1="175.402" x2="149.589" y2="191.818" gradientUnits="userSpaceOnUse">
<stop stop-color="#18029D"/>
<stop offset="1" stop-color="#1C40F2"/>
</linearGradient>
<linearGradient id="paint10_linear_3540_2098" x1="9.2207" y1="184.982" x2="87.2839" y2="190.813" gradientUnits="userSpaceOnUse">
<stop stop-color="#0082F8"/>
<stop offset="1" stop-color="#1C40F2"/>
</linearGradient>
<linearGradient id="paint11_linear_3540_2098" x1="67.7862" y1="234.693" x2="74.912" y2="234.693" gradientUnits="userSpaceOnUse">
<stop stop-color="#1C40F2"/>
<stop offset="0.9833" stop-color="#03F8FB"/>
</linearGradient>
<linearGradient id="paint12_linear_3540_2098" x1="47.68" y1="183.537" x2="128.554" y2="183.537" gradientUnits="userSpaceOnUse">
<stop stop-color="#1C40F2"/>
<stop offset="0.9833" stop-color="#03F8FB"/>
</linearGradient>
<linearGradient id="paint13_linear_3540_2098" x1="126.401" y1="225.39" x2="131.209" y2="225.39" gradientUnits="userSpaceOnUse">
<stop stop-color="#1C40F2"/>
<stop offset="0.9833" stop-color="#03F8FB"/>
</linearGradient>
<clipPath id="clip0_3540_2098">
<rect width="424" height="317" fill="white"/>
</clipPath>
</defs>
</svg>
