<svg width="100" height="75" viewBox="0 0 100 75" fill="none" xmlns="http://www.w3.org/2000/svg">
<g clip-path="url(#clip0_4422_722)">
<path d="M0.25 39.288L0.85 47.2464C0.85 47.4982 0.9 47.7501 0.95 48.0019C7.15 85.8797 95.4 84.6205 100 39.8421C100.05 39.3888 100.05 38.9354 100 38.4821L99.4 30.3223L0.25 39.288Z" fill="#009950"/>
<path d="M99.2998 32.8409C97.2998 52.9383 69.7998 68.9557 39.1998 66.135C9.74983 63.4655 -5.95017 44.5769 2.09983 26.1921C9.29983 9.87244 33.3998 -1.10809 57.2498 0.100779C81.8498 1.30964 101.05 15.1612 99.2998 32.8409Z" fill="#00BF6C"/>
<path d="M54.1253 3.67207C30.7753 2.71505 9.17528 13.6452 5.32528 28.9071C1.17528 45.2772 18.3753 60.7909 44.6253 62.6042C71.5253 64.4175 94.8753 50.9689 95.9253 33.7426C96.9753 17.6748 77.9753 4.62909 54.1253 3.67207ZM53.4753 7.95346C62.7253 8.35642 71.4753 10.9253 77.8253 15.2067L77.2253 15.1563C73.2753 14.9548 69.8253 16.8185 69.5253 19.2866C69.2253 21.7547 80.5753 25.885 72.7753 37.3188L66.6253 46.5868L56.2253 20.5458L61.6253 20.7977L61.9253 18.531L39.1753 17.4733L38.7253 19.7399L43.8253 19.9917L47.8753 30.8212L37.6253 44.8238L29.0753 19.2362L33.8753 19.488L34.3253 17.2214L21.5753 16.617C29.5753 10.7238 41.4253 7.44977 53.4753 7.95346V7.95346ZM12.4253 29.3604C13.3253 25.9353 15.0253 22.8124 17.4753 20.2436L27.4753 52.8829C15.9253 47.4934 10.2253 38.3766 12.4253 29.3604ZM45.4753 57.1643C41.4253 56.9125 37.3753 56.2073 33.4753 55.0992L49.2253 34.4981L57.4753 56.7614C53.5253 57.3154 49.4753 57.4666 45.4753 57.1643V57.1643ZM64.7753 55.1999L81.1753 30.9219C81.7253 30.2167 82.2253 29.4612 82.6753 28.6553L83.3253 27.6479L83.1753 27.6479C84.1753 25.6331 84.5753 23.3161 84.2253 21.0495C93.8753 33.3396 85.8753 48.7527 65.7253 54.8977L64.7753 55.1999Z" fill="white"/>
</g>
<defs>
<clipPath id="clip0_4422_722">
<rect width="100" height="75" fill="white"/>
</clipPath>
</defs>
</svg>
